<svg width="80" height="80" viewBox="0 0 80 80" fill="none" xmlns="http://www.w3.org/2000/svg">
<g filter="url(#filter0_d_108_1133)">
<circle cx="40" cy="40" r="28" fill="white"/>
</g>
<path d="M40.0149 35.979C41.2903 35.979 42.3274 37.0162 42.3274 38.2915V41.7534C42.3274 43.0288 41.2903 44.0659 40.0149 44.0659C38.7395 44.0659 37.7023 43.0288 37.7023 41.7534" stroke="#4AB7C3" stroke-width="1.5" stroke-linecap="round"/>
<path d="M46.9951 42.0756C46.7148 45.6916 43.6875 48.5227 40.0154 48.5227C36.1472 48.5227 33.0077 45.3832 33.0077 41.515V38.5157C33.0077 34.6474 36.1472 31.508 40.0154 31.508C43.6454 31.508 46.6307 34.269 46.9811 37.8009" stroke="#4AB7C3" stroke-width="1.5" stroke-linecap="round"/>
<path d="M44.2201 26H47.0232C51.2278 26 54.0309 28.8031 54.0309 33.0077V35.8108" stroke="#4AB7C3" stroke-width="1.5" stroke-miterlimit="10" stroke-linecap="round" stroke-linejoin="round"/>
<path d="M26 35.8108V33.0077C26 28.8031 28.8031 26 33.0077 26H35.8108" stroke="#4AB7C3" stroke-width="1.5" stroke-miterlimit="10" stroke-linecap="round" stroke-linejoin="round"/>
<path d="M44.2201 54.0309H47.0232C51.2278 54.0309 54.0309 51.2278 54.0309 47.0232V44.2201" stroke="#4AB7C3" stroke-width="1.5" stroke-miterlimit="10" stroke-linecap="round" stroke-linejoin="round"/>
<path d="M26 44.2201V47.0232C26 51.2278 28.8031 54.0309 33.0077 54.0309H35.8108" stroke="#4AB7C3" stroke-width="1.5" stroke-miterlimit="10" stroke-linecap="round" stroke-linejoin="round"/>
<defs>
<filter id="filter0_d_108_1133" x="0" y="0" width="80" height="80" filterUnits="userSpaceOnUse" color-interpolation-filters="sRGB">
<feFlood flood-opacity="0" result="BackgroundImageFix"/>
<feColorMatrix in="SourceAlpha" type="matrix" values="0 0 0 0 0 0 0 0 0 0 0 0 0 0 0 0 0 0 127 0" result="hardAlpha"/>
<feOffset/>
<feGaussianBlur stdDeviation="6"/>
<feComposite in2="hardAlpha" operator="out"/>
<feColorMatrix type="matrix" values="0 0 0 0 0 0 0 0 0 0 0 0 0 0 0 0 0 0 0.08 0"/>
<feBlend mode="normal" in2="BackgroundImageFix" result="effect1_dropShadow_108_1133"/>
<feBlend mode="normal" in="SourceGraphic" in2="effect1_dropShadow_108_1133" result="shape"/>
</filter>
</defs>
</svg>
