<svg width="80" height="80" viewBox="0 0 80 80" fill="none" xmlns="http://www.w3.org/2000/svg">
<g filter="url(#filter0_d_108_1171)">
<circle cx="40" cy="40" r="28" fill="white"/>
</g>
<path d="M44.2201 26H47.0232C51.2278 26 54.0309 28.8031 54.0309 33.0077V35.8108" stroke="#4AB7C3" stroke-width="1.5" stroke-miterlimit="10" stroke-linecap="round" stroke-linejoin="round"/>
<path d="M26 35.8108V33.0077C26 28.8031 28.8031 26 33.0077 26H35.8108" stroke="#4AB7C3" stroke-width="1.5" stroke-miterlimit="10" stroke-linecap="round" stroke-linejoin="round"/>
<path d="M44.2201 54.0309H47.0232C51.2278 54.0309 54.0309 51.2278 54.0309 47.0232V44.2201" stroke="#4AB7C3" stroke-width="1.5" stroke-miterlimit="10" stroke-linecap="round" stroke-linejoin="round"/>
<path d="M26 44.2201V47.0232C26 51.2278 28.8031 54.0309 33.0077 54.0309H35.8108" stroke="#4AB7C3" stroke-width="1.5" stroke-miterlimit="10" stroke-linecap="round" stroke-linejoin="round"/>
<path d="M40.1989 40.3807C42.5132 40.3807 44.3893 38.5046 44.3893 36.1904C44.3893 33.8761 42.5132 32 40.1989 32C37.8846 32 36.0085 33.8761 36.0085 36.1904C36.0085 38.5046 37.8846 40.3807 40.1989 40.3807Z" stroke="#4AB7C3" stroke-width="1.5" stroke-linecap="round" stroke-linejoin="round"/>
<path d="M47.398 48.7615C47.398 45.5181 44.1716 42.895 40.1991 42.895C36.2266 42.895 33 45.5181 33 48.7615" stroke="#4AB7C3" stroke-width="1.5" stroke-linecap="round" stroke-linejoin="round"/>
<defs>
<filter id="filter0_d_108_1171" x="0" y="0" width="80" height="80" filterUnits="userSpaceOnUse" color-interpolation-filters="sRGB">
<feFlood flood-opacity="0" result="BackgroundImageFix"/>
<feColorMatrix in="SourceAlpha" type="matrix" values="0 0 0 0 0 0 0 0 0 0 0 0 0 0 0 0 0 0 127 0" result="hardAlpha"/>
<feOffset/>
<feGaussianBlur stdDeviation="6"/>
<feComposite in2="hardAlpha" operator="out"/>
<feColorMatrix type="matrix" values="0 0 0 0 0 0 0 0 0 0 0 0 0 0 0 0 0 0 0.08 0"/>
<feBlend mode="normal" in2="BackgroundImageFix" result="effect1_dropShadow_108_1171"/>
<feBlend mode="normal" in="SourceGraphic" in2="effect1_dropShadow_108_1171" result="shape"/>
</filter>
</defs>
</svg>
