<svg width="22" height="29" viewBox="0 0 22 29" fill="none" xmlns="http://www.w3.org/2000/svg">
<path d="M21.2403 11.9582V24.2763C21.2403 25.0815 20.9204 25.8538 20.3511 26.4231C19.7817 26.9925 19.0095 27.3124 18.2042 27.3124H4.03604C3.23083 27.3124 2.45861 26.9925 1.88924 26.4231C1.31987 25.8538 1 25.0815 1 24.2763V4.03604C1 3.23083 1.31987 2.45861 1.88924 1.88924C2.45861 1.31987 3.23083 1 4.03604 1H10.2821C10.8187 1.00008 11.3333 1.21326 11.7128 1.59266L20.6476 10.5275C21.027 10.907 21.2402 11.4216 21.2403 11.9582Z" stroke="#A9A9A9" stroke-width="1.5" stroke-linejoin="round"/>
<path d="M11.1206 1.50601V9.09612C11.1206 9.63293 11.3339 10.1477 11.7134 10.5273C12.093 10.9069 12.6078 11.1201 13.1446 11.1201H20.7347" stroke="#A9A9A9" stroke-width="1.5" stroke-linecap="round" stroke-linejoin="round"/>
<path d="M6.06006 16.1802H16.1802" stroke="#A9A9A9" stroke-width="1.5" stroke-linecap="round" stroke-linejoin="round"/>
<path d="M6.06006 21.2403H16.1802" stroke="#A9A9A9" stroke-width="1.5" stroke-linecap="round" stroke-linejoin="round"/>
</svg>
