<svg width="270" height="270" viewBox="0 0 270 270" fill="none" xmlns="http://www.w3.org/2000/svg">
<g filter="url(#filter0_d_152_1188)">
<circle cx="135" cy="131" r="65" fill="white"/>
<circle cx="135" cy="131" r="63.5" stroke="#4AB7C3" stroke-width="3"/>
</g>
<path d="M134.499 60.1027C135.006 60.1027 135.492 59.8594 135.851 59.4259C136.209 58.9924 136.41 58.4042 136.41 57.7918V39.3093C136.41 38.033 135.555 37 134.499 37C133.444 37 132.588 38.033 132.588 39.3093V57.7918C132.588 58.4042 132.79 58.9924 133.148 59.4259C133.507 59.8594 133.993 60.1027 134.499 60.1027H134.499Z" fill="#A9A9A9"/>
<path d="M204.897 130.5C204.897 131.007 205.141 131.493 205.574 131.851C206.008 132.21 206.596 132.411 207.208 132.411H225.691C226.967 132.411 228 131.556 228 130.5C228 129.445 226.967 128.589 225.691 128.589H207.208C206.596 128.589 206.007 128.79 205.574 129.149C205.141 129.507 204.897 129.994 204.897 130.5V130.5Z" fill="#A9A9A9"/>
<path d="M134.5 200.898C133.993 200.898 133.507 201.141 133.149 201.575C132.79 202.008 132.589 202.596 132.589 203.209V221.691C132.589 222.967 133.444 224 134.5 224C135.555 224 136.411 222.967 136.411 221.691V203.209C136.411 202.596 136.21 202.008 135.851 201.575C135.493 201.141 135.006 200.898 134.5 200.898H134.5Z" fill="#A9A9A9"/>
<path d="M61.7918 128.59H43.3093C42.033 128.59 41 129.445 41 130.501C41 131.556 42.033 132.412 43.3093 132.412H61.7918C63.0681 132.412 64.1027 131.556 64.1027 130.501C64.1027 129.445 63.0681 128.59 61.7918 128.59Z" fill="#A9A9A9"/>
<path d="M89.2049 49.0522C88.5643 49.0522 87.9523 49.3061 87.5001 49.7567C87.0479 50.209 86.794 50.8226 86.794 51.4615V51.68C86.794 53.0116 87.8734 54.091 89.205 54.091C90.5348 54.091 91.6142 53.0116 91.6142 51.68V51.4615C91.6142 50.8226 91.3604 50.2089 90.9081 49.7567C90.4558 49.3061 89.8438 49.0522 89.205 49.0522H89.2049Z" fill="#A9A9A9"/>
<path d="M180.795 207.909C180.156 207.909 179.544 208.163 179.092 208.615C178.639 209.067 178.385 209.679 178.385 210.32V210.539C178.385 211.87 179.465 212.948 180.795 212.948C182.126 212.948 183.206 211.87 183.206 210.539V210.32C183.206 209.679 182.952 209.067 182.5 208.615C182.047 208.163 181.435 207.909 180.795 207.909H180.795Z" fill="#A9A9A9"/>
<path d="M55.6803 174.385H55.4618C54.1302 174.385 53.0525 175.464 53.0525 176.794C53.0525 178.126 54.1302 179.205 55.4618 179.205H55.6803C57.0119 179.205 58.0913 178.126 58.0913 176.794C58.0913 175.464 57.0119 174.385 55.6803 174.385Z" fill="#A9A9A9"/>
<path d="M214.319 87.6156H214.537C215.869 87.6156 216.947 86.5362 216.947 85.2063C216.947 83.8747 215.869 82.7953 214.537 82.7953H214.319C212.987 82.7953 211.908 83.8747 211.908 85.2063C211.908 86.5362 212.987 87.6156 214.319 87.6156Z" fill="#A9A9A9"/>
<path d="M55.4612 87.6156H55.6797C57.0113 87.6156 58.0907 86.5362 58.0907 85.2063C58.0907 83.8747 57.0113 82.7953 55.6797 82.7953H55.4612C54.1296 82.7953 53.0519 83.8747 53.0519 85.2063C53.0519 86.5362 54.1296 87.6156 55.4612 87.6156Z" fill="#A9A9A9"/>
<path d="M214.538 174.385H214.32C212.988 174.385 211.909 175.464 211.909 176.794C211.909 178.126 212.988 179.205 214.32 179.205H214.538C215.87 179.205 216.947 178.126 216.947 176.794C216.947 175.464 215.87 174.385 214.538 174.385Z" fill="#A9A9A9"/>
<path d="M89.2049 207.909C88.5643 207.909 87.9523 208.163 87.5001 208.615C87.0479 209.067 86.794 209.679 86.794 210.32V210.539C86.794 211.87 87.8734 212.948 89.205 212.948C90.5348 212.948 91.6142 211.87 91.6142 210.539V210.32C91.6142 209.679 91.3604 209.067 90.9081 208.615C90.4558 208.163 89.8438 207.909 89.205 207.909H89.2049Z" fill="#A9A9A9"/>
<path d="M180.795 54.0915C181.435 54.0915 182.047 53.8376 182.5 53.3854C182.952 52.9331 183.206 52.3211 183.206 51.6806V51.462C183.206 50.1304 182.126 49.0527 180.795 49.0527C179.465 49.0527 178.385 50.1304 178.385 51.462V51.6806C178.385 52.3211 178.639 52.9331 179.092 53.3854C179.544 53.8376 180.156 54.0915 180.795 54.0915H180.795Z" fill="#A9A9A9"/>
<defs>
<filter id="filter0_d_152_1188" x="0" y="0" width="270" height="270" filterUnits="userSpaceOnUse" color-interpolation-filters="sRGB">
<feFlood flood-opacity="0" result="BackgroundImageFix"/>
<feColorMatrix in="SourceAlpha" type="matrix" values="0 0 0 0 0 0 0 0 0 0 0 0 0 0 0 0 0 0 127 0" result="hardAlpha"/>
<feOffset dy="4"/>
<feGaussianBlur stdDeviation="35"/>
<feComposite in2="hardAlpha" operator="out"/>
<feColorMatrix type="matrix" values="0 0 0 0 0 0 0 0 0 0 0 0 0 0 0 0 0 0 0.1 0"/>
<feBlend mode="normal" in2="BackgroundImageFix" result="effect1_dropShadow_152_1188"/>
<feBlend mode="normal" in="SourceGraphic" in2="effect1_dropShadow_152_1188" result="shape"/>
</filter>
</defs>
</svg>
