<svg width="179" height="217" viewBox="0 0 179 217" fill="none" xmlns="http://www.w3.org/2000/svg">
<path d="M8.80467 34.5897C8.48953 34.5894 8.18738 34.4642 7.96466 34.2415L0.347692 26.6324C0.125057 26.4098 0 26.108 0 25.7934C0 25.4787 0.125057 25.177 0.347692 24.9544L7.96466 17.3453C8.18733 17.123 8.48926 16.9981 8.80409 16.9981C9.11891 16.9981 9.42085 17.123 9.64351 17.3453L17.2628 24.9544C17.4854 25.177 17.6105 25.4787 17.6105 25.7934C17.6105 26.108 17.4854 26.4098 17.2628 26.6324L9.64351 34.2415C9.53352 34.3518 9.4028 34.4394 9.25885 34.4991C9.1149 34.5589 8.96055 34.5896 8.80467 34.5897ZM2.86538 25.7945L8.80467 31.7268L14.7463 25.7945L8.80583 19.8623L2.86538 25.7945Z" fill="#4AB7C3"/>
<path d="M150.304 198.092C150.333 197.779 150.485 197.49 150.727 197.289L160.39 189.273C160.55 189.141 160.743 189.052 160.948 189.017C161.154 188.982 161.365 189.001 161.56 189.073C161.755 189.146 161.928 189.268 162.062 189.428C162.195 189.588 162.283 189.78 162.319 189.985L164.438 202.351C164.473 202.556 164.453 202.767 164.381 202.962C164.308 203.157 164.186 203.33 164.025 203.463C163.865 203.596 163.672 203.685 163.467 203.72C163.261 203.755 163.05 203.735 162.854 203.663L151.075 199.313C150.879 199.241 150.706 199.119 150.573 198.959C150.44 198.799 150.351 198.607 150.316 198.402C150.299 198.299 150.295 198.195 150.304 198.092ZM160.326 192.406L153.827 197.797L161.751 200.724L160.326 192.406Z" fill="#4AB7C3"/>
<path fill-rule="evenodd" clip-rule="evenodd" d="M166.474 20.0839C166.474 20.0839 105.447 -17.5253 47.2394 10.1875C-10.9684 37.9004 -16.9483 131.207 68.4231 180.907C153.795 230.607 163.186 133.548 159.431 98.1491C155.676 62.7505 198.864 44.934 166.474 20.0839Z" fill="#F4F4F4"/>
<path d="M159.649 102.415C158.224 102.415 156.832 101.993 155.647 101.202C154.463 100.412 153.539 99.2881 152.994 97.9734C152.449 96.6587 152.306 95.2121 152.584 93.8164C152.862 92.4207 153.548 91.1387 154.556 90.1325C155.563 89.1263 156.847 88.4411 158.244 88.1635C159.641 87.8858 161.09 88.0283 162.406 88.5729C163.722 89.1174 164.847 90.0396 165.639 91.2228C166.43 92.406 166.853 93.797 166.853 95.22C166.85 97.1275 166.09 98.9561 164.74 100.305C163.39 101.654 161.559 102.412 159.649 102.415ZM159.649 90.3972C158.694 90.3974 157.761 90.6805 156.967 91.2105C156.173 91.7406 155.554 92.4939 155.189 93.3752C154.824 94.2565 154.728 95.2262 154.915 96.1617C155.101 97.0971 155.561 97.9564 156.236 98.6307C156.912 99.3051 157.772 99.7643 158.709 99.9503C159.645 100.136 160.616 100.041 161.498 99.6757C162.381 99.3106 163.135 98.6925 163.665 97.8994C164.196 97.1063 164.479 96.1739 164.479 95.22C164.478 93.9411 163.968 92.7149 163.063 91.8107C162.157 90.9065 160.93 90.3981 159.649 90.3972Z" fill="white"/>
<g clip-path="url(#clip0_350_2924)">
<path fill-rule="evenodd" clip-rule="evenodd" d="M111.112 40.0232L110.456 38.2092H95.3599L96.38 50.8288C96.38 50.8288 105.495 47.4197 105.934 47.4197H112.352L111.112 40.0232Z" fill="#FFB780"/>
<path fill-rule="evenodd" clip-rule="evenodd" d="M71.437 39.5866L72.0943 37.7748H87.2641L86.1698 50.3204C86.1698 50.3204 77.0535 46.9112 76.6884 46.9112H70.1978L71.437 39.5866Z" fill="#FFB780"/>
<path fill-rule="evenodd" clip-rule="evenodd" d="M37.7435 47.4926L28.3384 39.5136C28.3384 39.5136 30.745 34.8001 37.8917 35.1616C45.0396 35.6037 64.2935 36.2504 64.6586 36.3952C65.0226 36.6163 65.7529 37.483 65.7529 37.483H72.5345C72.5345 37.483 74.0637 38.4226 74.576 40.5306C75.0186 42.6309 73.7749 47.1278 73.7749 47.1278H66.1136C65.5531 47.6338 64.8275 47.9187 64.0722 47.9293H50.5798L37.7435 47.4926Z" fill="#4AB7C3"/>
<path fill-rule="evenodd" clip-rule="evenodd" d="M74.6469 41.4736C74.7199 43.722 73.7717 47.1278 73.7717 47.1278H66.1137C65.5532 47.6338 64.8276 47.9187 64.0723 47.9293H56.4873L49.0474 42.1269H64.6554C64.6554 42.1269 65.6025 42.055 66.0407 41.7654C66.5508 41.5443 66.6227 41.4758 66.6227 41.4758L74.6469 41.4736Z" fill="#43B0BC"/>
<path fill-rule="evenodd" clip-rule="evenodd" d="M144.296 48.0719L153.702 40.0962C153.702 40.0962 151.368 35.3816 144.147 35.7441C136.999 36.1786 117.819 36.8319 117.38 36.9767C117.017 37.1978 116.36 38.0644 116.36 38.0644H109.5C108.478 38.7901 107.773 39.8796 107.53 41.1088C107.093 43.2091 108.334 47.7093 108.334 47.7093H115.919C116.501 48.2256 117.254 48.5101 118.033 48.5085H131.46L144.296 48.0719Z" fill="#4AB7C3"/>
<path fill-rule="evenodd" clip-rule="evenodd" d="M107.465 42.1965C107.393 44.4461 108.341 47.7093 108.341 47.7093H115.926C116.509 48.2257 117.262 48.5101 118.041 48.5085H124.75L133.064 42.9228H118.114C118.114 42.9228 117.092 42.7017 116.727 42.4895C116.552 42.4008 116.382 42.303 116.217 42.1965H107.465Z" fill="#43B0BC"/>
<path fill-rule="evenodd" clip-rule="evenodd" d="M77.4185 37.7748V47.1279C78.1476 47.4197 79.2408 47.7823 80.4812 48.2167C80.4082 45.6742 80.4082 40.8922 80.4082 37.7748H77.4185Z" fill="#FFB780"/>
<path fill-rule="evenodd" clip-rule="evenodd" d="M101.559 38.2092C101.046 40.6025 100.246 42.9957 99.5879 45.0994C98.7868 47.4208 98.2768 49.0878 97.9116 50.2474C98.8588 49.8859 100.172 49.3763 101.486 48.9429C101.777 47.9271 102.215 46.6215 102.725 45.0994C103.454 42.9991 104.257 40.6025 104.767 38.2092H101.559Z" fill="#FFB780"/>
<path fill-rule="evenodd" clip-rule="evenodd" d="M84.6383 40.3129C84.6383 40.3129 84.3461 40.1681 83.9091 39.9481C82.5227 39.1522 79.0218 37.0485 76.9803 33.5675C74.2816 28.9977 77.2016 23.6331 80.9194 23.4153C84.7113 23.2705 84.2742 25.5919 89.5964 25.5919C94.9186 25.5919 97.1094 24.8656 100.391 28.9977C103.6 33.1331 101.265 40.0233 99.5879 45.0994C97.8386 50.1026 97.4015 52.2847 97.4015 52.2847C97.4015 52.2847 84.5663 47.7878 84.6383 40.3184V40.3129Z" fill="#252525"/>
<path fill-rule="evenodd" clip-rule="evenodd" d="M83.7599 45.8953L80.6274 50.2507C80.6274 50.2507 80.9915 51.9188 82.2318 52.8617C83.3992 53.7328 84.3463 53.1513 83.6172 56.0531L82.961 58.873C92.1448 63.7314 91.762 61.138 93.8477 60.3355C94.724 60.0459 97.6208 61.4111 97.6208 61.4111L97.4803 54.4513L97.1151 43.7894L83.7599 45.8953Z" fill="#FFB780"/>
<path fill-rule="evenodd" clip-rule="evenodd" d="M114.467 110.585C114.467 110.585 115.926 112.035 116.144 113.416C116.366 114.72 118.478 122.118 118.478 122.118C118.478 122.118 94.703 113.85 94.2715 110.95C93.7603 108.048 114.473 110.585 114.473 110.585H114.467Z" fill="#252525"/>
<path fill-rule="evenodd" clip-rule="evenodd" d="M62.6129 132.779C62.6129 132.779 61.5916 132.634 61.5916 133.646C61.5916 134.659 60.1333 192.1 60.1333 192.1C60.1333 192.1 60.0602 193.043 60.7175 193.043H62.4668C62.4668 193.043 62.978 192.822 63.05 192.029C63.1219 191.235 64.5813 146.339 64.5813 146.339H102.58L101.851 143.729H65.6026C65.6026 143.729 63.3421 143.439 63.3421 141.481V132.779H62.6129Z" fill="#235564"/>
<path fill-rule="evenodd" clip-rule="evenodd" d="M119.427 132.779C119.427 132.779 120.449 132.634 120.449 133.646C120.449 134.659 121.907 192.1 121.907 192.1C121.907 192.1 121.979 193.043 121.323 193.043H119.572C119.572 193.043 119.062 192.822 118.988 192.029C118.914 191.235 117.458 146.339 117.458 146.339H79.5332L80.1893 143.729H116.435C116.435 143.729 118.698 143.439 118.698 141.481V132.779H119.427Z" fill="#235564"/>
<path fill-rule="evenodd" clip-rule="evenodd" d="M68.0111 127.049H66.4853L66.4643 127.084C65.6852 128.295 65.1507 129.647 64.8908 131.063C64.4626 133.39 63.604 136.514 63.604 136.514C63.604 136.514 63.9282 142.346 68.9605 142.346H104.539C104.539 142.346 101.925 139.661 101.779 136.907C101.633 134.154 100.684 134.876 99.6642 132.707C98.6429 130.46 77.7714 118.4 77.7714 118.4L68.0111 127.049Z" fill="#252525"/>
<path fill-rule="evenodd" clip-rule="evenodd" d="M116.324 126.372H118.478C118.478 126.372 119.287 126.503 119.287 128.39C119.287 130.203 120.98 137.765 120.98 137.765C120.98 137.765 120.408 141.67 115.375 141.67H83.7234C83.7234 141.67 82.4112 138.985 82.5561 136.23C82.7011 133.475 83.6504 134.199 84.6717 132.029C85.6919 129.782 106.565 117.723 106.565 117.723L116.324 126.372Z" fill="#252525"/>
<path fill-rule="evenodd" clip-rule="evenodd" d="M98.965 200.658L93.7181 198.268L93.4968 198.703L92.6924 202.402C93.2887 203.564 94.1062 204.598 95.099 205.446C96.7775 206.897 98.3078 206.173 98.4549 206.897C98.6021 207.621 98.0898 210.742 100.205 212.771C102.394 214.803 104.217 215.963 108.008 216.179C111.728 216.325 112.823 214.875 113.115 214.005C113.336 213.064 113.843 211.611 113.917 211.177C113.991 210.742 113.192 209.211 113.192 209.211L98.965 200.658Z" fill="#435991"/>
<path fill-rule="evenodd" clip-rule="evenodd" d="M98.4539 200.441L97.5056 200.006C97.2146 201.167 96.4113 203.922 95.9023 205.954C97.2146 206.678 98.3089 206.315 98.4539 206.894C98.5999 207.621 98.0888 210.74 100.204 212.769C100.569 213.062 100.86 213.35 101.153 213.568C100.058 210.232 99.9122 207.91 99.9122 207.91L104.361 207.982L98.4539 200.441Z" fill="#2E3F66"/>
<path fill-rule="evenodd" clip-rule="evenodd" d="M95.7561 189.924L93.6394 197.685C93.6394 197.685 93.1304 199.353 94.082 200.732C95.101 202.108 97.8009 203.922 98.6761 206.17C99.4783 208.492 99.9884 210.668 102.687 212.262C105.387 213.929 109.907 214.438 112.022 213.35C114.21 212.262 113.845 209.216 113.262 207.549C112.679 205.882 109.47 202.978 108.522 201.602C107.573 200.225 106.406 197.394 106.406 195.365C106.406 193.335 95.7594 189.924 95.7594 189.924H95.7561Z" fill="#293B84"/>
<path fill-rule="evenodd" clip-rule="evenodd" d="M95.098 136.188L102.028 142.351C102.028 142.351 101.372 147.572 101.007 148.444C100.641 149.316 99.8392 149.239 99.4752 151.78C99.1112 154.321 93.6396 193.116 93.6396 193.846C93.6396 194.642 96.9214 195.946 100.861 196.312C104.725 196.601 106.986 195.586 106.986 195.586C106.986 195.586 120.844 146.126 121.792 141.918C122.667 137.718 118.437 134.954 116.248 133.65C114.135 132.417 110.123 128.786 110.123 128.786C110.123 128.786 91.6723 119.213 88.9725 124.509C86.2727 129.805 95.098 136.186 95.098 136.186V136.188Z" fill="#252525"/>
<path fill-rule="evenodd" clip-rule="evenodd" d="M102.83 212.407C105.596 213.929 109.904 214.366 112.014 213.35C114.201 212.262 113.836 209.216 113.253 207.549C112.67 205.882 109.461 202.978 108.513 201.602C108.427 201.426 108.33 201.257 108.221 201.094C107.857 200.873 107.492 200.652 107.127 200.585C106.837 200.513 106.543 200.364 106.397 200.151C105.741 200.151 104.502 200.224 103.554 200.513L103.332 200.585C103.554 200.806 103.554 200.947 103.554 201.027C103.554 201.388 102.753 202.26 101.511 203.782C100.27 205.303 99.6157 206.103 99.6157 206.899C99.6157 207.481 100.637 210.236 102.825 212.412L102.83 212.407ZM106.039 199.643C105.966 199.422 105.818 199.208 105.747 198.919C105.304 198.774 104.654 198.477 103.851 198.191C103.366 198.521 102.924 198.912 102.537 199.353C102.758 199.643 102.902 199.935 103.049 200.151C103.121 200.078 103.27 200.078 103.413 200.006C104.273 199.793 105.153 199.671 106.039 199.643ZM105.529 198.268C105.465 197.967 105.367 197.675 105.237 197.397C104.978 197.557 104.711 197.703 104.436 197.832C104.809 197.952 105.175 198.098 105.529 198.268ZM105.086 196.889C104.503 195.15 103.847 193.698 103.847 193.698L100.054 194.714C100.054 194.714 100.565 195.873 101.22 197.107C102.08 197.226 102.933 197.396 103.773 197.615C104.284 197.324 104.721 197.034 105.086 196.889ZM101.512 197.687C101.734 198.122 102.023 198.484 102.243 198.848C102.524 198.543 102.843 198.275 103.191 198.05C102.641 197.888 102.08 197.767 101.512 197.687Z" fill="#2C3670"/>
<path fill-rule="evenodd" clip-rule="evenodd" d="M82.5325 200.658L87.7838 198.268L88.0051 198.703L88.8084 202.402C88.2121 203.564 87.3946 204.598 86.4019 205.446C84.7233 206.897 83.1931 206.173 83.047 206.897C82.9009 207.621 83.411 210.742 81.2954 212.771C79.1079 214.803 77.2833 215.963 73.4925 216.179C69.7726 216.325 68.6782 214.875 68.3861 214.005C68.1648 213.064 67.6581 211.611 67.5839 211.177C67.5098 210.742 68.3142 209.218 68.3142 209.218L82.5325 200.658Z" fill="#435991"/>
<path fill-rule="evenodd" clip-rule="evenodd" d="M83.0448 200.441L83.9931 200.006C84.283 201.167 85.0863 203.922 85.5964 205.954C84.283 206.678 83.1887 206.315 83.0448 206.894C82.8977 207.621 83.4089 210.74 81.2933 212.769C80.9281 213.062 80.6382 213.35 80.345 213.568C81.4393 210.232 81.5865 207.91 81.5865 207.91L77.1362 207.982L83.0448 200.441Z" fill="#2E3F66"/>
<path fill-rule="evenodd" clip-rule="evenodd" d="M85.7416 189.924L87.8539 197.685C87.8539 197.685 88.3629 199.353 87.4113 200.732C86.3922 202.108 83.6924 203.922 82.8172 206.17C82.015 208.492 81.5049 210.668 78.8062 212.262C76.1075 213.929 71.5864 214.438 69.4708 213.35C67.2844 212.262 67.6485 209.216 68.2327 207.549C68.8169 205.882 72.0235 202.978 72.9717 201.602C73.92 200.225 75.0873 197.394 75.0873 195.365C75.0873 193.335 85.7339 189.924 85.7339 189.924H85.7416Z" fill="#293B84"/>
<path fill-rule="evenodd" clip-rule="evenodd" d="M86.3999 136.188L79.47 142.351C79.47 142.351 80.1262 147.572 80.4913 148.444C80.8564 149.316 81.6586 149.239 82.0227 151.78C82.3867 154.321 87.8538 193.116 87.8538 193.846C87.8538 194.642 84.572 195.946 80.634 196.312C76.768 196.601 74.5075 195.586 74.5075 195.586C74.5075 195.586 60.6499 146.126 59.7027 141.918C58.8264 137.718 63.0565 134.954 65.2451 133.65C67.3596 132.417 71.3706 128.786 71.3706 128.786C71.3706 128.786 89.8211 119.213 92.521 124.509C95.2208 129.805 86.3955 136.186 86.3955 136.186L86.3999 136.188Z" fill="#252525"/>
<path fill-rule="evenodd" clip-rule="evenodd" d="M78.6699 212.407C80.8586 210.232 81.8787 207.477 81.8787 206.894C81.8787 206.099 81.2237 205.299 79.9833 203.777C78.743 202.255 77.9419 201.384 77.9419 201.022C77.9419 200.947 77.9419 200.801 78.1632 200.58L77.9419 200.508C76.9925 200.22 75.7533 200.147 75.0971 200.147C74.9511 200.368 74.6545 200.508 74.3679 200.58C74.0028 200.653 73.6377 200.871 73.2736 201.09C73.1649 201.252 73.0674 201.422 72.9815 201.597C72.0333 202.973 68.8256 205.876 68.2425 207.544C67.6594 209.213 67.2942 212.258 69.4806 213.346C71.5962 214.362 75.8982 213.925 78.6699 212.403V212.407ZM75.4611 199.643C76.3468 199.671 77.2269 199.793 78.0868 200.007C78.2329 200.078 78.3789 200.078 78.452 200.151C78.598 199.93 78.7419 199.643 78.9632 199.353C78.5762 198.912 78.1344 198.521 77.6487 198.191C76.8476 198.482 76.1903 198.774 75.7533 198.919C75.6802 199.208 75.532 199.425 75.4611 199.643ZM75.9712 198.265C76.3256 198.095 76.6912 197.95 77.0655 197.83C76.7897 197.701 76.5218 197.555 76.2633 197.394C76.1341 197.673 76.0361 197.965 75.9712 198.265ZM76.4138 196.887C76.779 197.032 77.216 197.321 77.7272 197.613C78.5673 197.394 79.4197 197.224 80.2799 197.105C80.9349 195.871 81.4461 194.712 81.4461 194.712L77.6531 193.696C77.6531 193.696 76.9969 195.148 76.4138 196.887ZM79.9878 197.685C79.4204 197.764 78.8598 197.886 78.3103 198.048C78.6581 198.274 78.9766 198.542 79.2586 198.846C79.4799 198.482 79.7687 198.12 79.9878 197.685Z" fill="#2C3670"/>
<path fill-rule="evenodd" clip-rule="evenodd" d="M82.299 47.9293L80.5508 49.8086C80.5508 49.8086 80.8905 53.6212 85.2976 53.7881C89.7047 53.955 89.9581 52.518 92.9246 51.8414C95.891 51.1649 95.6841 47.9293 95.6841 47.9293H82.2957H82.299Z" fill="#EB9C6F"/>
<path fill-rule="evenodd" clip-rule="evenodd" d="M82.5889 37.7925L80.408 37.7748C80.408 37.7748 79.4243 37.9329 79.4243 39.5435C79.4243 41.1541 79.3137 43.6336 79.3956 44.2294C79.4774 44.8253 78.8147 47.6386 79.6478 47.9282C80.481 48.2178 81.7612 48.5097 81.7612 48.5097C81.7612 48.5097 84.1136 43.176 84.1136 42.8123C84.1136 42.4486 82.5889 37.7925 82.5889 37.7925Z" fill="#EB9C6F"/>
<path fill-rule="evenodd" clip-rule="evenodd" d="M80.4082 34.8001C80.4082 34.8001 80.4082 47.999 80.5543 49.813C80.6992 51.5529 82.2317 52.7855 86.6797 52.0625C91.1278 51.3396 94.4837 49.8859 94.9949 49.3763C95.5061 48.8667 97.1094 43.7939 97.1094 43.7939C97.1094 43.7939 99.2239 43.722 99.2239 42.1247C99.2239 40.4577 99.9531 39.8033 100.027 37.9915C100.1 36.1056 99.152 36.2505 98.5678 36.3953C97.9116 36.6164 97.3285 37.3382 97.3285 37.3382L96.8162 42.1247L95.1388 43.1406C95.1388 43.1406 95.5814 39.0804 95.4309 38.427C95.2804 37.7737 94.4826 37.3382 94.5557 35.8846C94.6287 34.4309 94.7017 33.3476 94.7017 33.3476C94.7017 33.3476 85.8056 34.222 80.4082 34.8001Z" fill="#FFB780"/>
<path fill-rule="evenodd" clip-rule="evenodd" d="M153.924 40.6025C152.538 36.9038 146.703 33.6383 139.995 38.2093C136.202 40.8921 124.46 48.5086 115.123 54.5276C112.208 55.7602 105.497 52.9303 102.067 57.1386C100.525 57.1386 100.075 57.2315 99.8293 57.0557C99.608 56.681 98.6941 55.1345 98.5657 54.8172C98.3444 54.4558 97.4725 54.3806 97.4725 54.3806C97.4725 54.3806 97.4725 54.962 97.2512 55.3235C97.0299 55.685 96.1569 56.4124 96.1569 56.4124L90.9786 61.4885C90.9786 61.4885 84.2025 56.9938 83.9093 56.7727C83.7285 56.5739 83.6249 56.3171 83.6172 56.0487H82.5229L80.8454 59.0212C80.8454 59.0212 80.0432 57.2094 78.7309 56.1935C77.4187 55.1776 75.3009 54.8161 75.3009 54.8161H68.5181C68.0069 54.8161 67.3508 54.6713 66.6205 54.5265C57.2862 48.5074 45.5454 40.891 41.7512 38.2082C35.0449 33.6394 29.2104 36.9038 27.824 40.6025C26.4376 44.3013 25.6354 50.8288 32.4922 55.8331C39.2794 60.8363 55.0279 71.2804 64.5071 77.4443L68.0313 95.8651C69.0936 101.418 69.0699 107.124 67.9616 112.668C66.7444 118.739 65.2175 126.098 64.62 127.632C64.0225 129.166 84.0708 132.775 89.123 131.259C95.2706 129.414 115.814 133.277 120.979 131.259L117.142 111.441C115.884 106.202 115.295 100.826 115.388 95.4395C115.469 90.7348 114.819 86.4557 115.269 84.697L116.801 78.9664C126.359 72.8015 142.984 60.6915 148.235 56.7727C156.621 50.61 155.308 44.3002 153.924 40.6025Z" fill="#4AB7C3"/>
<path fill-rule="evenodd" clip-rule="evenodd" d="M116.8 78.9664L115.269 84.6969C114.905 86.0743 115.048 90.2064 115.415 94.9211C112.79 87.8143 110.384 80.8534 109.944 78.2401C108.851 72.2211 113.446 68.8871 113.884 68.5953H113.957C116.944 66.716 120.52 65.478 123.876 64.1006C130.658 61.4155 144.442 53.8743 148.306 48.4356C152.246 42.9228 150.058 36.8286 150.058 36.8286H150.279C152.101 37.6996 153.343 39.077 153.93 40.5992C155.315 44.2968 156.627 50.6066 148.241 56.7705C142.984 60.6915 126.359 72.8014 116.8 78.9664Z" fill="#43B0BC"/>
<path fill-rule="evenodd" clip-rule="evenodd" d="M64.5069 77.4442L67.8485 95.7003L68.537 99.1428L74.2074 77.4442C74.2074 73.4536 69.7594 70.7707 69.0291 70.1926C68.2999 69.5382 31.7606 44.0835 31.2516 39.8762C31.1786 38.7155 31.5427 37.5548 32.1258 36.5422C30.0113 37.3381 28.4744 38.9355 27.8227 40.6025C26.444 44.3001 25.6351 50.8288 32.492 55.8331C39.2792 60.8363 55.0277 71.2803 64.5069 77.4442Z" fill="#43B0BC"/>
<path fill-rule="evenodd" clip-rule="evenodd" d="M90.9828 65.6946L92.149 63.7369L93.6815 61.127L95.651 63.0858L98.9329 66.348L99.8811 57.0623L98.5677 54.8139C98.3464 54.4524 97.4745 54.3773 97.4745 54.3773V54.4513C97.4745 54.5961 97.4745 55.0295 97.2532 55.3191C97.0319 55.6839 96.1589 56.4079 96.1589 56.4079L90.9806 61.4841C90.9806 61.4841 84.2023 56.9938 83.9091 56.7727C83.7283 56.5739 83.6247 56.3171 83.617 56.0487H82.5226L80.8452 59.0212L82.0137 61.2696L82.0856 61.4144L84.9292 66.8542L88.0661 62.867L88.7953 61.924L89.5245 63.2284L90.3266 64.5339L90.9828 65.6946Z" fill="#43B0BC"/>
<path fill-rule="evenodd" clip-rule="evenodd" d="M101.559 38.2092H103.268C103.268 38.2092 101.906 41.8306 101.991 43.1417C102.076 44.4527 99.4541 47.738 99.6798 48.5085C99.9055 49.279 99.1719 49.7875 99.1719 49.7875L97.9116 50.2507L101.559 38.2092Z" fill="#EB9C6F"/>
</g>
<defs>
<clipPath id="clip0_350_2924">
<rect width="128.06" height="192.778" fill="white" transform="translate(26.8833 23.4087)"/>
</clipPath>
</defs>
</svg>
