<svg width="162" height="212" viewBox="0 0 162 212" fill="none" xmlns="http://www.w3.org/2000/svg">
<path fill-rule="evenodd" clip-rule="evenodd" d="M150.762 19.3209C150.762 19.3209 94.191 -15.5424 40.2331 10.1471C-13.7248 35.8366 -19.2681 122.331 59.8701 168.402C139.008 214.473 147.714 124.5 144.233 91.6863C140.752 58.8722 180.787 42.3565 150.762 19.3209Z" fill="#F4F4F4"/>
<path d="M144.435 95.6407C143.115 95.6407 141.824 95.2495 140.725 94.5167C139.627 93.7838 138.771 92.7422 138.266 91.5235C137.761 90.3048 137.628 88.9638 137.886 87.67C138.144 86.3762 138.78 85.1878 139.714 84.2551C140.647 83.3223 141.837 82.6871 143.133 82.4298C144.428 82.1724 145.77 82.3045 146.991 82.8093C148.211 83.3141 149.254 84.169 149.987 85.2658C150.721 86.3626 151.113 87.6521 151.113 88.9712C151.11 90.7393 150.406 92.4344 149.154 93.6847C147.903 94.935 146.205 95.6384 144.435 95.6407ZM144.435 84.5004C143.55 84.5006 142.685 84.763 141.949 85.2544C141.213 85.7458 140.639 86.4441 140.301 87.261C139.962 88.078 139.874 88.9769 140.046 89.844C140.219 90.7112 140.646 91.5077 141.272 92.1328C141.898 92.758 142.695 93.1836 143.563 93.3561C144.432 93.5285 145.332 93.4399 146.149 93.1015C146.967 92.7631 147.666 92.19 148.158 91.4549C148.65 90.7197 148.912 89.8553 148.912 88.9712C148.911 87.7856 148.439 86.649 147.6 85.8108C146.76 84.9725 145.622 84.5013 144.435 84.5004Z" fill="white"/>
<g clip-path="url(#clip0_350_2052)">
<path d="M55.9474 59.9642C55.9474 59.9642 44.5573 65.531 43.1249 71.6346C42.1297 75.8709 39.2415 97.3807 37.1573 100.106C35.0731 102.832 23.7923 122.185 23.7923 122.185C22.2311 123.754 23.0962 127.488 23.6166 127.877C24.137 128.266 27.0447 125.703 28.0868 124.862C29.1289 124.02 45.3899 108.835 46.5608 106.205C48.6125 101.599 52.7782 85.5703 52.7782 85.5703L55.9474 59.9642Z" fill="#FFB780"/>
<path d="M131.091 143.476C131.091 143.476 129.583 146.824 128.099 148.358C127.839 148.63 125.732 148.877 122.342 149.074C121.357 149.128 120.273 149.183 119.089 149.237C100.974 150.048 60.532 150.188 43.5801 149.886C42.3702 149.862 41.2761 149.839 40.3277 149.816C37.7973 149.753 36.227 149.668 35.9303 149.574C33.4585 148.796 32.4463 144.061 32.4463 144.061L131.091 143.476Z" fill="#BFAE99"/>
<path d="M122.342 147.386H119.084V206.692H122.342V147.386Z" fill="#BFAE99"/>
<path d="M122.553 208.311H118.842C118.705 208.311 118.569 208.282 118.444 208.225C118.319 208.168 118.208 208.085 118.118 207.981C118.029 207.878 117.962 207.756 117.924 207.625C117.885 207.493 117.875 207.355 117.895 207.22L118.171 205.333C118.204 205.106 118.318 204.898 118.492 204.748C118.666 204.598 118.888 204.516 119.118 204.516H122.221C122.446 204.516 122.664 204.595 122.837 204.739C123.009 204.883 123.125 205.083 123.164 205.304L123.496 207.192C123.52 207.33 123.514 207.47 123.478 207.605C123.441 207.739 123.376 207.864 123.286 207.971C123.196 208.078 123.084 208.163 122.957 208.222C122.831 208.281 122.693 208.311 122.553 208.311Z" fill="#252525"/>
<path d="M43.576 147.386H40.3184V206.692H43.576V147.386Z" fill="#BFAE99"/>
<path d="M43.7843 208.311H40.0739C39.9365 208.311 39.8007 208.282 39.6758 208.225C39.5508 208.168 39.4396 208.085 39.3497 207.981C39.2597 207.878 39.1932 207.756 39.1545 207.625C39.1158 207.493 39.1059 207.355 39.1255 207.22L39.4013 205.333C39.4344 205.106 39.5484 204.899 39.7223 204.749C39.8962 204.599 40.1184 204.516 40.3484 204.516H43.4526C43.6776 204.516 43.8955 204.595 44.0679 204.739C44.2402 204.883 44.3559 205.083 44.3945 205.304L44.7262 207.192C44.7503 207.329 44.7441 207.47 44.7079 207.604C44.6716 207.739 44.6064 207.864 44.5167 207.97C44.4269 208.077 44.3149 208.163 44.1884 208.222C44.0619 208.281 43.924 208.311 43.7843 208.311Z" fill="#252525"/>
<path d="M131.091 143.476C131.091 143.476 129.583 146.824 128.099 148.358C127.839 148.63 125.732 148.877 122.342 149.074V185.131L119.089 184.206V149.244C100.974 150.054 60.532 150.194 43.5801 149.892V162.63L40.3277 161.704V149.822C37.7973 149.76 36.227 149.674 35.9303 149.581C33.4585 148.803 32.4463 144.067 32.4463 144.067L131.091 143.476Z" fill="#B09B84"/>
<path d="M145.511 138.695C145.574 140.892 144.601 143.196 143.527 143.297C141.512 143.492 22.7332 145.049 21.3268 144.66C19.9205 144.271 17.5774 141.732 18.0744 138.687C18.7691 134.476 21.3268 134.732 21.3268 134.732C21.9292 134.732 137.887 134.149 142.52 134.732C144.663 135.005 145.464 136.811 145.511 138.695Z" fill="#FFF4E6"/>
<path d="M145.511 138.695C145.574 140.892 144.601 143.196 143.527 143.297C141.512 143.492 22.7332 145.049 21.3268 144.66C19.9205 144.271 17.5774 141.732 18.0744 138.687C18.0744 138.687 20.1989 142.418 25.4718 142.519C30.7447 142.62 139.914 141.934 142.062 141.352C144.13 140.791 145.41 138.851 145.511 138.695Z" fill="#F0D3B2"/>
<path d="M89.5675 196.597C89.5675 196.597 88.6893 202.144 88.3966 202.924C88.1039 203.703 84.8839 207.081 83.713 206.413C82.5421 205.745 80.981 202.144 80.981 202.144V195.429L89.5675 196.597Z" fill="#FFB780"/>
<path d="M80.9744 201.269C80.9744 201.269 83.4164 202.583 84.7837 202.729C86.1511 202.876 88.6242 201.999 88.6242 201.999C88.6242 201.999 90.3494 207.303 90.5445 207.789C90.7397 208.275 90.7891 209.493 90.5445 209.687C90.2999 209.882 87.8124 211.536 85.2716 211.294C82.7308 211.051 79.9987 209.834 79.8517 209.249C79.7047 208.664 80.9744 201.269 80.9744 201.269Z" fill="#2C3670"/>
<path d="M57.022 196.597C57.022 196.597 57.9014 202.144 58.1929 202.924C58.4843 203.703 61.7055 207.081 62.8764 206.413C64.0473 205.745 65.6085 202.144 65.6085 202.144V195.429L57.022 196.597Z" fill="#FFB780"/>
<path d="M52.2121 119.222C52.2121 119.222 50.8175 133.574 52.2121 134.574C53.6068 135.574 70.2958 136.157 77.1833 135.768C84.0707 135.379 93.8359 135.89 94.8142 134.472C95.7926 133.053 94.8142 117.272 94.8142 117.272C94.8142 117.272 74.8155 110.848 72.2187 110.848C69.6219 110.848 52.2121 119.222 52.2121 119.222Z" fill="#252525"/>
<path d="M78.5521 43.9746L79.0933 57.7767C79.0933 57.7767 71.6269 62.9636 71.316 63.0504C71.005 63.1373 65.2157 59.2044 65.1116 58.4264C65.0686 58.0918 65.844 54.7347 65.844 51.6433C65.844 49.6983 65.8531 47.6495 65.861 46.0532V46.0454C65.8701 44.3325 65.8792 43.1408 65.8792 43.1408L78.5521 43.9746Z" fill="#FFB780"/>
<path d="M82.0464 34.1585C82.0464 34.1585 82.2286 32.9551 82.9454 33.1133C83.6623 33.2715 83.6688 35.4474 83.2902 36.9451C83.1132 37.6466 81.5156 39.497 81.5156 39.497L81.7758 36.8284L82.0464 34.1585Z" fill="#FFB780"/>
<path d="M80.0157 23.2208C80.0157 23.2208 82.4876 29.6628 82.4356 33.6502C82.3835 37.6376 81.1346 43.9901 80.1511 45.2233C79.1675 46.4565 74.8365 50.8912 72.3178 50.9288C69.9474 50.9638 65.191 46.3904 64.5652 45.3867C63.4737 43.6439 61.8995 34.5449 61.5287 32.1136C61.158 29.6823 62.1493 23.1235 67.9036 21.1525C73.6578 19.1815 80.0157 23.2208 80.0157 23.2208Z" fill="#FFB780"/>
<path d="M62.4054 35.1687C62.4054 35.1687 62.101 33.9913 61.4037 34.2221C60.7063 34.4529 60.8963 36.8868 61.4557 38.0681C61.7667 38.7229 63.3291 40.4333 63.3291 40.4333L62.961 37.7958L62.4054 35.1687Z" fill="#FFB780"/>
<path d="M76.231 50.5307C75.6 51.2387 73.4729 52.4459 71.5631 52.2825C69.6532 52.1192 69.4359 51.8222 67.8539 51.7288C67.059 51.6744 66.3682 51.6511 65.8491 51.6433C65.8491 49.6982 65.8491 48.4261 65.8621 46.8299C65.8621 46.8299 69.0248 49.4363 70.9516 49.8538C72.6364 50.2182 73.845 49.6658 75.3841 48.7633C76.9231 47.8608 76.8581 49.8136 76.231 50.5307Z" fill="#EB9C6F"/>
<path d="M51.9752 121.991C51.9752 121.991 46.9664 123.441 45.4039 130.058C43.8415 136.675 53.8018 195.526 55.5594 197.668C57.3171 199.81 58.8717 196.89 63.4655 197.668C68.0593 198.446 66.3576 195.526 66.3004 189.888C66.2666 186.531 66.0558 152.143 65.1113 139.604C63.9768 124.526 51.9752 121.991 51.9752 121.991Z" fill="#252525"/>
<path d="M91.1038 197.668C89.3462 199.809 87.7915 196.89 83.1977 197.668C78.9877 198.384 78.9955 196.313 79.0736 191.61C79.0814 191.182 79.0892 190.739 79.097 190.27C79.1282 186.915 79.1126 145.984 81.323 131.283C82.5108 123.373 94.6893 121.995 94.6893 121.995C94.6893 121.995 95.6416 122.384 96.8294 123.421C98.2983 124.682 100.134 126.922 101 130.576C102.563 137.192 92.8614 195.526 91.1038 197.668Z" fill="#252525"/>
<path d="M91.1038 197.668C89.3462 199.809 87.7915 196.89 83.1977 197.668C78.9877 198.384 78.9955 196.313 79.0736 191.61C80.5736 192.405 82.8074 193.44 84.4636 193.517C87.1956 193.647 89.0326 192.091 90.197 188.46C91.3614 184.829 97.6022 149.818 98.2631 143.9C98.924 137.982 99.1738 132.829 98.2631 130.018C97.3524 127.206 94.5449 124.233 94.5449 124.233C95.2883 123.911 96.0529 123.641 96.8333 123.424C98.3022 124.684 100.138 126.925 101.004 130.579C102.563 137.192 92.8614 195.526 91.1038 197.668Z" fill="#252525"/>
<path d="M95.9121 108.709C97.2131 122.91 93.1241 119.86 91.6006 120.046C84.9766 120.84 78.2999 121.111 71.6331 120.855C68.2661 120.725 55.6583 122.591 53.1825 120.964C48.659 117.982 51.2987 108.117 50.9708 102.581C50.9708 102.565 50.9318 101.974 50.8694 100.953C50.3932 93.549 48.5107 63.3318 49.0961 62.3191C49.8156 61.0652 57.3769 57.8804 62.0331 56.0119C64.0796 55.1872 65.6577 54.5855 65.6577 54.5855C65.6577 54.5855 69.6725 56.6019 72.9536 56.2816C75.0047 56.0675 77.0265 55.6328 78.9837 54.9849C78.9837 54.9849 94.2716 58.9399 95.7091 60.7617C97.1077 62.5369 95.1315 86.5027 95.6779 93.4478C95.6857 93.5879 95.6935 93.7279 95.7091 93.8524C95.7794 94.5695 95.8263 95.293 95.8575 96.0179C96.0136 100.237 95.5218 104.507 95.9121 108.709Z" fill="#4AB7C3"/>
<path d="M65.615 201.269C65.615 201.269 63.1744 202.583 61.807 202.729C60.4397 202.876 57.9665 201.999 57.9665 201.999C57.9665 201.999 56.2414 207.303 56.0463 207.789C55.8511 208.275 55.8017 209.493 56.0463 209.687C56.2909 209.882 58.7784 211.536 61.3192 211.294C63.86 211.051 66.5921 209.834 66.7391 209.249C66.8861 208.664 65.615 201.269 65.615 201.269Z" fill="#2C3670"/>
<path d="M82.4315 33.2741C82.4315 33.2741 81.7941 32.902 81.6796 31.8983C81.5651 30.8947 80.9107 29.3425 79.8387 27.981C78.7667 26.6194 75.2995 27.203 72.8576 26.1799C70.4156 25.1568 67.6419 24.4773 65.6605 25.6936C63.6791 26.9099 63.0781 28.4387 62.9961 29.9727C62.784 33.9147 61.8877 34.2934 61.8877 34.2934C61.8877 34.2934 61.6964 32.7464 60.9548 30.2645C60.2133 27.7826 59.4314 25.0089 60.1639 23.1598C60.8963 21.3107 60.8963 21.9435 62.5056 19.5589C64.1149 17.1742 65.844 14.7416 69.6832 14.7416C71.7752 14.7416 73.3936 17.2235 75.7861 17.5632C78.1786 17.903 80.912 17.9315 82.5265 19.0233C84.037 20.0451 84.8188 22.4648 84.478 24.4228C83.54 29.7951 82.4315 33.2741 82.4315 33.2741Z" fill="#252525"/>
<path d="M91.6008 120.046C84.9768 120.84 78.3001 121.111 71.6333 120.855C68.2663 120.725 55.6584 122.591 53.1827 120.964C48.6591 117.982 51.2988 108.117 50.971 102.581C50.971 102.565 50.932 101.974 50.8695 100.953C51.9949 104.052 53.6666 107.533 55.9434 109.588C60.7011 113.867 67.2867 110.173 73.4182 110.366C79.5498 110.559 86.7767 111.441 89.5583 110.07C92.3398 108.7 94.8155 96.9191 95.2449 95.1828C95.375 94.6641 95.5883 95.0661 95.8537 96.0166C96.0099 100.236 95.5181 104.511 95.9084 108.707C97.2172 122.91 93.1243 119.858 91.6008 120.046Z" fill="#4AB7C3"/>
<path d="M93.7568 121.48C93.4263 121.763 93.1135 122.066 92.8201 122.388C92.3894 122.855 91.9757 123.407 92.0395 123.757C92.1696 124.466 90.9987 126.221 89.1773 127.066C87.3559 127.912 86.0549 129.53 84.616 130.89C83.1771 132.25 80.6467 129.853 80.9056 128.037C81.004 127.453 81.1422 126.875 81.3193 126.309C81.9282 124.3 83.1082 121.771 84.4911 121.287C86.3268 120.638 91.3265 118.434 91.3265 118.434L93.7568 121.48Z" fill="#FFB780"/>
<path d="M92.038 123.753C92.1681 124.462 90.9972 126.217 89.1758 127.062C87.3545 127.908 86.0535 129.526 84.6146 130.886C83.1757 132.247 80.6453 129.849 80.9042 128.034C81.0025 127.449 81.1408 126.871 81.3179 126.305C81.8383 127.044 82.6072 127.792 83.6453 128.034C85.9273 128.552 89.8484 125.311 90.4885 124.533C91.1286 123.754 92.5116 122.182 92.5116 122.182C92.5116 122.182 92.6287 122.252 92.8173 122.384C92.3893 122.851 91.973 123.403 92.038 123.753Z" fill="#EB9C6F"/>
<path d="M108.192 116.613C105.654 121.091 97.8416 126.347 94.3263 125.373C92.2955 124.813 91.0374 123.209 90.3505 121.353H90.3427C89.8353 119.998 89.3748 118.486 89.6324 117.196C90.4832 112.917 96.2492 108.767 95.5427 102.661C92.8978 79.8389 95.1954 60.339 95.1954 60.339C95.1954 60.339 99.0138 62.6925 100.771 67.5591C102.529 72.4256 104.401 85.2747 107.537 98.5089C108.199 101.298 108.838 106.372 109.266 108.413C109.903 111.42 109.7 113.951 108.192 116.613Z" fill="#4AB7C3"/>
<path d="M108.192 116.614C105.654 121.091 97.8417 126.347 94.3264 125.373C92.2956 124.813 91.0375 123.209 90.3506 121.353C91.5462 121.625 94.0259 122.215 95.9903 121.872C101.749 120.85 103.945 118.173 106.528 114.719C107.929 112.848 108.884 110.03 109.267 108.418C109.903 111.42 109.7 113.951 108.192 116.614Z" fill="#43B0BC"/>
<path d="M95.1536 61.6876C95.4724 61.2986 94.922 60.7501 94.6007 61.1365C91.5382 64.8166 91.4341 71.2327 91.5772 75.7439C91.7802 82.1354 93.6328 88.4192 93.8032 94.7951C93.8162 95.2956 94.5981 95.2969 94.5838 94.7951C94.4329 89.1557 92.9654 83.5423 92.4879 77.9198C92.2381 74.9814 92.242 71.9549 92.6804 69.0296C93.0486 66.5917 93.5339 63.6288 95.1536 61.6876Z" fill="#43B0BC"/>
<path d="M49.6908 61.7524C49.6908 61.7524 46.774 63.6508 45.2454 65.8889C43.7167 68.127 42.6434 71.0978 40.7869 72.1429C38.9304 73.1881 37.1741 75.491 38.2487 78.0391C39.3233 80.5871 42.8386 80.8205 44.8837 83.1364C46.9289 85.4524 48.7268 85.8414 49.6856 85.7441C50.6445 85.6469 51.1753 85.2565 51.5942 84.4785C52.0131 83.7005 49.6908 61.7524 49.6908 61.7524Z" fill="#4AB7C3"/>
<path d="M50.5522 74.4705C51.0726 70.6076 51.4121 66.7681 50.7591 62.8987C50.6758 62.4047 49.9238 62.6147 50.0058 63.1049C50.7435 67.4722 50.0721 71.7306 49.5622 76.072C49.2577 78.6654 48.7816 81.9668 50.1762 84.3476C50.4286 84.7807 51.1038 84.389 50.8501 83.9585C49.3124 81.321 50.1632 77.3298 50.5522 74.4705Z" fill="#43B0BC"/>
<path d="M47.9918 74.088C47.0733 72.3413 45.732 71.4064 44.4102 69.993C44.0668 69.626 43.5151 70.1771 43.8573 70.5441C44.8187 71.5724 46.0352 72.3154 46.7923 73.5265C47.0824 73.9895 48.8479 77.0782 48.0855 77.4517C47.4454 77.7642 45.4406 75.3938 45.0412 74.9594C44.1878 74.0322 43.3903 73.048 42.4561 72.1987C42.0867 71.8616 41.5324 72.4101 41.9045 72.7485C43.8833 74.5496 45.4614 77.51 48.1792 78.288C48.2624 78.3112 48.3509 78.3062 48.431 78.2738C48.511 78.2414 48.5781 78.1835 48.6215 78.1091C49.3006 76.7437 48.6501 75.3393 47.9918 74.088Z" fill="#43B0BC"/>
<path d="M25.5055 120.964C25.5055 120.964 20.8506 124.155 19.0188 126.101C17.6918 127.512 17.0413 130.381 16.6523 131.746C16.2633 133.111 17.8232 136.199 20.5552 136.234C23.2873 136.269 23.407 134.374 25.1087 132.038C26.8104 129.701 28.5602 124.517 28.6656 124.347C29.1353 123.598 25.5055 120.964 25.5055 120.964Z" fill="#FFB780"/>
<path fill-rule="evenodd" clip-rule="evenodd" d="M73.1388 60.8084L74.1457 59.1227L75.4701 56.8716L77.1718 58.5573L80.008 61.3686L80.8276 53.3679L79.6918 51.4293C79.5032 51.1181 78.7473 51.0533 78.7473 51.0533V51.1181C78.7473 51.2478 78.7473 51.6161 78.5587 51.8663C78.37 52.1801 77.6129 52.8038 77.6129 52.8038L73.1388 57.1802C73.1388 57.1802 67.2765 53.3057 67.0241 53.1163C66.8681 52.9451 66.7786 52.7239 66.7717 52.4926H65.8233L64.374 55.0549L65.3836 57L65.446 57.1297L67.9049 61.8147L70.6149 58.3758L71.2445 57.5628L71.8755 58.6883L72.5676 59.8138L73.1388 60.8084Z" fill="#43B0BC"/>
</g>
<path d="M14.5441 22.7544C14.252 22.7542 13.9719 22.6381 13.7655 22.4317L6.70463 15.3782C6.49825 15.1718 6.38232 14.8921 6.38232 14.6004C6.38232 14.3087 6.49825 14.029 6.70463 13.8227L13.7655 6.7691C13.9719 6.56303 14.2518 6.44727 14.5436 6.44727C14.8354 6.44727 15.1153 6.56303 15.3217 6.7691L22.3847 13.8227C22.5911 14.029 22.707 14.3087 22.707 14.6004C22.707 14.8921 22.5911 15.1718 22.3847 15.3782L15.3217 22.4317C15.2198 22.534 15.0986 22.6151 14.9652 22.6705C14.8317 22.7259 14.6886 22.7544 14.5441 22.7544ZM9.03849 14.6015L14.5441 20.1006L20.0519 14.6015L14.5452 9.10235L9.03849 14.6015Z" fill="#4AB7C3"/>
<path d="M145.712 195.663C145.739 195.373 145.88 195.105 146.104 194.918L155.062 187.488C155.21 187.365 155.389 187.283 155.579 187.251C155.769 187.218 155.965 187.236 156.146 187.303C156.327 187.37 156.487 187.483 156.611 187.631C156.734 187.78 156.817 187.958 156.849 188.148L158.814 199.611C158.846 199.801 158.828 199.997 158.761 200.178C158.694 200.359 158.58 200.519 158.431 200.642C158.283 200.765 158.104 200.847 157.913 200.88C157.723 200.912 157.527 200.894 157.346 200.827L146.426 196.794C146.245 196.728 146.085 196.615 145.961 196.466C145.838 196.318 145.756 196.14 145.723 195.95C145.707 195.855 145.703 195.759 145.712 195.663ZM155.002 190.392L148.978 195.39L156.323 198.103L155.002 190.392Z" fill="#4AB7C3"/>
<defs>
<clipPath id="clip0_350_2052">
<rect width="128.921" height="196.573" fill="white" transform="translate(16.5938 14.7442)"/>
</clipPath>
</defs>
</svg>
