<svg width="152" height="124" viewBox="0 0 152 124" fill="none" xmlns="http://www.w3.org/2000/svg">
<g clip-path="url(#clip0_42_469)">
<path d="M85.1213 13.3065V47.6539C85.1212 54.1725 83.5678 60.5969 80.5902 66.3929C77.6126 72.189 73.2969 77.1893 68.0019 80.9781C66.9043 81.7654 65.768 82.497 64.5973 83.1704L42.5597 95.8523L20.5221 83.1704C14.2859 79.5811 9.10503 74.4076 5.50229 68.1719C1.89954 61.9361 0.00236696 54.8588 0.00219727 47.6539V13.3065C1.74637 13.3063 3.47344 12.962 5.08478 12.2932C6.69612 11.6244 8.16018 10.6442 9.39336 9.40861C10.6265 8.17298 11.6047 6.70611 12.2719 5.09178C12.9392 3.47744 13.2825 1.74725 13.2822 0H71.8372C71.8369 1.74759 72.1804 3.47812 72.8479 5.09273C73.5154 6.70733 74.4939 8.17438 75.7275 9.41007C76.9611 10.6458 78.4256 11.6259 80.0374 12.2944C81.6493 12.963 83.3768 13.3069 85.1213 13.3065Z" fill="#ECECEC"/>
<g style="mix-blend-mode:multiply" opacity="0.2">
<path d="M120.475 20.0815H47.7637C39.1964 20.0815 32.2512 27.0389 32.2512 35.6213V108.461C32.2512 117.044 39.1964 124.001 47.7637 124.001H120.475C129.043 124.001 135.988 117.044 135.988 108.461V35.6213C135.988 27.0389 129.043 20.0815 120.475 20.0815Z" fill="white"/>
<path d="M120.363 20.3763H47.8764C39.4093 20.3763 32.5454 27.2523 32.5454 35.7343V108.348C32.5454 116.83 39.4093 123.706 47.8764 123.706H120.363C128.83 123.706 135.694 116.83 135.694 108.348V35.7343C135.694 27.2523 128.83 20.3763 120.363 20.3763Z" fill="#F7F7F7"/>
<path d="M120.25 20.6701H47.9893C39.6225 20.6701 32.8398 27.4647 32.8398 35.8463V108.234C32.8398 116.616 39.6225 123.41 47.9893 123.41H120.25C128.617 123.41 135.399 116.616 135.399 108.234V35.8463C135.399 27.4647 128.617 20.6701 120.25 20.6701Z" fill="#EFEFEF"/>
<path d="M120.138 20.9649H48.1012C39.8352 20.9649 33.1343 27.6777 33.1343 35.9582V108.122C33.1343 116.403 39.8352 123.116 48.1012 123.116H120.138C128.404 123.116 135.105 116.403 135.105 108.122V35.9582C135.105 27.6777 128.404 20.9649 120.138 20.9649Z" fill="#E6E6E6"/>
<path d="M120.025 21.2598H48.2139C40.0481 21.2598 33.4285 27.8911 33.4285 36.0712V108.009C33.4285 116.189 40.0481 122.821 48.2139 122.821H120.025C128.191 122.821 134.811 116.189 134.811 108.009V36.0712C134.811 27.8911 128.191 21.2598 120.025 21.2598Z" fill="#DEDEDE"/>
<path d="M119.913 21.5546H48.3268C40.2613 21.5546 33.7229 28.1045 33.7229 36.1842V107.896C33.7229 115.976 40.2613 122.526 48.3268 122.526H119.913C127.978 122.526 134.516 115.976 134.516 107.896V36.1842C134.516 28.1045 127.978 21.5546 119.913 21.5546Z" fill="#D6D6D6"/>
<path d="M119.8 21.8494H48.4395C40.4742 21.8494 34.0171 28.3179 34.0171 36.2972V107.783C34.0171 115.762 40.4742 122.231 48.4395 122.231H119.8C127.765 122.231 134.222 115.762 134.222 107.783V36.2972C134.222 28.3179 127.765 21.8494 119.8 21.8494Z" fill="#CECECE"/>
<path d="M119.687 22.1443H48.5524C40.6874 22.1443 34.3115 28.5313 34.3115 36.4102V107.67C34.3115 115.549 40.6874 121.936 48.5524 121.936H119.687C127.552 121.936 133.928 115.549 133.928 107.67V36.4102C133.928 28.5313 127.552 22.1443 119.687 22.1443Z" fill="#C5C5C5"/>
<path d="M119.575 22.4391H48.664C40.8998 22.4391 34.6057 28.7443 34.6057 36.5222V107.558C34.6057 115.336 40.8998 121.641 48.664 121.641H119.575C127.339 121.641 133.633 115.336 133.633 107.558V36.5222C133.633 28.7443 127.339 22.4391 119.575 22.4391Z" fill="#BDBDBD"/>
<path d="M119.462 22.7339H48.777C41.113 22.7339 34.9001 28.9577 34.9001 36.6352V107.445C34.9001 115.123 41.113 121.347 48.777 121.347H119.462C127.126 121.347 133.339 115.123 133.339 107.445V36.6352C133.339 28.9577 127.126 22.7339 119.462 22.7339Z" fill="#B5B5B5"/>
<path d="M119.349 23.0287H48.8896C41.3259 23.0287 35.1943 29.1712 35.1943 36.7482V107.332C35.1943 114.909 41.3259 121.052 48.8896 121.052H119.349C126.913 121.052 133.045 114.909 133.045 107.332V36.7482C133.045 29.1712 126.913 23.0287 119.349 23.0287Z" fill="#ADADAD"/>
<path d="M119.237 23.3236H49.0026C41.5391 23.3236 35.4888 29.3846 35.4888 36.8612V107.219C35.4888 114.696 41.5391 120.757 49.0026 120.757H119.237C126.7 120.757 132.751 114.696 132.751 107.219V36.8612C132.751 29.3846 126.7 23.3236 119.237 23.3236Z" fill="#A5A5A5"/>
<path d="M119.124 23.6184H49.1152C41.752 23.6184 35.783 29.598 35.783 36.9742V107.106C35.783 114.482 41.752 120.462 49.1152 120.462H119.124C126.487 120.462 132.456 114.482 132.456 107.106V36.9742C132.456 29.598 126.487 23.6184 119.124 23.6184Z" fill="#9C9C9C"/>
<path d="M119.012 23.9132H49.2271C41.9647 23.9132 36.0774 29.811 36.0774 37.0862V106.994C36.0774 114.269 41.9647 120.167 49.2271 120.167H119.012C126.275 120.167 132.162 114.269 132.162 106.994V37.0862C132.162 29.811 126.275 23.9132 119.012 23.9132Z" fill="#949494"/>
<path d="M118.899 24.2081H49.3398C42.1777 24.2081 36.3716 30.0244 36.3716 37.1992V106.881C36.3716 114.056 42.1777 119.872 49.3398 119.872H118.899C126.061 119.872 131.868 114.056 131.868 106.881V37.1992C131.868 30.0244 126.061 24.2081 118.899 24.2081Z" fill="#8C8C8C"/>
<path d="M118.787 24.5029H49.4527C42.3908 24.5029 36.666 30.2378 36.666 37.3122V106.768C36.666 113.843 42.3908 119.578 49.4527 119.578H118.787C125.849 119.578 131.573 113.843 131.573 106.768V37.3122C131.573 30.2378 125.849 24.5029 118.787 24.5029Z" fill="#848484"/>
<path d="M118.674 24.7977H49.5654C42.6038 24.7977 36.9602 30.4512 36.9602 37.4252V106.655C36.9602 113.629 42.6038 119.283 49.5654 119.283H118.674C125.635 119.283 131.279 113.629 131.279 106.655V37.4252C131.279 30.4512 125.635 24.7977 118.674 24.7977Z" fill="#7B7B7B"/>
<path d="M118.561 25.0926H49.6784C42.8169 25.0926 37.2546 30.6647 37.2546 37.5382V106.542C37.2546 113.416 42.8169 118.988 49.6784 118.988H118.561C125.422 118.988 130.985 113.416 130.985 106.542V37.5382C130.985 30.6647 125.422 25.0926 118.561 25.0926Z" fill="#737373"/>
<path d="M118.449 25.3874H49.791C43.0298 25.3874 37.5488 30.8781 37.5488 37.6512V106.43C37.5488 113.203 43.0298 118.694 49.791 118.694H118.449C125.21 118.694 130.691 113.203 130.691 106.43V37.6512C130.691 30.8781 125.21 25.3874 118.449 25.3874Z" fill="#6B6B6B"/>
<path d="M118.337 25.6822H49.9029C43.2426 25.6822 37.8433 31.091 37.8433 37.7631V106.318C37.8433 112.99 43.2426 118.399 49.9029 118.399H118.337C124.998 118.399 130.397 112.99 130.397 106.318V37.7631C130.397 31.091 124.998 25.6822 118.337 25.6822Z" fill="#636363"/>
<path d="M118.225 25.9771H50.0156C43.4555 25.9771 38.1375 31.3045 38.1375 37.8762V106.205C38.1375 112.777 43.4555 118.104 50.0156 118.104H118.225C124.785 118.104 130.103 112.777 130.103 106.205V37.8762C130.103 31.3045 124.785 25.9771 118.225 25.9771Z" fill="#5A5A5A"/>
<path d="M118.112 26.2719H50.1285C43.6687 26.2719 38.4319 31.5179 38.4319 37.9892V106.092C38.4319 112.564 43.6687 117.81 50.1285 117.81H118.112C124.572 117.81 129.808 112.564 129.808 106.092V37.9892C129.808 31.5179 124.572 26.2719 118.112 26.2719Z" fill="#525252"/>
<path d="M117.999 26.5667H50.2412C43.8816 26.5667 38.7261 31.7313 38.7261 38.1022V105.979C38.7261 112.35 43.8816 117.515 50.2412 117.515H117.999C124.359 117.515 129.514 112.35 129.514 105.979V38.1022C129.514 31.7313 124.359 26.5667 117.999 26.5667Z" fill="#4A4A4A"/>
<path d="M117.886 26.8616H50.3541C44.0947 26.8616 39.0205 31.9448 39.0205 38.2152V105.866C39.0205 112.137 44.0947 117.22 50.3541 117.22H117.886C124.146 117.22 129.22 112.137 129.22 105.866V38.2152C129.22 31.9448 124.146 26.8616 117.886 26.8616Z" fill="#424242"/>
<path d="M117.774 27.1564H50.4658C44.3072 27.1564 39.3147 32.1577 39.3147 38.3271V105.754C39.3147 111.924 44.3072 116.925 50.4658 116.925H117.774C123.933 116.925 128.925 111.924 128.925 105.754V38.3271C128.925 32.1577 123.933 27.1564 117.774 27.1564Z" fill="#3A3A3A"/>
<path d="M117.662 27.4512H50.5787C44.5204 27.4512 39.6091 32.3711 39.6091 38.4401V105.641C39.6091 111.71 44.5204 116.63 50.5787 116.63H117.662C123.72 116.63 128.631 111.71 128.631 105.641V38.4401C128.631 32.3711 123.72 27.4512 117.662 27.4512Z" fill="#313131"/>
<path d="M117.549 27.7461H50.6914C44.7333 27.7461 39.9033 32.5846 39.9033 38.5531V105.528C39.9033 111.497 44.7333 116.335 50.6914 116.335H117.549C123.507 116.335 128.337 111.497 128.337 105.528V38.5531C128.337 32.5846 123.507 27.7461 117.549 27.7461Z" fill="#292929"/>
<path d="M117.436 28.0409H50.8043C44.9465 28.0409 40.1978 32.798 40.1978 38.6662V105.415C40.1978 111.283 44.9465 116.041 50.8043 116.041H117.436C123.294 116.041 128.043 111.283 128.043 105.415V38.6662C128.043 32.798 123.294 28.0409 117.436 28.0409Z" fill="#212121"/>
<path d="M117.323 28.3357H50.917C45.1594 28.3357 40.4919 33.0114 40.4919 38.7791V105.302C40.4919 111.07 45.1594 115.746 50.917 115.746H117.323C123.081 115.746 127.748 111.07 127.748 105.302V38.7791C127.748 33.0114 123.081 28.3357 117.323 28.3357Z" fill="#191919"/>
<path d="M117.211 28.6306H51.0289C45.3721 28.6306 40.7864 33.2244 40.7864 38.8911V105.19C40.7864 110.857 45.3721 115.451 51.0289 115.451H117.211C122.868 115.451 127.454 110.857 127.454 105.19V38.8911C127.454 33.2244 122.868 28.6306 117.211 28.6306Z" fill="#101010"/>
<path d="M117.099 28.9254H51.1416C45.585 28.9254 41.0806 33.4378 41.0806 39.0041V105.077C41.0806 110.644 45.585 115.156 51.1416 115.156H117.099C122.655 115.156 127.16 110.644 127.16 105.077V39.0041C127.16 33.4378 122.655 28.9254 117.099 28.9254Z" fill="#080808"/>
<path d="M116.986 29.2202H51.2545C45.7982 29.2202 41.375 33.6512 41.375 39.1171V104.964C41.375 110.43 45.7982 114.861 51.2545 114.861H116.986C122.442 114.861 126.865 110.43 126.865 104.964V39.1171C126.865 33.6512 122.442 29.2202 116.986 29.2202Z" fill="black"/>
</g>
<path d="M120.851 22.1905H47.3895C41.2915 22.1905 36.3481 27.1426 36.3481 33.2513V106.842C36.3481 112.951 41.2915 117.903 47.3895 117.903H120.851C126.949 117.903 131.892 112.951 131.892 106.842V33.2513C131.892 27.1426 126.949 22.1905 120.851 22.1905Z" fill="white"/>
<path d="M131.889 33.2513H36.3481C36.348 31.7988 36.6335 30.3604 37.1883 29.0184C37.7432 27.6763 38.5565 26.457 39.5818 25.4298C40.6071 24.4027 41.8243 23.588 43.164 23.0322C44.5037 22.4764 45.9395 22.1904 47.3895 22.1905H120.851C123.779 22.191 126.587 23.3566 128.657 25.4309C130.727 27.5052 131.889 30.3183 131.889 33.2513Z" fill="#4AB7C3"/>
<path d="M109.916 52.4462H48.7975C48.3379 52.4462 47.8971 52.2633 47.5721 51.9377C47.247 51.6121 47.0645 51.1705 47.0645 50.7101C47.0645 50.2496 47.247 49.8081 47.5721 49.4825C47.8971 49.1569 48.3379 48.974 48.7975 48.974H109.916C110.376 48.974 110.817 49.1568 111.142 49.4824C111.467 49.808 111.65 50.2495 111.65 50.7101C111.65 50.9382 111.605 51.164 111.518 51.3747C111.431 51.5854 111.303 51.7768 111.142 51.9381C110.981 52.0993 110.79 52.2272 110.58 52.3143C110.369 52.4015 110.144 52.4463 109.916 52.4462Z" fill="#4AB7C3"/>
<path d="M119.446 57.1522H48.7934C47.8362 57.1522 47.0603 57.9295 47.0603 58.8883V58.8894C47.0603 59.8482 47.8362 60.6255 48.7934 60.6255H119.446C120.403 60.6255 121.179 59.8482 121.179 58.8894V58.8883C121.179 57.9295 120.403 57.1522 119.446 57.1522Z" fill="#D0D0D0"/>
<path d="M119.446 68.8027H48.7902C48.3306 68.8027 47.8897 68.6198 47.5647 68.2942C47.2397 67.9686 47.0571 67.527 47.0571 67.0666C47.0571 66.606 47.2397 66.1643 47.5647 65.8386C47.8897 65.5128 48.3305 65.3297 48.7902 65.3294H119.446C119.674 65.3294 119.899 65.3744 120.109 65.4617C120.32 65.549 120.511 65.677 120.672 65.8383C120.833 65.9996 120.96 66.1911 121.047 66.4019C121.134 66.6126 121.179 66.8385 121.179 67.0666C121.179 67.527 120.996 67.9686 120.671 68.2942C120.346 68.6198 119.906 68.8027 119.446 68.8027Z" fill="#D0D0D0"/>
<path d="M145.596 41.2925C153.078 33.7968 153.078 21.644 145.596 14.1483C138.113 6.6526 125.982 6.6526 118.499 14.1483C111.017 21.6439 111.017 33.7968 118.499 41.2925C125.982 48.7882 138.113 48.7882 145.596 41.2925Z" fill="#235564"/>
<path d="M129.808 34.8795C129.485 34.8803 129.165 34.8172 128.865 34.6938C128.566 34.5704 128.294 34.3892 128.065 34.1604L123.182 29.2695C122.719 28.8063 122.46 28.1781 122.46 27.5231C122.46 26.8681 122.719 26.2399 123.182 25.7767C123.644 25.3136 124.271 25.0534 124.925 25.0534C125.579 25.0534 126.206 25.3136 126.668 25.7767L129.808 28.9213L137.428 21.2885C137.89 20.8253 138.517 20.5651 139.171 20.5651C139.825 20.5651 140.452 20.8253 140.914 21.2885C141.377 21.7517 141.637 22.3799 141.637 23.0349C141.637 23.6899 141.377 24.3181 140.914 24.7813L131.553 34.1594C131.324 34.3885 131.052 34.57 130.752 34.6936C130.453 34.8171 130.132 34.8803 129.808 34.8795Z" fill="white"/>
<path d="M50.5081 28.005C50.6623 27.0587 50.0215 26.1664 49.0769 26.0119C48.1322 25.8575 47.2415 26.4994 47.0873 27.4457C46.9331 28.392 47.5739 29.2844 48.5185 29.4388C49.4632 29.5933 50.354 28.9513 50.5081 28.005Z" fill="white"/>
<path d="M57.6563 28.0051C57.8105 27.0588 57.1697 26.1664 56.2251 26.012C55.2804 25.8575 54.3897 26.4994 54.2355 27.4457C54.0813 28.392 54.7221 29.2844 55.6667 29.4388C56.6114 29.5933 57.5022 28.9514 57.6563 28.0051Z" fill="white"/>
<path d="M64.3148 28.9485C64.9916 28.2705 64.9916 27.1712 64.3148 26.4932C63.638 25.8152 62.5407 25.8152 61.8639 26.4932C61.1871 27.1712 61.1871 28.2705 61.8639 28.9484C62.5407 29.6264 63.638 29.6264 64.3148 28.9485Z" fill="white"/>
<path d="M137.74 75.5992H58.6903C52.2672 75.5992 47.0603 80.8153 47.0603 87.2497V87.2508C47.0603 93.6852 52.2672 98.9013 58.6903 98.9013H137.74C144.163 98.9013 149.37 93.6852 149.37 87.2508V87.2497C149.37 80.8153 144.163 75.5992 137.74 75.5992Z" fill="#ECECEC"/>
<path d="M60.7423 91.3168C60.0512 92.2756 59.3419 92.4886 58.6145 91.9558C57.887 91.4229 57.8696 90.6857 58.5622 89.744L59.6256 88.2524L57.8966 87.6935C56.7973 87.3381 56.3806 86.7251 56.6466 85.8547C56.9132 85.0205 57.6047 84.7808 58.7211 85.1356L60.4767 85.6955V83.8566C60.4767 82.6841 60.9286 82.0979 61.8324 82.0979C62.7212 82.0979 63.1655 82.6841 63.1655 83.8566V85.6955L64.8945 85.1356C65.4257 84.9575 65.8776 84.9308 66.2502 85.0555C66.4318 85.1146 66.5955 85.2189 66.7259 85.3587C66.8563 85.4985 66.9491 85.6691 66.9957 85.8547C67.2787 86.7245 66.8621 87.3374 65.7457 87.6935L63.99 88.2524L65.0801 89.744C65.7535 90.7028 65.7357 91.4401 65.0268 91.9558C64.3001 92.4893 63.5911 92.2838 62.8999 91.3394L61.8088 89.8211L60.7423 91.3168Z" fill="#4AB7C3"/>
<path d="M78.3744 91.3168C77.6832 92.2756 76.9739 92.4886 76.2465 91.9558C75.5191 91.4229 75.5017 90.6857 76.1942 89.744L77.2577 88.2524L75.5287 87.6935C74.4294 87.3381 74.0127 86.7251 74.2786 85.8547C74.5453 85.0205 75.2368 84.7808 76.3532 85.1356L78.1088 85.6955V83.8566C78.1088 82.6841 78.561 82.0979 79.4655 82.0979C80.3543 82.0979 80.7986 82.6841 80.7986 83.8566V85.6955L82.5276 85.1356C83.0602 84.9575 83.5124 84.9308 83.8843 85.0555C84.0658 85.1147 84.2293 85.2191 84.3595 85.3589C84.4897 85.4987 84.5823 85.6693 84.6288 85.8547C84.9119 86.7245 84.4952 87.3374 83.3788 87.6935L81.6231 88.2524L82.7132 89.744C83.3873 90.7028 83.3699 91.4401 82.6609 91.9558C81.9328 92.4893 81.2235 92.2838 80.533 91.3394L79.443 89.8211L78.3744 91.3168Z" fill="#4AB7C3"/>
<path d="M96.0065 91.3168C95.3154 92.2756 94.6064 92.4886 93.8797 91.9558C93.153 91.4229 93.1352 90.6857 93.8264 89.744L94.8898 88.2524L93.1608 87.6935C92.0615 87.3381 91.6452 86.7251 91.9118 85.8547C92.1771 85.0205 92.8682 84.7808 93.9853 85.1356L95.741 85.6955V83.8566C95.741 82.6841 96.1932 82.0979 97.0977 82.0979C97.9864 82.0979 98.4308 82.6841 98.4308 83.8566V85.6955L100.16 85.1356C100.692 84.9575 101.145 84.9308 101.516 85.0555C101.698 85.1147 101.861 85.2191 101.992 85.3589C102.122 85.4987 102.214 85.6693 102.261 85.8547C102.544 86.7245 102.127 87.3374 101.011 87.6935L99.2553 88.2524L100.346 89.744C101.019 90.7028 101.001 91.4401 100.293 91.9558C99.5663 92.4893 98.8571 92.2838 98.1652 91.3394L97.0751 89.8211L96.0065 91.3168Z" fill="#4AB7C3"/>
<path d="M113.636 91.3168C112.944 92.2756 112.235 92.4886 111.509 91.9558C110.782 91.4229 110.764 90.6857 111.455 89.744L112.519 88.2524L110.791 87.6935C109.69 87.3381 109.273 86.7251 109.541 85.8547C109.807 85.0205 110.498 84.7808 111.614 85.1356L113.37 85.6955V83.8566C113.37 82.6841 113.822 82.0979 114.727 82.0979C115.615 82.0979 116.06 82.6841 116.06 83.8566V85.6955L117.789 85.1356C118.321 84.9575 118.774 84.9308 119.145 85.0555C119.327 85.1147 119.49 85.2191 119.621 85.3589C119.751 85.4987 119.843 85.6693 119.89 85.8547C120.173 86.7245 119.756 87.3374 118.64 87.6935L116.884 88.2524L117.975 89.744C118.649 90.7028 118.632 91.4401 117.922 91.9558C117.195 92.4893 116.486 92.2838 115.794 91.3394L114.704 89.8211L113.636 91.3168Z" fill="#4AB7C3"/>
<path d="M131.274 91.3168C130.582 92.2756 129.873 92.4886 129.146 91.9558C128.419 91.4229 128.402 90.6857 129.093 89.744L130.156 88.2524L128.428 87.6935C127.328 87.3381 126.911 86.7251 127.178 85.8547C127.444 85.0205 128.136 84.7808 129.253 85.1356L131.007 85.6955V83.8566C131.007 82.6841 131.46 82.0979 132.364 82.0979C133.253 82.0979 133.697 82.6841 133.697 83.8566V85.6955L135.426 85.1356C135.958 84.9575 136.41 84.9308 136.783 85.0555C136.964 85.1147 137.128 85.2191 137.258 85.3589C137.388 85.4987 137.481 85.6693 137.527 85.8547C137.81 86.7245 137.394 87.3374 136.277 87.6935L134.522 88.2524L135.613 89.744C136.287 90.7028 136.269 91.4401 135.559 91.9558C134.833 92.4893 134.123 92.2838 133.432 91.3394L132.342 89.8211L131.274 91.3168Z" fill="#4AB7C3"/>
</g>
<defs>
<clipPath id="clip0_42_469">
<rect width="152" height="124" fill="white"/>
</clipPath>
</defs>
</svg>
