<svg width="236" height="332" viewBox="0 0 236 332" fill="none" xmlns="http://www.w3.org/2000/svg">
<path d="M153.292 72.8823H151.603V26.7184C151.603 23.2097 150.91 19.7354 149.564 16.4937C148.218 13.2521 146.245 10.3067 143.758 7.82565C141.272 5.34462 138.319 3.37655 135.07 2.03382C131.82 0.691092 128.338 0 124.821 0H26.7823C23.2652 -8.24355e-06 19.7825 0.691075 16.5332 2.03379C13.2838 3.37651 10.3313 5.34457 7.84437 7.8256C5.3574 10.3066 3.38463 13.252 2.03869 16.4937C0.692748 19.7353 6.76091e-06 23.2096 0 26.7183V279.977C-4.50725e-06 283.486 0.692722 286.96 2.03865 290.202C3.38459 293.443 5.35737 296.389 7.84433 298.87C10.3313 301.351 13.2837 303.319 16.5331 304.662C19.7825 306.004 23.2651 306.695 26.7822 306.695H124.82C128.338 306.696 131.82 306.004 135.07 304.662C138.319 303.319 141.271 301.351 143.758 298.87C146.245 296.389 148.218 293.443 149.564 290.202C150.91 286.96 151.603 283.486 151.603 279.977V105.743H153.292V72.8823Z" fill="#252525"/>
<path d="M145.902 26.902V279.792C145.902 282.412 145.384 285.007 144.379 287.428C143.374 289.849 141.9 292.048 140.042 293.901C138.185 295.753 135.98 297.223 133.553 298.225C131.126 299.227 128.525 299.742 125.898 299.741H27.3878C24.7618 299.741 22.1614 299.225 19.7352 298.223C17.309 297.22 15.1045 295.751 13.2476 293.899C11.3907 292.046 9.91776 289.847 8.91289 287.427C7.90803 285.006 7.39093 282.412 7.39111 279.792V26.902C7.39093 24.2822 7.90803 21.6881 8.91289 19.2677C9.91776 16.8473 11.3907 14.648 13.2476 12.7956C15.1045 10.9431 17.309 9.4737 19.7352 8.47124C22.1614 7.46879 24.7618 6.95293 27.3878 6.95313H39.3425C38.7557 8.39258 38.5324 9.95384 38.6923 11.4996C38.8522 13.0453 39.3904 14.5282 40.2596 15.8177C41.1287 17.1073 42.3021 18.164 43.6767 18.8951C45.0512 19.6261 46.5848 20.0089 48.1424 20.0099H104.306C105.865 20.0114 107.4 19.6302 108.775 18.8999C110.151 18.1696 111.326 17.1126 112.196 15.8223C113.065 14.532 113.603 13.048 113.762 11.5013C113.921 9.95449 113.696 8.3925 113.106 6.95313H125.898C128.525 6.95217 131.126 7.46747 133.553 8.46957C135.98 9.47167 138.185 10.9409 140.042 12.7935C141.9 14.646 143.374 16.8455 144.379 19.2663C145.384 21.687 145.902 24.2817 145.902 26.902Z" fill="white"/>
<path d="M115.26 158.317H28.6725C27.1559 158.315 25.7019 157.714 24.6295 156.644C23.5571 155.574 22.9539 154.123 22.9521 152.61V149.77C22.9539 148.257 23.5571 146.806 24.6295 145.736C25.7019 144.667 27.1559 144.065 28.6725 144.063H115.26C116.777 144.065 118.231 144.667 119.303 145.736C120.375 146.806 120.979 148.257 120.98 149.77V152.61C120.979 154.123 120.375 155.574 119.303 156.644C118.231 157.714 116.777 158.315 115.26 158.317Z" fill="#F0F0F0"/>
<path d="M115.26 182.803H28.6725C27.1559 182.801 25.7019 182.199 24.6295 181.13C23.5571 180.06 22.9539 178.609 22.9521 177.096V174.256C22.9539 172.743 23.5571 171.292 24.6295 170.222C25.7019 169.152 27.1559 168.551 28.6725 168.549H115.26C116.777 168.551 118.231 169.152 119.303 170.222C120.375 171.292 120.979 172.743 120.98 174.256V177.096C120.979 178.609 120.375 180.06 119.303 181.13C118.231 182.199 116.777 182.801 115.26 182.803Z" fill="#F0F0F0"/>
<path d="M119.591 152.841H33.003C31.4105 152.839 29.8838 152.207 28.7578 151.084C27.6318 149.961 26.9984 148.438 26.9966 146.849V144.008C26.9984 142.42 27.6318 140.897 28.7578 139.773C29.8838 138.65 31.4105 138.018 33.003 138.016H119.591C121.183 138.018 122.71 138.65 123.836 139.773C124.962 140.897 125.595 142.42 125.597 144.008V146.849C125.595 148.438 124.962 149.961 123.836 151.084C122.71 152.207 121.183 152.839 119.591 152.841ZM33.003 139.158C31.7139 139.159 30.4779 139.671 29.5664 140.58C28.6548 141.489 28.1421 142.722 28.1407 144.008V146.849C28.1421 148.135 28.6548 149.368 29.5664 150.277C30.4779 151.187 31.7139 151.698 33.003 151.7H119.591C120.88 151.698 122.116 151.187 123.027 150.277C123.939 149.368 124.451 148.135 124.453 146.849V144.008C124.451 142.722 123.939 141.489 123.027 140.58C122.116 139.671 120.88 139.159 119.591 139.158H33.003Z" fill="#3F3D56"/>
<path d="M119.591 177.327H33.003C31.4105 177.325 29.8838 176.693 28.7578 175.57C27.6318 174.446 26.9984 172.923 26.9966 171.335V168.494C26.9984 166.905 27.6318 165.382 28.7578 164.259C29.8838 163.136 31.4105 162.504 33.003 162.502H119.591C121.183 162.504 122.71 163.136 123.836 164.259C124.962 165.382 125.595 166.905 125.597 168.494V171.335C125.595 172.923 124.962 174.446 123.836 175.57C122.71 176.693 121.183 177.325 119.591 177.327ZM33.003 163.643C31.7139 163.645 30.4779 164.156 29.5664 165.066C28.6548 165.975 28.1421 167.208 28.1407 168.494V171.335C28.1421 172.621 28.6548 173.854 29.5664 174.763C30.4779 175.672 31.7139 176.184 33.003 176.185H119.591C120.88 176.184 122.116 175.672 123.027 174.763C123.939 173.854 124.451 172.621 124.453 171.335V168.494C124.451 167.208 123.939 165.975 123.027 165.066C122.116 164.156 120.88 163.645 119.591 163.643H33.003Z" fill="#3F3D56"/>
<path d="M145.901 26.902V81.9092C137.14 84.2087 127.967 84.4725 119.087 82.6803C110.208 80.8882 101.859 77.0878 94.6822 71.5717C87.5059 66.0555 81.6936 58.9705 77.6926 50.8619C73.6916 42.7532 71.6085 33.837 71.6035 24.7991C71.6035 23.1859 71.6685 21.5895 71.7984 20.0099H104.305C105.864 20.0114 107.399 19.6302 108.775 18.8999C110.151 18.1696 111.325 17.1126 112.195 15.8223C113.065 14.532 113.603 13.048 113.762 11.5013C113.92 9.95449 113.695 8.3925 113.106 6.95313H125.897C128.524 6.95217 131.125 7.46747 133.552 8.46957C135.979 9.47167 138.184 10.9409 140.042 12.7935C141.899 14.646 143.373 16.8455 144.378 19.2663C145.384 21.687 145.901 24.2817 145.901 26.902Z" fill="#D0D0D0"/>
<path d="M57.1661 296.306C57.1661 297.465 57.1228 298.61 57.029 299.741H27.3878C24.7618 299.741 22.1614 299.225 19.7352 298.223C17.309 297.22 15.1045 295.751 13.2476 293.899C11.3907 292.046 9.91776 289.847 8.91289 287.427C7.90803 285.006 7.39093 282.412 7.39111 279.792V252.742C13.6043 251.936 19.9184 252.46 25.9125 254.28C31.9067 256.1 37.4432 259.173 42.1532 263.295C46.8631 267.417 50.6382 272.494 53.2269 278.186C55.8157 283.878 57.1586 290.055 57.1661 296.306Z" fill="#4AB7C3"/>
<path d="M90.714 212.33H49.6061C48.0895 212.328 46.6355 211.727 45.5631 210.657C44.4907 209.587 43.8875 208.136 43.8857 206.623V203.783C43.8875 202.27 44.4907 200.819 45.5631 199.75C46.6355 198.68 48.0895 198.078 49.6061 198.076H90.714C92.2306 198.078 93.6846 198.68 94.757 199.75C95.8294 200.819 96.4326 202.27 96.4344 203.783V206.623C96.4326 208.136 95.8294 209.587 94.757 210.657C93.6846 211.727 92.2306 212.328 90.714 212.33Z" fill="#4AB7C3"/>
<path d="M95.047 206.854H53.939C52.3466 206.853 50.8199 206.221 49.6938 205.097C48.5678 203.974 47.9344 202.451 47.9326 200.862V198.022C47.9344 196.433 48.5678 194.91 49.6938 193.787C50.8199 192.663 52.3466 192.031 53.939 192.03H95.047C96.6394 192.031 98.1661 192.663 99.2921 193.787C100.418 194.91 101.052 196.433 101.053 198.022V200.862C101.052 202.451 100.418 203.974 99.2921 205.097C98.1661 206.221 96.6394 206.853 95.047 206.854ZM53.939 193.171C52.6499 193.172 51.414 193.684 50.5024 194.593C49.5909 195.503 49.0781 196.736 49.0767 198.022V200.862C49.0781 202.148 49.5909 203.381 50.5024 204.291C51.414 205.2 52.6499 205.712 53.939 205.713H95.047C96.3361 205.712 97.572 205.2 98.4836 204.291C99.3951 203.381 99.9079 202.148 99.9093 200.862V198.022C99.9079 196.736 99.3951 195.503 98.4836 194.593C97.572 193.684 96.3361 193.172 95.047 193.171H53.939Z" fill="#3F3D56"/>
<g clip-path="url(#clip0_40_1838)">
<path d="M72.0205 145.021L220.674 127.936L215.119 79.2017L66.4648 96.287L72.0205 145.021Z" fill="white"/>
<path d="M82.7715 143.778L220.676 127.93L217.835 103.019" stroke="black" stroke-width="4.24" stroke-linecap="round" stroke-linejoin="round"/>
<path d="M132.004 88.7487L66.4653 96.2808L69.1666 119.988" stroke="black" stroke-width="4.24" stroke-linecap="round" stroke-linejoin="round"/>
<path d="M99.4572 112.786L93.6953 111.654L94.5096 108.256L100.253 110.058L99.1056 103.45L103.04 103.019L103.322 109.837L108.437 106.889L109.942 110.071L104.493 112.451L108.706 117.138L105.777 119.503L102.052 114.286L99.5089 120.011L96.1096 118.42L99.4572 112.786Z" fill="#235564"/>
<path d="M91.7542 132.901L91.5112 130.643L116.13 127.956L116.373 130.212L91.7542 132.901Z" fill="#235564"/>
<path d="M129.644 109.489L123.882 108.358L124.697 104.96L130.44 106.761L129.293 100.153L133.224 99.725L133.509 106.543L138.624 103.592L140.129 106.777L134.677 109.152L138.893 113.837L135.957 116.204L132.232 110.987L129.691 116.715L126.289 115.116L129.644 109.489Z" fill="#235564"/>
<path d="M121.936 129.604L121.693 127.349L146.312 124.65L146.555 126.908L121.936 129.604Z" fill="#235564"/>
<path d="M159.831 106.196L154.067 105.064L154.884 101.664L160.627 103.468L159.48 96.8596L163.411 96.4287L163.696 103.247L168.811 100.299L170.316 103.481L164.864 105.856L169.078 110.527L166.152 112.895L162.424 107.678L159.886 113.406L156.481 111.807L159.831 106.196Z" fill="#235564"/>
<path d="M152.123 126.311L151.864 124.053L176.483 121.366L176.742 123.622L152.123 126.311Z" fill="#235564"/>
<path d="M190.016 102.899L184.254 101.768L185.068 98.3701L190.812 100.171L189.664 93.5633L193.598 93.135L193.88 99.9508L198.998 97.0023L200.503 100.187L195.051 102.559L199.265 107.247L196.339 109.614L192.611 104.405L190.07 110.115L186.668 108.516L190.016 102.899Z" fill="#235564"/>
<path d="M182.31 123.014L182.051 120.759L206.67 118.07L206.929 120.328L182.31 123.014Z" fill="#929FF7"/>
<path d="M126.84 135.187C124.942 131.899 125.547 136.555 122.704 136.402C119.17 136.207 116.342 132.722 116.265 140.347C116.2 146.548 117.679 145.974 121.605 146.475C125.025 146.909 125.945 147.49 131.144 149.46C133.928 150.516 135.458 144.788 134.346 143.955C127.357 138.689 128.566 138.177 126.84 135.187Z" fill="#FFB482"/>
<path d="M158.722 325.541C160.852 329.398 176.067 330.616 179.262 331.163C181.17 331.49 190.51 332.783 189.77 326.203C189.434 323.218 181.884 323.984 179.847 323.634C176.631 323.083 173.589 322.157 170.44 321.298C167.736 320.566 160.617 318.414 158.72 322.011C158.438 322.557 158.291 323.162 158.292 323.777C158.292 324.391 158.44 324.996 158.722 325.541Z" fill="#E1EBF0"/>
<path d="M220.345 330.021C216.93 332.78 209.077 329.616 205 329.271C202.377 329.05 185.326 325.541 191.155 319.278C192.634 317.693 197.703 321.176 199.562 321.752C202.824 322.769 206.099 323.766 209.555 324.171C211.023 324.342 221.26 322.756 221.637 325.386C221.777 326.367 222.146 328.568 220.345 330.021Z" fill="#E1EBF0"/>
<path d="M220.825 320.428C221.014 321.869 222.485 327.402 221.084 328.497C217.574 331.254 205.246 327.101 201.503 326.655C194.469 325.819 191.31 323.418 190.677 321.723C188.927 317.051 197.245 318.648 199.983 318.718C207.399 318.917 219.523 310.386 220.825 320.428Z" fill="#2C3670"/>
<path d="M188.542 320.018C188.816 321.445 190.61 326.88 189.292 328.064C185.952 331.031 173.131 328.323 169.437 327.599C162.041 326.123 158.999 326.561 158.725 322.616C158.505 319.449 164.908 319.678 167.635 319.584C175.049 319.312 186.64 310.075 188.542 320.018Z" fill="#2C3670"/>
<path d="M205.171 306.48C204.347 301.883 216.519 301.831 217.67 306.236C218.096 307.863 218.903 315.146 218.866 317.768C218.83 320.389 206.536 320.703 206.267 318.079C205.903 314.544 206.267 312.535 205.171 306.48Z" fill="#FFB482"/>
<path d="M187.379 314.503C188.059 320.711 186.882 320.807 180.586 321.095C175.416 321.331 175.646 319.758 176.054 314.277C176.442 309.086 176.641 309.968 181.795 309.166C185.786 308.549 186.831 309.498 187.379 314.503Z" fill="#FFB482"/>
<path d="M201.961 94.3705C199.95 89.8284 207.177 96.8777 206.683 90.8666C206.316 86.4075 202.423 78.4549 208.912 79.1427C215.439 79.8357 216.408 85.4446 216.894 89.6389C217.31 93.2959 218.861 96.7272 219.898 103.135C220.415 106.268 215.356 104.524 214.244 103.553C207.818 97.9523 203.445 97.7265 201.961 94.3705Z" fill="#FFB482"/>
<path d="M174.136 314.85C174.803 318.808 190.445 317.423 190.445 313.322C190.445 308.51 193.397 256.722 199.05 235.332C202.721 221.446 207.42 208.785 205.378 194.149C204.584 188.457 198.598 192.852 193.487 191.035C190.336 189.908 175.545 200.638 174.255 203.553C168.101 217.462 172.893 307.471 174.136 314.85Z" fill="#252525"/>
<path d="M194.855 231.885C198.104 243.072 203.248 310.399 204.39 314.996C205.36 318.889 220.417 317.293 220.417 312.699C220.417 308.232 219.536 246.046 219.823 231.532C220.107 217.169 219.861 202.722 211.455 190.58C208.188 185.862 204.822 192.496 199.443 193.176C196.124 193.599 182.641 192.896 182.809 196.086C183.569 211.303 192.373 223.341 194.855 231.885Z" fill="#252525"/>
<path d="M128.202 151.248C126.325 149.128 131.769 139.171 134.723 141.097C141.426 145.465 156.437 155.456 157.662 155.113C168.297 152.061 176.439 138.72 182.144 136.983C186.885 135.543 180.172 163.198 172.867 168.129C167.371 171.836 164.246 175.376 156.977 175.376C152.192 175.373 130.996 154.404 128.202 151.248Z" fill="white"/>
<path d="M128.202 151.248C126.325 149.128 131.769 139.171 134.723 141.097C141.426 145.465 156.437 155.456 157.662 155.113C168.297 152.061 176.439 138.72 182.144 136.983C186.885 135.543 180.172 163.198 172.867 168.129C167.371 171.836 164.246 175.376 156.977 175.376C152.192 175.373 130.996 154.404 128.202 151.248Z" stroke="#252525" stroke-miterlimit="10"/>
<path d="M171.205 206.989C171.981 214.116 197.667 214.965 210.16 213.675C221.301 212.525 220.254 210.122 219.208 205.458C214.924 186.55 216.938 164.394 215.847 137.666C210.018 135.932 186.777 137.721 181.023 137.528C179.317 137.471 169.887 147.246 173.906 161.036C180.087 182.27 173.712 197.438 171.205 206.989Z" fill="white"/>
<path d="M173.893 161.036C180.097 182.272 173.712 197.438 171.205 206.976C171.981 214.103 197.667 214.952 210.16 213.662C216.532 213.006 218.915 211.939 219.593 210.273" stroke="#252525" stroke-miterlimit="10"/>
<path d="M213.063 139.784C216.424 122.5 215.785 116.873 209.92 101.371C209.129 99.2786 218.006 96.1172 219.652 98.2559C231.77 115.365 234.834 141.564 230.292 156.587C227.417 166.097 226.464 170.738 215.736 165.962C212.983 164.737 201.384 158.793 202.982 156.008C204.354 153.597 211.179 149.499 213.063 139.784Z" fill="white"/>
<path d="M213.063 139.784C216.424 122.5 215.785 116.873 209.92 101.371C209.129 99.2786 218.006 96.1172 219.652 98.2559C231.77 115.365 234.834 141.564 230.292 156.587C227.417 166.097 226.464 170.738 215.736 165.962C212.983 164.737 201.384 158.793 202.982 156.008C204.354 153.597 211.179 149.499 213.063 139.784Z" stroke="#252525" stroke-miterlimit="10"/>
<path d="M212.364 119.262C213.222 116.724 212.879 114.312 211.598 113.875C210.316 113.438 208.582 115.142 207.723 117.68C206.864 120.218 207.207 122.63 208.489 123.067C209.77 123.504 211.505 121.801 212.364 119.262Z" fill="#FFB482"/>
<path d="M234.673 182.27C234.001 185.976 223.816 189.693 222.62 186.121C222.017 184.325 220.552 177.787 220.552 177.787C220.552 177.787 220.415 183.204 220.415 186.295C220.415 192.732 196.116 194.86 194.862 188.548C193.978 184.076 192.355 173.284 192.355 173.284C192.355 173.284 192.21 183.147 192.117 188.912C192.068 191.954 180.012 189.566 180.012 189.566C179.048 189.181 178.125 188.787 177.256 188.405C166.88 183.788 176.336 175.646 174.154 167.743C172.694 162.453 167.814 160.924 170.967 155.256C172.518 152.458 173.909 153.179 173.485 149.717C173.226 147.602 170.45 146.39 170.383 144.03C170.295 140.319 175.514 135.6 176.913 131.92C178.668 127.3 178.345 122.576 178.753 117.722C179.704 106.403 186.412 94.8481 198.657 95.5619C213.521 96.4313 214.118 107.885 217.039 118.47C217.713 120.915 218.111 124.302 219.701 126.308C221.451 128.52 228.26 134.232 228.03 139.353C227.771 145.118 231.424 143.895 233.8 148.489C235.537 151.843 235.245 156.795 233.368 160.06C232.786 163.229 237.103 168.835 234.673 182.27Z" fill="#252525"/>
<path d="M157.67 155.108C159.258 155.969 160.485 158.664 159.971 159.261" stroke="black" stroke-width="3" stroke-miterlimit="10"/>
</g>
<defs>
<clipPath id="clip0_40_1838">
<rect width="169.503" height="252.371" fill="white" transform="translate(65.9175 79.1012)"/>
</clipPath>
</defs>
</svg>
