<svg width="33" height="26" viewBox="0 0 33 26" fill="none" xmlns="http://www.w3.org/2000/svg">
<path d="M32.6365 17.044C32.5177 17.6332 32.4322 18.2367 32.2658 18.8117C31.865 20.1681 31.1385 21.4059 30.1496 22.4172C29.1608 23.4284 27.9395 24.1825 26.5924 24.6136C25.2453 25.0446 23.8132 25.1397 22.4209 24.8904C21.0286 24.6411 19.7185 24.055 18.6046 23.1832C17.4214 22.2329 16.1812 22.0096 14.8032 22.6701C14.5235 22.823 14.2593 23.0029 14.0145 23.207C12.8325 24.1182 11.4359 24.7099 9.95904 24.9251C8.4822 25.1403 6.97483 24.9718 5.58198 24.4357C4.18913 23.8997 2.95768 23.0141 2.00614 21.8644C1.05461 20.7146 0.415011 19.3393 0.148897 17.8708C-0.210901 15.9852 0.0859207 14.0332 0.989955 12.3398C1.04727 12.2435 1.07753 12.1335 1.07753 12.0214C1.07753 11.9094 1.04727 11.7993 0.989955 11.703C0.397023 10.5202 0.0648408 9.22388 0.0158488 7.90165C-0.0620315 6.8391 0.159333 5.77597 0.654849 4.83281C1.15036 3.88965 1.90021 3.1042 2.81937 2.56547C4.33623 1.64151 6.01486 1.01424 7.76592 0.717038C11.4343 -0.0194802 15.1454 -0.0717608 18.866 0.0517842C20.8948 0.0989394 22.9156 0.323138 24.9054 0.721795C26.6668 1.03243 28.3524 1.67763 29.871 2.62249C30.6221 3.07813 31.2578 3.70119 31.7285 4.44302C32.1991 5.18484 32.492 6.02537 32.5842 6.89904C32.596 6.9371 32.612 6.97374 32.6317 7.00833V8.28657C32.6109 8.33393 32.595 8.38326 32.5842 8.43385C32.4708 9.65005 32.1274 10.8337 31.5721 11.9217C31.5386 12.0353 31.5488 12.1573 31.6006 12.2638C31.8002 12.7675 32.0758 13.2474 32.2183 13.7606C32.4037 14.3878 32.4987 15.0388 32.6317 15.6613L32.6365 17.044ZM16.2953 8.70473H8.96811C8.65133 8.70473 8.33454 8.71897 8.01776 8.74748C6.84396 8.85917 5.71223 9.24235 4.71201 9.86673C3.71179 10.4911 2.87051 11.3396 2.25466 12.3451C1.63881 13.3506 1.26526 14.4856 1.16356 15.6603C1.06185 16.835 1.23477 18.0173 1.66864 19.1136C2.10251 20.21 2.78545 21.1904 3.66346 21.9774C4.54148 22.7644 5.59052 23.3364 6.72766 23.6482C7.86479 23.96 9.05887 24.003 10.2155 23.7739C11.3721 23.5448 12.4596 23.0497 13.392 22.3279C13.7623 22.0271 14.1694 21.7748 14.6037 21.5771C15.3211 21.2414 16.1195 21.1177 16.9049 21.2204C17.6903 21.3231 18.43 21.648 19.037 22.1568C19.8478 22.8289 20.7875 23.3279 21.7984 23.6229C22.8093 23.9179 23.87 24.0027 24.9149 23.8722C26.916 23.7169 28.7745 22.7767 30.085 21.2566C31.3956 19.7365 32.0519 17.7598 31.9107 15.7577C31.7696 13.7556 30.8425 11.8905 29.3317 10.5692C27.8208 9.24797 25.8488 8.57775 23.8458 8.70473H16.2953ZM3.56064 9.27491C3.58117 9.27719 3.60188 9.27719 3.62241 9.27491L3.80298 9.1466C5.21059 8.15263 6.89332 7.62275 8.61649 7.63083C13.7547 7.63083 18.8945 7.63083 24.0359 7.63083C25.1819 7.61218 26.3178 7.84745 27.3621 8.31981C27.9655 8.60016 28.5357 8.94229 29.144 9.27015C29.201 9.02306 29.2675 8.75696 29.3245 8.49086C29.4805 7.88273 29.4314 7.24011 29.1848 6.66273C28.9382 6.08536 28.508 5.60554 27.9608 5.29771C27.8325 5.21693 27.7089 5.13616 27.5806 5.06488C26.5033 4.51067 25.3482 4.12294 24.1546 3.91494C22.2968 3.56516 20.4137 3.36652 18.5238 3.32098C15.2875 3.15496 12.0427 3.33496 8.84457 3.85793C7.51515 4.04796 6.22889 4.4676 5.04318 5.09812C3.33731 6.07698 2.90015 7.26968 3.55114 9.27491H3.56064ZM1.8025 11.0188C2.08761 10.7005 2.31093 10.4771 2.501 10.23C2.5365 10.1785 2.56149 10.1206 2.57454 10.0594C2.58758 9.99827 2.58843 9.93512 2.57703 9.87363C2.48675 9.44598 2.34895 9.03256 2.26817 8.60966C2.07215 7.81114 2.14032 6.97062 2.46245 6.21413C2.78458 5.45763 3.34331 4.82597 4.05482 4.4139C4.4631 4.14569 4.89397 3.91358 5.34254 3.72016C7.53784 2.76982 9.87569 2.50369 12.2326 2.32313C14.6269 2.15049 17.0297 2.12985 19.4267 2.26135C21.5392 2.32409 23.6382 2.62212 25.6847 3.14992C26.9722 3.44733 28.1739 4.03757 29.1962 4.8748C29.886 5.45602 30.3279 6.27867 30.4317 7.17468C30.5013 8.07649 30.3815 8.98287 30.0801 9.83564C30.0515 9.93068 30.0088 10.0732 30.0563 10.1302C30.2844 10.4153 30.5315 10.6719 30.8071 10.9666C31.3151 9.8702 31.5669 8.67263 31.5436 7.46453C31.5387 6.82507 31.3986 6.19384 31.1324 5.61239C30.8663 5.03093 30.4801 4.51236 29.9993 4.09076C29.158 3.35569 28.177 2.79812 27.115 2.45143C24.7408 1.67553 22.2658 1.25129 19.7688 1.19221C16.4074 0.97333 13.0328 1.07357 9.69037 1.49157C7.89465 1.68784 6.13977 2.15904 4.48723 2.88861C3.39265 3.35086 2.45644 4.12192 1.793 5.10763C1.00421 6.35259 0.970947 7.71635 1.25605 9.10386C1.38435 9.72633 1.60293 10.3536 1.8025 11.0188Z" fill="white"/>
</svg>
