<svg width="24" height="35" viewBox="0 0 24 35" fill="none" xmlns="http://www.w3.org/2000/svg">
<path d="M11.4919 22.9449C11.4919 20.1333 11.4919 17.3244 11.4919 14.5128C11.4681 13.5616 11.6391 12.6155 11.9945 11.7329C12.3499 10.8502 12.8822 10.0497 13.5585 9.38046C14.1278 8.81601 14.5764 8.14169 14.877 7.39845C15.1776 6.65522 15.3239 5.85859 15.3071 5.05702C15.3071 4.37364 15.3071 3.68748 15.3071 3.00409C15.3081 2.94404 15.2964 2.88447 15.2728 2.82922C15.2493 2.77397 15.2144 2.72426 15.1705 2.68332C15.072 2.62539 14.9921 2.54054 14.9403 2.43874C14.8884 2.33695 14.8667 2.22246 14.8777 2.10874C14.8777 1.58992 14.8777 1.07389 14.8777 0.557862C14.8777 0.164569 15.0617 0 15.455 0C16.8382 0 18.2225 0 19.6076 0C20.0204 0 20.2044 0.178512 20.2156 0.588541C20.2156 1.10456 20.2156 1.62339 20.2156 2.13941C20.2156 2.29283 20.1487 2.52433 20.0427 2.58011C19.7638 2.72795 19.7861 2.94832 19.7889 3.1882C19.7889 4.04173 19.7526 4.89806 19.8419 5.74322C19.9852 7.12164 20.6364 8.39734 21.6686 9.32189C22.8192 10.3416 23.5974 11.7156 23.8802 13.2269C23.9634 13.6993 24.0035 14.1782 24.0001 14.6578C24.0001 20.3518 24.0001 26.0457 24.0001 31.7396C24.0001 33.243 23.0798 34.1524 21.5654 34.1524H13.9406C12.4095 34.1524 11.4919 33.2347 11.4919 31.7089V22.9449ZM12.5155 28.041C13.2043 28.041 13.8653 28.0577 14.5235 28.041C14.6955 28.0274 14.8679 28.061 15.0222 28.1381C15.1765 28.2153 15.3069 28.3331 15.3992 28.4789C15.6589 28.8308 15.9947 29.1196 16.3817 29.3235C16.7686 29.5275 17.1966 29.6413 17.6337 29.6566C18.0708 29.6719 18.5057 29.5882 18.906 29.4118C19.3062 29.2354 19.6614 28.9709 19.9451 28.6379C20.0941 28.426 20.2979 28.2586 20.5346 28.1534C20.7714 28.0483 21.0322 28.0094 21.2893 28.041C21.7579 28.0772 22.2292 28.041 22.6977 28.041C22.7837 28.0367 22.8694 28.0274 22.9543 28.0131V17.5783C22.2738 17.5783 21.6268 17.5615 20.977 17.5783C20.8055 17.5948 20.6327 17.5637 20.4777 17.4884C20.3227 17.4131 20.1915 17.2965 20.0985 17.1515C19.8259 16.7829 19.4707 16.4834 19.0615 16.277C18.6522 16.0706 18.2002 15.9631 17.7418 15.9631C17.2835 15.9631 16.8315 16.0706 16.4222 16.277C16.013 16.4834 15.6578 16.7829 15.3852 17.1515C15.2964 17.29 15.1717 17.4018 15.0244 17.475C14.877 17.5482 14.7126 17.58 14.5486 17.5671C13.8792 17.542 13.2099 17.5671 12.5266 17.5671L12.5155 28.041ZM22.985 16.5685C22.985 15.9856 22.9682 15.4528 22.985 14.9117C23.0371 13.9906 22.8777 13.0698 22.519 12.2198C22.1603 11.3698 21.6118 10.6133 20.9156 10.0081C20.1257 9.27534 19.5265 8.361 19.1698 7.34428C18.8804 6.5397 18.7414 5.68876 18.7598 4.8339C18.7598 4.13936 18.7598 3.43925 18.7598 2.74471H16.3111C16.3111 3.52572 16.3111 4.28161 16.3111 5.03751C16.326 5.97668 16.1525 6.90927 15.8009 7.78025C15.4493 8.65122 14.9268 9.44289 14.2641 10.1085C13.8913 10.499 13.5613 10.9282 13.2796 11.3888C12.2812 12.9871 12.5155 14.775 12.5127 16.5574C13.1653 16.5574 13.79 16.5574 14.4119 16.5574C14.5144 16.5456 14.6084 16.4946 14.6741 16.4151C15.0477 15.9607 15.5173 15.5947 16.0492 15.3434C16.581 15.0921 17.162 14.9618 17.7502 14.9618C18.3385 14.9618 18.9194 15.0921 19.4513 15.3434C19.9831 15.5947 20.4528 15.9607 20.8264 16.4151C20.8612 16.4554 20.9039 16.488 20.9519 16.5111C20.9999 16.5341 21.0521 16.547 21.1053 16.549C21.7049 16.5657 22.3156 16.5601 22.985 16.5601V16.5685ZM12.5071 29.0507C12.5071 30.08 12.4848 31.0618 12.5071 32.0436C12.5264 32.3428 12.6599 32.6231 12.8799 32.8266C13.1 33.0301 13.3899 33.1412 13.6896 33.137C16.3818 33.1482 19.0777 33.1482 21.7774 33.137C21.9374 33.1386 22.0962 33.1079 22.2441 33.0468C22.3921 32.9858 22.5263 32.8956 22.6387 32.7816C22.7511 32.6676 22.8394 32.5322 22.8984 32.3834C22.9574 32.2345 22.9859 32.0754 22.9822 31.9153C22.9822 31.5081 22.9822 31.0981 22.9822 30.6908V29.0479C22.3156 29.0479 21.6909 29.0479 21.069 29.0479C20.9583 29.0737 20.8599 29.1367 20.7901 29.2264C19.0498 31.1343 16.4283 31.1232 14.6852 29.2041C14.6133 29.1207 14.5148 29.0645 14.4063 29.0451C13.7788 29.034 13.1681 29.0423 12.5071 29.0423V29.0507ZM19.2004 1.02927H15.9012V1.69313H19.1893L19.2004 1.02927Z" fill="white"/>
<path d="M5.12701 14.1335H8.95337C9.49441 14.1335 9.62828 14.2646 9.68963 14.7974C9.86255 16.2757 10.0522 17.7512 10.2112 19.2296C10.3248 20.3501 10.0604 21.4764 9.45998 22.4292C8.85957 23.382 7.95769 24.1065 6.89795 24.4874C6.83867 24.4972 6.78191 24.5187 6.73097 24.5505C6.68002 24.5824 6.6359 24.624 6.60115 24.6731C6.5664 24.7221 6.54171 24.7775 6.5285 24.8361C6.5153 24.8947 6.51386 24.9554 6.52424 25.0146C6.58839 27.1261 6.62464 29.2404 6.686 31.3519C6.70444 31.5571 6.78521 31.7518 6.91748 31.9098C7.30234 32.3561 7.71789 32.7745 8.12786 33.1984C8.31192 33.3881 8.43184 33.6308 8.27567 33.84C8.20568 33.921 8.12036 33.9873 8.02463 34.0352C7.92891 34.083 7.82466 34.1115 7.71789 34.1189C5.98599 34.1384 4.25129 34.1189 2.51939 34.1328C2.2405 34.1328 1.99508 34.0631 1.96161 33.7981C1.94212 33.5823 2.0071 33.3673 2.14289 33.1984C2.53055 32.7382 2.97956 32.3254 3.37 31.8763C3.47728 31.755 3.54278 31.6025 3.55686 31.4412C3.61543 29.2822 3.65726 27.1205 3.71583 24.9588C3.72503 24.9049 3.72352 24.8498 3.71139 24.7966C3.69927 24.7433 3.67676 24.6929 3.64516 24.6484C3.61355 24.6038 3.57348 24.5659 3.52722 24.5369C3.48097 24.5078 3.42944 24.4882 3.37558 24.479C2.28076 24.086 1.35327 23.3302 0.747058 22.3373C0.140843 21.3444 -0.107639 20.174 0.0428566 19.0204C0.218557 17.6648 0.374735 16.3064 0.530913 14.9452C0.617368 14.206 0.709402 14.1084 1.45682 14.1084L5.12701 14.1335ZM9.09281 18.5211H1.14447C0.717769 20.4178 1.35642 22.1472 2.84012 23.1234C3.53067 23.5824 4.3437 23.8221 5.17275 23.8111C6.0018 23.8002 6.80822 23.5391 7.48641 23.0621C8.90874 22.0663 9.53067 20.3202 9.09281 18.5211ZM8.99241 17.4695C8.91153 16.7861 8.81113 16.1446 8.76372 15.5003C8.74141 15.1934 8.62149 15.1348 8.3426 15.1376C6.18679 15.1376 4.03376 15.1376 1.87795 15.1376H1.52655L1.24766 17.4639L8.99241 17.4695ZM5.66805 31.3882C5.61785 29.1818 5.56765 27.0034 5.52024 24.8249H4.71983L4.56923 31.3882H5.66805ZM6.58281 33.1371C6.09754 32.0799 5.18836 32.4314 4.41584 32.4481C4.13695 32.4481 3.88037 32.8303 3.60985 33.0367L3.67121 33.1371H6.58281Z" fill="white"/>
<path d="M17.7749 19.9994C18.3319 20.0057 18.8744 20.1774 19.3335 20.4927C19.7926 20.8081 20.1475 21.2529 20.3533 21.7705C20.559 22.2882 20.6062 22.8553 20.4889 23.3998C20.3715 23.9443 20.0949 24.4417 19.6943 24.8287C19.2936 25.2156 18.787 25.4746 18.2388 25.5729C17.6905 25.6711 17.1255 25.6041 16.6154 25.3804C16.1054 25.1566 15.6734 24.7863 15.3743 24.3163C15.0752 23.8464 14.9226 23.2982 14.9359 22.7413C14.9527 22.0024 15.2603 21.3 15.7919 20.7867C16.3234 20.2733 17.0361 19.9904 17.7749 19.9994ZM17.7749 21.0119C17.2993 21.0023 16.8394 21.1821 16.4963 21.5116C16.1532 21.8412 15.955 22.2935 15.9454 22.7692C15.9358 23.2449 16.1155 23.7049 16.445 24.048C16.7745 24.3912 17.2268 24.5894 17.7024 24.599C17.9379 24.6038 18.1721 24.5621 18.3914 24.4763C18.6108 24.3906 18.8112 24.2625 18.9811 24.0993C19.151 23.9361 19.2871 23.7411 19.3816 23.5253C19.4761 23.3095 19.5272 23.0772 19.5319 22.8417C19.5367 22.6062 19.495 22.372 19.4093 22.1526C19.3236 21.9332 19.1955 21.7328 19.0324 21.5629C18.8692 21.393 18.6742 21.2569 18.4584 21.1623C18.2427 21.0678 18.0104 21.0167 17.7749 21.0119Z" fill="white"/>
<path d="M20.6554 11.0039C20.5634 11.1182 20.4825 11.3135 20.3459 11.3637C20.2619 11.3976 20.1713 11.412 20.0809 11.4057C19.9906 11.3994 19.9028 11.3726 19.8243 11.3274C19.3558 10.8365 18.918 10.3149 18.4996 9.77935C18.4661 9.73214 18.4427 9.67847 18.431 9.62177C18.4193 9.56507 18.4195 9.50655 18.4315 9.44992C18.4436 9.39329 18.4673 9.33979 18.5011 9.29279C18.5349 9.24578 18.5781 9.2063 18.6279 9.17685C18.668 9.13474 18.7163 9.10122 18.7697 9.07831C18.8232 9.0554 18.8807 9.04358 18.9389 9.04358C18.997 9.04358 19.0546 9.0554 19.108 9.07831C19.1615 9.10122 19.2097 9.13474 19.2498 9.17685C19.6961 9.6594 20.1144 10.1643 20.5355 10.6691C20.5901 10.7749 20.6305 10.8875 20.6554 11.0039Z" fill="white"/>
</svg>
