<svg width="33" height="34" viewBox="0 0 33 34" fill="none" xmlns="http://www.w3.org/2000/svg">
<path d="M32.9761 11.1518C32.8732 11.6661 32.7924 12.1877 32.6528 12.6946C32.142 14.5085 31.0245 16.0925 29.4866 17.1821C27.9488 18.2717 26.0837 18.8011 24.2025 18.6819C23.7396 18.6819 23.2693 18.557 22.7844 18.4909C22.8579 19.0345 22.9387 19.5708 23.0048 20.107C23.3294 22.9591 22.584 25.8302 20.9131 28.1644C19.2421 30.4986 16.7643 32.1301 13.9594 32.7429C13.4303 32.8531 12.8866 32.9192 12.3502 33.0074H10.6675C10.1752 32.9192 9.6755 32.8605 9.19788 32.7576C6.98919 32.2891 4.96551 31.1857 3.37551 29.583C1.78552 27.9803 0.698495 25.9482 0.247981 23.7362C-0.322163 20.8665 0.0974573 17.8884 1.43836 15.2879C2.49147 13.2561 3.7549 11.3405 5.2079 9.57234C6.61337 7.84977 7.91386 6.0442 9.10235 4.16541C9.769 3.06266 10.3182 1.89309 10.7409 0.67587C10.9026 0.205701 11.1451 -3.05176e-05 11.5272 -3.05176e-05C11.9093 -3.05176e-05 12.1591 0.213054 12.3208 0.683224C13.0928 2.79841 14.1885 4.78103 15.5686 6.56034C15.958 7.09663 16.3622 7.62554 16.7884 8.19122C16.8839 7.92675 16.9574 7.70635 17.0456 7.45658C17.6901 5.76365 18.8749 4.33046 20.4166 3.37884C21.9582 2.42723 23.7707 2.01028 25.5733 2.19268C27.3759 2.37507 29.0681 3.14658 30.3878 4.38772C31.7075 5.62885 32.581 7.27043 32.8732 9.05813C32.9099 9.27118 32.9541 9.47686 32.9908 9.68991L32.9761 11.1518ZM11.5198 1.74841L11.3729 2.07906C11.0496 2.75492 10.7483 3.44549 10.3883 4.09931C9.24683 6.05908 7.94936 7.92372 6.50847 9.6752C5.09099 11.3866 3.82485 13.2178 2.72426 15.1482C1.39169 17.4671 0.852455 20.1574 1.18851 22.8106C1.49765 25.1686 2.60289 27.3505 4.32128 28.995C6.03968 30.6395 8.2682 31.6482 10.6381 31.854C12.3365 32.0291 14.0517 31.7697 15.6224 31.1002C17.1931 30.4307 18.5678 29.373 19.6174 28.0265C21.9467 25.1908 22.439 21.9216 21.5866 18.4027C21.5685 18.2906 21.5218 18.1852 21.451 18.0964C21.3802 18.0076 21.2877 17.9386 21.1825 17.8959C19.6878 17.184 18.4409 16.0406 17.6026 14.6132C16.7643 13.1858 16.3732 11.5401 16.4798 9.88828C16.4809 9.72344 16.4266 9.56302 16.3255 9.4328C14.4517 7.05257 12.6294 4.65759 11.4831 1.74841H11.5198ZM24.7463 17.602C26.1621 17.6063 27.5474 17.1908 28.7269 16.4078C29.9065 15.6249 30.8272 14.5097 31.3727 13.2035C31.9182 11.8973 32.064 10.4587 31.7915 9.06961C31.5191 7.68056 30.8406 6.40349 29.8421 5.4C28.8435 4.39651 27.5697 3.71165 26.1817 3.43211C24.7938 3.15257 23.3541 3.2909 22.0448 3.82956C20.7355 4.36823 19.6154 5.28305 18.8262 6.45829C18.037 7.63352 17.6143 9.01639 17.6114 10.4319C17.6093 12.3152 18.349 14.1235 19.6707 15.4654C20.9923 16.8074 22.7893 17.5749 24.6728 17.602H24.7463Z" fill="white"/>
<path d="M9.18333 18.4027C9.1172 18.5643 9.06575 18.6672 9.02901 18.77C8.74978 19.5047 8.46325 20.2393 8.19872 20.9739C8.15841 21.1193 8.06906 21.2462 7.94586 21.3332C7.82266 21.4202 7.67315 21.462 7.52267 21.4515H5.00966C4.58347 21.4515 4.3263 21.2164 4.33365 20.8784C4.341 20.5405 4.59082 20.3569 5.00966 20.3495C5.64159 20.3495 6.27354 20.3495 6.91281 20.3495C7.01482 20.3671 7.11968 20.3449 7.20581 20.2875C7.29195 20.2301 7.35274 20.1418 7.3757 20.0409C7.80189 18.8361 8.25013 17.646 8.7204 16.4559C8.79227 16.259 8.92983 16.093 9.10987 15.9857C9.43318 15.8241 9.7418 16.0445 9.84467 16.4706C10.1459 17.6901 10.4472 18.9022 10.7558 20.1438L11.4906 22.9501C11.4906 23.0088 11.4906 23.0677 11.5714 23.2073C11.7772 22.5534 11.9609 21.973 12.1373 21.4C12.4753 20.3054 12.8059 19.1961 13.1586 18.1162C13.2262 17.9294 13.3526 17.7696 13.5187 17.6607C13.7979 17.4991 14.1065 17.6607 14.2535 18.028C14.5327 18.7039 14.8119 19.3798 15.0618 20.063C15.0723 20.1142 15.0928 20.1628 15.1221 20.206C15.1515 20.2493 15.1891 20.2863 15.2328 20.315C15.2765 20.3437 15.3254 20.3634 15.3768 20.3731C15.4281 20.3828 15.4809 20.3823 15.532 20.3716C16.3477 20.3716 17.1633 20.3716 17.9789 20.3716C18.4198 20.3716 18.6623 20.5699 18.6623 20.9225C18.6623 21.2752 18.4125 21.4735 17.9716 21.4735H14.9442C14.794 21.4896 14.6429 21.4518 14.5178 21.3671C14.3927 21.2824 14.3017 21.1561 14.2608 21.0107C14.1212 20.636 13.9669 20.276 13.7906 19.8499C13.7465 19.9821 13.7097 20.063 13.6877 20.1438C13.1513 21.8775 12.6149 23.6039 12.0858 25.3376C11.9535 25.749 11.689 25.9401 11.351 25.8446C11.013 25.7491 10.9836 25.536 10.9248 25.2863L9.35968 19.0198C9.30089 18.8141 9.24946 18.6304 9.18333 18.4027Z" fill="white"/>
<path d="M27.8328 6.6926L27.098 7.83124C26.7894 8.28672 26.4954 8.74953 26.1795 9.19766C26.1223 9.27117 26.0912 9.36163 26.0912 9.45476C26.0912 9.5479 26.1223 9.63845 26.1795 9.71196C26.2857 9.91202 26.349 10.132 26.3651 10.358C26.3812 10.584 26.3498 10.8108 26.273 11.0239C26.1962 11.2371 26.0756 11.4317 25.919 11.5955C25.7625 11.7592 25.5733 11.8883 25.3638 11.9746C25.1566 12.0629 24.9336 12.108 24.7083 12.107C24.4831 12.106 24.2604 12.059 24.054 11.9689C23.8476 11.8788 23.6617 11.7474 23.5079 11.5829C23.3541 11.4184 23.2355 11.2242 23.1594 11.0122C23.0811 10.8005 23.0475 10.5748 23.0609 10.3495C23.0744 10.1241 23.1344 9.90395 23.2373 9.70299C23.3403 9.50203 23.4838 9.32458 23.6588 9.18196C23.8339 9.03934 24.0366 8.93467 24.2543 8.87446C24.4758 8.84245 24.6992 8.82522 24.9229 8.82298C25.0312 8.81445 25.1328 8.76761 25.2095 8.6908C25.7974 7.83127 26.3705 6.96435 26.9731 6.06809C26.4778 5.78763 25.93 5.61259 25.3638 5.55387C24.6878 5.45804 23.9993 5.50424 23.3422 5.68956C22.685 5.87487 22.0738 6.19521 21.5475 6.6301C21.0213 7.06498 20.5916 7.6048 20.2858 8.21515C19.9801 8.8255 19.8051 9.49298 19.772 10.1748C19.7244 10.8317 19.8133 11.4914 20.0334 12.1122C20.2534 12.733 20.5998 13.3015 21.0506 13.7818C21.1093 13.8553 21.1828 13.9214 21.2416 13.9949C21.3243 14.103 21.364 14.2379 21.3532 14.3735C21.3423 14.5091 21.2816 14.6359 21.1828 14.7295C21.1355 14.7793 21.0785 14.8189 21.0153 14.846C20.9521 14.8731 20.8841 14.8871 20.8154 14.8871C20.7467 14.8871 20.6787 14.8731 20.6155 14.846C20.5524 14.8189 20.4954 14.7793 20.448 14.7295C20.1536 14.4299 19.8856 14.1055 19.6471 13.7598C19.0865 12.9055 18.7517 11.9231 18.6738 10.9043C18.596 9.88557 18.7776 8.86374 19.2017 7.93419C19.6259 7.00463 20.2787 6.19771 21.0993 5.58876C21.9199 4.9798 22.8815 4.58867 23.8942 4.45192C25.073 4.28944 26.2734 4.48392 27.3405 5.01025C27.4072 5.04967 27.4834 5.07042 27.5609 5.07042C27.6384 5.07042 27.7146 5.04967 27.7813 5.01025C27.8603 4.96784 27.9491 4.94742 28.0387 4.95115C28.1282 4.95488 28.2151 4.98259 28.2902 5.03141C28.3653 5.08023 28.4259 5.14833 28.4657 5.22861C28.5054 5.3089 28.5229 5.39845 28.5161 5.48778C28.5028 5.57441 28.5153 5.663 28.5518 5.74265C28.5884 5.8223 28.6475 5.8895 28.7219 5.9359C29.3209 6.47342 29.8065 7.12507 30.1503 7.85267C30.4942 8.58027 30.6892 9.36921 30.7241 10.1732C30.759 10.9771 30.6331 11.7799 30.3536 12.5346C30.0741 13.2892 29.6468 13.9805 29.0966 14.5679C28.984 14.6946 28.843 14.7928 28.6851 14.8544C28.5755 14.8871 28.4578 14.8799 28.3529 14.8342C28.248 14.7885 28.1627 14.7071 28.112 14.6046C28.0337 14.491 28.0016 14.352 28.022 14.2156C28.0425 14.0792 28.1141 13.9556 28.2222 13.87C28.7891 13.3082 29.2016 12.6099 29.4199 11.8423C29.6919 10.9696 29.7135 10.0381 29.4823 9.15372C29.2511 8.26932 28.7763 7.46755 28.112 6.83949L27.943 6.6926H27.8328ZM24.6731 10.9976C24.8173 10.9976 24.9556 10.9403 25.0576 10.8383C25.1596 10.7364 25.2169 10.5981 25.2169 10.454C25.2169 10.3098 25.1596 10.1715 25.0576 10.0695C24.9556 9.96755 24.8173 9.91024 24.6731 9.91024C24.5321 9.91408 24.3983 9.97332 24.3007 10.0751C24.2031 10.1768 24.1494 10.313 24.1514 10.454C24.1514 10.5981 24.2087 10.7364 24.3107 10.8383C24.4126 10.9403 24.5509 10.9976 24.6952 10.9976H24.6731Z" fill="white"/>
</svg>
