<svg width="24" height="24" viewBox="0 0 24 24" fill="none" xmlns="http://www.w3.org/2000/svg">
<path d="M20.2989 2.67816H3.51725C2.12701 2.67816 1 3.80517 1 5.19541V20.2989C1 21.6892 2.12701 22.8162 3.51725 22.8162H20.2989C21.6892 22.8162 22.8162 21.6892 22.8162 20.2989V5.19541C22.8162 3.80517 21.6892 2.67816 20.2989 2.67816Z" stroke="white" stroke-width="1.5" stroke-linejoin="round"/>
<path d="M14.5143 10.6495C14.5143 10.9304 14.2866 11.1581 14.0057 11.1581C13.7248 11.1581 13.4971 10.9304 13.4971 10.6495C13.4971 10.3686 13.7248 10.1408 14.0057 10.1408C14.2866 10.1408 14.5143 10.3686 14.5143 10.6495Z" stroke="white" stroke-width="1.5"/>
<path d="M18.7101 10.6495C18.7101 10.9304 18.4824 11.1581 18.2015 11.1581C17.9206 11.1581 17.6929 10.9304 17.6929 10.6495C17.6929 10.3686 17.9206 10.1408 18.2015 10.1408C18.4824 10.1408 18.7101 10.3686 18.7101 10.6495Z" stroke="white" stroke-width="1.5"/>
<path d="M14.5143 14.8449C14.5143 15.1258 14.2866 15.3535 14.0057 15.3535C13.7248 15.3535 13.4971 15.1258 13.4971 14.8449C13.4971 14.564 13.7248 14.3362 14.0057 14.3362C14.2866 14.3362 14.5143 14.564 14.5143 14.8449Z" stroke="white" stroke-width="1.5"/>
<path d="M18.7101 14.8449C18.7101 15.1258 18.4824 15.3535 18.2015 15.3535C17.9206 15.3535 17.6929 15.1258 17.6929 14.8449C17.6929 14.564 17.9206 14.3362 18.2015 14.3362C18.4824 14.3362 18.7101 14.564 18.7101 14.8449Z" stroke="white" stroke-width="1.5"/>
<path d="M6.1237 14.8449C6.1237 15.1258 5.89598 15.3535 5.61507 15.3535C5.33416 15.3535 5.10645 15.1258 5.10645 14.8449C5.10645 14.564 5.33416 14.3362 5.61507 14.3362C5.89598 14.3362 6.1237 14.564 6.1237 14.8449Z" stroke="white" stroke-width="1.5"/>
<path d="M10.319 14.8449C10.319 15.1258 10.0913 15.3535 9.81038 15.3535C9.52948 15.3535 9.30176 15.1258 9.30176 14.8449C9.30176 14.564 9.52948 14.3362 9.81038 14.3362C10.0913 14.3362 10.319 14.564 10.319 14.8449Z" stroke="white" stroke-width="1.5"/>
<path d="M6.1237 19.0403C6.1237 19.3212 5.89598 19.5489 5.61507 19.5489C5.33416 19.5489 5.10645 19.3212 5.10645 19.0403C5.10645 18.7594 5.33416 18.5317 5.61507 18.5317C5.89598 18.5317 6.1237 18.7594 6.1237 19.0403Z" stroke="white" stroke-width="1.5"/>
<path d="M10.319 19.0403C10.319 19.3212 10.0913 19.5489 9.81038 19.5489C9.52948 19.5489 9.30176 19.3212 9.30176 19.0403C9.30176 18.7594 9.52948 18.5317 9.81038 18.5317C10.0913 18.5317 10.319 18.7594 10.319 19.0403Z" stroke="white" stroke-width="1.5"/>
<path d="M14.5143 19.0403C14.5143 19.3212 14.2866 19.5489 14.0057 19.5489C13.7248 19.5489 13.4971 19.3212 13.4971 19.0403C13.4971 18.7594 13.7248 18.5317 14.0057 18.5317C14.2866 18.5317 14.5143 18.7594 14.5143 19.0403Z" stroke="white" stroke-width="1.5"/>
<path d="M5.19531 1V2.67817" stroke="white" stroke-width="1.5" stroke-linecap="round" stroke-linejoin="round"/>
<path d="M18.6206 1V2.67817" stroke="white" stroke-width="1.5" stroke-linecap="round" stroke-linejoin="round"/>
<path d="M22.8162 6.87357H1" stroke="white" stroke-width="1.5" stroke-linejoin="round"/>
</svg>
