<svg width="27" height="34" viewBox="0 0 27 34" fill="none" xmlns="http://www.w3.org/2000/svg">
<path d="M7.08494 33.0244C6.77267 32.8456 6.47516 32.6441 6.19501 32.4216C4.9949 31.2941 3.81694 30.1488 2.6316 29.0107C1.83029 28.2412 1.82291 27.6491 2.6316 26.8548L2.75715 26.7165C2.6796 26.6846 2.62421 26.6598 2.56513 26.6421C1.88539 26.488 1.27445 26.1299 0.820956 25.6199C0.367458 25.1098 0.094979 24.4743 0.0430447 23.8055C-0.00891388 22.8607 -0.00891388 21.9138 0.0430447 20.9689C0.0775998 20.373 0.313541 19.8042 0.715108 19.3486C1.24914 18.7304 1.52077 17.9416 1.47579 17.1396C1.47579 16.785 1.47579 16.4304 1.47579 16.0758C1.49047 15.3923 1.25382 14.7257 0.807425 14.1931C0.256193 13.5347 -0.0295868 12.7077 0.00242522 11.8635C0.00242522 11.0586 0.00242522 10.2502 0.00242522 9.44536C0.00242522 7.89588 0.829582 6.96334 2.41004 6.67969L2.57621 6.64424C2.57621 6.35703 2.57621 6.06986 2.57621 5.78265C2.57621 5.42808 2.77192 5.25079 3.07103 5.24724C3.37013 5.2437 3.56215 5.43871 3.57692 5.772C3.59169 6.1053 3.57692 6.3464 3.57692 6.65134H9.4187C9.4187 6.12657 9.44455 5.5876 9.4187 5.08411C9.40033 4.89884 9.3107 4.72682 9.16731 4.6016C9.02392 4.47637 8.83707 4.40696 8.64324 4.40691C7.21049 4.40691 5.78144 4.40691 4.34868 4.40691C4.23879 4.41999 4.13014 4.4413 4.02373 4.47071C3.96015 4.48645 3.89392 4.48972 3.82901 4.48028C3.7641 4.47084 3.70184 4.4489 3.64597 4.41578C3.5901 4.38267 3.54178 4.33907 3.5039 4.28758C3.46601 4.23609 3.43936 4.17776 3.42552 4.11614C3.40503 4.05964 3.39676 3.99974 3.40122 3.94006C3.40569 3.88039 3.42279 3.82221 3.45148 3.7691C3.48017 3.71599 3.51985 3.66907 3.56809 3.6312C3.61632 3.59333 3.6721 3.56529 3.73201 3.54883C4.03209 3.46876 4.33659 3.40482 4.64409 3.35735V2.6695C4.02004 2.52058 3.74678 2.27947 3.69139 1.82917C3.6581 1.39032 3.80347 0.956173 4.0969 0.618204C4.39033 0.280236 4.8089 0.0648335 5.26446 0.0173109C6.09162 -0.00396344 6.92246 -0.00750916 7.74593 0.0173109C8.03947 0.0233727 8.32447 0.11327 8.56454 0.275579C8.80461 0.437887 8.98885 0.665223 9.09375 0.928541C9.17773 1.11609 9.24325 1.31077 9.28946 1.51004C9.42609 2.08445 9.10483 2.49221 8.36629 2.66595V3.3751C8.466 3.3751 8.56201 3.3999 8.65801 3.40345C9.13738 3.41818 9.59196 3.61147 9.92554 3.94236C10.2591 4.27325 10.4455 4.71578 10.4453 5.1763C10.4453 5.64789 10.4453 6.11947 10.4453 6.59459C10.6779 6.64423 10.8958 6.67615 11.1062 6.73643C11.6432 6.88012 12.1175 7.18665 12.4582 7.61031C12.7989 8.03396 12.9879 8.55204 12.9969 9.08724C12.9969 10.0871 12.9969 11.0835 12.9969 12.0834C13.0059 12.777 12.7645 13.4523 12.3137 13.9945C11.7629 14.6411 11.4825 15.4614 11.5272 16.2957C11.5272 16.5722 11.5272 16.8524 11.5272 17.1325C11.503 17.8935 11.7652 18.6375 12.2657 19.228C12.3876 19.3769 12.4947 19.54 12.5944 19.6712L17.0256 15.4163C16.4754 14.8951 15.8919 14.3526 15.3159 13.7924C15.1648 13.6754 15.0429 13.5274 14.9592 13.3593C14.8755 13.1912 14.832 13.0072 14.832 12.8209C14.832 12.6345 14.8755 12.4506 14.9592 12.2825C15.0429 12.1143 15.1648 11.9664 15.3159 11.8494C15.5854 11.587 15.8513 11.3281 16.1246 11.0728C16.2443 10.9475 16.3898 10.8475 16.5519 10.779C16.714 10.7106 16.8891 10.6752 17.0662 10.6752C17.2433 10.6752 17.4184 10.7106 17.5805 10.779C17.7426 10.8475 17.8881 10.9475 18.0078 11.0728C18.174 11.2253 18.3254 11.3955 18.51 11.5799C18.9347 11.1721 19.315 10.7963 19.7028 10.4275C19.8247 10.2856 19.9778 10.1714 20.1511 10.0929C20.3245 10.0145 20.5137 9.9738 20.7053 9.9738C20.8969 9.9738 21.0862 10.0145 21.2595 10.0929C21.4328 10.1714 21.5859 10.2856 21.7079 10.4275L25.5482 14.1151C25.696 14.2322 25.815 14.3792 25.8967 14.5456C25.9784 14.712 26.0208 14.8938 26.0208 15.0777C26.0208 15.2617 25.9784 15.4434 25.8967 15.6099C25.815 15.7763 25.696 15.9233 25.5482 16.0404L24.4404 17.1041C24.4059 17.1485 24.3689 17.1911 24.3296 17.2317C24.5289 17.3701 24.7189 17.5206 24.8983 17.6821C25.0239 17.7961 25.124 17.9335 25.1924 18.0859C25.2608 18.2383 25.296 18.4025 25.296 18.5685C25.296 18.7345 25.2608 18.8987 25.1924 19.0511C25.124 19.2035 25.0239 19.3409 24.8983 19.4549C24.614 19.7421 24.3223 20.0258 24.0232 20.2988C23.903 20.4277 23.7558 20.5308 23.5914 20.6013C23.4269 20.6719 23.2488 20.7084 23.0686 20.7084C22.8885 20.7084 22.7103 20.6719 22.5458 20.6013C22.3814 20.5308 22.2342 20.4277 22.1141 20.2988C21.5195 19.7315 20.9361 19.1571 20.3711 18.6075L11.0435 27.5959C11.3352 27.876 11.6749 28.188 12.0036 28.5036C12.3322 28.8192 12.3285 29.0709 12.0922 29.2907C11.8559 29.5106 11.5863 29.468 11.2983 29.1914L5.41586 23.5431C5.0466 23.1886 4.99121 23.1886 4.61086 23.5431C4.40407 23.7382 4.19729 23.9332 3.99419 24.1353C3.72832 24.3906 3.72832 24.4899 3.99419 24.7451L8.21489 28.7979L10.6816 31.1664C10.9622 31.4324 11.0509 31.4359 11.3167 31.1664C11.5826 30.897 11.8817 30.6168 12.1697 30.3474C12.2129 30.295 12.2668 30.2518 12.3281 30.2203C12.3894 30.1889 12.4568 30.1699 12.5261 30.1646C12.5954 30.1592 12.6651 30.1677 12.7309 30.1894C12.7966 30.2111 12.857 30.2456 12.9083 30.2907C12.9625 30.3339 13.0061 30.3881 13.0361 30.4494C13.066 30.5107 13.0816 30.5775 13.0816 30.6452C13.0816 30.7129 13.066 30.7798 13.0361 30.841C13.0061 30.9023 12.9625 30.9565 12.9083 30.9998C12.5648 31.3544 12.2177 31.7089 11.8411 32.0245C11.6041 32.2274 11.2957 32.3363 10.9782 32.3291C10.6608 32.3218 10.3581 32.199 10.1314 31.9855C9.94306 31.8188 9.78797 31.6309 9.61441 31.4324C8.87588 31.9465 8.466 32.7195 7.64253 33.0279L7.08494 33.0244ZM3.53261 25.7557L3.61754 25.6635C3.44786 25.5445 3.28514 25.4167 3.13011 25.2806C2.98278 25.139 2.87507 24.9641 2.81697 24.7719C2.75887 24.5798 2.75226 24.3767 2.79777 24.1814C2.89008 23.6531 4.20098 22.4085 4.75857 22.3163C4.97899 22.2759 5.20658 22.2912 5.41895 22.3608C5.63132 22.4305 5.82115 22.552 5.96976 22.7135C6.55689 23.2843 7.14772 23.8516 7.74962 24.4296C7.86779 24.3232 7.95641 24.2452 8.04134 24.1636L11.457 20.8839C11.8928 20.4655 11.9076 20.4548 11.5198 19.9691C11.018 19.4147 10.6947 18.7323 10.5893 18.0047C10.5296 17.2248 10.5197 16.4421 10.5597 15.661C10.5931 14.9125 10.8885 14.1967 11.398 13.6293C12.07 12.8599 12.0183 11.9735 11.9703 11.048C11.6565 11.0835 11.3647 11.0977 11.0841 11.1509C10.22 11.3246 9.36331 11.5267 8.49923 11.6933C6.76731 11.9995 4.98456 11.9084 3.29627 11.4274C2.55774 11.2359 1.79336 11.1473 1.0216 11.0055C0.947746 12.0196 0.973595 12.9095 1.64197 13.7038C1.96392 14.0876 2.1889 14.5379 2.29926 15.0192C2.40667 15.7071 2.46221 16.4015 2.46543 17.097C2.50718 18.121 2.16963 19.126 1.51272 19.9336C1.24635 20.2889 1.07976 20.7041 1.02898 21.1391C0.958759 21.984 0.958759 22.833 1.02898 23.6779C1.04416 23.9752 1.12175 24.2664 1.25709 24.5342C1.39243 24.802 1.58273 25.0407 1.81656 25.2361C2.0504 25.4315 2.32294 25.5795 2.61783 25.6712C2.91272 25.7629 3.22388 25.7965 3.53261 25.7699V25.7557ZM10.2422 26.7662L19.4258 17.9551L17.7161 16.3134L8.53985 25.1245L10.2422 26.7662ZM11.9888 9.99142C11.9888 9.77513 11.9888 9.48793 11.9888 9.20073C11.9898 8.99592 11.9484 8.79296 11.867 8.60365C11.7856 8.41433 11.6658 8.24242 11.5147 8.09793C11.3635 7.95344 11.1839 7.83922 10.9864 7.76193C10.7889 7.68463 10.5773 7.64582 10.364 7.6477C7.78409 7.6477 5.19923 7.6477 2.60944 7.6477C2.27021 7.63785 1.93728 7.73716 1.66361 7.92991C1.38994 8.12265 1.19125 8.39776 1.09914 8.71142C1.01531 9.13239 0.968371 9.55937 0.958825 9.98787C2.16263 10.229 3.27781 10.4417 4.38561 10.697C5.61875 10.9761 6.89881 11.0063 8.14474 10.7857C9.4187 10.5552 10.6742 10.2715 11.9888 10.0056V9.99142ZM24.2816 18.6146C24.204 18.5053 24.1189 18.401 24.0269 18.3026C23.3105 17.61 22.5916 16.9197 21.8703 16.2319L17.3653 11.9061C17.0699 11.6224 16.996 11.6224 16.708 11.9061L16.0212 12.5656C15.7368 12.8422 15.7368 12.9202 16.0212 13.1967L16.948 14.0831L22.6827 19.5932C22.9708 19.8698 23.052 19.8698 23.3437 19.5932C23.6354 19.3166 23.8348 19.1252 24.0822 18.8841C24.1549 18.8036 24.2215 18.7183 24.2816 18.6288V18.6146ZM4.36346 26.5357C3.99419 26.8903 3.59538 27.2874 3.20396 27.6562C3.1575 27.6864 3.11946 27.7271 3.09317 27.7747C3.06687 27.8223 3.05313 27.8753 3.05313 27.9292C3.05313 27.9831 3.06687 28.0361 3.09317 28.0837C3.11946 28.1313 3.1575 28.172 3.20396 28.2022C3.57322 28.5355 3.91664 28.883 4.27114 29.2234L7.02217 31.8649C7.16249 31.9961 7.31758 32.1628 7.5059 31.989C7.94533 31.5848 8.35891 31.1593 8.76141 30.7658L4.36346 26.5357ZM23.6465 16.5333L24.7543 15.4447C25.035 15.1682 25.0386 15.0901 24.7543 14.81L22.3356 12.4876L20.9619 11.165C20.829 11.0409 20.6702 10.9027 20.5004 11.0622C20.0609 11.4664 19.6437 11.8919 19.2338 12.2961L23.6465 16.5333ZM8.24444 1.69443C8.15581 1.1413 7.99703 0.985285 7.48006 0.985285H5.46756C4.98013 0.985285 4.77334 1.19448 4.77334 1.69443H8.24444ZM5.68542 3.40345C5.7188 3.41544 5.75349 3.42379 5.78882 3.42829H6.68983C7.37297 3.42829 7.37297 3.4283 7.32496 2.77234C7.3186 2.73971 7.30608 2.70847 7.28804 2.68015H5.68542V3.40345Z" fill="white"/>
<path d="M6.4901 19.6535H3.53597C3.28487 19.6535 3.06331 19.5648 3.02269 19.3308C3.00137 19.1487 3.0543 18.9657 3.1704 18.8202C3.30294 18.7251 3.46707 18.6797 3.63198 18.6926C4.31512 18.6926 4.99457 18.6926 5.67771 18.6926H9.23374C9.32237 18.6926 9.41099 18.6926 9.50331 18.6926C9.63913 18.6954 9.76835 18.7494 9.86302 18.8429C9.95769 18.9365 10.0102 19.0621 10.0092 19.1925C10.0074 19.2571 9.99193 19.3207 9.96367 19.3794C9.93542 19.438 9.89499 19.4906 9.84487 19.5337C9.79475 19.5769 9.73598 19.6097 9.67218 19.6303C9.60837 19.6509 9.54085 19.6588 9.47377 19.6535C8.8017 19.6535 8.12964 19.6535 7.46127 19.6535H6.4901Z" fill="white"/>
<path d="M6.47944 17.2034H4.26385C3.84288 17.2034 3.60655 17.019 3.61394 16.7141C3.62132 16.4091 3.85396 16.239 4.24538 16.239H8.74304C9.16031 16.239 9.38187 16.4304 9.3671 16.7495C9.35233 17.0686 9.15292 17.1998 8.79104 17.2034H6.47944Z" fill="white"/>
</svg>
