<svg width="34" height="31" viewBox="0 0 34 31" fill="none" xmlns="http://www.w3.org/2000/svg">
<path d="M0 13.7635C0.0679737 13.6266 0.178991 13.5158 0.316012 13.448C0.453034 13.3802 0.608506 13.3592 0.758595 13.3883C1.01412 13.4202 1.10595 13.3084 1.15785 13.0728C1.58285 11.3846 2.51505 9.86715 3.82887 8.72494C5.39794 7.39541 7.15866 6.97618 9.14695 7.65891C10.1451 8.00626 11.1432 8.30973 12.1733 8.59719C13.0167 8.81221 13.9045 8.77753 14.7285 8.49738C15.6069 8.23387 16.4773 7.93842 17.3437 7.64297C19.308 6.97621 21.0528 7.40339 22.6019 8.71694C23.8956 9.85021 24.8145 11.3497 25.2369 13.0169C25.3208 13.3164 25.4366 13.4162 25.76 13.4162C26.2351 13.3922 26.4227 13.6038 26.4227 14.079C26.4227 14.8775 26.4227 15.6999 26.4227 16.5543H32.4674C33.0783 16.5543 33.23 16.7101 33.23 17.3249V23.0981C33.23 23.685 33.0663 23.8487 32.4754 23.8487H30.7227C30.6252 23.85 30.5277 23.8433 30.4313 23.8287C30.3048 23.8205 30.1868 23.7626 30.103 23.6676C30.0192 23.5725 29.9764 23.4482 29.9841 23.3217C29.9792 23.2591 29.987 23.196 30.007 23.1365C30.0271 23.0769 30.0589 23.022 30.1007 22.9751C30.1424 22.9281 30.1932 22.89 30.25 22.8632C30.3068 22.8363 30.3685 22.8212 30.4313 22.8187C30.6988 22.7947 30.9703 22.8186 31.2298 22.7947H32.176V17.6044H30.9263C30.9263 17.9637 30.9263 18.3191 30.9263 18.6744C30.9263 19.0297 30.7347 19.3251 30.4193 19.3331C30.1039 19.3411 29.8843 19.0816 29.8803 18.6584C29.8803 18.3151 29.8803 17.9717 29.8803 17.6044H28.5827V18.5546C28.5827 18.9219 28.5827 19.2892 28.5827 19.6565C28.5827 20.0239 28.3791 20.2634 28.0597 20.2634C27.7403 20.2634 27.5446 20.0398 27.5367 19.6486C27.5367 19.0297 27.5367 18.4149 27.5367 17.8C27.5402 17.7322 27.5402 17.6642 27.5367 17.5964H26.4467V18.1354C26.4467 18.7861 26.4467 19.4329 26.4467 20.0837C26.4467 20.5149 26.259 20.6946 25.8398 20.7106C25.5723 20.7106 25.2409 20.6467 25.0413 20.7745C24.8417 20.9022 24.8696 21.2456 24.7898 21.4891C24.65 21.8884 24.5063 22.3276 24.3546 22.7867C24.4863 22.7867 24.5981 22.7867 24.7099 22.7867H28.5707C28.689 22.7789 28.8077 22.7789 28.9261 22.7867C29.0525 22.7938 29.1713 22.8492 29.2582 22.9412C29.3451 23.0333 29.3934 23.1552 29.3932 23.2818C29.3966 23.4134 29.3491 23.5412 29.2606 23.6386C29.1721 23.7361 29.0494 23.7956 28.9181 23.8048C28.8011 23.8128 28.6837 23.8128 28.5667 23.8048C27.2652 23.8048 25.9676 23.8447 24.674 23.8048C24.4322 23.7651 24.1842 23.8172 23.9789 23.9509C23.7735 24.0846 23.6256 24.2902 23.5641 24.5274C23.002 25.8763 22.2534 27.1396 21.3402 28.2805C20.5417 29.2826 19.5675 30.0811 18.23 30.2767C17.4664 30.3944 16.6851 30.2672 15.9982 29.9134C15.1439 29.461 14.192 29.2245 13.2253 29.2245C12.2587 29.2245 11.3068 29.461 10.4525 29.9134C9.72711 30.2636 8.91168 30.3829 8.11633 30.2551C7.32098 30.1273 6.584 29.7586 6.00482 29.1988C4.82701 28.1487 4.05246 26.8032 3.3338 25.4418C2.58994 24.0266 1.98941 22.5406 1.54114 21.006C1.5092 20.8942 1.46927 20.7824 1.43334 20.6826C0.946246 20.5748 0.379312 20.8663 0.0199823 20.3273L0 13.7635ZM2.42348 20.7146C2.93852 21.9802 3.37771 23.17 3.90473 24.3079C4.47616 25.6408 5.25058 26.8771 6.20045 27.973C7.21855 29.0989 8.59598 29.8096 10.3687 28.8274C11.1836 28.4147 12.0863 28.2051 12.9998 28.2166C14.2035 28.189 15.395 28.4636 16.4653 29.0151C16.8067 29.1948 17.1841 29.2957 17.5697 29.3102C17.9553 29.3247 18.3392 29.2525 18.6931 29.0989C19.47 28.7532 20.1371 28.2008 20.6215 27.5019C22.042 25.513 23.1214 23.3015 23.8156 20.9581C23.8404 20.8701 23.8605 20.7808 23.8755 20.6906H23.4762C22.8734 20.6906 22.2785 20.6906 21.6596 20.6906C21.5893 20.6972 21.5184 20.6894 21.4512 20.6678C21.3839 20.6463 21.3218 20.6113 21.2684 20.565C21.2151 20.5188 21.1716 20.4622 21.1407 20.3987C21.1099 20.3352 21.0921 20.2661 21.0887 20.1955C21.0881 20.1222 21.1024 20.0495 21.1307 19.9818C21.1589 19.9141 21.2006 19.8529 21.2533 19.8017C21.3059 19.7506 21.3683 19.7107 21.4368 19.6844C21.5052 19.658 21.5783 19.6459 21.6516 19.6486H25.3328V14.4383H24.1909C24.1909 14.586 24.1909 14.7138 24.1909 14.8376C24.1913 15.1042 24.1779 15.3708 24.151 15.6361C24.14 15.7465 24.0879 15.8488 24.0051 15.9227C23.9223 15.9967 23.8148 16.0369 23.7038 16.0353C23.5952 16.0509 23.4846 16.0283 23.3907 15.9715C23.2968 15.9148 23.2255 15.8273 23.1888 15.7239C23.1509 15.5943 23.1333 15.4596 23.1369 15.3246C23.1369 15.0372 23.1369 14.7497 23.1369 14.4582H21.8513C21.8513 14.8176 21.8513 15.153 21.8513 15.4844C21.8513 15.8157 21.8513 16.199 21.8233 16.5543C21.8207 16.6146 21.8063 16.6739 21.7808 16.7286C21.7554 16.7833 21.7193 16.8325 21.6748 16.8733C21.6303 16.9141 21.5782 16.9457 21.5215 16.9663C21.4647 16.9869 21.4045 16.9962 21.3442 16.9935C21.2818 16.9995 21.2187 16.9932 21.1588 16.9747C21.0988 16.9563 21.0431 16.9262 20.9949 16.8861C20.9466 16.846 20.9068 16.7967 20.8776 16.7411C20.8485 16.6856 20.8307 16.6248 20.8252 16.5623C20.8038 16.4236 20.7945 16.2834 20.7972 16.1431C20.7972 15.5841 20.7972 15.0252 20.7972 14.4502H19.5036C19.5036 14.8255 19.5036 15.1809 19.5036 15.5323C19.5072 15.6029 19.4957 15.6735 19.47 15.7394C19.4442 15.8053 19.4047 15.8649 19.3541 15.9144C19.3035 15.9639 19.243 16.002 19.1765 16.0263C19.1101 16.0506 19.0392 16.0604 18.9686 16.0553C18.6652 16.0553 18.4775 15.8237 18.4656 15.4524C18.4536 15.0811 18.4656 14.7896 18.4656 14.4542H17.1919C17.1919 14.574 17.1919 14.6698 17.1919 14.7657C17.1919 15.3366 17.1919 15.9116 17.1919 16.4825C17.1942 16.6143 17.145 16.7418 17.0548 16.8379C16.9646 16.9341 16.8405 16.9913 16.7089 16.9975C16.5776 17.0034 16.4489 16.9593 16.3489 16.8741C16.2489 16.7889 16.1849 16.6689 16.1698 16.5383C16.1598 16.4201 16.1598 16.3013 16.1698 16.183V14.4582H14.8723C14.8723 14.8295 14.8723 15.1729 14.8723 15.5163C14.876 15.5843 14.8663 15.6523 14.8436 15.7165C14.8209 15.7807 14.7857 15.8397 14.74 15.8902C14.6943 15.9407 14.6391 15.9816 14.5775 16.0107C14.5159 16.0397 14.4492 16.0562 14.3812 16.0593C14.3051 16.0607 14.2297 16.0461 14.1597 16.0163C14.0897 15.9865 14.0268 15.9423 13.9752 15.8865C13.9235 15.8307 13.8842 15.7646 13.8599 15.6925C13.8356 15.6204 13.8269 15.5441 13.8342 15.4684C13.8342 15.133 13.8342 14.8016 13.8342 14.4542H12.5406V14.9334C12.5406 15.4524 12.5406 15.9714 12.5406 16.4904C12.5417 16.6225 12.4908 16.7497 12.3989 16.8446C12.3071 16.9394 12.1816 16.9944 12.0495 16.9975C11.919 16.9995 11.7923 16.9535 11.6936 16.868C11.595 16.7826 11.5312 16.6638 11.5145 16.5344C11.5066 16.4147 11.5066 16.2947 11.5145 16.1751V14.4582H10.2489C10.2388 14.4869 10.2308 14.5162 10.2249 14.5461C10.2249 14.8375 10.2249 15.129 10.2249 15.4205C10.2249 15.8197 10.0173 16.0632 9.69393 16.0553C9.37053 16.0473 9.18689 15.8157 9.1789 15.4324C9.1789 15.109 9.1789 14.7896 9.1789 14.4542H7.88529V14.8535C7.88529 15.3925 7.88529 15.9315 7.88529 16.4745C7.89022 16.5956 7.84945 16.7141 7.77105 16.8066C7.69266 16.899 7.58237 16.9586 7.46208 16.9736C7.34994 17.002 7.2312 16.9875 7.12923 16.9328C7.02726 16.8781 6.94944 16.7873 6.91111 16.6781C6.86191 16.5511 6.84147 16.4147 6.85124 16.2789C6.85124 15.668 6.85124 15.0531 6.85124 14.4183H5.55366V14.9254C5.55366 15.0971 5.55366 15.2727 5.55366 15.4444C5.56027 15.5174 5.55171 15.591 5.52851 15.6605C5.5053 15.73 5.46795 15.7939 5.41882 15.8483C5.3697 15.9027 5.30984 15.9463 5.24303 15.9764C5.17622 16.0066 5.10391 16.0225 5.03063 16.0233C4.9575 16.0226 4.88532 16.0066 4.8187 15.9764C4.75208 15.9463 4.69248 15.9026 4.64366 15.8481C4.59484 15.7937 4.55788 15.7297 4.53515 15.6601C4.51241 15.5906 4.5044 15.5172 4.51161 15.4444C4.51161 15.109 4.51161 14.7777 4.51161 14.4183H3.218V14.7936C3.218 15.3326 3.218 15.8716 3.218 16.4146C3.23173 16.536 3.19779 16.658 3.1233 16.7548C3.04881 16.8517 2.9396 16.9158 2.81874 16.9336C2.62286 16.9339 2.43327 16.8645 2.28375 16.738C2.19192 16.6661 2.17994 16.4625 2.17595 16.3188C2.17595 15.6959 2.17595 15.0691 2.17595 14.4263H1.16984V19.6166H19.6713C20.1943 19.6166 20.4698 19.7843 20.4698 20.1316C20.4698 20.479 20.2183 20.6627 19.6713 20.6627H2.54328L2.42348 20.7146ZM2.10009 13.3603H24.2548C23.8676 11.8193 23.0092 10.4376 21.7994 9.40765C21.2126 8.88917 20.4912 8.54701 19.7185 8.42057C18.9457 8.29413 18.1529 8.38859 17.4315 8.69301C16.605 9.00842 15.7546 9.25596 14.9042 9.49152C13.7922 9.83487 12.6026 9.83487 11.4906 9.49152C10.5084 9.19607 9.53822 8.86465 8.56403 8.55323C8.06033 8.38452 7.52717 8.32194 6.99808 8.36935C6.469 8.41676 5.95544 8.57316 5.48976 8.82875C4.41334 9.40035 3.53925 10.2898 2.98645 11.376C2.65506 12.0068 2.40352 12.6736 2.10009 13.3603Z" fill="white"/>
<path d="M16.5013 6.8564C16.102 6.79252 15.6788 6.74462 15.2796 6.66477C14.8803 6.58492 14.7366 6.41726 14.7326 5.99405C14.7007 3.62247 15.8226 1.91365 17.8149 0.747824C18.9956 0.0375996 20.4089 -0.177638 21.7475 0.148941C22.2107 0.25674 22.3184 0.38451 22.3384 0.855631C22.4542 3.53463 20.434 6.08586 17.715 6.68075C17.3158 6.76859 16.9085 6.80051 16.5013 6.8564ZM21.2684 1.13909C18.3339 0.620055 15.6429 3.35894 15.8066 5.71853C18.7092 6.24156 21.4161 3.53462 21.2684 1.13909Z" fill="white"/>
<path d="M8.01281 1.76196C9.50602 1.83383 10.7836 2.21311 11.8297 3.19927C12.56 3.8957 13.0871 4.77757 13.3548 5.75052C13.4906 6.22563 13.5784 6.71668 13.6703 7.20377C13.6925 7.27559 13.6997 7.35128 13.6914 7.42601C13.6831 7.50074 13.6595 7.57292 13.622 7.63811C13.5845 7.70331 13.534 7.76009 13.4736 7.80489C13.4133 7.84969 13.3443 7.88157 13.271 7.89852C12.9796 7.9584 12.72 7.75876 12.6601 7.38346C12.5508 6.51319 12.28 5.67099 11.8616 4.9001C11.5249 4.32407 11.0539 3.83802 10.4887 3.48346C9.92344 3.1289 9.28085 2.9163 8.61569 2.86386C8.36017 2.83192 8.10065 2.82398 7.84113 2.80801C7.47781 2.78006 7.26221 2.5844 7.26221 2.28097C7.26221 1.97753 7.50178 1.76596 7.87708 1.76196H8.01281Z" fill="white"/>
</svg>
