<svg width="31" height="31" viewBox="0 0 31 31" fill="none" xmlns="http://www.w3.org/2000/svg">
<path d="M18.8228 0C19.397 0.114845 19.9792 0.198014 20.5415 0.35246C22.6869 0.970092 24.5268 2.36197 25.7047 4.25847C26.8826 6.15498 27.3147 8.42113 26.9174 10.618C26.5201 12.8149 25.3216 14.7862 23.5541 16.15C21.7865 17.5138 19.5758 18.1731 17.3499 18.0002C15.1241 17.8273 13.0417 16.8345 11.5059 15.2141C9.97021 13.5937 9.09051 11.461 9.03724 9.22907C8.98396 6.99717 9.76089 4.82493 11.2175 3.13308C12.6742 1.44123 14.7069 0.350215 16.9219 0.0713041C17.0685 0.0713041 17.211 0.0237609 17.3536 0H18.8228ZM22.5295 2.37609C20.9284 1.29338 18.9891 0.827958 17.071 1.06608C15.1529 1.3042 13.3862 2.22973 12.0985 3.67107C9.26301 6.8392 9.67882 11.1716 11.4252 13.4764L22.5295 2.37609ZM13.6152 15.6901C15.2559 16.8012 17.2512 17.2622 19.2129 16.9833C21.1747 16.7044 22.9625 15.7056 24.2284 14.1813C26.9451 10.934 26.3352 6.65702 24.7116 4.60566L13.6152 15.6901ZM12.7044 15.0367L24.0542 3.68296L23.4285 3.05326C19.6307 6.85105 15.8685 10.6172 12.0708 14.411L12.7044 15.0367Z" fill="white"/>
<path d="M0 14.9417C0.0721444 14.6179 0.160695 14.2981 0.265324 13.9833C0.495278 13.3655 0.874644 12.8143 1.36955 12.3789C1.86445 11.9435 2.45948 11.6374 3.10151 11.4879C3.74354 11.3385 4.41258 11.3504 5.0489 11.5226C5.68521 11.6947 6.26898 12.0218 6.7481 12.4745C8.72818 14.3833 10.6687 16.3396 12.5893 18.3118C13.3413 19.0617 13.7647 20.0796 13.7661 21.1417C13.7676 22.2037 13.3472 23.2228 12.5973 23.9748C11.8473 24.7268 10.8294 25.1501 9.76738 25.1516C8.70535 25.1531 7.68624 24.7326 6.93422 23.9827C5.55609 22.66 4.22548 21.2898 2.87506 19.9394C2.35628 19.4167 1.84146 18.89 1.31476 18.3791C0.634783 17.754 0.187862 16.916 0.0475199 16.003C0.0350324 15.966 0.019125 15.9302 0 15.8961V14.9417ZM5.12444 20.7433C5.13169 20.7623 5.14243 20.7798 5.15612 20.7948C5.99567 21.6344 6.81542 22.4937 7.67874 23.3016C8.2549 23.7885 8.99327 24.0406 9.74692 24.0078C10.5006 23.975 11.2142 23.6597 11.7459 23.1245C12.2776 22.5894 12.5882 21.8736 12.6161 21.1198C12.644 20.366 12.387 19.6292 11.8963 19.0563C11.2072 18.3197 10.4746 17.6266 9.7697 16.9059C9.63109 16.7673 9.51625 16.6089 9.39744 16.4663L8.65293 17.2029C8.72025 17.2742 8.78362 17.3455 8.85094 17.4128C9.24695 17.8088 9.64297 18.2048 10.039 18.6009C10.0964 18.6745 10.1368 18.7599 10.1573 18.8509C10.1778 18.942 10.178 19.0365 10.1578 19.1276C10.1202 19.2062 10.0649 19.2751 9.99619 19.3287C9.92746 19.3823 9.84721 19.4192 9.76178 19.4364C9.58039 19.4299 9.40862 19.3533 9.28261 19.2226C8.82719 18.7949 8.39552 18.3435 7.97575 17.9237L5.12444 20.7433ZM8.60938 15.7535C7.75794 14.8981 6.93026 14.0348 6.06695 13.2111C5.50035 12.6834 4.75179 12.3951 3.97763 12.4064C3.20347 12.4176 2.46359 12.7276 1.91256 13.2715C1.36152 13.8154 1.04194 14.5511 1.02058 15.325C0.999214 16.099 1.27771 16.8513 1.7979 17.4247C2.37608 18.0504 2.98595 18.6127 3.59582 19.2424C3.84927 19.4998 4.0948 19.7652 4.28884 19.9711L7.15204 17.1039C6.85899 16.8148 6.52634 16.494 6.20161 16.1654C6.13901 16.122 6.08687 16.0653 6.04904 15.9992C6.0112 15.9331 5.98861 15.8595 5.98292 15.7835C5.97723 15.7076 5.98857 15.6314 6.01613 15.5604C6.04369 15.4894 6.08676 15.4255 6.14219 15.3733C6.36 15.1516 6.64513 15.1753 6.93422 15.4446C7.26688 15.7733 7.58766 16.1099 7.92031 16.4505L8.60938 15.7535Z" fill="white"/>
<path d="M26.2638 16.3991C27.018 16.413 27.7516 16.6482 28.3733 17.0756C28.995 17.503 29.4774 18.1036 29.7606 18.8028C30.118 19.5118 30.2405 20.3162 30.1102 21.0994C29.9799 21.8826 29.6036 22.604 29.0359 23.159C27.1112 25.1708 25.1311 27.1192 23.1352 29.0676C22.3691 29.775 21.3574 30.156 20.3149 30.1296C19.2725 30.1032 18.2813 29.6715 17.552 28.9262C16.8226 28.1809 16.4125 27.1806 16.4087 26.1378C16.4049 25.095 16.8077 24.0918 17.5316 23.3412C19.4444 21.4007 21.3769 19.48 23.3095 17.5593C23.6982 17.1767 24.1603 16.8766 24.668 16.6772C25.1757 16.4778 25.7185 16.3832 26.2638 16.3991ZM24.9688 25.6777L23.6184 24.3273L22.2046 22.9095L21.9511 23.1511C21.5551 23.5471 21.1591 23.9431 20.7829 24.3114C20.7051 24.403 20.5951 24.461 20.4756 24.4735C20.3562 24.4861 20.2364 24.4521 20.1414 24.3787C20.0481 24.3219 19.9781 24.2337 19.944 24.1299C19.9099 24.0261 19.9138 23.9136 19.9552 23.8124C20.0072 23.6965 20.0827 23.5927 20.177 23.5075C20.6087 23.0719 21.0443 22.6403 21.4442 22.2442L20.771 21.5116C20.7346 21.5366 20.7002 21.5644 20.6681 21.5948C19.8483 22.4185 19.0048 23.2264 18.2048 24.0738C17.6849 24.6256 17.3954 25.3551 17.3954 26.1133C17.3954 26.8714 17.6849 27.601 18.2048 28.1528C18.7117 28.7184 19.4189 29.0646 20.1766 29.1178C20.9343 29.171 21.683 28.9272 22.264 28.4379C23.2342 27.5983 24.054 26.6202 24.9688 25.6777ZM22.9293 22.165L25.7885 25.0322C26.7192 24.058 27.7053 23.1155 28.5844 22.0858C28.8444 21.7549 29.0202 21.3657 29.0968 20.9519C29.1733 20.538 29.1484 20.1118 29.024 19.7097C28.9026 19.1998 28.6496 18.7306 28.2903 18.3489C27.931 17.9673 27.4779 17.6865 26.9762 17.5346C26.4745 17.3828 25.9417 17.3651 25.4311 17.4834C24.9204 17.6017 24.4497 17.8518 24.0659 18.2088C23.4402 18.787 22.8778 19.3969 22.2482 20.0067C21.9987 20.2523 21.7373 20.4859 21.4759 20.7354L22.2244 21.468C22.5333 21.1512 22.8501 20.8305 23.1669 20.5137C23.4837 20.1968 23.7451 20.2087 23.9589 20.4265C24.1728 20.6443 24.153 20.9334 23.8679 21.2185L22.9293 22.165Z" fill="white"/>
<path d="M5.58389 14.4229C5.53241 14.4981 5.45717 14.6842 5.32648 14.7515C5.25011 14.7867 5.16702 14.8049 5.08294 14.8049C4.99885 14.8049 4.91577 14.7867 4.83939 14.7515C4.62556 14.6149 4.44221 14.4356 4.3008 14.2249C4.25684 14.1521 4.2325 14.0692 4.23017 13.9843C4.22783 13.8993 4.24759 13.8152 4.2875 13.7402C4.32741 13.6652 4.38611 13.6017 4.45786 13.5562C4.5296 13.5106 4.61194 13.4845 4.69682 13.4803C4.91997 13.5349 5.12254 13.6529 5.27998 13.8202C5.43742 13.9875 5.54298 14.1968 5.58389 14.4229Z" fill="white"/>
<path d="M25.4915 18.5059C25.5628 18.5573 25.7568 18.6445 25.8162 18.7831C25.8704 18.952 25.8562 19.1354 25.7766 19.2939C25.6683 19.4814 25.5126 19.6371 25.3252 19.7454C25.2469 19.7859 25.1613 19.8099 25.0734 19.8161C24.9856 19.8222 24.8974 19.8102 24.8143 19.781C24.7415 19.7307 24.6802 19.6655 24.6345 19.5897C24.5887 19.514 24.5596 19.4293 24.549 19.3414C24.5133 19.0563 25.0796 18.5138 25.4915 18.5059Z" fill="white"/>
</svg>
