<svg width="28" height="29" viewBox="0 0 28 29" fill="none" xmlns="http://www.w3.org/2000/svg">
<path d="M5.30708 2.77221C5.96013 2.77221 6.60909 2.77221 7.25805 2.77221C7.3338 2.77582 7.40906 2.75825 7.47538 2.72149C7.54171 2.68472 7.59648 2.6302 7.63355 2.56404C8.1103 1.78782 8.77635 1.1454 9.56926 0.696967C10.3622 0.248531 11.256 0.00880434 12.1669 0.000237935C13.0778 -0.00832847 13.9759 0.214547 14.7771 0.64799C15.5783 1.08143 16.2563 1.71123 16.7476 2.47835C16.7917 2.56391 16.8603 2.63442 16.9446 2.68093C17.0289 2.72744 17.1251 2.74786 17.2211 2.73957C18.3435 2.73957 19.4659 2.711 20.5842 2.73957C21.0659 2.74587 21.5447 2.81447 22.0087 2.94365C22.6977 3.13759 23.3029 3.55443 23.7298 4.12899C24.1567 4.70356 24.381 5.40343 24.3678 6.11908C24.3445 7.07654 24.2545 8.03121 24.0984 8.97615C23.7719 11.3312 23.4168 13.6862 23.0658 16.0372C23.0331 16.2535 23.1025 16.3433 23.3025 16.4249C24.596 16.9654 25.6813 17.9078 26.3978 19.1127C27.1143 20.3176 27.4241 21.7211 27.2813 23.1157C27.1385 24.5103 26.5507 25.8219 25.6049 26.8566C24.659 27.8913 23.4053 28.5942 22.0291 28.8613C21.1726 29.0299 20.2906 29.0202 19.4381 28.8327C18.5855 28.6452 17.7808 28.284 17.0741 27.7715C16.914 27.6616 16.7254 27.6006 16.5313 27.5961H6.24583C5.82804 27.6067 5.41039 27.5697 5.00097 27.4858C4.38509 27.3721 3.82225 27.0629 3.39586 26.6041C2.96947 26.1454 2.70221 25.5615 2.63369 24.939C2.24594 22.4901 1.90718 20.0697 1.548 17.6371C1.13985 14.859 0.731697 12.0808 0.323545 9.30264C0.213344 8.53532 0.0623263 7.77207 0.0133481 7.00066C-0.0244578 6.43696 0.0181455 5.87076 0.139876 5.31907C0.314097 4.60393 0.721707 3.96729 1.29827 3.50974C1.87483 3.05219 2.58744 2.79985 3.32346 2.79263C3.98059 2.7559 4.64588 2.79263 5.303 2.79263L5.30708 2.77221ZM22.0413 15.9964C22.0413 15.9964 22.0413 15.9351 22.0658 15.8739C22.3964 13.6576 22.7393 11.4414 23.0535 9.22103C23.2172 8.22948 23.3221 7.22909 23.3678 6.22516C23.3906 5.92368 23.3521 5.62074 23.2549 5.33447C23.1577 5.0482 23.0036 4.78454 22.802 4.55927C22.6003 4.334 22.3553 4.15175 22.0815 4.02352C21.8077 3.89528 21.5108 3.8237 21.2087 3.81301C19.9312 3.71914 18.6373 3.79259 17.3272 3.79259C17.6459 4.85983 17.6316 5.99886 17.2864 7.05781C16.9298 8.14234 16.2345 9.08373 15.3027 9.74343C14.3904 10.4134 13.2836 10.7661 12.1518 10.7475C11.4042 10.754 10.664 10.5987 9.982 10.2922C9.30003 9.98577 8.69243 9.53543 8.20088 8.97207C7.56429 8.28154 7.12145 7.43507 6.91718 6.51837C6.71291 5.60167 6.75447 4.64726 7.03765 3.75178C5.79279 3.75178 4.56425 3.69872 3.36428 3.75178C2.88074 3.74531 2.40769 3.89292 2.01364 4.17324C1.61959 4.45355 1.32499 4.85199 1.1725 5.3109C0.977662 5.88996 0.927222 6.50787 1.02557 7.11087C1.3276 9.26999 1.65004 11.425 1.9684 13.5801C2.5126 17.2208 3.04864 20.8588 3.57652 24.4941C3.78059 25.894 4.57649 26.6165 5.99278 26.6165C9.18045 26.6165 12.3681 26.6165 15.5558 26.6165C15.6156 26.6211 15.6756 26.6211 15.7354 26.6165C15.4374 26.0655 15.1109 25.539 14.8578 24.9839C14.8245 24.8683 14.7501 24.7688 14.6487 24.7042C14.5472 24.6396 14.4257 24.6142 14.3068 24.6329C11.76 24.6329 9.2131 24.6329 6.66623 24.6329C6.12747 24.6329 5.98054 24.4859 5.98054 23.939V21.6084C5.98054 21.0085 6.11931 20.8697 6.71929 20.8697C9.21446 20.8697 11.7096 20.8697 14.2048 20.8697C14.4497 20.8697 14.5313 20.7962 14.613 20.5636C15.5109 17.931 17.3272 16.3678 20.0985 15.9964C20.7441 15.9544 21.3917 15.9544 22.0372 15.9964H22.0413ZM15.3109 22.4778C15.313 23.9465 15.8963 25.3547 16.9333 26.3947C17.9703 27.4348 19.3768 28.0222 20.8454 28.0287C22.3144 28.0352 23.7257 27.4579 24.769 26.4238C25.8123 25.3897 26.4021 23.9835 26.4086 22.5145C26.4151 21.0456 25.8377 19.6342 24.8036 18.5909C23.7695 17.5477 22.3634 16.9579 20.8944 16.9514C20.1635 16.9433 19.4383 17.0803 18.7608 17.3544C18.0832 17.6285 17.4667 18.0343 16.947 18.5483C16.4274 19.0622 16.0148 19.6742 15.7333 20.3487C15.4517 21.0232 15.3068 21.7469 15.3068 22.4778H15.3109ZM12.2089 9.78837C12.7893 9.79107 13.3644 9.67882 13.9012 9.45809C14.4379 9.23737 14.9257 8.91252 15.3362 8.50233C15.7468 8.09214 16.0721 7.60472 16.2933 7.06817C16.5145 6.53162 16.6273 5.95658 16.6251 5.37622C16.6208 4.20705 16.1539 3.08714 15.3264 2.26117C14.4989 1.4352 13.3781 0.970304 12.2089 0.968155C11.6284 0.964929 11.0528 1.07647 10.5155 1.29629C9.9781 1.51612 9.48945 1.8399 9.07758 2.24911C8.66572 2.65833 8.33875 3.14489 8.11545 3.68083C7.89215 4.21677 7.77693 4.79154 7.77641 5.37213C7.77368 5.95422 7.88659 6.53107 8.10859 7.06917C8.33058 7.60726 8.65724 8.09588 9.0696 8.50672C9.48196 8.91756 9.97181 9.24242 10.5107 9.46243C11.0496 9.68243 11.6269 9.79324 12.2089 9.78837ZM14.315 21.8982H6.96826V23.6615H14.4252L14.315 21.8982Z" fill="white"/>
<path d="M20.3925 24.1268V19.8044C20.3925 19.6902 20.364 19.5432 20.4211 19.4657C20.5192 19.3067 20.6609 19.1792 20.8293 19.0984C20.9325 19.0747 21.0409 19.0922 21.1316 19.147C21.2222 19.2019 21.288 19.2898 21.315 19.3922C21.3505 19.5127 21.3656 19.6382 21.3599 19.7636C21.3599 21.2207 21.3599 22.6737 21.3599 24.1839C21.4311 24.1321 21.4992 24.0763 21.5639 24.0166L22.5884 22.9962C22.6377 22.9371 22.6989 22.8891 22.768 22.8551C22.837 22.8211 22.9124 22.8019 22.9893 22.7988C23.0662 22.7957 23.1429 22.8088 23.2145 22.8372C23.286 22.8656 23.3508 22.9086 23.4047 22.9635C23.4501 23.0149 23.4842 23.0752 23.5048 23.1405C23.5254 23.2059 23.5321 23.2748 23.5244 23.3429C23.5167 23.411 23.4948 23.4767 23.4601 23.5358C23.4255 23.5949 23.3788 23.6461 23.3231 23.686C22.67 24.3472 22.0088 25.0084 21.3476 25.6614C21.2966 25.729 21.2307 25.7839 21.1549 25.8217C21.0791 25.8595 20.9956 25.8792 20.9109 25.8792C20.8262 25.8792 20.7427 25.8595 20.6669 25.8217C20.5911 25.7839 20.5252 25.729 20.4742 25.6614L18.4946 23.6819C18.2375 23.4207 18.2212 23.1513 18.4416 22.9432C18.4903 22.8953 18.5488 22.8585 18.613 22.8352C18.6772 22.8119 18.7457 22.8027 18.8138 22.8081C18.8819 22.8135 18.948 22.8335 19.0077 22.8666C19.0674 22.8998 19.1193 22.9454 19.1599 23.0003C19.3558 23.1881 19.5477 23.3799 19.7354 23.5758C19.9232 23.7717 20.1068 23.984 20.2864 24.1758L20.3925 24.1268Z" fill="white"/>
<path d="M12.1271 5.86597C12.0052 5.80502 11.8948 5.72357 11.8006 5.62517C11.3475 5.00886 10.9149 4.40073 10.4822 3.75177C10.4446 3.70142 10.4173 3.64414 10.4018 3.58321C10.3864 3.52229 10.3831 3.45891 10.3922 3.39673C10.4013 3.33454 10.4226 3.27479 10.4549 3.22085C10.4871 3.16691 10.5297 3.11984 10.5802 3.08239C10.6296 3.04327 10.6864 3.01449 10.7472 2.99779C10.8079 2.98109 10.8715 2.97681 10.9339 2.98519C10.9964 2.99357 11.0565 3.01444 11.1108 3.04657C11.165 3.07869 11.2122 3.12141 11.2496 3.17217C11.7148 3.80073 12.1761 4.43747 12.6128 5.08643C12.6657 5.16721 12.6944 5.26141 12.6955 5.35797C12.6966 5.45453 12.67 5.54939 12.619 5.63135C12.5679 5.71331 12.4945 5.77895 12.4073 5.82053C12.3201 5.8621 12.2229 5.87786 12.1271 5.86597Z" fill="white"/>
</svg>
