<svg width="17" height="13" viewBox="0 0 17 13" fill="none" xmlns="http://www.w3.org/2000/svg">
<path d="M14.4773 0H2.06818C1.51985 0.000586561 0.994137 0.218672 0.606404 0.606404C0.218672 0.994137 0.000586561 1.51985 0 2.06818V10.9318C0.000586561 11.4802 0.218672 12.0059 0.606404 12.3936C0.994137 12.7813 1.51985 12.9994 2.06818 13H14.4773C15.0256 12.9994 15.5513 12.7813 15.939 12.3936C16.3268 12.0059 16.5449 11.4802 16.5455 10.9318V2.06818C16.5449 1.51985 16.3268 0.994137 15.939 0.606404C15.5513 0.218672 15.0256 0.000586561 14.4773 0ZM13.9536 3.42099L8.6354 7.55736C8.53169 7.63798 8.40408 7.68174 8.27273 7.68174C8.14137 7.68174 8.01376 7.63798 7.91006 7.55736L2.59187 3.42099C2.52939 3.37381 2.47691 3.31467 2.43748 3.24703C2.39804 3.17938 2.37245 3.10458 2.36218 3.02695C2.35191 2.94933 2.35716 2.87044 2.37765 2.79487C2.39813 2.7193 2.43342 2.64855 2.48149 2.58673C2.52955 2.52492 2.58941 2.47328 2.65761 2.4348C2.7258 2.39632 2.80096 2.37178 2.87872 2.36261C2.95648 2.35343 3.03529 2.3598 3.11056 2.38134C3.18584 2.40288 3.25608 2.43917 3.31722 2.4881L8.27273 6.3423L13.2282 2.4881C13.3522 2.39452 13.5079 2.35348 13.6619 2.37385C13.8158 2.39422 13.9555 2.47436 14.0508 2.59694C14.1462 2.71953 14.1894 2.8747 14.1712 3.02891C14.153 3.18312 14.0748 3.32397 13.9536 3.42099Z" fill="#D0D0D0"/>
</svg>
