<svg width="256" height="144" viewBox="0 0 256 144" fill="none" xmlns="http://www.w3.org/2000/svg">
<g clip-path="url(#clip0_7_345)">
<path d="M194.133 141.747H35.0928C22.8816 141.747 12.9841 131.87 12.9841 119.69V23.0985C12.9841 10.917 22.8815 1.04083 35.0928 1.04083H194.133C206.344 1.04083 216.241 10.918 216.241 23.0985V119.69C216.241 131.871 206.347 141.747 194.133 141.747Z" fill="white" stroke="#252525"/>
<path d="M154.379 12.5101H74.8463C74.4286 12.5101 74.0149 12.4279 73.6289 12.2684C73.2429 12.1089 72.8922 11.8751 72.5968 11.5803C72.3014 11.2856 72.0671 10.9356 71.9072 10.5505C71.7473 10.1654 71.665 9.75263 71.665 9.33578C71.665 8.49391 72.0002 7.68651 72.5968 7.09122C73.1934 6.49593 74.0026 6.1615 74.8463 6.1615H154.379C154.797 6.1615 155.211 6.24361 155.596 6.40313C155.982 6.56265 156.333 6.79646 156.629 7.09122C156.924 7.38598 157.158 7.73591 157.318 8.12103C157.478 8.50615 157.56 8.91893 157.56 9.33578C157.56 9.75263 157.478 10.1654 157.318 10.5505C157.158 10.9356 156.924 11.2856 156.629 11.5803C156.333 11.8751 155.982 12.1089 155.596 12.2684C155.211 12.4279 154.797 12.5101 154.379 12.5101Z" fill="#4AB7C3"/>
<path d="M80.636 26.0013H48.0271V30.3662H80.636V26.0013Z" fill="#E2E2E2"/>
<path d="M130.918 26.0013H98.3088V30.3662H130.918V26.0013Z" fill="#E2E2E2"/>
<path d="M181.2 24.0305H148.591V28.3954H181.2V24.0305Z" fill="#4AB7C3"/>
<path d="M144.216 120.978H111.607V124.682H144.216V120.978Z" fill="#4AB7C3"/>
<path d="M181.2 50.7339H48.0271V54.4373H181.2V50.7339Z" fill="#E2E2E2"/>
<path d="M181.2 74.8061H48.0271V78.5094H181.2V74.8061Z" fill="#E2E2E2"/>
<path d="M103.544 122.949H48.0271V126.653H103.544V122.949Z" fill="#E2E2E2"/>
<path d="M108.359 104.182H69.5742C69.0117 104.182 68.4723 103.959 68.0746 103.562C67.6768 103.165 67.4534 102.627 67.4534 102.065V96.3773C67.4534 95.816 67.6768 95.2778 68.0746 94.8809C68.4723 94.4841 69.0117 94.2611 69.5742 94.2611H108.359C108.638 94.261 108.914 94.3156 109.171 94.4219C109.429 94.5282 109.662 94.6841 109.859 94.8806C110.056 95.0771 110.213 95.3105 110.319 95.5673C110.426 95.8241 110.48 96.0993 110.48 96.3773V102.065C110.48 102.343 110.426 102.619 110.319 102.875C110.213 103.132 110.056 103.365 109.859 103.562C109.662 103.759 109.429 103.914 109.171 104.021C108.914 104.127 108.638 104.182 108.359 104.182Z" fill="#4AB7C3"/>
<path d="M159.651 106.152H120.866C120.304 106.152 119.764 105.929 119.367 105.533C118.969 105.136 118.745 104.597 118.745 104.036V98.3481C118.745 97.7869 118.969 97.2486 119.367 96.8518C119.764 96.4549 120.304 96.2319 120.866 96.2319H159.651C159.93 96.2318 160.206 96.2864 160.463 96.3927C160.721 96.499 160.954 96.6549 161.151 96.8514C161.348 97.048 161.505 97.2813 161.611 97.5381C161.718 97.7949 161.772 98.0702 161.772 98.3481V104.036C161.772 104.597 161.548 105.135 161.151 105.532C160.753 105.929 160.214 106.152 159.651 106.152Z" fill="#E2E2E2"/>
<path d="M256 142.806H0V144H256V142.806Z" fill="#E6E6E6"/>
<path d="M241.935 112.783C242.141 112.692 242.327 112.562 242.482 112.4C242.638 112.237 242.76 112.046 242.841 111.837C242.922 111.627 242.962 111.404 242.956 111.179C242.951 110.955 242.902 110.733 242.811 110.528L229.473 80.368C229.417 80.242 229.355 80.1189 229.287 79.9993C228.854 79.2438 228.173 78.6614 227.359 78.3512C226.654 78.0771 225.883 78.0179 225.144 78.1812C224.405 78.3446 223.732 78.723 223.209 79.2687C222.686 79.8143 222.337 80.5026 222.206 81.2463C222.076 81.9899 222.169 82.7556 222.475 83.4461L235.812 113.607C235.903 113.813 236.033 113.998 236.196 114.153C236.359 114.309 236.551 114.43 236.761 114.511C236.97 114.593 237.194 114.632 237.419 114.627C237.644 114.621 237.866 114.572 238.072 114.481L241.935 112.783Z" fill="#4AB7C3"/>
<path d="M223.027 77.5625L223.154 77.5486C225.325 77.3163 227.507 77.8678 229.305 79.1032C231.103 80.3385 232.398 82.1758 232.954 84.2819L236.219 92.9006L223.027 95.8333V77.5625Z" fill="#235564"/>
<path d="M195.709 114.795L191.718 113.041C191.233 112.827 190.853 112.43 190.661 111.936C190.469 111.443 190.481 110.894 190.695 110.409L204.032 80.2483C204.092 80.1132 204.16 79.9811 204.233 79.8529C204.76 78.9454 205.614 78.2735 206.622 77.9754C207.629 77.6773 208.713 77.7756 209.65 78.2501C210.587 78.7246 211.306 79.5393 211.659 80.5266C212.013 81.5139 211.974 82.5988 211.55 83.5584L198.214 113.721C198.056 114.075 197.799 114.376 197.474 114.588C197.149 114.799 196.769 114.912 196.381 114.912C196.152 114.912 195.925 114.872 195.709 114.795Z" fill="#4AB7C3"/>
<path d="M210.613 104.556C210.159 104.556 209.723 104.736 209.401 105.056C209.08 105.377 208.899 105.812 208.899 106.266V141.336C208.899 141.789 209.08 142.224 209.401 142.545C209.723 142.865 210.159 143.046 210.613 143.046H214.829C215.284 143.046 215.72 142.865 216.041 142.545C216.363 142.224 216.543 141.789 216.543 141.336V106.266C216.543 105.812 216.363 105.377 216.041 105.056C215.72 104.736 215.284 104.556 214.829 104.556H210.613Z" fill="#4AB7C3"/>
<path d="M218.953 104.556C218.499 104.556 218.063 104.736 217.741 105.056C217.42 105.377 217.24 105.812 217.24 106.266V141.336C217.24 141.789 217.42 142.224 217.741 142.545C218.063 142.865 218.499 143.046 218.953 143.046H223.17C223.625 143.046 224.061 142.865 224.382 142.545C224.704 142.224 224.884 141.789 224.884 141.336V106.266C224.884 105.812 224.704 105.377 224.382 105.056C224.061 104.736 223.625 104.556 223.17 104.556H218.953Z" fill="#4AB7C3"/>
<path d="M217.018 67.8141C225.066 67.8141 231.59 61.3045 231.59 53.2744C231.59 45.2444 225.066 38.7347 217.018 38.7347C208.97 38.7347 202.446 45.2444 202.446 53.2744C202.446 61.3045 208.97 67.8141 217.018 67.8141Z" fill="#4AB7C3"/>
<path d="M212.185 58.8086C211.122 58.7787 210.185 58.7124 209.48 58.1983C209.281 58.0446 209.117 57.8498 208.999 57.6272C208.882 57.4046 208.814 57.1594 208.8 56.9083C208.787 56.7546 208.811 56.6001 208.868 56.4569C208.925 56.3136 209.014 56.1853 209.129 56.0821C209.597 55.6877 210.349 55.816 210.897 56.0672L211.37 56.2809L210.463 49.6694L209.897 49.7475L210.668 55.3703C209.918 55.1566 209.233 55.2463 208.76 55.645C208.578 55.8028 208.434 56.0008 208.341 56.2234C208.248 56.4459 208.208 56.687 208.225 56.9275C208.241 57.2652 208.332 57.5951 208.489 57.8942C208.647 58.1934 208.869 58.4544 209.138 58.659C210.045 59.3195 211.22 59.3515 212.164 59.3782L212.185 58.8086Z" fill="#252525"/>
<path d="M207.097 50.2348H204.019V50.8045H207.097V50.2348Z" fill="#252525"/>
<path d="M216.811 50.2348H213.734V50.8045H216.811V50.2348Z" fill="#252525"/>
<path d="M202.564 115.321C202.564 115.775 202.744 116.21 203.066 116.531C203.387 116.851 203.823 117.031 204.277 117.031H229.49C229.735 117.032 229.977 116.979 230.2 116.878C230.423 116.777 230.622 116.63 230.783 116.446C230.944 116.261 231.063 116.045 231.133 115.811C231.203 115.577 231.222 115.33 231.189 115.088L225.94 76.887C225.884 76.4773 225.681 76.1018 225.369 75.8301C225.056 75.5583 224.656 75.4087 224.242 75.4089H220.278C220.295 75.3147 220.304 75.2192 220.304 75.1235V73.6988C220.304 73.2453 220.123 72.8103 219.802 72.4896C219.481 72.1689 219.045 71.9888 218.59 71.9888H215.162C214.708 71.9888 214.272 72.1689 213.951 72.4896C213.629 72.8103 213.449 73.2453 213.449 73.6988V75.1246C213.449 75.2202 213.457 75.3157 213.473 75.4099H209.51C209.096 75.4097 208.695 75.5594 208.383 75.8311C208.07 76.1029 207.867 76.4784 207.811 76.8881L202.563 115.089C202.558 115.167 202.558 115.244 202.564 115.321Z" fill="#235564"/>
<path d="M197.55 92.9038L200.81 84.3001C201.364 82.19 202.658 80.3482 204.457 79.1092C206.256 77.8703 208.441 77.3166 210.614 77.5486L210.741 77.5625V95.8333L197.55 92.9038Z" fill="#235564"/>
<path d="M217.976 69.0924L219.833 68.3731L227.126 65.5483L230.84 64.1108C231.958 63.7285 233.052 63.2799 234.116 62.7673C235.046 62.3006 235.78 61.5196 236.186 60.5635C236.54 59.5804 236.719 58.543 236.715 57.4982C236.824 55.1297 236.721 52.7561 236.406 50.4058C235.802 46.0527 234.249 41.8192 231.399 38.4237C228.842 35.3788 225.284 33.1514 221.283 32.7111C217.494 32.2943 213.464 33.486 210.823 36.3075L211.126 36.1825C208.797 36.0093 206.306 36.1216 204.228 37.293C202.699 38.1544 201.393 39.6015 201.026 41.3543C200.861 42.1564 200.906 42.9878 201.158 43.7672C201.41 44.5466 201.86 45.2475 202.465 45.8015C203.126 46.3829 203.966 46.7221 204.846 46.7634C205.991 46.8318 207.169 46.6833 208.312 46.6234L215.429 46.2472C215.979 46.2173 215.98 45.3622 215.429 45.3922L212.751 45.5343L207.467 45.8133C206.026 45.8892 204.31 46.2408 203.107 45.234C202.658 44.8401 202.306 44.3487 202.077 43.7977C201.849 43.2466 201.75 42.6505 201.789 42.0554C201.869 40.7579 202.652 39.5919 203.615 38.7647C204.773 37.8327 206.174 37.2522 207.653 37.092C208.464 36.9875 209.283 36.9518 210.1 36.9851C210.336 36.993 210.571 37.0044 210.806 37.0193C210.984 37.0599 211.171 37.0473 211.342 36.983C211.588 36.7904 211.814 36.5726 212.015 36.3332C213.943 34.5633 216.551 33.6345 219.144 33.5063C224.745 33.2284 229.615 36.7126 232.441 41.3372C234.01 43.9982 235.043 46.9387 235.484 49.9943C235.735 51.6216 235.871 53.2644 235.891 54.9107C235.916 56.4145 235.979 58.0262 235.629 59.5065C235.491 60.1938 235.163 60.8287 234.681 61.3384C234.127 61.833 233.48 62.2133 232.777 62.4574C231.137 63.1179 229.48 63.7399 227.832 64.3748L217.753 68.278C217.241 68.465 217.464 69.2922 217.976 69.0924Z" fill="#252525"/>
<path d="M229.17 34.7845C229.17 33.9104 229.43 33.056 229.916 32.3292C230.403 31.6025 231.095 31.036 231.904 30.7015C232.713 30.367 233.604 30.2795 234.463 30.45C235.322 30.6206 236.112 31.0415 236.731 31.6595C237.35 32.2776 237.772 33.0651 237.943 33.9223C238.114 34.7796 238.026 35.6682 237.691 36.4758C237.356 37.2833 236.788 37.9735 236.06 38.4591C235.331 38.9447 234.475 39.2039 233.599 39.2039C233.017 39.2041 232.441 39.0899 231.904 38.8678C231.367 38.6458 230.878 38.3202 230.467 37.9098C230.056 37.4994 229.729 37.0122 229.507 36.4759C229.284 35.9397 229.17 35.3649 229.17 34.7845ZM230.027 34.7845C230.027 35.4895 230.236 36.1788 230.628 36.7651C231.021 37.3514 231.579 37.8084 232.231 38.0783C232.884 38.3483 233.602 38.419 234.295 38.2816C234.988 38.1442 235.625 37.8048 236.125 37.3064C236.624 36.8079 236.965 36.1728 237.103 35.4814C237.241 34.7899 237.17 34.0732 236.9 33.4218C236.629 32.7704 236.171 32.2137 235.584 31.822C234.996 31.4303 234.306 31.2212 233.599 31.2212C232.652 31.2212 231.743 31.5966 231.074 32.2648C230.404 32.933 230.027 33.8394 230.027 34.7845Z" fill="#252525"/>
</g>
<defs>
<clipPath id="clip0_7_345">
<rect width="256" height="144" fill="white"/>
</clipPath>
</defs>
</svg>
