<svg width="20" height="30" viewBox="0 0 20 30" fill="none" xmlns="http://www.w3.org/2000/svg">
<path d="M9.53304 29.097C9.15992 28.9617 8.79107 28.8228 8.5269 28.4989C8.25242 28.1673 8.10545 27.7486 8.11248 27.3183C8.11248 26.77 8.11248 26.221 8.11248 25.6293H7.17612C6.89129 25.6293 6.60647 25.6364 6.32165 25.6257C5.37603 25.5901 4.64403 24.846 4.64403 23.9289C4.64302 23.4826 4.81743 23.0538 5.12965 22.7349C5.44187 22.416 5.8669 22.2326 6.3131 22.2242C6.89842 22.2035 7.48515 22.2242 8.09325 22.2242V19.4657C4.89966 18.8006 2.49504 17.0447 1.01894 14.1074C0.00639035 12.0937 -0.244967 9.94614 0.235674 7.74872C0.725643 5.46246 2.01666 3.4266 3.87577 2.00857C5.73487 0.59053 8.03961 -0.116301 10.3741 0.0156255C12.7085 0.147552 14.9189 1.10955 16.6064 2.72802C18.2939 4.34648 19.3474 6.51482 19.5766 8.84173C20.0502 13.5086 16.9961 18.4268 11.5382 19.4692V22.2213H13.2073C13.7349 22.2213 14.1992 22.3887 14.5481 22.791C15.0095 23.325 15.127 23.9417 14.8471 24.5911C14.5673 25.2405 14.0461 25.588 13.3404 25.6228C12.8491 25.6463 12.3556 25.6292 11.8629 25.6307H11.524V26.9501C11.524 28.2318 11.269 28.6206 10.0998 29.0984L9.53304 29.097ZM8.96339 20.8535C8.96339 21.4025 8.96339 21.9522 8.96339 22.5019C8.96339 22.9206 8.81599 23.0715 8.40086 23.0715C7.76001 23.0715 7.11275 23.0715 6.46833 23.0715C5.88729 23.0715 5.50207 23.4119 5.4978 23.9189C5.49353 24.4259 5.8816 24.7734 6.45694 24.7734C7.0921 24.7734 7.72654 24.7734 8.3617 24.7734C8.83095 24.7734 8.96339 24.9101 8.9641 25.3879C8.9641 26.0223 8.9641 26.6575 8.9641 27.2919C8.9641 27.8502 9.30945 28.2325 9.80576 28.2389C10.3021 28.2454 10.6659 27.8573 10.6681 27.2848C10.6681 26.6311 10.6681 25.9775 10.6681 25.3238C10.6681 24.925 10.819 24.7762 11.2199 24.7741C11.8736 24.7741 12.5272 24.7741 13.1809 24.7741C13.7413 24.7741 14.1244 24.4323 14.1329 23.9381C14.1415 23.4304 13.7541 23.073 13.1838 23.0701C12.5208 23.0701 11.8572 23.0701 11.1943 23.0701C10.8283 23.0701 10.6695 22.9135 10.6681 22.5524C10.6681 21.4245 10.6681 20.2973 10.6681 19.1694C10.6681 18.8754 10.8105 18.7095 11.0953 18.6553C11.3552 18.6055 11.6194 18.572 11.8786 18.5129C16.3247 17.4626 19.2911 13.1661 18.6887 8.63381C18.3761 6.28401 17.2909 4.3408 15.4545 2.85615C13.4045 1.1999 11.0433 0.564751 8.43219 0.964928C6.17496 1.31099 4.31221 2.39403 2.87813 4.16421C1.27386 6.14658 0.633002 8.43016 0.955565 10.9615C1.22615 13.0899 2.17889 14.8843 3.73972 16.3483C5.04329 17.5802 6.69417 18.3814 8.46851 18.6432C8.85587 18.7045 8.96695 18.8426 8.96695 19.235C8.96624 19.7733 8.96482 20.3123 8.96482 20.8535H8.96339Z" fill="#A9A9A9"/>
<path d="M17.0624 9.80513C17.0474 13.2778 14.5438 16.3062 11.1879 16.9143C7.34274 17.6114 3.72263 15.2994 2.78556 11.4835C2.24795 9.29174 2.6937 7.26023 4.03309 5.43095C4.21609 5.18244 4.46032 5.12192 4.66967 5.26505C4.87901 5.40817 4.91106 5.67163 4.71453 5.93865C4.05587 6.83229 3.61368 7.81777 3.49334 8.92503C3.20852 11.5547 4.1342 13.6802 6.3366 15.1292C9.48461 17.2013 13.5419 16.1581 15.4132 12.8855C17.051 10.0173 16.0747 6.15583 13.2664 4.41199C10.9621 2.98289 8.26628 3.05908 6.06032 4.62561C6.00006 4.67144 5.93704 4.71353 5.87163 4.75164C5.64946 4.87554 5.42445 4.83139 5.2913 4.64341C5.25803 4.59945 5.23417 4.54911 5.2212 4.49553C5.20823 4.44195 5.20643 4.38627 5.21592 4.33196C5.2254 4.27766 5.24597 4.22589 5.27633 4.17988C5.3067 4.13386 5.34621 4.09459 5.39241 4.06451C5.73313 3.80934 6.09174 3.57899 6.46548 3.37524C10.2622 1.43772 14.7467 3.03202 16.4735 6.93554C16.8724 7.83905 17.0732 8.81752 17.0624 9.80513Z" fill="#A9A9A9"/>
</svg>
