<svg width="203" height="159" viewBox="0 0 203 159" fill="none" xmlns="http://www.w3.org/2000/svg">
<g clip-path="url(#clip0_7_177)">
<path d="M184.783 145.15C180.892 149.307 176.433 152.896 171.537 155.811C171.425 155.88 171.311 155.945 171.196 156.011L163.272 149.014C163.355 148.937 163.447 148.85 163.546 148.755C169.451 143.162 198.765 104.053 200.718 94.5295C200.583 95.323 202.481 126.437 184.783 145.15Z" fill="#D0D0D0"/>
<path d="M173.067 157.161C172.917 157.197 172.764 157.23 172.611 157.261L166.666 152.011C166.782 151.971 166.918 151.923 167.073 151.869C169.624 150.968 177.222 148.248 184.782 145.15C192.907 141.819 200.992 138.056 202.731 135.646C202.358 136.206 190.868 153.19 173.067 157.161Z" fill="#D0D0D0"/>
<path d="M184.673 41.6416H183.826V18.5029C183.827 16.7442 183.479 15.0027 182.805 13.3779C182.13 11.7531 181.141 10.2768 179.895 9.03324C178.648 7.78967 177.168 6.80321 175.54 6.13019C173.911 5.45718 172.165 5.11078 170.402 5.11078H121.263C119.5 5.11077 117.754 5.45717 116.125 6.13018C114.497 6.80319 113.017 7.78964 111.77 9.03321C110.524 10.2768 109.535 11.7531 108.86 13.3779C108.186 15.0027 107.839 16.7442 107.839 18.5028V145.444C107.838 147.203 108.186 148.944 108.86 150.569C109.535 152.194 110.524 153.67 111.77 154.914C113.017 156.157 114.497 157.144 116.125 157.817C117.754 158.49 119.5 158.836 121.263 158.836H170.402C172.165 158.836 173.911 158.49 175.54 157.817C177.168 157.144 178.648 156.157 179.895 154.914C181.141 153.67 182.13 152.194 182.805 150.569C183.479 148.944 183.826 147.203 183.826 145.444V58.1122H184.673V41.6416Z" fill="#252525"/>
<path d="M180.969 18.5949V145.351C180.969 146.665 180.71 147.965 180.206 149.178C179.702 150.392 178.963 151.494 178.032 152.423C177.101 153.351 175.996 154.088 174.779 154.59C173.563 155.092 172.259 155.351 170.942 155.35H121.566C120.25 155.35 118.946 155.092 117.73 154.589C116.514 154.087 115.409 153.35 114.479 152.422C113.548 151.493 112.81 150.391 112.306 149.178C111.802 147.965 111.543 146.664 111.543 145.351V18.5949C111.543 17.2818 111.802 15.9815 112.306 14.7683C112.81 13.5551 113.548 12.4528 114.479 11.5243C115.409 10.5958 116.514 9.85927 117.73 9.35681C118.946 8.85435 120.25 8.59579 121.566 8.59589H127.558C127.264 9.31739 127.152 10.0999 127.232 10.8747C127.312 11.6495 127.582 12.3927 128.018 13.0391C128.453 13.6855 129.042 14.2151 129.731 14.5815C130.42 14.9479 131.188 15.1398 131.969 15.1404H160.12C160.901 15.1411 161.67 14.95 162.36 14.584C163.05 14.2179 163.638 13.6881 164.074 13.0414C164.51 12.3947 164.78 11.6508 164.86 10.8755C164.939 10.1003 164.826 9.31735 164.531 8.59589H170.942C172.259 8.59541 173.563 8.85369 174.779 9.35598C175.996 9.85826 177.101 10.5947 178.032 11.5232C178.963 12.4518 179.702 13.5542 180.206 14.7676C180.71 15.981 180.969 17.2815 180.969 18.5949Z" fill="white"/>
<path d="M165.61 84.4643H122.209C121.449 84.4634 120.72 84.1618 120.183 83.6255C119.645 83.0893 119.343 82.3622 119.342 81.6039V80.1801C119.343 79.4217 119.645 78.6947 120.183 78.1584C120.72 77.6222 121.449 77.3206 122.209 77.3197H165.61C166.37 77.3206 167.099 77.6222 167.636 78.1584C168.174 78.6947 168.476 79.4217 168.477 80.1801V81.6039C168.476 82.3622 168.174 83.0893 167.636 83.6255C167.099 84.1618 166.37 84.4634 165.61 84.4643Z" fill="#F0F0F0"/>
<path d="M165.61 96.7374H122.209C121.449 96.7365 120.72 96.4349 120.183 95.8987C119.645 95.3624 119.343 94.6354 119.342 93.877V92.4532C119.343 91.6949 119.645 90.9678 120.183 90.4316C120.72 89.8953 121.449 89.5937 122.209 89.5928H165.61C166.37 89.5937 167.099 89.8953 167.636 90.4316C168.174 90.9678 168.476 91.6949 168.477 92.4532V93.877C168.476 94.6354 168.174 95.3624 167.636 95.8987C167.099 96.4349 166.37 96.7365 165.61 96.7374Z" fill="#F0F0F0"/>
<path d="M167.781 81.7194H124.38C123.582 81.7184 122.817 81.4017 122.253 80.8387C121.688 80.2756 121.371 79.5122 121.37 78.7159V77.2922C121.371 76.4959 121.688 75.7325 122.253 75.1694C122.817 74.6064 123.582 74.2897 124.38 74.2888H167.781C168.579 74.2897 169.344 74.6064 169.909 75.1694C170.473 75.7325 170.79 76.4959 170.791 77.2922V78.7159C170.79 79.5122 170.473 80.2756 169.909 80.8387C169.344 81.4017 168.579 81.7184 167.781 81.7194ZM124.38 74.8608C123.734 74.8616 123.115 75.1179 122.658 75.5738C122.201 76.0296 121.944 76.6476 121.943 77.2922V78.7159C121.944 79.3606 122.201 79.9786 122.658 80.4344C123.115 80.8902 123.734 81.1466 124.38 81.1473H167.781C168.427 81.1466 169.046 80.8902 169.503 80.4344C169.96 79.9786 170.217 79.3606 170.218 78.7159V77.2922C170.217 76.6476 169.96 76.0296 169.503 75.5738C169.046 75.1179 168.427 74.8616 167.781 74.8608H124.38Z" fill="#3F3D56"/>
<path d="M167.781 93.9925H124.38C123.582 93.9916 122.817 93.6749 122.253 93.1118C121.688 92.5488 121.371 91.7854 121.37 90.9891V89.5653C121.371 88.769 121.688 88.0056 122.253 87.4426C122.817 86.8795 123.582 86.5628 124.38 86.5619H167.781C168.579 86.5628 169.344 86.8795 169.909 87.4426C170.473 88.0056 170.79 88.769 170.791 89.5653V90.9891C170.79 91.7854 170.473 92.5488 169.909 93.1118C169.344 93.6749 168.579 93.9916 167.781 93.9925ZM124.38 87.134C123.734 87.1347 123.115 87.3911 122.658 87.8469C122.201 88.3027 121.944 88.9207 121.943 89.5653V90.9891C121.944 91.6337 122.201 92.2517 122.658 92.7075C123.115 93.1633 123.734 93.4197 124.38 93.4204H167.781C168.427 93.4197 169.046 93.1633 169.503 92.7075C169.96 92.2517 170.217 91.6337 170.218 90.9891V89.5653C170.217 88.9207 169.96 88.3027 169.503 87.8469C169.046 87.3911 168.427 87.1347 167.781 87.134H124.38Z" fill="#3F3D56"/>
<path d="M180.969 18.5949V46.1662C176.578 47.3187 171.98 47.451 167.529 46.5527C163.078 45.6544 158.893 43.7496 155.296 40.9847C151.699 38.2198 148.786 34.6686 146.781 30.6043C144.775 26.54 143.731 22.0709 143.729 17.5409C143.729 16.7323 143.761 15.9321 143.826 15.1404H160.12C160.901 15.1411 161.67 14.95 162.36 14.584C163.05 14.2179 163.638 13.6881 164.074 13.0414C164.51 12.3947 164.78 11.6508 164.86 10.8755C164.939 10.1003 164.826 9.31735 164.531 8.59589H170.942C172.259 8.59541 173.563 8.85369 174.779 9.35598C175.996 9.85826 177.101 10.5947 178.032 11.5232C178.963 12.4518 179.702 13.5542 180.206 14.7676C180.71 15.981 180.969 17.2815 180.969 18.5949Z" fill="#D0D0D0"/>
<path d="M136.492 153.628C136.492 154.21 136.47 154.783 136.423 155.35H121.566C120.25 155.35 118.946 155.092 117.73 154.589C116.514 154.087 115.409 153.35 114.479 152.422C113.548 151.493 112.81 150.391 112.306 149.178C111.802 147.965 111.543 146.664 111.543 145.351V131.793C114.657 131.389 117.822 131.652 120.827 132.564C123.831 133.476 126.606 135.016 128.967 137.082C131.328 139.149 133.22 141.693 134.517 144.546C135.815 147.399 136.488 150.495 136.492 153.628Z" fill="#4AB7C3"/>
<path d="M16.6647 129.839C17.0822 130.022 17.5554 130.032 17.9807 129.868C18.4059 129.703 18.7484 129.377 18.933 128.961L32.317 98.7002C32.6234 98.0076 32.717 97.2401 32.586 96.4945C32.455 95.7489 32.1054 95.0588 31.5812 94.5115C31.0571 93.9642 30.3821 93.5842 29.6415 93.4196C28.9009 93.255 28.128 93.3133 27.4205 93.5869C26.6032 93.8983 25.9193 94.4826 25.4851 95.2403C25.416 95.3602 25.3534 95.4836 25.2975 95.6102L11.9134 125.871C11.8222 126.078 11.7726 126.3 11.7674 126.525C11.7623 126.75 11.8016 126.975 11.8833 127.185C11.965 127.395 12.0873 127.587 12.2434 127.75C12.3995 127.913 12.5862 128.043 12.7929 128.134L16.6647 129.839Z" fill="#4AB7C3"/>
<path d="M31.7676 111.124L18.5291 108.189L21.8057 99.5413C22.3639 97.4276 23.663 95.5836 25.4673 94.3436C27.2715 93.1037 29.4615 92.5499 31.64 92.7827L31.7676 92.7968L31.7676 111.124Z" fill="#235564"/>
<path d="M58.5074 130.271C58.118 130.271 57.7371 130.158 57.4109 129.946C57.0846 129.734 56.8269 129.432 56.6689 129.077L43.2849 98.8155C42.8593 97.8527 42.8197 96.7637 43.1744 95.7727C43.529 94.7816 44.2509 93.9638 45.1915 93.4876C46.1322 93.0114 47.22 92.9129 48.2312 93.2124C49.2424 93.5119 50.1 94.1867 50.6277 95.0978C50.7019 95.2265 50.7692 95.3589 50.8292 95.4948L64.2132 125.756C64.4281 126.242 64.4407 126.793 64.2483 127.288C64.0558 127.783 63.6741 128.182 63.1871 128.396L59.1841 130.158L59.182 130.154C58.9657 130.231 58.7374 130.271 58.5074 130.271Z" fill="#4AB7C3"/>
<path d="M39.9938 119.88C39.5377 119.88 39.1004 120.061 38.7779 120.383C38.4554 120.705 38.2739 121.141 38.2734 121.596V156.783C38.2739 157.238 38.4554 157.674 38.7779 157.996C39.1004 158.318 39.5377 158.499 39.9938 158.499H44.2257C44.6818 158.499 45.1191 158.318 45.4416 157.996C45.7641 157.674 45.9455 157.238 45.946 156.783V121.596C45.9455 121.141 45.7641 120.705 45.4416 120.383C45.1191 120.061 44.6818 119.88 44.2257 119.88H39.9938Z" fill="#4AB7C3"/>
<path d="M31.6235 119.88C31.1674 119.88 30.7301 120.061 30.4076 120.383C30.0851 120.705 29.9037 121.141 29.9032 121.596V156.783C29.9037 157.238 30.0851 157.674 30.4076 157.996C30.7301 158.318 31.1674 158.499 31.6235 158.499H35.8555C36.3116 158.499 36.7489 158.318 37.0714 157.996C37.3939 157.674 37.5753 157.238 37.5758 156.783V121.596C37.5753 121.141 37.3939 120.705 37.0714 120.383C36.7489 120.061 36.3116 119.88 35.8555 119.88H31.6235Z" fill="#4AB7C3"/>
<path d="M37.7982 83.0155C45.8742 83.0155 52.4211 76.4842 52.4211 68.4275C52.4211 60.3708 45.8742 53.8395 37.7982 53.8395C29.7222 53.8395 23.1753 60.3708 23.1753 68.4275C23.1753 76.4842 29.7222 83.0155 37.7982 83.0155Z" fill="#4AB7C3"/>
<path d="M42.6644 74.5513C43.6123 74.525 44.792 74.4922 45.7008 73.8299C45.9714 73.6246 46.1938 73.3627 46.3523 73.0627C46.5108 72.7626 46.6016 72.4316 46.6183 72.0929C46.6348 71.8521 46.5952 71.6108 46.5026 71.3879C46.4101 71.1649 46.2671 70.9663 46.0849 70.8076C45.6102 70.4075 44.9171 70.3136 44.1701 70.5326L44.944 64.8903L44.3759 64.8127L43.4661 71.4459L43.9405 71.2287C44.4905 70.9771 45.2456 70.849 45.7148 71.2445C45.83 71.3479 45.9197 71.4765 45.977 71.6201C46.0344 71.7637 46.0577 71.9186 46.0453 72.0727C46.0314 72.3249 45.9632 72.5711 45.8454 72.7946C45.7275 73.018 45.5629 73.2136 45.3625 73.3679C44.6553 73.8833 43.7149 73.9497 42.6484 73.9795L42.6644 74.5513Z" fill="#252525"/>
<path d="M50.8421 65.377H47.7537V65.949H50.8421V65.377Z" fill="#252525"/>
<path d="M41.0936 65.377H38.0051V65.949H41.0936V65.377Z" fill="#252525"/>
<path d="M52.2874 130.449L47.0243 92.1199C46.9678 91.7089 46.7641 91.3322 46.4507 91.0595C46.1373 90.7868 45.7356 90.6366 45.3198 90.6366H41.3471C41.3636 90.5421 41.3723 90.4464 41.3728 90.3505V88.9203C41.3728 88.4652 41.1916 88.0286 40.869 87.7068C40.5463 87.3849 40.1088 87.2041 39.6525 87.2041H36.2118C35.7556 87.2041 35.318 87.3849 34.9954 87.7068C34.6727 88.0286 34.4915 88.4652 34.4915 88.9203V90.3505C34.4921 90.4464 34.5007 90.5421 34.5173 90.6366H30.5446C30.1287 90.6366 29.727 90.7868 29.4136 91.0595C29.1003 91.3322 28.8965 91.7089 28.84 92.1199L23.577 130.449C23.5436 130.692 23.5628 130.939 23.6332 131.174C23.7035 131.409 23.8235 131.626 23.985 131.81C24.1464 131.995 24.3457 132.143 24.5693 132.244C24.7929 132.346 25.0357 132.398 25.2813 132.398H50.583C50.8286 132.398 51.0714 132.346 51.295 132.244C51.5186 132.143 51.7179 131.995 51.8793 131.81C52.0408 131.626 52.1608 131.409 52.2312 131.174C52.3015 130.939 52.3207 130.692 52.2874 130.449Z" fill="#235564"/>
<path d="M44.0967 111.124V92.7968L44.2242 92.7827C46.4054 92.5501 48.5978 93.1057 50.4033 94.3486C52.2087 95.5915 53.5073 97.4393 54.0632 99.5562L57.3352 108.189L44.0967 111.124Z" fill="#235564"/>
<path d="M37.0618 83.4707L26.9475 79.5543C25.2936 78.9139 23.6305 78.2929 21.9853 77.6305C21.2806 77.3855 20.6315 77.0038 20.0753 76.5074C19.5911 75.9961 19.2611 75.3589 19.1231 74.6691C18.7723 73.1899 18.8357 71.5727 18.8607 70.0631C18.8801 68.4118 19.0164 66.7638 19.2684 65.1316C19.7101 62.0644 20.7473 59.1126 22.3221 56.4416C25.1585 51.7988 30.0456 48.3056 35.667 48.5844C38.2695 48.7135 40.887 49.6451 42.8206 51.4202C43.0223 51.6607 43.2486 51.8795 43.4958 52.0731C43.6677 52.1374 43.8547 52.1499 44.0336 52.1091C44.2696 52.0939 44.5057 52.0824 44.7421 52.0744C45.5621 52.0399 46.3837 52.0743 47.198 52.1772C48.682 52.3371 50.0884 52.9197 51.2495 53.8555C52.2158 54.6847 53.002 55.8554 53.0829 57.1563C53.122 57.7535 53.023 58.3517 52.7936 58.9047C52.5642 59.4577 52.2106 59.9508 51.7599 60.3458C50.5532 61.3604 48.8316 61.0038 47.3841 60.9273L42.0815 60.647L39.3949 60.505C38.8417 60.4758 38.8433 61.334 39.3949 61.3632L46.5357 61.7406C47.6832 61.8012 48.8659 61.9499 50.0144 61.8812C50.8968 61.8413 51.7394 61.5032 52.4037 60.9223C53.0103 60.3663 53.4623 59.663 53.7153 58.8809C53.9684 58.0988 54.0141 57.2647 53.8478 56.4598C53.4796 54.7042 52.1699 53.2519 50.6346 52.388C48.5455 51.2124 46.0505 51.0998 43.7129 51.2735L44.017 51.3992C41.3728 48.5679 37.3224 47.3725 33.52 47.7909C29.5052 48.2326 25.9344 50.467 23.3688 53.5224C20.5083 56.929 18.9495 61.1767 18.3435 65.5446C18.0282 67.9029 17.9244 70.2845 18.0333 72.6612C18.0288 73.7093 18.2086 74.7502 18.5644 75.7364C18.9704 76.6962 19.7044 77.4813 20.636 77.9521C21.704 78.4665 22.802 78.9164 23.9241 79.2996L27.6504 80.7425L34.97 83.5767L36.8331 84.2982C37.3495 84.4981 37.5732 83.6687 37.0618 83.4707Z" fill="#2F2E41"/>
<path d="M21.1588 54.3095C20.2798 54.3095 19.4206 54.0495 18.6897 53.5624C17.9589 53.0752 17.3893 52.3827 17.0529 51.5726C16.7165 50.7625 16.6285 49.871 16.8 49.011C16.9715 48.1509 17.3947 47.361 18.0163 46.7409C18.6378 46.1209 19.4297 45.6986 20.2918 45.5275C21.1539 45.3564 22.0475 45.4442 22.8595 45.7798C23.6716 46.1154 24.3657 46.6837 24.854 47.4128C25.3424 48.1419 25.603 48.9991 25.603 49.8759C25.6017 51.0514 25.133 52.1783 24.2999 53.0095C23.4667 53.8407 22.3371 54.3082 21.1588 54.3095ZM21.1588 46.3004C20.45 46.3004 19.757 46.5101 19.1676 46.903C18.5782 47.2959 18.1189 47.8543 17.8476 48.5077C17.5763 49.161 17.5053 49.8799 17.6436 50.5735C17.7819 51.2671 18.1233 51.9042 18.6245 52.4042C19.1257 52.9042 19.7644 53.2448 20.4596 53.3827C21.1548 53.5207 21.8755 53.4499 22.5304 53.1793C23.1853 52.9086 23.745 52.4504 24.1388 51.8624C24.5327 51.2744 24.7429 50.5831 24.7429 49.8759C24.7418 48.928 24.3638 48.0192 23.6919 47.3489C23.02 46.6786 22.109 46.3015 21.1588 46.3004Z" fill="#2F2E41"/>
<path d="M95.4499 81.7851L85.8307 74.4456L78.4736 84.0419L88.0929 91.3814L95.4499 81.7851Z" fill="#D0D0D0"/>
<path d="M41.086 16.2663C42.6059 16.2651 44.1049 16.619 45.463 17.2996C46.8211 17.9802 48.0006 18.9686 48.9071 20.1857L54.5239 12.8592L37.6707 0L24.7809 16.8131L32.0446 22.3554C32.7715 20.5569 34.0207 19.0162 35.6317 17.9312C37.2428 16.8462 39.1422 16.2665 41.086 16.2663Z" fill="#D0D0D0"/>
<path d="M202.713 159H0.286723C0.210679 159 0.13775 158.97 0.0839791 158.916C0.030208 158.863 0 158.79 0 158.714C0 158.638 0.030208 158.565 0.0839791 158.512C0.13775 158.458 0.210679 158.428 0.286723 158.428H202.713C202.789 158.428 202.862 158.458 202.916 158.512C202.97 158.565 203 158.638 203 158.714C203 158.79 202.97 158.863 202.916 158.916C202.862 158.97 202.789 159 202.713 159Z" fill="#3F3D56"/>
<path d="M153.307 111.537H132.703C131.943 111.536 131.214 111.235 130.676 110.699C130.139 110.162 129.836 109.435 129.835 108.677V107.253C129.836 106.495 130.139 105.768 130.676 105.231C131.214 104.695 131.943 104.394 132.703 104.393H153.307C154.067 104.394 154.796 104.695 155.334 105.231C155.871 105.768 156.174 106.495 156.174 107.253V108.677C156.174 109.435 155.871 110.162 155.334 110.699C154.796 111.235 154.067 111.536 153.307 111.537Z" fill="#4AB7C3"/>
<path d="M155.478 108.793H134.874C134.076 108.792 133.31 108.475 132.746 107.912C132.182 107.349 131.864 106.585 131.863 105.789V104.365C131.864 103.569 132.182 102.806 132.746 102.243C133.31 101.68 134.076 101.363 134.874 101.362H155.478C156.277 101.363 157.042 101.68 157.606 102.243C158.171 102.806 158.488 103.569 158.489 104.365V105.789C158.488 106.585 158.171 107.349 157.606 107.912C157.042 108.475 156.277 108.792 155.478 108.793ZM134.874 101.934C134.228 101.935 133.608 102.191 133.151 102.647C132.694 103.103 132.437 103.721 132.437 104.365V105.789C132.437 106.434 132.694 107.052 133.151 107.508C133.608 107.963 134.228 108.22 134.874 108.22H155.478C156.124 108.22 156.744 107.963 157.201 107.508C157.658 107.052 157.915 106.434 157.915 105.789V104.365C157.915 103.721 157.658 103.103 157.201 102.647C156.744 102.191 156.124 101.935 155.478 101.934H134.874Z" fill="#3F3D56"/>
</g>
<defs>
<clipPath id="clip0_7_177">
<rect width="203" height="159" fill="white"/>
</clipPath>
</defs>
</svg>
