<svg width="21" height="21" viewBox="0 0 21 21" fill="none" xmlns="http://www.w3.org/2000/svg">
<path d="M19.1415 2.0671C17.9221 0.7336 16.296 0 14.5621 0C13.0634 0 11.6445 0.5488 10.5 1.5589C9.3555 0.5488 7.9366 0 6.4379 0C4.704 0 3.0779 0.7336 1.8585 2.0671C-0.6195 4.7761 -0.6195 9.1833 1.8585 11.8923L9.9827 20.7732C10.1157 20.9174 10.3033 21 10.5 21C10.6967 21 10.8843 20.9174 11.0173 20.7725L19.1415 11.8916C21.6195 9.1833 21.6195 4.7761 19.1415 2.0671ZM18.1069 10.9473L10.5 19.2626L2.8924 10.9473C0.8911 8.7598 0.8911 5.1996 2.8924 3.0121C3.8437 1.9719 5.1023 1.4 6.4379 1.4C7.7735 1.4 9.0321 1.9719 9.9827 3.0114C10.248 3.3012 10.7513 3.3012 11.0173 3.0114C11.9679 1.9719 13.2265 1.4 14.5621 1.4C15.8977 1.4 17.157 1.9719 18.1076 3.0114C20.1089 5.1996 20.1089 8.7598 18.1069 10.9473Z" fill="black"/>
<path d="M16.1001 8.39996H14.3501L12.4601 5.87996C12.3145 5.68606 12.0814 5.58176 11.8371 5.60276C11.5956 5.62446 11.3828 5.77006 11.2736 5.98706L8.98043 10.5742L7.56013 8.67996C7.42783 8.50356 7.22063 8.39996 7.00013 8.39996H4.90013C4.51373 8.39996 4.20013 8.71356 4.20013 9.09996C4.20013 9.48636 4.51373 9.79996 4.90013 9.79996H6.65013L8.54013 12.32C8.67313 12.4971 8.88103 12.6 9.10013 12.6C9.12113 12.6 9.14213 12.5993 9.16313 12.5972C9.40463 12.5755 9.61743 12.4299 9.72663 12.2129L12.0198 7.62576L13.4401 9.51996C13.5717 9.69636 13.7796 9.79996 14.0001 9.79996H16.1001C16.4865 9.79996 16.8001 9.48636 16.8001 9.09996C16.8001 8.71356 16.4865 8.39996 16.1001 8.39996Z" fill="black"/>
</svg>
