<svg width="27" height="27" viewBox="0 0 27 27" fill="none" xmlns="http://www.w3.org/2000/svg">
<path d="M11.2787 18.3032C12.207 19.229 13.1448 20.1669 14.0866 21.1015C14.5048 21.5165 14.7894 22.0026 14.8414 22.591C14.8745 22.8876 14.8589 23.1877 14.795 23.4793C14.428 24.9576 12.4125 26.5174 10.552 25.0167C10.5204 24.9959 10.4872 24.9775 10.4528 24.9616C10.0195 25.3973 9.58697 25.841 9.14804 26.2744C8.2366 27.177 7.12367 27.1738 6.21223 26.268C5.71733 25.7755 5.22483 25.2806 4.69315 24.7529C4.26301 25.195 3.86006 25.6379 3.42592 26.0489C3.15356 26.3118 2.79907 26.4731 2.42191 26.5057C2.04474 26.5384 1.66783 26.4403 1.35438 26.228C0.581251 25.7147 0.247854 24.8784 0.55007 24.1133C0.659204 23.8578 0.813897 23.6242 1.00659 23.4241C1.37757 23.0243 1.77972 22.647 2.18508 22.2456C1.67259 21.7363 1.17609 21.2454 0.682792 20.7513C-0.224655 19.8415 -0.227856 18.7254 0.674794 17.8211C1.11133 17.383 1.55426 16.9488 1.91964 16.5843C1.72136 16.0798 1.47991 15.6464 1.38237 15.1835C1.14251 14.0258 1.87407 12.9753 2.91983 12.3916C3.87925 11.8567 5.01376 12.0598 5.83486 12.8713C6.70873 13.7348 7.5754 14.6055 8.44287 15.4745C8.52282 15.5545 8.58359 15.6416 8.62916 15.696L15.7128 8.6227C15.5354 8.45081 15.3187 8.24693 15.1084 8.03746C14.3958 7.32749 13.6831 6.61486 12.9705 5.89956C11.9311 4.86019 11.844 3.44106 12.7594 2.40968C13.8788 1.14565 15.2171 0.976956 16.4596 1.94037C16.4869 1.95752 16.5152 1.97301 16.5443 1.98674C17.0001 1.53022 17.4598 1.06331 17.9267 0.603585C18.4504 0.089498 19.082 -0.133569 19.7904 0.0815006C20.1381 0.197836 20.4573 0.386687 20.7266 0.635563C21.2607 1.11527 21.7468 1.64615 22.2832 2.18662C22.703 1.76448 23.1019 1.35113 23.5145 0.952172C24.0174 0.466068 24.6186 0.294172 25.2782 0.546818C26.4967 1.01213 27.0667 2.49443 25.9898 3.5402C25.6028 3.91517 25.2207 4.29494 24.8113 4.69709C25.3278 5.21118 25.8395 5.69648 26.32 6.21057C26.5448 6.43542 26.7263 6.69964 26.8557 6.99009C27.1491 7.73604 26.9876 8.42522 26.4399 9.00727C26.0402 9.42941 25.6236 9.82917 25.2151 10.2393C25.1463 10.3089 25.0807 10.3816 25.0096 10.4568C25.602 11.1668 25.8403 11.9623 25.5501 12.8377C24.9728 14.5759 22.7518 15.7072 21.088 14.0066C20.2421 13.144 19.3794 12.2981 18.5231 11.4482C18.4544 11.3794 18.3808 11.3147 18.3289 11.2667L11.2787 18.3032ZM14.9733 2.28896C14.2937 2.28336 13.9035 2.59037 13.543 2.97254C12.9385 3.61215 12.9225 4.49162 13.543 5.11444C16.3146 7.88982 19.0916 10.6591 21.8739 13.4222C22.076 13.6127 22.3208 13.752 22.5879 13.8283C23.297 14.0346 23.8119 13.6772 24.2668 13.1807C24.8425 12.5555 24.8633 11.6832 24.262 11.0812C21.4829 8.28877 18.6964 5.50327 15.9023 2.72469C15.6558 2.47157 15.3256 2.31671 14.9733 2.28896ZM13.9147 22.842C13.8936 22.4556 13.7271 22.0914 13.4486 21.8227C10.677 19.059 7.90533 16.2967 5.13368 13.5357C4.93279 13.3438 4.68917 13.2024 4.42291 13.1232C3.77371 12.9297 3.26762 13.2111 2.82389 13.6748C2.13231 14.3944 2.11552 15.2499 2.8127 15.947C5.54543 18.6782 8.27977 21.408 11.0157 24.1365C11.517 24.637 12.1454 24.7761 12.7419 24.5306C13.3903 24.2612 13.9203 23.5224 13.9147 22.842ZM17.2327 2.64634L24.3436 9.75082C24.7721 9.32308 25.2095 8.88734 25.6452 8.45081C26.1654 7.92899 26.1673 7.40904 25.6508 6.89096C24.8609 6.09944 24.0696 5.30925 23.277 4.5204C22.203 3.44905 21.1287 2.37744 20.0542 1.30556C19.6233 0.877816 19.0548 0.854629 18.6367 1.25519C18.161 1.71091 17.7004 2.18182 17.2327 2.64634ZM2.65039 17.1935C2.21706 17.6308 1.78932 18.0642 1.35998 18.4959C0.8307 19.0276 0.832299 19.5401 1.36957 20.0765L5.69254 24.3939C6.12348 24.824 6.54962 25.259 6.98775 25.6819C7.36672 26.0481 7.91999 26.0977 8.29096 25.7531C8.80105 25.2798 9.27117 24.7649 9.74688 24.2796L2.65039 17.1935ZM9.48304 16.3868L10.5728 17.4781L17.5349 10.5319L16.442 9.439L9.48304 16.3868ZM24.1477 3.99432C24.5667 3.58337 25.004 3.17722 25.4133 2.74468C25.698 2.44326 25.6532 2.0531 25.3454 1.7293C24.9952 1.36232 24.5994 1.27198 24.2916 1.5558C23.8407 1.97075 23.4297 2.42967 23.0124 2.85661L24.1477 3.99432ZM2.84307 22.9428C2.43292 23.3529 2.01558 23.7535 1.61742 24.1708C1.29762 24.5042 1.33519 24.8976 1.68858 25.2526C2.04196 25.6076 2.44252 25.6603 2.77112 25.3501C3.19806 24.9504 3.60262 24.521 4.01037 24.1117L2.84307 22.9428Z" fill="#A9A9A9"/>
</svg>
