<svg width="29" height="26" viewBox="0 0 29 26" fill="none" xmlns="http://www.w3.org/2000/svg">
<path d="M25.9857 16.7977V1.98625C25.9857 1.48782 25.9857 1.48782 25.4753 1.48782H4.56101V1.9404C4.56101 3.49451 4.56101 5.04863 4.56101 6.60274C4.56817 6.77556 4.54661 6.94837 4.49721 7.11414C4.37559 7.45905 4.10943 7.61755 3.74358 7.59462C3.5813 7.58721 3.42669 7.52342 3.3064 7.41423C3.18611 7.30504 3.10769 7.15731 3.08465 6.9965C3.06468 6.84852 3.05668 6.69917 3.06072 6.54991C3.06072 5.02138 3.06072 3.49285 3.06072 1.96432C3.06072 1.81978 3.04777 1.67423 3.0388 1.48981C2.75569 1.48981 2.50846 1.49978 2.26323 1.48981C2.16657 1.48996 2.07085 1.47085 1.98165 1.43359C1.89246 1.39633 1.81158 1.34168 1.74374 1.27282C1.6759 1.20396 1.62246 1.12227 1.58654 1.03253C1.55062 0.942792 1.53293 0.846795 1.53452 0.750145C1.53451 0.55491 1.61159 0.367563 1.74899 0.228859C1.88639 0.0901549 2.07299 0.0113074 2.26822 0.009468C2.73974 -0.00747873 3.21225 0.00349313 3.68476 0.00349313H28.0402C28.6493 0.00349313 28.9713 0.241744 28.9962 0.701299C29.0062 0.797514 28.9964 0.894755 28.9674 0.987047C28.9385 1.07934 28.8909 1.16472 28.8277 1.23793C28.7645 1.31115 28.6869 1.37065 28.5998 1.41277C28.5127 1.45489 28.418 1.47873 28.3213 1.48284C28.0641 1.50078 27.8039 1.48284 27.5139 1.48284V16.8007C27.7352 16.8007 27.9545 16.7937 28.1738 16.8007C28.6902 16.8186 29.0032 17.1117 28.9982 17.5653C28.9982 18.0019 28.6921 18.295 28.1897 18.305C27.4919 18.3199 26.7941 18.305 26.1023 18.305H19.3884C18.7085 18.305 18.3527 18.0517 18.3407 17.5653C18.3287 17.0788 18.7036 16.7937 19.3964 16.7937H25.9906L25.9857 16.7977Z" fill="#A9A9A9"/>
<path d="M10.5133 22.3323C10.6768 22.1399 10.7974 22.0003 10.912 21.8598C13.8893 18.3043 16.8676 14.7488 19.8469 11.1933C19.9874 11.0064 20.1716 10.8569 20.3833 10.7577C20.5302 10.6985 20.6934 10.6935 20.8436 10.7435C20.9939 10.7936 21.1215 10.8954 21.2037 11.0308C21.421 11.3478 21.3911 11.6668 21.1509 11.9589C20.5816 12.6487 20.0055 13.3346 19.4313 14.0204C16.5809 17.4237 13.7332 20.828 10.8881 24.2333C10.7665 24.3798 10.7276 24.6031 10.6768 24.7975C10.6469 24.9142 10.6768 25.0457 10.6678 25.1694C10.6329 25.6289 10.3279 25.9399 9.91617 25.9409C9.50446 25.9419 9.18746 25.6419 9.16752 25.1733C9.1436 24.6021 9.16752 24.0289 9.1446 23.4587C9.09628 22.4669 8.66312 21.5329 7.93716 20.8554C7.21119 20.1778 6.24965 19.81 5.25682 19.8301C4.27052 19.8509 3.33027 20.2514 2.63186 20.9481C1.93346 21.6448 1.53075 22.5841 1.50761 23.5704C1.49863 24.0688 1.50761 24.5672 1.50761 25.0657C1.50063 25.599 1.19758 25.9449 0.749984 25.9439C0.302392 25.9429 0.00831877 25.6189 0.0113094 25.0966C0.0113094 24.1167 -0.0714305 23.1318 0.210683 22.1698C0.860639 19.9647 2.88727 18.3897 5.14317 18.3438C7.55459 18.294 9.6221 19.7145 10.3867 21.9465C10.4206 22.0522 10.4525 22.1578 10.5133 22.3323Z" fill="#A9A9A9"/>
<path d="M9.22941 13.0843C9.2268 13.5983 9.12281 14.1068 8.92339 14.5805C8.72397 15.0543 8.43303 15.4841 8.06726 15.8452C7.70148 16.2064 7.26805 16.4918 6.79179 16.6852C6.31553 16.8785 5.80579 16.976 5.29179 16.9721C3.11961 16.9522 1.40401 15.1708 1.44089 12.9697C1.47478 10.8204 3.2522 9.13374 5.4463 9.16963C7.53972 9.20352 9.2633 10.9869 9.22941 13.0843ZM5.3526 15.4589C5.66688 15.4586 5.978 15.396 6.26793 15.2747C6.55787 15.1534 6.82087 14.9759 7.04171 14.7522C7.26255 14.5286 7.43684 14.2634 7.55449 13.972C7.67214 13.6806 7.73082 13.3687 7.72713 13.0544C7.72372 12.4209 7.47057 11.8144 7.02263 11.3664C6.57469 10.9185 5.96813 10.6653 5.33465 10.6619C4.6935 10.6672 4.08066 10.9268 3.63076 11.3836C3.18086 11.8404 2.93069 12.4571 2.9352 13.0983C2.94361 13.7316 3.2028 14.3357 3.65596 14.7782C4.10912 15.2207 4.71926 15.4655 5.3526 15.4589Z" fill="#A9A9A9"/>
<path d="M16.0349 9.14476C14.0824 9.14476 12.1299 9.14476 10.1774 9.14476C10.004 9.15058 9.83081 9.12939 9.66398 9.08195C9.33103 8.9713 9.17651 8.71013 9.17751 8.36521C9.17634 8.2016 9.2327 8.04278 9.33675 7.9165C9.44079 7.79023 9.5859 7.70453 9.74671 7.67438C9.90558 7.6461 10.0669 7.63375 10.2282 7.63749C14.096 7.63749 17.9636 7.63749 21.8307 7.63749C22.5405 7.63749 22.8904 7.8917 22.8854 8.3981C22.8804 8.90451 22.5295 9.14476 21.8168 9.14476H16.0349Z" fill="#A9A9A9"/>
<path d="M17.565 6.08735C16.0877 6.08735 14.6093 6.08735 13.132 6.08735C12.5339 6.08735 12.169 5.73547 12.2348 5.246C12.2827 4.90408 12.4731 4.67679 12.82 4.60901C12.9541 4.58441 13.0903 4.57273 13.2267 4.57412C16.1203 4.57412 19.0138 4.57412 21.9074 4.57412C22.0436 4.57244 22.1797 4.58548 22.3131 4.613C22.4679 4.64105 22.6083 4.72141 22.7108 4.84065C22.8133 4.95989 22.8718 5.11074 22.8763 5.26793C22.8972 5.42979 22.8606 5.59384 22.773 5.73153C22.6854 5.86921 22.5523 5.97185 22.3969 6.02157C22.2302 6.0682 22.0575 6.09002 21.8845 6.08636C20.446 6.08935 19.0055 6.08735 17.565 6.08735Z" fill="#A9A9A9"/>
</svg>
