<svg width="174" height="153" viewBox="0 0 174 153" fill="none" xmlns="http://www.w3.org/2000/svg">
<g opacity="0.3">
<path d="M62.2683 26.7994C62.1852 26.866 62.0896 26.9155 61.9872 26.9451C61.8847 26.9747 61.7773 26.9838 61.6711 26.9718C61.5649 26.9598 61.4621 26.927 61.3683 26.8752C61.2746 26.8235 61.1919 26.7539 61.125 26.6703C60.5776 25.988 59.9919 25.3181 59.3858 24.6814C59.2384 24.5267 59.1573 24.3206 59.1598 24.1074C59.1623 23.8942 59.2483 23.6909 59.3994 23.5412L59.4112 23.531C59.567 23.3826 59.7757 23.3026 59.9913 23.3084C60.2069 23.3143 60.4118 23.4055 60.561 23.5621C61.1999 24.2328 61.8161 24.9376 62.3921 25.6565C62.5182 25.8136 62.5819 26.0116 62.571 26.2122C62.5601 26.4128 62.4753 26.6019 62.333 26.7431C62.3125 26.7631 62.2909 26.7819 62.2683 26.7994ZM56.2193 21.7781C55.5318 21.2299 54.8153 20.7048 54.088 20.2188C53.9959 20.1606 53.9163 20.0847 53.8539 19.9954C53.7915 19.9061 53.7476 19.8053 53.7246 19.699C53.7017 19.5926 53.7002 19.4828 53.7204 19.3761C53.7405 19.2694 53.7818 19.1679 53.8418 19.0776C53.9018 18.9873 53.9794 18.9101 54.0698 18.8504C54.1603 18.7907 54.2619 18.7498 54.3687 18.7302C54.4754 18.7105 54.5851 18.7124 54.6913 18.7358C54.7974 18.7593 54.898 18.8037 54.9869 18.8665C55.7523 19.3787 56.5069 19.9311 57.2299 20.5076C57.3136 20.5745 57.3834 20.6572 57.4353 20.7509C57.4872 20.8447 57.5202 20.9476 57.5324 21.0539C57.5446 21.1602 57.5358 21.2678 57.5065 21.3704C57.4771 21.4731 57.4278 21.5689 57.3614 21.6523C57.3414 21.6775 57.3199 21.7014 57.2969 21.7239C57.1557 21.8635 56.9681 21.9461 56.7694 21.9561C56.5708 21.9661 56.375 21.9028 56.2193 21.7781ZM50.366 18.0872C49.5773 17.7064 48.762 17.3541 47.9435 17.042C47.7466 16.9613 47.5887 16.807 47.5034 16.612C47.4181 16.4169 47.4121 16.1966 47.4869 15.9981C47.5617 15.7995 47.7112 15.6385 47.9036 15.5494C48.0959 15.4603 48.3158 15.4501 48.5164 15.5211C49.3794 15.8504 50.2368 16.2198 51.068 16.623C51.1643 16.6696 51.2506 16.7347 51.322 16.8146C51.3933 16.8944 51.4483 16.9875 51.4838 17.0884C51.5193 17.1894 51.5346 17.2962 51.5289 17.4029C51.5232 17.5095 51.4965 17.6139 51.4504 17.7101C51.4043 17.8062 51.3397 17.8922 51.2602 17.9632C51.1808 18.0342 51.0881 18.0887 50.9874 18.1238C50.8867 18.1588 50.78 18.1736 50.6734 18.1673C50.5668 18.1611 50.4623 18.1338 50.366 18.0872ZM43.8426 15.7954C42.9883 15.5991 42.1127 15.4411 41.249 15.3167C41.0382 15.2832 40.8486 15.1683 40.7209 14.9966C40.5933 14.825 40.5378 14.6104 40.5665 14.3991C40.5952 14.1877 40.7057 13.9965 40.8742 13.8666C41.0428 13.7366 41.2559 13.6784 41.4678 13.7044C42.3804 13.8334 43.2991 14.0033 44.2009 14.2065C44.3075 14.2281 44.4087 14.2708 44.4987 14.3321C44.5888 14.3933 44.6657 14.472 44.725 14.5633C44.7843 14.6547 44.8248 14.7569 44.8441 14.8639C44.8634 14.971 44.8611 15.0807 44.8374 15.1867C44.8136 15.2926 44.7689 15.3926 44.7058 15.4807C44.6427 15.5689 44.5626 15.6435 44.4701 15.7C44.3776 15.7565 44.2747 15.7939 44.1673 15.8099C44.06 15.8259 43.9504 15.8203 43.845 15.7933L43.8426 15.7954ZM36.9789 15.013C36.1041 15.0126 35.2192 15.0473 34.3466 15.1197C34.2386 15.1315 34.1294 15.1215 34.0251 15.0904C33.9209 15.0593 33.8239 15.0076 33.7397 14.9385C33.6556 14.8693 33.586 14.7841 33.5352 14.6878C33.4843 14.5915 33.4532 14.4861 33.4437 14.3778C33.4341 14.2695 33.4463 14.1604 33.4796 14.0571C33.5128 13.9538 33.5664 13.8583 33.6372 13.7763C33.7081 13.6942 33.7946 13.6273 33.8919 13.5794C33.9891 13.5314 34.0951 13.5036 34.2035 13.4973C35.1215 13.4217 36.0546 13.3835 36.9733 13.3852C37.1848 13.3918 37.3859 13.4807 37.5338 13.6328C37.6817 13.785 37.7648 13.9886 37.7656 14.2003C37.7663 14.4121 37.6846 14.6154 37.5377 14.7671C37.3909 14.9188 37.1904 15.007 36.9789 15.013ZM30.12 15.7681C29.268 15.9609 28.4123 16.1921 27.5802 16.4555C27.3756 16.5177 27.1543 16.4965 26.9643 16.3966C26.7743 16.2966 26.6311 16.1259 26.5655 15.9215C26.5 15.7171 26.5175 15.4955 26.6143 15.3048C26.711 15.1141 26.8792 14.9696 27.0824 14.9027C27.9592 14.6255 28.8585 14.3816 29.7556 14.1803C29.9657 14.133 30.1865 14.1713 30.3693 14.2867C30.5521 14.4022 30.6819 14.5853 30.7302 14.7959C30.7785 15.0064 30.7414 15.2271 30.6269 15.4095C30.5125 15.5918 30.3301 15.7208 30.12 15.7681ZM7.14999 35.2754C7.05006 35.2371 6.95855 35.1796 6.88068 35.106C6.80281 35.0325 6.74012 34.9444 6.69618 34.8467C6.65224 34.7491 6.62791 34.6438 6.62459 34.537C6.62128 34.4301 6.63903 34.3238 6.67684 34.224C7.00263 33.3644 7.36915 32.509 7.76979 31.6776C7.86623 31.4886 8.03294 31.3452 8.23427 31.2781C8.4356 31.211 8.65557 31.2255 8.84715 31.3185C9.03873 31.4116 9.1867 31.5757 9.25944 31.7759C9.33217 31.9761 9.3239 32.1964 9.23637 32.3898C8.85678 33.1776 8.50766 33.9915 8.19879 34.8078C8.15751 34.9158 8.09395 35.0139 8.01222 35.0956C7.90195 35.2054 7.76231 35.281 7.60992 35.3134C7.45754 35.3458 7.29884 35.3337 7.15271 35.2785L7.14999 35.2754ZM23.6086 18.0278C22.8223 18.4052 22.0422 18.821 21.2902 19.2641C21.1984 19.3183 21.0967 19.3537 20.991 19.3685C20.8853 19.3832 20.7777 19.377 20.6742 19.3502C20.4651 19.2959 20.2858 19.1609 20.1756 18.9748C20.0654 18.7887 20.0333 18.5668 20.0865 18.3579C20.1397 18.149 20.2737 17.9703 20.4591 17.8609C21.2516 17.3903 22.074 16.954 22.9008 16.559C23.0951 16.4659 23.3188 16.4541 23.5227 16.5261C23.7266 16.5981 23.894 16.7481 23.988 16.943C24.082 17.1379 24.0949 17.3619 24.024 17.5656C23.9531 17.7692 23.804 17.936 23.6097 18.029L23.6086 18.0278ZM10.2236 28.9026C10.0442 28.7819 9.91974 28.5951 9.87746 28.3833C9.83517 28.1715 9.87857 27.9519 9.99812 27.7729C10.5079 27.0091 11.0578 26.2575 11.632 25.5387C11.7681 25.3758 11.9628 25.273 12.1744 25.2524C12.386 25.2318 12.5977 25.295 12.7641 25.4284C12.9306 25.5618 13.0385 25.7549 13.0647 25.9663C13.091 26.1777 13.0336 26.3905 12.9048 26.5592C12.3588 27.2426 11.8364 27.9569 11.3509 28.682C11.32 28.7285 11.2842 28.7715 11.244 28.8103C11.1114 28.9395 10.9384 29.0192 10.7538 29.0362C10.5691 29.0532 10.3839 29.0064 10.2288 28.9036L10.2236 28.9026ZM17.7757 21.6863C17.0949 22.2299 16.4275 22.8102 15.7944 23.4124C15.6399 23.5622 15.432 23.6442 15.2163 23.6404C15.0007 23.6365 14.7949 23.5471 14.6444 23.3918C14.4939 23.2364 14.4109 23.0279 14.4137 22.8122C14.4164 22.5964 14.5048 22.3909 14.6592 22.2411L14.6723 22.2297C15.3397 21.5967 16.042 20.9848 16.7587 20.4121C16.9207 20.2802 17.1277 20.2162 17.3365 20.2334C17.5453 20.2507 17.7398 20.3479 17.8794 20.5048C18.0191 20.6617 18.0931 20.8661 18.086 21.0756C18.079 21.285 17.9914 21.4832 17.8416 21.6289C17.8219 21.65 17.801 21.67 17.7791 21.6888L17.7757 21.6863Z" fill="#4AB7C3"/>
<path d="M6.48706 40.6005C6.60507 40.4845 6.68414 40.3346 6.71345 40.1715C6.79009 39.7575 6.87388 39.3417 6.96676 38.93C6.99273 38.825 6.99745 38.7157 6.98065 38.6085C6.96385 38.5014 6.92586 38.3986 6.86892 38.3061C6.81198 38.2137 6.73723 38.1334 6.64904 38.0701C6.56085 38.0068 6.461 37.9616 6.35535 37.9373C6.2497 37.913 6.14038 37.91 6.03378 37.9285C5.92717 37.947 5.82544 37.9867 5.73455 38.0451C5.64365 38.1035 5.56541 38.1796 5.50442 38.2689C5.44343 38.3581 5.40093 38.4587 5.37938 38.5648C5.28215 38.9978 5.19269 39.4372 5.11357 39.8709C5.08234 40.0413 5.10636 40.2175 5.18213 40.3737C5.25791 40.53 5.38148 40.6582 5.53482 40.7397C5.68815 40.8211 5.86324 40.8515 6.03454 40.8265C6.20583 40.8015 6.36438 40.7223 6.48706 40.6005Z" fill="#91B3FA"/>
</g>
<g opacity="0.3">
<path d="M11.9103 64.837C12.0471 64.7011 12.1309 64.5206 12.1466 64.3279C12.1624 64.1352 12.1092 63.9429 11.9964 63.7852C11.7514 63.4437 11.5096 63.0908 11.2771 62.7374C11.1585 62.5566 10.9732 62.43 10.762 62.3855C10.5507 62.341 10.3309 62.3821 10.1509 62.4999C9.97084 62.6177 9.84528 62.8025 9.80185 63.0137C9.75841 63.2248 9.80066 63.445 9.91929 63.6257C10.1628 63.9981 10.4175 64.3696 10.6732 64.727C10.7993 64.9029 10.9898 65.0218 11.2028 65.0575C11.4157 65.0933 11.6338 65.043 11.8089 64.9177C11.8447 64.8934 11.8786 64.8665 11.9103 64.837Z" fill="#91B3FA"/>
<path d="M58.7868 70.1819C58.6254 70.3184 58.417 70.3863 58.2056 70.3712C57.9943 70.3561 57.7968 70.2592 57.655 70.101C57.5133 69.9428 57.4384 69.7359 57.4464 69.5242C57.4544 69.3124 57.5446 69.1126 57.6978 68.967C58.3329 68.3973 58.954 67.7914 59.5499 67.1602C59.6222 67.0794 59.71 67.0139 59.8082 66.9677C59.9063 66.9215 60.0129 66.8954 60.1215 66.8912C60.2301 66.8869 60.3385 66.9044 60.4405 66.9427C60.5424 66.9811 60.6357 67.0394 60.7149 67.1143C60.7941 67.1892 60.8576 67.2792 60.9016 67.3789C60.9456 67.4785 60.9693 67.5859 60.9712 67.6947C60.973 67.8035 60.9531 67.9114 60.9126 68.0121C60.8721 68.1129 60.8118 68.2044 60.7352 68.2812C60.477 68.5545 60.215 68.8226 59.9493 69.0856C59.5707 69.4605 59.1802 69.8292 58.7868 70.1819ZM62.4095 65.0481C62.2339 64.9219 62.1152 64.7314 62.0795 64.5184C62.0438 64.3054 62.0939 64.0873 62.219 63.9121C62.7193 63.2114 63.1951 62.4827 63.6335 61.7448C63.6879 61.6531 63.7599 61.5732 63.8454 61.5095C63.9309 61.4459 64.0281 61.3998 64.1316 61.3738C64.235 61.3478 64.3427 61.3426 64.4484 61.3582C64.5541 61.3739 64.6558 61.4103 64.7477 61.4652C64.8396 61.5202 64.9198 61.5927 64.9839 61.6785C65.0479 61.7643 65.0945 61.8619 65.1209 61.9656C65.1474 62.0692 65.1532 62.177 65.1381 62.2827C65.1229 62.3884 65.0871 62.49 65.0326 62.5817C64.5712 63.3583 64.0706 64.1263 63.546 64.8656C63.519 64.9031 63.489 64.9384 63.4564 64.9711C63.3202 65.1057 63.1405 65.1874 62.9492 65.2019C62.7579 65.2163 62.5673 65.1625 62.4112 65.05L62.4095 65.0481ZM55.3 72.9018C54.5515 73.4067 53.7713 73.8864 52.9802 74.3273C52.887 74.3851 52.783 74.4233 52.6744 74.4398C52.5659 74.4562 52.455 74.4504 52.3485 74.4228C52.242 74.3952 52.1421 74.3463 52.0548 74.2791C51.9675 74.2119 51.8946 74.1278 51.8405 74.0318C51.7864 73.9358 51.7523 73.8299 51.7402 73.7206C51.728 73.6112 51.7381 73.5007 51.7699 73.3955C51.8016 73.2904 51.8543 73.193 51.9248 73.109C51.9953 73.025 52.0822 72.9563 52.1801 72.9069C52.9317 72.4884 53.6728 72.0329 54.3834 71.5534C54.551 71.4411 54.7547 71.3955 54.9549 71.4254C55.155 71.4554 55.3372 71.5588 55.466 71.7155C55.5947 71.8722 55.6608 72.071 55.6513 72.2731C55.6418 72.4752 55.5574 72.6661 55.4145 72.8087C55.3794 72.8433 55.3411 72.8745 55.3 72.9018ZM65.9661 59.0578C65.8677 59.016 65.7783 58.9552 65.7032 58.8789C65.6281 58.8025 65.5687 58.7123 65.5283 58.6131C65.488 58.514 65.4675 58.408 65.468 58.3012C65.4686 58.1944 65.4901 58.0888 65.5315 57.9905C65.8646 57.1971 66.1682 56.381 66.43 55.5596C66.4964 55.3546 66.6416 55.1848 66.8336 55.0876C67.0257 54.9903 67.2489 54.9736 67.4541 55.0411C67.6593 55.1086 67.8297 55.2547 67.9278 55.4474C68.0259 55.6401 68.0438 55.8635 67.9774 56.0685C67.6989 56.9297 67.3795 57.7903 67.0284 58.6246C66.9872 58.723 66.9268 58.8122 66.851 58.8871C66.7751 58.962 66.6851 59.0211 66.5862 59.0611C66.4872 59.101 66.3813 59.121 66.2744 59.1199C66.1676 59.1189 66.0619 59.0967 65.9634 59.0547L65.9661 59.0578ZM48.9808 76.2028C48.1398 76.5299 47.2723 76.8253 46.4027 77.0808C46.2995 77.114 46.1906 77.1261 46.0824 77.1165C45.9742 77.1069 45.8689 77.0757 45.7727 77.0248C45.6765 76.9739 45.5914 76.9043 45.5223 76.8201C45.4533 76.7359 45.4017 76.6388 45.3706 76.5345C45.3395 76.4303 45.3296 76.3209 45.3414 76.213C45.3532 76.105 45.3864 76.0007 45.4392 75.906C45.492 75.8113 45.5632 75.7282 45.6488 75.6617C45.7343 75.5951 45.8323 75.5465 45.9371 75.5185C46.7631 75.2758 47.5869 74.9955 48.3833 74.6873C48.4826 74.6487 48.5887 74.6302 48.6955 74.6326C48.8023 74.6351 48.9076 74.6586 49.0055 74.7017C49.1034 74.7449 49.192 74.8069 49.2661 74.8842C49.3402 74.9615 49.3985 75.0526 49.4376 75.1522C49.4766 75.2518 49.4958 75.3581 49.4938 75.465C49.4919 75.5718 49.4689 75.6771 49.4263 75.7749C49.3837 75.8726 49.3221 75.9609 49.2453 76.0347C49.1684 76.1085 49.0777 76.1663 48.9783 76.2049L48.9808 76.2028ZM42.0819 78.0376C41.1857 78.1722 40.2744 78.2706 39.371 78.3303C39.2644 78.3373 39.1575 78.3232 39.0562 78.2889C38.9549 78.2546 38.8613 78.2006 38.7806 78.1302C38.7 78.0598 38.6339 77.9742 38.5862 77.8784C38.5384 77.7825 38.51 77.6783 38.5024 77.5717C38.4949 77.4651 38.5084 77.3581 38.5422 77.2569C38.576 77.1557 38.6294 77.0623 38.6994 76.9819C38.7694 76.9016 38.8546 76.8359 38.9501 76.7886C39.0456 76.7413 39.1496 76.7134 39.2561 76.7064C40.1137 76.6493 40.9821 76.5543 41.8319 76.4281C42.0451 76.396 42.2626 76.45 42.4367 76.5782C42.6109 76.7065 42.7273 76.8984 42.7605 77.1118C42.7936 77.3253 42.7407 77.5427 42.6135 77.7163C42.4862 77.89 42.295 78.0055 42.0819 78.0376ZM34.9418 78.3245C34.0366 78.2604 33.124 78.1578 32.2284 78.0194C32.024 77.977 31.8433 77.8578 31.7235 77.6863C31.6038 77.5149 31.5542 77.3043 31.5849 77.0981C31.6156 76.8919 31.7244 76.7057 31.8887 76.5781C32.053 76.4504 32.2603 76.391 32.4679 76.4121C33.3176 76.5442 34.1849 76.6413 35.0458 76.7022C35.257 76.7227 35.4522 76.8249 35.5899 76.9869C35.7276 77.1489 35.7969 77.358 35.7831 77.5697C35.7693 77.7814 35.6734 77.9789 35.516 78.1201C35.3585 78.2614 35.1518 78.3353 34.9399 78.3261L34.9418 78.3245ZM27.8988 77.0413C27.0288 76.7817 26.1592 76.4812 25.3145 76.1491C25.116 76.068 24.957 75.9122 24.872 75.7152C24.7869 75.5183 24.7827 75.2961 24.8601 75.0969C24.9375 74.8977 25.0904 74.7374 25.2857 74.6507C25.481 74.5641 25.7029 74.5581 25.9033 74.634C26.7052 74.9496 27.5308 75.2347 28.3576 75.4824C28.4601 75.5127 28.5556 75.5629 28.6388 75.6302C28.7221 75.6974 28.7913 75.7803 28.8426 75.8742C28.8939 75.9681 28.9263 76.071 28.9379 76.1772C28.9495 76.2834 28.9401 76.3908 28.9102 76.4931C28.8723 76.6246 28.8013 76.744 28.7039 76.8398C28.5999 76.944 28.4693 77.0177 28.3263 77.0531C28.1832 77.0885 28.033 77.0843 27.8918 77.0408L27.8988 77.0413ZM21.2989 74.2414C20.5085 73.7971 19.7254 73.3136 18.9734 72.8029C18.8782 72.7458 18.7956 72.67 18.7306 72.5799C18.6656 72.4899 18.6196 72.3876 18.5955 72.2794C18.5713 72.1711 18.5694 72.0592 18.59 71.9505C18.6106 71.8417 18.6532 71.7384 18.7152 71.6469C18.7772 71.5554 18.8573 71.4777 18.9506 71.4184C19.0438 71.3592 19.1483 71.3197 19.2575 71.3024C19.3668 71.285 19.4786 71.2902 19.586 71.3177C19.6934 71.3451 19.7942 71.3942 19.8822 71.4619C20.5973 71.9464 21.3398 72.406 22.0913 72.8281C22.2797 72.9341 22.4188 73.1104 22.478 73.3183C22.5371 73.5262 22.5114 73.7486 22.4066 73.9368C22.3692 74.0031 22.323 74.064 22.2693 74.1179C22.1428 74.2427 21.9787 74.3222 21.8022 74.3444C21.6256 74.3667 21.4464 74.3303 21.2919 74.2409L21.2989 74.2414ZM15.4749 70.0657C14.9774 69.6201 14.486 69.1527 14.0168 68.6781C13.847 68.5066 13.6793 68.3334 13.5137 68.1583C13.4389 68.0811 13.3803 67.9898 13.3412 67.8898C13.3021 67.7898 13.2833 67.683 13.286 67.5759C13.2887 67.4687 13.3128 67.3633 13.3568 67.2658C13.4009 67.1682 13.464 67.0806 13.5425 67.008C13.6198 66.9347 13.7108 66.8774 13.8104 66.8394C13.91 66.8014 14.0162 66.7835 14.1229 66.7866C14.2296 66.7898 14.3348 66.814 14.4323 66.8578C14.5299 66.9016 14.618 66.9642 14.6916 67.042C14.8492 67.208 15.0087 67.3734 15.17 67.5361C15.6162 67.988 16.0822 68.4313 16.5559 68.8559C16.6358 68.9274 16.7009 69.0138 16.7475 69.1103C16.7941 69.2068 16.8213 69.3114 16.8275 69.4182C16.8338 69.525 16.819 69.6319 16.7839 69.7327C16.7488 69.8336 16.6942 69.9264 16.6231 70.006L16.5891 70.0422C16.4417 70.1898 16.2428 70.2746 16.0339 70.2791C15.8249 70.2836 15.6218 70.2074 15.4667 70.0663L15.4749 70.0657Z" fill="#4AB7C3"/>
<path d="M68.8261 52.1878C68.9451 52.0708 69.0245 51.9194 69.0534 51.7547C69.1307 51.3215 69.1993 50.8782 69.259 50.4372C69.288 50.2235 69.2308 50.0066 69.1001 49.8342C68.9694 49.6619 68.7759 49.5482 68.5622 49.5181C68.3484 49.4881 68.132 49.5442 67.9604 49.6741C67.7888 49.804 67.6761 49.9971 67.6472 50.2109C67.5901 50.6297 67.5248 51.0504 67.4518 51.4623C67.4214 51.6325 67.4462 51.8082 67.5224 51.9639C67.5986 52.1196 67.7223 52.2472 67.8756 52.3281C68.0288 52.409 68.2036 52.439 68.3746 52.4138C68.5455 52.3886 68.7037 52.3094 68.8261 52.1878Z" fill="#91B3FA"/>
</g>
<path d="M60.8549 40.7036C60.8467 40.6248 60.8144 40.5503 60.7622 40.4904C60.7101 40.4306 60.6407 40.3883 60.5638 40.3694L56.064 39.2736C55.3584 37.1939 54.3193 35.2415 52.9874 33.4934L54.5962 29.1637C54.6234 29.0895 54.6268 29.0087 54.6061 28.9323C54.5854 28.8559 54.5415 28.7877 54.4805 28.7371L50.1904 25.193C50.1293 25.1423 50.054 25.1119 49.975 25.1061C49.896 25.1002 49.8173 25.1192 49.7499 25.1603L45.8121 27.5646C43.8458 26.5874 41.7351 25.9367 39.5631 25.638L37.6363 21.4184C37.6032 21.3462 37.5484 21.2861 37.4797 21.2463C37.4109 21.2065 37.3316 21.1891 37.2528 21.1965L31.7302 21.7126C31.6516 21.7202 31.5774 21.7521 31.5179 21.8039C31.4584 21.8557 31.4166 21.9248 31.3983 22.0017L30.3258 26.5004C28.251 27.1958 26.3052 28.2259 24.565 29.55L20.23 27.9195C20.1559 27.8914 20.0749 27.8872 19.9985 27.9074C19.922 27.9277 19.854 27.9715 19.8038 28.0326L16.2837 32.3078C16.2333 32.3686 16.2034 32.4438 16.198 32.5228C16.1927 32.6017 16.2122 32.6805 16.2539 32.748L18.6756 36.7012C17.7091 38.6637 17.0696 40.7725 16.7824 42.9444L12.5748 44.8519C12.5029 44.8845 12.4431 44.9389 12.4037 45.0074C12.3644 45.076 12.3476 45.1552 12.3556 45.234L12.899 50.7631C12.9069 50.8419 12.9391 50.9163 12.9912 50.9761C13.0433 51.0359 13.1127 51.0781 13.1896 51.0967L17.6906 52.1925C18.3956 54.2724 19.4348 56.2249 20.7671 57.9728L19.1612 62.3021C19.1338 62.3762 19.1301 62.4572 19.1508 62.5337C19.1714 62.6103 19.2153 62.6786 19.2764 62.7292L23.5664 66.2733C23.6277 66.3239 23.7031 66.354 23.7821 66.3597C23.8611 66.3653 23.9397 66.3461 24.0071 66.3048L27.9454 63.9012C29.9116 64.8787 32.0223 65.5294 34.1944 65.8278L36.1212 70.0474C36.1544 70.1184 36.2087 70.1776 36.2767 70.2168C36.3446 70.2559 36.4229 70.2731 36.5008 70.266L42.024 69.7495C42.1027 69.742 42.177 69.7101 42.2365 69.6583C42.2959 69.6064 42.3377 69.5372 42.3559 69.4603L43.4283 64.9628C45.5029 64.2669 47.4487 63.2368 49.1892 61.9132L53.5235 63.5443C53.5977 63.572 53.6786 63.576 53.7549 63.5557C53.8313 63.5355 53.8993 63.492 53.9497 63.4312L57.4705 59.1554C57.5204 59.0942 57.5501 59.019 57.5553 58.94C57.5605 58.861 57.5411 58.7823 57.4997 58.7146L55.0773 54.7619C56.0442 52.7993 56.6839 50.6904 56.9712 48.5182L61.1782 46.6112C61.2502 46.5787 61.3102 46.5243 61.3497 46.4558C61.3892 46.3873 61.4063 46.3081 61.3985 46.2292L60.8549 40.7036Z" fill="#E7E7E7"/>
<path d="M40.19 50.239C39.0288 51.0903 37.5807 51.4561 36.1502 51.2596C34.7197 51.0631 33.4183 50.3196 32.5197 49.1853C31.621 48.0511 31.1952 46.6145 31.3316 45.1778C31.4681 43.741 32.1562 42.4159 33.2513 41.4813C34.3465 40.5466 35.7633 40.0751 37.2038 40.1659C38.6443 40.2567 39.9963 40.9028 40.9755 41.9683C41.9547 43.0338 42.4848 44.4356 42.4543 45.8791C42.4238 47.3226 41.8351 48.6951 40.812 49.7082C40.618 49.9002 40.4101 50.0776 40.19 50.239ZM32.646 45.0753C32.4989 46.0539 32.6956 47.0549 33.2028 47.9079C33.7099 48.7608 34.496 49.4129 35.4272 49.753C36.3583 50.0931 37.3769 50.1002 38.3093 49.773C39.2417 49.4459 40.0303 48.8047 40.5407 47.9588C41.0511 47.1129 41.2517 46.1146 41.1083 45.134C40.965 44.1535 40.4865 43.2512 39.7545 42.5811C39.0224 41.911 38.0821 41.5145 37.0938 41.4591C36.1054 41.4037 35.1302 41.6929 34.3342 42.2773C34.1641 42.4027 34.0033 42.5402 33.853 42.6888C33.2034 43.3319 32.7799 44.1691 32.646 45.0753Z" fill="white"/>
<path d="M46.4119 55.534C46.7452 55.2039 47.0615 54.8572 47.3597 54.4951C47.4546 54.3806 47.5466 54.2641 47.636 54.1445C48.0833 53.5651 48.4834 52.9505 48.8324 52.3067L48.8459 52.2808L48.8884 52.2041L48.9649 52.0573C48.9955 51.9962 49.0063 51.927 48.9959 51.8594C48.9855 51.7917 48.9544 51.7288 48.9068 51.6794C48.8823 51.6552 48.8545 51.6347 48.8242 51.6184C48.7475 51.5787 48.6583 51.5709 48.5762 51.5969C48.4941 51.6229 48.4258 51.6805 48.3864 51.757C47.1641 54.1301 45.2428 56.0677 42.881 57.3092C40.5192 58.5506 37.8304 59.0363 35.1765 58.7006C32.7129 58.3928 30.3857 57.3849 28.4706 55.7965C28.1236 55.5105 27.7913 55.2069 27.475 54.8871C25.201 52.5765 23.8591 49.5089 23.7085 46.2768C23.5579 43.0447 24.6093 39.8774 26.6596 37.3868C31.2329 31.8358 39.4802 31.0668 45.0481 35.6688C45.3912 35.9522 45.7197 36.2527 46.0326 36.5692C47.382 37.9334 48.416 39.5767 49.0614 41.3824C49.0757 41.4228 49.0978 41.46 49.1265 41.4919C49.1552 41.5237 49.1899 41.5497 49.2285 41.5682C49.2672 41.5867 49.3091 41.5974 49.3518 41.5996C49.3945 41.6019 49.4372 41.5957 49.4774 41.5814C49.5587 41.5527 49.6251 41.4928 49.662 41.4149C49.6989 41.337 49.7033 41.2475 49.6742 41.166C48.8364 38.8244 47.3802 36.7511 45.4609 35.1675C39.6134 30.3376 30.9536 31.1474 26.1541 36.9734C24.0011 39.588 22.897 42.9132 23.0551 46.3066C23.2132 49.6999 24.6223 52.9205 27.0101 55.346C27.3399 55.6795 27.6882 55.999 28.0558 56.3029C30.6795 58.4704 34.0079 59.5919 37.3981 59.4507C40.7883 59.3096 43.9996 57.9158 46.4115 55.5387L46.4119 55.534Z" fill="white"/>
<g opacity="0.3">
<path d="M97.1249 22.5444C97.2019 22.4683 97.2519 22.3691 97.2676 22.2617C97.2833 22.1544 97.2637 22.0446 97.2118 21.949C97.0106 21.5749 96.7914 21.1978 96.5673 20.8327C96.5326 20.7764 96.4871 20.7274 96.4336 20.6885C96.38 20.6496 96.3194 20.6217 96.2552 20.6062C96.191 20.5908 96.1244 20.5881 96.0593 20.5984C95.9941 20.6086 95.9317 20.6317 95.8756 20.6661C95.8195 20.7006 95.7707 20.7458 95.7322 20.7992C95.6936 20.8526 95.666 20.9131 95.6509 20.9773C95.6357 21.0415 95.6334 21.1081 95.644 21.1734C95.6546 21.2386 95.6779 21.3012 95.7126 21.3575C95.928 21.7038 96.135 22.0619 96.3296 22.4209C96.3931 22.5383 96.5006 22.626 96.6282 22.6646C96.7559 22.7031 96.8934 22.6894 97.0105 22.6265C97.0524 22.6047 97.0909 22.5771 97.1249 22.5444Z" fill="#91B3FA"/>
<path d="M94.9415 19.3517C94.8903 19.393 94.8313 19.4238 94.7681 19.4423C94.7048 19.4608 94.6385 19.4666 94.5729 19.4593C94.5073 19.4521 94.4437 19.4319 94.3857 19.4001C94.3277 19.3682 94.2766 19.3253 94.2351 19.2737C93.7923 18.7252 93.3221 18.1993 92.8264 17.698C92.7221 17.5921 92.6166 17.4874 92.5093 17.3842C92.4618 17.3381 92.4238 17.2832 92.3975 17.2225C92.3712 17.1619 92.357 17.0967 92.3558 17.0306C92.3547 16.9646 92.3665 16.8991 92.3907 16.8378C92.4148 16.7765 92.4509 16.7206 92.4967 16.6733C92.5913 16.5817 92.7174 16.5297 92.8494 16.528C92.9814 16.5263 93.1093 16.5751 93.2071 16.6643C93.3193 16.7731 93.43 16.8825 93.539 16.9926C94.0586 17.5184 94.5516 18.07 95.0159 18.6452C95.094 18.7423 95.1336 18.8648 95.1269 18.989C95.1201 19.1132 95.0676 19.2302 94.9795 19.3175C94.9676 19.3289 94.9551 19.3409 94.9415 19.3517ZM90.5709 15.7151C89.8912 15.1996 89.1808 14.7261 88.4437 14.2972C88.3865 14.264 88.3364 14.2198 88.2962 14.1673C88.256 14.1148 88.2265 14.0549 88.2093 13.991C88.1747 13.8621 88.1926 13.725 88.2591 13.6098C88.3256 13.4946 88.4353 13.4108 88.5639 13.3768C88.6926 13.3428 88.8298 13.3614 88.9452 13.4285C89.718 13.878 90.4627 14.3745 91.175 14.9152C91.2815 14.9958 91.3518 15.1153 91.3705 15.2474C91.3892 15.3795 91.3548 15.5133 91.2747 15.6195C91.2601 15.6387 91.2443 15.657 91.2272 15.6741C91.1415 15.7597 91.0276 15.8113 90.9065 15.8193C90.7854 15.8272 90.6653 15.791 90.5684 15.7172L90.5709 15.7151ZM86.1578 13.1528C85.3719 12.8197 84.5664 12.5354 83.7459 12.3016C83.6176 12.2648 83.509 12.1787 83.4438 12.0621C83.3786 11.9455 83.3622 11.808 83.3983 11.6798C83.4343 11.5516 83.5199 11.4433 83.6361 11.3787C83.7523 11.314 83.8896 11.2983 84.0179 11.3351C84.8776 11.5807 85.7217 11.8791 86.5453 12.2285C86.6682 12.2807 86.7655 12.3795 86.816 12.5032C86.8664 12.6268 86.8658 12.7653 86.8143 12.888C86.7627 13.0107 86.6645 13.1076 86.5411 13.1575C86.4178 13.2074 86.2795 13.206 86.1566 13.1538L86.1578 13.1528ZM81.2543 11.7505C80.413 11.6188 79.5646 11.5392 78.7139 11.5123C78.648 11.5102 78.583 11.4952 78.5227 11.468C78.4624 11.4409 78.408 11.4021 78.3626 11.354C78.3172 11.3059 78.2816 11.2493 78.258 11.1876C78.2343 11.1258 78.223 11.06 78.2248 10.994C78.2265 10.928 78.2412 10.8631 78.268 10.8029C78.2948 10.7427 78.3333 10.6885 78.3812 10.6433C78.429 10.598 78.4854 10.5628 78.547 10.5394C78.6086 10.516 78.6742 10.5051 78.7402 10.5071C79.6323 10.536 80.5221 10.6195 81.4045 10.7571C81.4698 10.7673 81.5324 10.7903 81.5889 10.8246C81.6454 10.859 81.6946 10.9042 81.7338 10.9575C81.7729 11.0108 81.8012 11.0713 81.8171 11.1355C81.8329 11.1996 81.836 11.2662 81.8262 11.3315C81.8163 11.3967 81.7937 11.4593 81.7596 11.5156C81.7255 11.572 81.6807 11.621 81.6276 11.6599C81.5745 11.6988 81.5142 11.7269 81.4501 11.7424C81.3861 11.7579 81.3196 11.7607 81.2543 11.7505ZM76.1639 11.5868C75.3169 11.664 74.4756 11.7929 73.6448 11.9728C73.5803 11.9867 73.5137 11.9878 73.4487 11.976C73.3837 11.9642 73.3216 11.9397 73.266 11.9039C73.2103 11.8681 73.1622 11.8217 73.1244 11.7674C73.0865 11.7131 73.0597 11.6519 73.0455 11.5873C73.0312 11.5227 73.0298 11.4561 73.0413 11.3911C73.0528 11.3261 73.077 11.2641 73.1125 11.2086C73.148 11.1531 73.1941 11.1052 73.2482 11.0676C73.3023 11.03 73.3633 11.0035 73.4277 10.9895C74.2985 10.8017 75.18 10.6667 76.0675 10.5852C76.2002 10.5731 76.3325 10.6142 76.4354 10.6995C76.5382 10.7849 76.6032 10.9074 76.6159 11.0403C76.6287 11.1731 76.5883 11.3053 76.5035 11.4078C76.4187 11.5103 76.2966 11.5747 76.1639 11.5868ZM71.1944 12.6648C70.3934 12.9455 69.6107 13.2754 68.8508 13.6527C68.7918 13.6832 68.7272 13.7016 68.6609 13.7068C68.5946 13.712 68.5278 13.704 68.4645 13.6832C68.4011 13.6624 68.3425 13.6292 68.292 13.5856C68.2414 13.542 68.2 13.4888 68.1701 13.4291C68.1403 13.3695 68.1225 13.3045 68.1179 13.238C68.1133 13.1716 68.1219 13.1049 68.1433 13.0419C68.1646 12.979 68.1984 12.9209 68.2424 12.8712C68.2865 12.8215 68.34 12.7811 68.3999 12.7523C69.1965 12.3567 70.017 12.0107 70.8567 11.7163C70.9189 11.6945 70.9848 11.6852 71.0508 11.6889C71.1167 11.6927 71.1813 11.7094 71.2409 11.738C71.3005 11.7667 71.3539 11.8068 71.3981 11.8561C71.4423 11.9054 71.4765 11.9628 71.4985 12.0252C71.5206 12.0875 71.5303 12.1536 71.5269 12.2195C71.5235 12.2855 71.5071 12.35 71.4788 12.4095C71.4504 12.469 71.4106 12.5223 71.3616 12.5663C71.3126 12.6103 71.2553 12.6441 71.1931 12.6659L71.1944 12.6648ZM66.647 14.9265C65.9395 15.396 65.262 15.9091 64.6185 16.463C64.5177 16.5496 64.3864 16.5925 64.2536 16.5821C64.1207 16.5717 63.9971 16.509 63.91 16.4077C63.823 16.3064 63.7795 16.1748 63.7892 16.0419C63.7989 15.909 63.8609 15.7857 63.9617 15.699C64.6369 15.1186 65.3473 14.5804 66.0889 14.0876C66.1927 14.0195 66.3181 13.9925 66.4411 14.0118C66.564 14.031 66.6757 14.0952 66.7545 14.1919C66.8332 14.2885 66.8735 14.4108 66.8675 14.5351C66.8615 14.6593 66.8097 14.7767 66.722 14.8645C66.6985 14.8885 66.6725 14.9101 66.6446 14.9287L66.647 14.9265ZM60.5042 20.3449C60.4503 20.3068 60.4043 20.2584 60.369 20.2026C60.3336 20.1467 60.3096 20.0845 60.2983 20.0195C60.2869 19.9545 60.2885 19.888 60.3028 19.8237C60.3172 19.7594 60.3441 19.6987 60.382 19.6449C60.8276 19.0127 61.3068 18.4049 61.8174 17.8242C61.8948 17.7348 61.9725 17.6484 62.0516 17.5609C62.1412 17.4625 62.2663 17.4041 62.3995 17.3983C62.5326 17.3926 62.6629 17.44 62.7616 17.5301C62.8603 17.6203 62.9194 17.7458 62.9258 17.8791C62.9322 18.0124 62.8855 18.1425 62.7959 18.2408C62.722 18.3217 62.6486 18.4043 62.5745 18.4886C62.0869 19.0435 61.6292 19.6238 61.2031 20.2273C61.1862 20.2515 61.1671 20.2741 61.1459 20.2946C61.0624 20.3782 60.9519 20.4293 60.834 20.4389C60.7161 20.4485 60.5984 20.416 60.5017 20.3471L60.5042 20.3449Z" fill="#4AB7C3"/>
</g>
<g opacity="0.3">
<path d="M93.2219 47.8924C92.5914 48.4997 91.925 49.0685 91.2262 49.5958C91.12 49.6757 90.9862 49.7101 90.8542 49.6912C90.7223 49.6723 90.6029 49.6018 90.5225 49.4951C90.442 49.3885 90.4071 49.2544 90.4253 49.1225C90.4435 48.9905 90.5133 48.8714 90.6195 48.7915C91.2862 48.2887 91.9217 47.746 92.5227 47.1664C92.6181 47.0748 92.7459 47.0248 92.8784 47.0272C93.0109 47.0297 93.1373 47.0845 93.2301 47.1796C93.3229 47.2747 93.3745 47.4024 93.3738 47.535C93.3731 47.6676 93.3201 47.7942 93.2263 47.8874L93.2219 47.8924ZM94.2912 46.0291C94.2401 45.987 94.1978 45.9353 94.1666 45.8769C94.1354 45.8185 94.116 45.7546 94.1095 45.6889C94.103 45.6231 94.1095 45.5568 94.1286 45.4937C94.1477 45.4306 94.1791 45.3719 94.221 45.3211C94.748 44.6725 95.2358 43.9929 95.6818 43.286C95.7526 43.1734 95.8653 43.0939 95.9952 43.0648C96.1251 43.0357 96.2614 43.0595 96.3743 43.131C96.4871 43.2024 96.5672 43.3156 96.5969 43.4458C96.6266 43.5759 96.6035 43.7122 96.5327 43.8248C96.0656 44.5659 95.5543 45.278 95.0016 45.9574C94.9905 45.9716 94.9785 45.985 94.9655 45.9975C94.8776 46.0857 94.7598 46.1378 94.6351 46.1437C94.5104 46.1495 94.3878 46.1086 94.2912 46.0291ZM89.0395 51.0436C88.2806 51.4808 87.4955 51.8711 86.6887 52.2126C86.567 52.2605 86.4311 52.2589 86.3101 52.208C86.1891 52.1572 86.0925 52.0611 86.0409 51.9404C85.9893 51.8196 85.9869 51.6837 86.034 51.5616C86.0811 51.4395 86.1742 51.3409 86.2933 51.2869C87.0629 50.9609 87.8119 50.5887 88.5363 50.1723C88.6415 50.1145 88.7642 50.0966 88.882 50.1218C88.9997 50.147 89.1047 50.2136 89.1779 50.3094C89.2511 50.4053 89.2877 50.5242 89.2808 50.6443C89.274 50.7644 89.2244 50.8779 89.1408 50.9641C89.1092 50.9951 89.0738 51.0219 89.0354 51.0439L89.0395 51.0436ZM97.1283 41.7566C97.0083 41.6989 96.9156 41.5963 96.8705 41.4709C96.8254 41.3456 96.8315 41.2077 96.8875 41.0874C97.242 40.3308 97.5503 39.5533 97.8108 38.7591C97.8309 38.6959 97.8632 38.6373 97.9061 38.5868C97.949 38.5363 98.0014 38.4949 98.0605 38.4649C98.1196 38.4349 98.184 38.4169 98.2502 38.412C98.3163 38.4072 98.3829 38.4155 98.446 38.4364C98.509 38.4574 98.5674 38.4907 98.6176 38.5343C98.6679 38.578 98.7091 38.6311 98.7388 38.6906C98.7685 38.7502 98.7861 38.815 98.7907 38.8813C98.7952 38.9475 98.7866 39.014 98.7654 39.0768C98.4923 39.9105 98.1685 40.7265 97.7958 41.5201C97.7704 41.573 97.7363 41.6213 97.695 41.6629C97.6213 41.7362 97.5267 41.7848 97.424 41.802C97.3214 41.8192 97.2158 41.8042 97.1217 41.759L97.1283 41.7566ZM84.2153 53.0828C83.3721 53.3234 82.5149 53.5127 81.6484 53.65C81.5169 53.6707 81.3823 53.6383 81.2741 53.5598C81.166 53.4813 81.0932 53.3632 81.0718 53.2315C81.0504 53.0998 81.0822 52.9652 81.16 52.8574C81.2379 52.7496 81.3555 52.6774 81.4871 52.6566C82.3131 52.5264 83.1303 52.3459 83.9339 52.116C84.0411 52.0853 84.1557 52.0913 84.2595 52.133C84.3633 52.1748 84.4504 52.2499 84.5071 52.3464C84.5638 52.443 84.5867 52.5556 84.5724 52.6663C84.5581 52.7771 84.5073 52.8797 84.428 52.958C84.3673 53.0188 84.2917 53.0627 84.2087 53.0853L84.2153 53.0828ZM79.0333 53.9032C78.1562 53.9347 77.2778 53.9132 76.4029 53.839C76.2725 53.8246 76.1527 53.7599 76.0689 53.6586C75.9852 53.5574 75.9441 53.4275 75.9545 53.2969C75.965 53.1662 76.026 53.045 76.1247 52.9592C76.2234 52.8734 76.3519 52.8298 76.4827 52.8376C77.3175 52.9081 78.1555 52.9285 78.9921 52.8985C79.0933 52.8949 79.1933 52.922 79.2791 52.9763C79.3649 53.0305 79.4324 53.1093 79.4728 53.2024C79.5132 53.2955 79.5247 53.3985 79.5056 53.4979C79.4866 53.5973 79.4379 53.6884 79.3661 53.7594C79.2763 53.8503 79.1546 53.9027 79.0267 53.9056L79.0333 53.9032ZM73.797 53.4578C72.9367 53.2779 72.0879 53.0461 71.2552 52.7637C71.1926 52.7425 71.1347 52.7091 71.0849 52.6656C71.0351 52.622 70.9943 52.5691 70.9649 52.5099C70.9354 52.4507 70.9179 52.3863 70.9132 52.3204C70.9086 52.2546 70.917 52.1885 70.9379 52.126C70.9588 52.0634 70.9918 52.0057 71.0351 51.9561C71.0784 51.9065 71.131 51.8659 71.19 51.8367C71.2491 51.8075 71.3133 51.7903 71.3791 51.786C71.445 51.7817 71.511 51.7904 71.5736 51.8117C72.3676 52.0814 73.1771 52.3024 73.9975 52.4733C74.0622 52.4867 74.1237 52.5127 74.1784 52.5498C74.2331 52.587 74.2801 52.6345 74.3165 52.6897C74.3529 52.745 74.3781 52.8068 74.3907 52.8717C74.4033 52.9365 74.4029 53.0032 74.3897 53.0678C74.3703 53.165 74.3222 53.254 74.2515 53.3233C74.1925 53.383 74.1193 53.4269 74.0387 53.4508C73.9581 53.4747 73.8727 53.478 73.7904 53.4603L73.797 53.4578Z" fill="#91B3FA"/>
<path d="M99.291 36.7675C99.3623 36.6973 99.4106 36.607 99.4294 36.5085C99.5124 36.0868 99.5828 35.6606 99.6386 35.2428C99.6565 35.1107 99.6211 34.9766 99.5403 34.8701C99.4595 34.7636 99.3399 34.6934 99.2078 34.6749C99.0757 34.6563 98.9419 34.6911 98.8359 34.7714C98.7298 34.8517 98.6602 34.971 98.6424 35.1031C98.5883 35.5029 98.5216 35.9094 98.4428 36.3121C98.4217 36.4176 98.4352 36.5273 98.4813 36.625C98.5273 36.7226 98.6035 36.8029 98.6985 36.8541C98.7935 36.9053 98.9022 36.9246 99.0087 36.9092C99.1152 36.8938 99.2137 36.8445 99.2897 36.7686L99.291 36.7675Z" fill="#4AB7C3"/>
</g>
<path d="M94.056 28.7329C94.0505 28.6801 94.0288 28.6303 93.9939 28.5903C93.959 28.5502 93.9127 28.5219 93.8612 28.5092L90.85 27.7758C90.3784 26.3843 89.6835 25.078 88.7926 23.9084L89.8685 21.011C89.887 20.9614 89.8895 20.9073 89.8756 20.8561C89.8618 20.8049 89.8323 20.7592 89.7913 20.7255L86.921 18.353C86.8801 18.3193 86.8298 18.2992 86.7771 18.2953C86.7244 18.2915 86.6718 18.3041 86.6267 18.3314L83.9914 19.9405C82.6752 19.2865 81.2622 18.8514 79.8083 18.6523L78.5173 15.8302C78.4954 15.7819 78.4589 15.7415 78.4129 15.7149C78.367 15.6883 78.3139 15.6768 78.2612 15.6819L74.5654 16.0273C74.5127 16.0321 74.463 16.0533 74.4232 16.088C74.3834 16.1227 74.3555 16.1691 74.3435 16.2206L73.6257 19.2302C72.2372 19.6952 70.9351 20.3842 69.7706 21.2701L66.8704 20.1784C66.8208 20.1596 66.7667 20.1569 66.7156 20.1704C66.6645 20.184 66.619 20.2133 66.5855 20.2541L64.229 23.1146C64.1954 23.1552 64.1754 23.2055 64.1718 23.2583C64.1682 23.3111 64.1812 23.3638 64.2089 23.409L65.8296 26.0548C65.183 27.3686 64.7555 28.7801 64.5639 30.2339L61.7528 31.5083C61.7046 31.5299 61.6645 31.5662 61.6381 31.6121C61.6117 31.6579 61.6005 31.711 61.6059 31.7637L61.9696 35.4639C61.9746 35.5167 61.9961 35.5665 62.031 35.6066C62.0658 35.6466 62.1123 35.6747 62.1638 35.687L65.1756 36.4199C65.6476 37.8112 66.3425 39.1174 67.233 40.2873L66.1572 43.1847C66.139 43.2343 66.1367 43.2883 66.1505 43.3395C66.1643 43.3906 66.1936 43.4362 66.2343 43.4702L69.1052 45.8421C69.146 45.8761 69.1963 45.8965 69.2491 45.9004C69.3019 45.9042 69.3545 45.8914 69.3995 45.8637L72.0349 44.2546C73.3511 44.9083 74.7641 45.3434 76.218 45.5428L77.509 48.3649C77.5311 48.4131 77.5676 48.4533 77.6135 48.4799C77.6594 48.5065 77.7123 48.5181 77.765 48.5132L81.4609 48.1679C81.5136 48.1629 81.5634 48.1415 81.6033 48.1068C81.6432 48.072 81.6712 48.0256 81.6834 47.974L82.4006 44.9638C83.7888 44.4989 85.0907 43.81 86.2551 42.9244L89.1564 44.0162C89.2061 44.0348 89.2602 44.0375 89.3112 44.024C89.3623 44.0104 89.4078 43.9812 89.4414 43.9404L91.7973 41.0794C91.8308 41.0387 91.8507 40.9884 91.8543 40.9356C91.8579 40.8829 91.845 40.8302 91.8174 40.785L90.1961 38.1397C90.8429 36.8258 91.2706 35.414 91.4624 33.9601L94.2766 32.683C94.3246 32.661 94.3645 32.6246 94.3908 32.5789C94.4172 32.5331 94.4286 32.4802 94.4235 32.4275L94.056 28.7329Z" fill="#E7E7E7"/>
<path d="M80.269 35.1685C79.4808 35.745 78.4984 35.9921 77.5283 35.858C76.5583 35.7239 75.676 35.219 75.067 34.4493C74.458 33.6797 74.1697 32.7052 74.2627 31.7308C74.3556 30.7564 74.8226 29.8579 75.5655 29.2241C76.3083 28.5903 77.2692 28.2706 78.2462 28.3322C79.2232 28.3938 80.1403 28.8319 80.8045 29.5544C81.4688 30.2768 81.8287 31.2275 81.8084 32.2065C81.7882 33.1855 81.3895 34.1166 80.6961 34.8041C80.5627 34.9358 80.42 35.0576 80.269 35.1685ZM75.7625 33.75C76.2031 34.3489 76.8625 34.7493 77.5956 34.8633C78.3287 34.9773 79.0757 34.7955 79.6721 34.3579C80.2685 33.92 80.6655 33.2622 80.7757 32.5291C80.8859 31.7959 80.7004 31.0475 80.2599 30.4485C79.8194 29.8495 79.16 29.4489 78.4268 29.3349C77.6936 29.2209 76.9466 29.4029 76.3502 29.8407C76.2402 29.9232 76.1363 30.0137 76.0395 30.1114C75.5661 30.5825 75.278 31.2085 75.2271 31.876C75.1763 32.5435 75.3662 33.2083 75.7625 33.75Z" fill="white"/>
<path d="M84.5995 38.8543C84.8247 38.631 85.0403 38.3945 85.2462 38.1448C85.6555 37.6485 86.0131 37.1117 86.3134 36.5426L86.3549 36.4647C86.4032 36.371 86.4207 36.2642 86.4049 36.1596C86.3892 36.0551 86.3409 35.9579 86.2671 35.882C86.2297 35.8445 86.1867 35.813 86.1397 35.7886C86.0212 35.7274 85.8835 35.7156 85.7569 35.7557C85.6302 35.7959 85.5248 35.8847 85.4638 36.0027C85.1883 36.5366 84.8568 37.0394 84.4748 37.5027L84.4112 37.579C83.5126 38.652 82.358 39.4807 81.0533 39.9889C80.3437 40.2649 79.5997 40.4437 78.8414 40.5204L78.8225 40.5226L78.7653 40.5285C77.3809 40.658 75.9842 40.4436 74.6991 39.9043C73.4139 39.3651 72.2799 38.5177 71.3975 37.4371C70.5151 36.3565 69.9115 35.0762 69.6403 33.7095C69.3691 32.3428 69.4385 30.9319 69.8426 29.6019C70.2466 28.2719 70.9727 27.0638 71.9566 26.0846C72.9404 25.1055 74.1516 24.3854 75.4829 23.9884C76.8142 23.5913 78.2244 23.5294 79.5887 23.8082C80.953 24.087 82.2292 24.6979 83.3043 25.5868C83.526 25.7695 83.7381 25.9635 83.9398 26.1682C84.8137 27.0508 85.4832 28.1145 85.9005 29.2835C85.9253 29.3534 85.9653 29.4169 86.0176 29.4694C86.0982 29.5511 86.204 29.603 86.3176 29.6165C86.4313 29.6299 86.5459 29.6042 86.6426 29.5436C86.7393 29.4829 86.8123 29.3909 86.8494 29.2829C86.8865 29.1748 86.8856 29.0571 86.8468 28.9492C86.3792 27.6416 85.6301 26.4515 84.6529 25.4634C83.7494 24.5448 82.6694 23.819 81.4787 23.3302C80.2879 22.8414 79.0114 22.5998 77.7269 22.6202C76.4424 22.6406 75.1768 22.9226 74.0073 23.4489C72.8377 23.9752 71.7887 24.7348 70.9242 25.6815C70.0596 26.6281 69.3977 27.742 68.9786 28.9553C68.5595 30.1685 68.3921 31.4556 68.4866 32.7383C68.5811 34.0209 68.9354 35.2722 69.5281 36.4159C70.1208 37.5595 70.9394 38.5716 71.934 39.3904C73.7463 40.883 76.0431 41.654 78.3818 41.555C80.7205 41.456 82.9354 40.494 84.5995 38.8543Z" fill="white"/>
<g filter="url(#filter0_d_2138_1930)">
<path d="M142.851 37.1904H69.3896C63.2917 37.1904 58.3483 42.1425 58.3483 48.2513V121.842C58.3483 127.951 63.2917 132.903 69.3896 132.903H142.851C148.949 132.903 153.892 127.951 153.892 121.842V48.2513C153.892 42.1425 148.949 37.1904 142.851 37.1904Z" fill="white"/>
</g>
<g clip-path="url(#clip0_2138_1930)">
<path d="M124.395 61.457H117.579C119.64 62.3951 121.568 63.2862 122.613 63.7677H124.395C125.002 63.7681 125.584 64.0091 126.013 64.4377C126.442 64.8663 126.683 65.4474 126.683 66.0533V109.947C126.683 110.553 126.442 111.134 126.013 111.562C125.584 111.991 125.002 112.232 124.395 112.232H122.611C121.693 112.655 120.016 113.426 117.579 114.543H124.395C125.616 114.542 126.787 114.057 127.65 113.195C128.513 112.334 128.999 111.165 129 109.947V66.0533C128.999 64.8347 128.513 63.6663 127.65 62.8046C126.787 61.9429 125.616 61.4583 124.395 61.457Z" fill="#235564"/>
<path d="M95.8728 80.6943V66.0533C95.8728 65.4472 96.1141 64.8658 96.5435 64.4371C96.973 64.0085 97.5554 63.7677 98.1628 63.7677H106.563V62.37C106.563 62.0871 106.563 61.7775 106.582 61.457H98.1628C96.9417 61.4583 95.771 61.9429 94.9074 62.8045C94.0438 63.6662 93.5579 64.8346 93.5563 66.0533V80.6943H95.8728Z" fill="#235564"/>
<path d="M106.563 112.232H98.1628C97.5554 112.232 96.973 111.991 96.5435 111.563C96.1141 111.134 95.8728 110.553 95.8728 109.947V95.3057H93.5563V109.947C93.5575 111.166 94.0433 112.334 94.907 113.196C95.7706 114.058 96.9416 114.542 98.1628 114.543H106.578C106.56 114.23 106.56 113.918 106.56 113.63L106.563 112.232Z" fill="#235564"/>
<path d="M106.563 66.1644H100.157C99.6497 66.1648 99.1636 66.3661 98.8053 66.7241C98.447 67.082 98.2457 67.5673 98.2457 68.0733V107.927C98.2457 108.433 98.447 108.918 98.8053 109.276C99.1636 109.634 99.6497 109.835 100.157 109.836H106.563V66.1644Z" fill="#235564"/>
<path d="M124.434 69.1176C124.508 68.0561 123.469 66.4036 122.523 65.9314C122.21 65.7751 109.598 60 109.598 60C108.543 60 108.577 61.407 108.577 62.467V113.533C108.577 114.598 108.543 116 109.598 116C109.598 116 122.326 110.17 122.523 110.069C123.889 109.365 124.362 108.305 124.434 107.242C124.456 106.815 124.398 69.5522 124.434 69.1176ZM111.277 90.6468C110.392 90.6468 109.673 89.4618 109.673 88C109.673 86.5382 110.392 85.3532 111.277 85.3532C112.162 85.3532 112.883 86.5382 112.883 88C112.883 89.4618 112.164 90.6468 111.277 90.6468Z" fill="#235564"/>
<path fill-rule="evenodd" clip-rule="evenodd" d="M71 88.0094L83.3816 100.166V93.303H96.2456V82.6971H83.3816V75.8339L71 88.0094Z" fill="#4AB7C3"/>
</g>
<path d="M153.889 48.2513H58.3483C58.3481 46.7987 58.6336 45.3603 59.1885 44.0183C59.7433 42.6763 60.5566 41.4569 61.5819 40.4298C62.6072 39.4027 63.8245 38.5879 65.1641 38.0321C66.5038 37.4763 67.9396 37.1903 69.3896 37.1904H142.851C145.779 37.191 148.587 38.3566 150.657 40.4309C152.727 42.5051 153.89 45.3182 153.889 48.2513Z" fill="#4AB7C3"/>
<path d="M72.5081 43.0051C72.6623 42.0588 72.0215 41.1664 71.0769 41.012C70.1322 40.8575 69.2415 41.4994 69.0873 42.4457C68.9331 43.392 69.5739 44.2844 70.5185 44.4388C71.4632 44.5933 72.354 43.9514 72.5081 43.0051Z" fill="white"/>
<path d="M79.6566 43.0051C79.8108 42.0588 79.17 41.1664 78.2253 41.012C77.2807 40.8575 76.3899 41.4994 76.2357 42.4457C76.0815 43.392 76.7223 44.2844 77.667 44.4388C78.6116 44.5933 79.5024 43.9514 79.6566 43.0051Z" fill="white"/>
<path d="M86.3151 43.9483C86.9919 43.2703 86.9919 42.1711 86.3151 41.4931C85.6383 40.8151 84.5409 40.8151 83.8641 41.4931C83.1873 42.1711 83.1873 43.2703 83.8641 43.9483C84.5409 44.6263 85.6383 44.6263 86.3151 43.9483Z" fill="white"/>
<defs>
<filter id="filter0_d_2138_1930" x="38.3483" y="17.1904" width="135.544" height="135.713" filterUnits="userSpaceOnUse" color-interpolation-filters="sRGB">
<feFlood flood-opacity="0" result="BackgroundImageFix"/>
<feColorMatrix in="SourceAlpha" type="matrix" values="0 0 0 0 0 0 0 0 0 0 0 0 0 0 0 0 0 0 127 0" result="hardAlpha"/>
<feOffset/>
<feGaussianBlur stdDeviation="10"/>
<feComposite in2="hardAlpha" operator="out"/>
<feColorMatrix type="matrix" values="0 0 0 0 0 0 0 0 0 0 0 0 0 0 0 0 0 0 0.1 0"/>
<feBlend mode="normal" in2="BackgroundImageFix" result="effect1_dropShadow_2138_1930"/>
<feBlend mode="normal" in="SourceGraphic" in2="effect1_dropShadow_2138_1930" result="shape"/>
</filter>
<clipPath id="clip0_2138_1930">
<rect width="58" height="56" fill="white" transform="translate(71 60)"/>
</clipPath>
</defs>
</svg>
