<svg width="27" height="28" viewBox="0 0 27 28" fill="none" xmlns="http://www.w3.org/2000/svg">
<path d="M21.5523 19.5285C21.5523 20.1528 21.5981 20.7277 21.5444 21.2894C21.3894 22.9218 19.9754 24.2187 18.3352 24.268C17.895 24.2812 17.4591 24.268 16.9679 24.268C17.0806 24.7293 17.1827 25.1484 17.2866 25.5719C17.3905 25.9954 17.5014 26.4004 17.593 26.8186C17.681 27.2166 17.5049 27.4349 17.1008 27.4349C13.454 27.4349 9.8075 27.4349 6.16129 27.4349C5.8276 27.4349 5.65679 27.2817 5.65767 26.9612C5.66824 24.3675 4.93043 21.9586 3.84836 19.6395C3.54288 18.9593 3.19471 18.2991 2.80592 17.6629C-1.06099 11.55 2.08043 3.57578 9.08172 1.75502C14.9974 0.220408 21.098 4.23171 22.0014 10.2795C22.1774 11.4602 22.2206 12.662 22.3386 13.8523C22.3611 14.0687 22.4206 14.2795 22.5147 14.4757C22.8888 15.2575 23.2551 16.0455 23.676 16.8018C24.4173 18.1348 23.4374 19.6412 21.9899 19.5224C21.8702 19.5197 21.7513 19.5285 21.5523 19.5285ZM16.5998 26.5474C16.3868 25.6855 16.186 24.8746 15.9835 24.0716C15.8673 23.598 16.0293 23.3902 16.525 23.3831C17.1175 23.3752 17.7127 23.4034 18.3035 23.3655C19.6972 23.2775 20.6684 22.2262 20.6807 20.8281C20.6851 20.2787 20.6807 19.7293 20.6807 19.1799C20.6807 18.7943 20.833 18.6455 21.2204 18.6367C21.4951 18.6296 21.7698 18.6367 22.0436 18.6367C22.8703 18.6146 23.2428 18.0001 22.8783 17.2614C22.5138 16.5227 22.1739 15.7955 21.7848 15.0858C21.5312 14.6271 21.4405 14.149 21.4009 13.6419C21.3181 12.5686 21.2847 11.4866 21.1174 10.4265C20.2748 5.1104 15.2272 1.54812 9.93575 2.50252C3.38261 3.68144 -0.0405601 11.0877 3.35531 16.8106C4.08588 18.0601 4.72527 19.3606 5.26852 20.7022C5.99312 22.4516 6.44127 24.2645 6.51082 26.1609C6.52227 26.4761 6.61383 26.5607 6.92727 26.5598C10.0247 26.5474 13.1212 26.5527 16.2186 26.5527L16.5998 26.5474Z" fill="#A9A9A9"/>
<path d="M24.5107 24.7408C24.0952 24.7371 23.698 24.5695 23.4054 24.2746C23.1127 23.9797 22.9483 23.5811 22.9479 23.1657C22.9523 22.7498 23.12 22.3523 23.4148 22.0589C23.7096 21.7656 24.108 21.5999 24.5239 21.5976C24.7325 21.5976 24.9391 21.6391 25.1315 21.7198C25.324 21.8005 25.4984 21.9187 25.6446 22.0676C25.7908 22.2164 25.9059 22.3929 25.9832 22.5867C26.0605 22.7806 26.0983 22.9878 26.0946 23.1965C26.0933 23.4023 26.0512 23.6058 25.9707 23.7952C25.8902 23.9846 25.7728 24.1561 25.6255 24.2997C25.4781 24.4434 25.3037 24.5564 25.1123 24.6321C24.9209 24.7078 24.7164 24.7447 24.5107 24.7408ZM25.193 23.1815C25.1954 23.0036 25.1274 22.832 25.004 22.7039C24.8805 22.5758 24.7114 22.5016 24.5336 22.4974C24.3559 22.4991 24.1858 22.5694 24.0588 22.6937C23.9318 22.8179 23.8578 22.9863 23.8521 23.1639C23.8507 23.3419 23.9196 23.5134 24.044 23.6408C24.1683 23.7683 24.3379 23.8415 24.5159 23.8445C24.604 23.8458 24.6915 23.8296 24.7733 23.7969C24.8551 23.7642 24.9296 23.7157 24.9926 23.654C25.0555 23.5924 25.1056 23.5189 25.14 23.4378C25.1744 23.3567 25.1924 23.2696 25.193 23.1815Z" fill="#A9A9A9"/>
<path d="M1.58483 3.58371C1.16928 3.58654 0.769461 3.42494 0.472578 3.13416C0.175695 2.84338 0.00583077 2.44701 2.99618e-05 2.03148C-0.00125589 1.82301 0.0388585 1.61635 0.118047 1.42349C0.197235 1.23063 0.31392 1.05541 0.461339 0.907994C0.608758 0.760575 0.783977 0.643893 0.976834 0.564705C1.16969 0.485516 1.37635 0.445399 1.58483 0.446685C1.79066 0.4468 1.99444 0.487529 2.18451 0.566537C2.37457 0.645545 2.54718 0.761277 2.69243 0.907107C2.83769 1.05294 2.95275 1.226 3.03101 1.41637C3.10926 1.60674 3.14919 1.81069 3.1485 2.01652C3.14943 2.22229 3.10964 2.42621 3.03143 2.61654C2.95322 2.80687 2.83814 2.97985 2.6928 3.12552C2.54746 3.27118 2.37474 3.38666 2.18459 3.4653C1.99443 3.54393 1.7906 3.58417 1.58483 3.58371ZM2.24428 2.02004C2.24547 1.84238 2.1765 1.67142 2.05236 1.54432C1.92822 1.41721 1.75895 1.34423 1.58131 1.34122C1.40362 1.34373 1.23394 1.41556 1.10845 1.54138C0.982957 1.6672 0.911576 1.83706 0.909527 2.01476C0.909724 2.19237 0.979531 2.36284 1.10397 2.48958C1.2284 2.61632 1.39756 2.68924 1.57514 2.6927C1.75293 2.69177 1.92312 2.62049 2.04851 2.49444C2.1739 2.3684 2.24428 2.19783 2.24428 2.02004Z" fill="#A9A9A9"/>
<path d="M24.7589 6.07716C24.7589 6.28583 24.7677 6.49449 24.7589 6.70316C24.7413 7.00955 24.5494 7.21117 24.2914 7.18828C24.0062 7.16275 23.8618 6.98578 23.8591 6.70316C23.8538 6.27526 23.8494 5.84649 23.8591 5.41771C23.8662 5.12981 24.0511 4.94491 24.3064 4.95108C24.5837 4.95812 24.7167 5.12716 24.7572 5.38425C24.7589 5.40623 24.7589 5.42831 24.7572 5.45029L24.7589 6.07716Z" fill="#A9A9A9"/>
<path d="M25.8445 4.94498C25.6358 4.94498 25.4263 4.95466 25.2185 4.94498C24.9288 4.92825 24.7536 4.74776 24.7615 4.48803C24.7585 4.42942 24.7678 4.37082 24.7889 4.31604C24.8099 4.26125 24.8422 4.21149 24.8837 4.16999C24.9252 4.12849 24.975 4.09617 25.0298 4.07512C25.0846 4.05407 25.1432 4.04477 25.2018 4.04781C25.6517 4.02932 26.1025 4.03196 26.5524 4.04781C26.8165 4.05749 26.9785 4.2239 26.9988 4.48803C27.0172 4.73279 26.8165 4.92297 26.5374 4.94938C26.5163 4.94938 26.4943 4.94938 26.4723 4.94938H25.8463L25.8445 4.94498Z" fill="#A9A9A9"/>
<path d="M23.852 2.89438C23.852 2.67427 23.8406 2.45416 23.852 2.23493C23.8696 1.9708 24.0281 1.80351 24.2923 1.79471C24.348 1.78971 24.4041 1.79634 24.4572 1.81418C24.5102 1.83201 24.559 1.86067 24.6004 1.89832C24.6417 1.93598 24.6748 1.98183 24.6976 2.03295C24.7203 2.08407 24.7322 2.13935 24.7325 2.19531C24.7563 2.66634 24.7589 3.14002 24.7325 3.61106C24.7342 3.66983 24.7232 3.72827 24.7002 3.78238C24.6772 3.83649 24.6428 3.88498 24.5993 3.92454C24.5558 3.9641 24.5043 3.99379 24.4482 4.01156C24.3922 4.02933 24.333 4.03477 24.2746 4.02751C23.9991 4.01695 23.8582 3.85142 23.8432 3.58729C23.8415 3.35661 23.8512 3.1277 23.852 2.89438Z" fill="#A9A9A9"/>
<path d="M22.6987 4.94574C22.5006 4.94574 22.3025 4.9519 22.1053 4.94574C21.7945 4.93341 21.5991 4.75644 21.6087 4.49231C21.6202 4.19736 21.8042 4.05209 22.078 4.04416C22.5059 4.02919 22.9347 4.03008 23.3626 4.04416C23.6655 4.05297 23.868 4.25635 23.8442 4.51432C23.8178 4.80135 23.6364 4.93869 23.3573 4.94662C23.1381 4.95014 22.918 4.94574 22.6987 4.94574Z" fill="#A9A9A9"/>
<path d="M5.85058 0.468728C5.84333 0.585245 5.7901 0.694114 5.70259 0.771386C5.61508 0.848658 5.50046 0.888005 5.38394 0.880775C5.26763 0.876654 5.1575 0.827356 5.07695 0.743351C4.9964 0.659346 4.95176 0.547252 4.95252 0.43087C4.95553 0.370507 4.97057 0.311357 4.99677 0.256893C5.02297 0.202428 5.05979 0.153748 5.10507 0.113719C5.15035 0.0736887 5.20317 0.043114 5.26044 0.0237933C5.3177 0.00447267 5.37825 -0.00320431 5.43853 0.00121261C5.55461 0.010021 5.66266 0.0638315 5.73964 0.151169C5.81661 0.238506 5.85642 0.352458 5.85058 0.468728Z" fill="#A9A9A9"/>
<path d="M26.1034 9.44397C26.2184 9.44952 26.3271 9.49769 26.4085 9.57907C26.4899 9.66046 26.5381 9.76923 26.5436 9.88419C26.5444 10.0051 26.4975 10.1215 26.4131 10.2081C26.3288 10.2948 26.2137 10.3448 26.0928 10.3473C25.9769 10.3432 25.8667 10.2957 25.7842 10.2141C25.7016 10.1326 25.6528 10.023 25.6473 9.90708C25.6473 9.78547 25.6951 9.66873 25.7805 9.58208C25.8658 9.49543 25.9818 9.44582 26.1034 9.44397Z" fill="#A9A9A9"/>
<path d="M1.7936 20.711C1.79084 20.8275 1.74256 20.9382 1.65912 21.0195C1.57568 21.1008 1.46371 21.1462 1.34721 21.1459C1.23019 21.1434 1.11874 21.0954 1.03655 21.012C0.954356 20.9287 0.907882 20.8166 0.906993 20.6995C0.906578 20.6392 0.918446 20.5793 0.941877 20.5236C0.965308 20.468 0.999811 20.4177 1.04329 20.3757C1.08677 20.3338 1.13832 20.3012 1.19481 20.2798C1.25129 20.2584 1.31153 20.2488 1.37187 20.2514C1.42977 20.2538 1.48664 20.2676 1.5392 20.292C1.59177 20.3164 1.63899 20.3509 1.67818 20.3936C1.71736 20.4363 1.74773 20.4863 1.76753 20.5408C1.78734 20.5953 1.7962 20.6531 1.7936 20.711Z" fill="#A9A9A9"/>
<path d="M22.0648 26.5475C21.9482 26.5522 21.8344 26.5105 21.7486 26.4314C21.6627 26.3523 21.6118 26.2423 21.607 26.1257C21.6034 26.0654 21.6122 26.0049 21.633 25.9481C21.6537 25.8913 21.686 25.8394 21.7277 25.7956C21.7694 25.7518 21.8197 25.7171 21.8755 25.6936C21.9312 25.6701 21.9911 25.6584 22.0516 25.6591C22.1684 25.6591 22.2803 25.7055 22.3629 25.788C22.4455 25.8706 22.4918 25.9826 22.4918 26.0993C22.494 26.2152 22.4503 26.3272 22.3704 26.4111C22.2905 26.495 22.1807 26.544 22.0648 26.5475Z" fill="#A9A9A9"/>
<path d="M19.6101 11.9797C19.6056 13.0284 19.3944 14.066 18.9886 15.033C18.5827 16.0001 17.9902 16.8776 17.2449 17.6154C16.4996 18.3533 15.6162 18.937 14.6451 19.3331C13.6741 19.7292 12.6345 19.93 11.5857 19.924C7.19936 19.9037 3.65645 16.3141 3.67758 11.9058C3.69871 7.53435 7.29797 3.96415 11.6606 3.98175C16.0575 4.00817 19.6347 7.60654 19.6101 11.9797ZM11.6491 19.0277C12.579 19.0251 13.4993 18.8394 14.3573 18.481C15.2154 18.1226 15.9944 17.5986 16.6498 16.939C17.3053 16.2794 17.8243 15.4971 18.1772 14.6367C18.5302 13.7764 18.7101 12.855 18.7068 11.9251C18.6927 8.03972 15.5063 4.88157 11.6148 4.88773C9.74266 4.89798 7.9509 5.64971 6.63188 6.97829C5.31287 8.30688 4.57411 10.104 4.5774 11.9762C4.59677 15.8783 7.76637 19.0382 11.6491 19.0277Z" fill="#A9A9A9"/>
<path d="M8.9877 11.0596C9.22454 9.72483 9.9333 8.66302 10.8736 7.73591C11.2821 7.33355 11.4406 7.32826 11.8694 7.7271C12.8713 8.65773 13.6364 9.73363 13.8645 11.0358C14.7018 11.0701 15.5109 11.064 16.3104 11.1476C17.145 11.2357 17.2278 11.3466 17.0596 12.1575C16.9297 12.8337 16.7335 13.4954 16.4741 14.1332C15.8816 15.5322 14.7828 16.3387 13.294 16.609C12.0103 16.8415 10.7292 16.749 9.47283 16.4629C8.27894 16.1899 7.4434 15.4187 6.8896 14.3366C6.48716 13.5417 6.24088 12.6771 6.16412 11.7895C6.13066 11.4373 6.23808 11.2533 6.5929 11.2137C7.28669 11.1362 7.98664 11.1062 8.68395 11.0587C8.77992 11.0517 8.87677 11.0596 8.9877 11.0596ZM11.1492 15.7638C13.7447 16.3194 16.2065 14.4713 16.1378 12.0404C13.2191 11.5544 11.6238 12.8073 11.1492 15.7638ZM10.2115 15.6942C10.2344 15.5956 10.2485 15.5102 10.2749 15.4301C10.4933 14.7671 10.6799 14.0909 10.9476 13.4482C11.0647 13.1674 11.0356 13.0212 10.8305 12.8372C9.74752 11.852 8.45327 11.8634 7.1238 12.0157C7.19072 13.9201 8.48849 15.4724 10.2115 15.6942ZM9.88928 11.1688L11.6554 12.272C12.0296 12.0263 12.4522 11.7595 12.859 11.4699C12.8974 11.431 12.9265 11.384 12.9442 11.3323C12.9619 11.2806 12.9677 11.2256 12.9611 11.1714C12.7648 10.0902 12.1423 9.26348 11.3763 8.49661C10.6394 9.30398 10.0478 10.1448 9.88928 11.1688Z" fill="#A9A9A9"/>
</svg>
