<svg width="29" height="30" viewBox="0 0 29 30" fill="none" xmlns="http://www.w3.org/2000/svg">
    <path
        d="M29 10.4743C28.8468 10.9381 28.6454 11.3657 28.1973 11.6259C27.63 11.9564 27.0528 11.984 26.4763 11.6628C25.887 11.3338 25.6111 10.8076 25.6055 10.1467C25.5955 9.04262 25.6055 7.93853 25.6055 6.83444V5.91259L20.7537 10.7672C22.7392 13.5845 23.4249 16.7393 22.6244 20.1629C21.9571 23.0157 20.3765 25.2934 17.9669 26.9563C13.464 30.0629 7.3933 29.6466 3.37121 25.6047C-0.684212 21.5351 -1.02104 15.4792 2.03878 11.031C2.90649 9.7665 4.01933 8.6892 5.31128 7.86297C6.60324 7.03675 8.04798 6.47844 9.5598 6.22117C11.0716 5.96389 12.6197 6.01289 14.1122 6.36527C15.6048 6.71765 17.0113 7.36623 18.2484 8.27252L23.1314 3.39382H22.8442C21.5132 3.39382 20.1829 3.40445 18.8526 3.39382C17.6216 3.38105 16.8259 2.27129 17.2216 1.13387C17.3004 0.895485 17.4337 0.678724 17.6108 0.500751C17.7879 0.322778 18.004 0.188475 18.242 0.108488C18.3378 0.0730321 18.4328 0.037583 18.5257 0H27.1882C27.5158 0.151041 27.8661 0.265917 28.1654 0.460214C28.6447 0.771515 28.8539 1.27924 29 1.81178V10.4743ZM22.8612 0.848807C21.5401 0.848807 20.219 0.848807 18.898 0.848807C18.5626 0.848807 18.2846 0.955878 18.0995 1.24236C18.0121 1.36711 17.9626 1.51445 17.9569 1.66667C17.9513 1.81888 17.9897 1.9695 18.0676 2.10039C18.2385 2.41028 18.5122 2.54855 18.8611 2.54855H23.9001C24.0225 2.54238 24.1452 2.54475 24.2674 2.55564C24.3431 2.5623 24.4156 2.58967 24.4769 2.63473C24.5381 2.6798 24.5858 2.74083 24.6147 2.81117C24.6436 2.88151 24.6526 2.95844 24.6408 3.03356C24.6289 3.10867 24.5966 3.17909 24.5475 3.2371C24.4817 3.31721 24.4107 3.39279 24.3347 3.46331L19.2908 8.50724C19.0908 8.70792 18.8937 8.91072 18.6895 9.10714C18.4505 9.3369 18.2895 9.34753 18.0123 9.15962C17.9414 9.11211 17.8754 9.05963 17.8066 9.00928C15.4661 7.29607 12.8584 6.63423 9.98369 7.02377C7.63369 7.34641 5.60279 8.36115 3.95623 10.0545C1.53248 12.5463 0.52979 15.5501 0.982205 19.0064C1.28996 21.3585 2.32952 23.3731 4.00232 25.0395C5.37635 26.4077 7.09938 27.3728 8.98386 27.8297C10.8683 28.2865 12.842 28.2177 14.6901 27.6306C16.8926 26.9215 18.6923 25.6302 20.0503 23.7511C21.7876 21.3472 22.3974 18.6632 21.9379 15.7423C21.6713 14.0454 20.9898 12.5151 19.9524 11.1416C19.5979 10.6686 19.6092 10.5892 20.034 10.1644L25.5381 4.66029C25.6084 4.58418 25.684 4.5131 25.7643 4.44756C25.8212 4.40104 25.8894 4.37041 25.962 4.35879C26.0346 4.34717 26.1089 4.35499 26.1775 4.38143C26.2461 4.40786 26.3064 4.45199 26.3524 4.50931C26.3984 4.56664 26.4284 4.63513 26.4394 4.70781C26.4513 4.80186 26.4546 4.8968 26.4493 4.99145C26.4493 6.69002 26.4493 8.38834 26.4493 10.0864C26.4493 10.4942 26.5982 10.8076 26.9797 10.9714C27.5648 11.2224 28.1476 10.7856 28.1484 10.0964C28.1512 7.49155 28.1512 4.88721 28.1484 2.28334C28.1484 1.3615 27.635 0.850226 26.7096 0.849517C25.427 0.848099 24.1442 0.847862 22.8612 0.848807Z"
        fill="#A9A9A9" />
    <path
        d="M20.3927 17.5321C20.3828 21.7435 17.3641 25.4401 13.2662 26.2606C9.09728 27.0952 4.86174 24.8983 3.26765 20.9777C1.96501 17.7654 2.42168 14.7375 4.50718 11.9627C4.69793 11.7095 4.93265 11.6606 5.14184 11.8117C5.35103 11.9627 5.37939 12.2144 5.17233 12.4811C4.50364 13.3398 3.99662 14.2822 3.71652 15.3331C3.05421 17.815 3.4428 20.1239 4.93265 22.2172C6.17998 23.9701 7.88682 25.0536 10.0028 25.4458C11.9428 25.806 13.9475 25.4429 15.6379 24.4252C17.3284 23.4074 18.5873 21.8056 19.1766 19.9225C20.453 15.8543 18.2782 11.4131 14.2625 9.97008C11.5224 8.98654 8.959 9.40279 6.59978 11.1004C6.52887 11.15 6.46575 11.2046 6.39484 11.2522C6.14807 11.4174 5.91761 11.394 5.76728 11.2004C5.61694 11.0068 5.64673 10.7529 5.88357 10.5835C6.31329 10.2778 6.73451 9.95306 7.2004 9.70771C9.68726 8.3923 12.2635 8.22495 14.8666 9.29288C17.2024 10.2516 18.8455 11.9457 19.7709 14.3021C20.1866 15.3279 20.3978 16.4252 20.3927 17.5321Z"
        fill="#A9A9A9" />
</svg>