<svg width="13" height="13" viewBox="0 0 13 13" fill="none" xmlns="http://www.w3.org/2000/svg">
<path d="M6.5 13C2.91442 13 0 10.0856 0 6.5C0 2.91442 2.91442 0 6.5 0C10.0856 0 13 2.91442 13 6.5C13 10.0856 10.0856 13 6.5 13ZM6.5 0.906977C3.41628 0.906977 0.906977 3.41628 0.906977 6.5C0.906977 9.58372 3.41628 12.093 6.5 12.093C9.58372 12.093 12.093 9.58372 12.093 6.5C12.093 3.41628 9.58372 0.906977 6.5 0.906977Z" fill="#A9A9A9"/>
<path d="M7.44773 6.5L8.86918 5.07855C9.04361 4.90412 9.04361 4.62131 8.86918 4.44673L8.55327 4.13082C8.37884 3.95639 8.09602 3.95639 7.92145 4.13082L6.5 5.55227L5.07855 4.13082C4.90412 3.95639 4.62131 3.95639 4.44673 4.13082L4.13082 4.44673C3.95639 4.62116 3.95639 4.90398 4.13082 5.07855L5.55227 6.5L4.13082 7.92145C3.95639 8.09588 3.95639 8.37869 4.13082 8.55327L4.44673 8.86918C4.62116 9.04361 4.90412 9.04361 5.07855 8.86918L6.5 7.44773L7.92145 8.86918C8.09588 9.04361 8.37884 9.04361 8.55327 8.86918L8.86918 8.55327C9.04361 8.37884 9.04361 8.09602 8.86918 7.92145L7.44773 6.5Z" fill="#A9A9A9"/>
</svg>
