<svg width="16" height="20" viewBox="0 0 16 20" fill="none" xmlns="http://www.w3.org/2000/svg">
<path d="M8.02159 1.84648C5.13299 1.84648 2.78548 4.19399 2.78548 7.08257V9.60461C2.78548 10.1369 2.55858 10.9485 2.28805 11.4023L1.28447 13.0692C0.664862 14.0989 1.09248 15.2421 2.22696 15.6261C5.98822 16.8828 10.0462 16.8828 13.8075 15.6261C14.8634 15.277 15.3259 14.0291 14.75 13.0692L13.7464 11.4023C13.4846 10.9485 13.2577 10.1369 13.2577 9.60461V7.08257C13.2577 4.20272 10.9014 1.84648 8.02159 1.84648Z" stroke="#292D32" stroke-width="1.5" stroke-miterlimit="10" stroke-linecap="round"/>
<path d="M9.63615 2.09958C9.36562 2.02104 9.08636 1.95995 8.79837 1.92504C7.9606 1.82032 7.15773 1.88141 6.40723 2.09958C6.6603 1.45379 7.28863 1 8.02169 1C8.75474 1 9.38307 1.45379 9.63615 2.09958Z" stroke="#292D32" stroke-width="1.5" stroke-miterlimit="10" stroke-linecap="round" stroke-linejoin="round"/>
<path d="M10.6396 15.9404C10.6396 17.3804 9.46152 18.5585 8.02159 18.5585C7.30599 18.5585 6.64275 18.2618 6.17152 17.7905C5.70028 17.3193 5.40356 16.656 5.40356 15.9404" stroke="#292D32" stroke-width="1.5" stroke-miterlimit="10"/>
</svg>
