<svg width="28" height="29" viewBox="0 0 28 29" fill="none" xmlns="http://www.w3.org/2000/svg">
<path d="M28 20.5186C27.8927 21.0707 27.8196 21.633 27.6707 22.1734C26.7476 25.5187 23.7659 27.96 20.3023 28.2346C18.4729 28.3942 16.6423 27.9427 15.097 26.9508C14.9553 26.8617 14.8552 26.8529 14.7063 26.9376C8.82763 30.2808 1.59143 27.0216 0.196629 20.3996C-0.149517 18.7397 -0.00346316 17.0849 0.361669 15.4447C0.945881 12.8516 2.06027 10.4789 3.40687 8.2049C5.00173 5.52646 6.87424 3.02342 8.9934 0.737211C9.16501 0.550994 9.41549 0.439264 9.62946 0.29248H9.95735C10.2049 0.468474 10.4941 0.606495 10.6927 0.827035C13.4728 3.91386 15.8915 7.25336 17.6821 11.0164C17.7785 11.2202 17.8398 11.4991 18.0041 11.5933C18.156 11.681 18.4233 11.5692 18.6395 11.5437C23.1196 11.0113 27.2442 14.1624 27.9 18.6177C27.9292 18.8149 27.9671 19.0106 28 19.2071V20.5186ZM9.80545 1.21554C9.64041 1.39518 9.49728 1.54635 9.35926 1.70116C7.64891 3.60631 6.10049 5.65084 4.73011 7.81348C3.40322 9.92394 2.26474 12.122 1.56076 14.5319C1.02913 16.3488 0.749441 18.1891 1.08901 20.0819C2.13183 25.9014 8.65456 29.097 13.8825 26.3439C13.9504 26.3082 14.0132 26.2643 14.0812 26.2227C11.7443 24.0027 10.7395 21.3299 11.3923 18.1745C12.0452 15.019 14.0322 12.9684 17.0475 11.8562C15.2313 7.90841 12.7199 4.45426 9.80545 1.21554ZM19.5998 12.4193C18.6205 12.4176 17.6506 12.6091 16.7455 12.9827C15.8403 13.3563 15.0177 13.9047 14.3247 14.5965C13.6317 15.2884 13.0819 16.1101 12.7068 17.0146C12.3317 17.9191 12.1386 18.8887 12.1387 19.868C12.1359 21.8455 12.918 23.7434 14.3131 25.145C15.7082 26.5465 17.6025 27.3373 19.58 27.3437C23.6929 27.3532 27.066 23.9845 27.0638 19.8723C27.0613 17.8945 26.2737 15.9986 24.8742 14.6011C23.4746 13.2036 21.5776 12.4189 19.5998 12.4193Z" fill="#A9A9A9"/>
<path d="M9.37237 26.4067C5.8985 26.0248 3.48789 24.2641 2.27346 20.9546C1.99888 20.206 1.89227 19.421 1.87255 18.6228C1.86306 18.2424 2.04343 18.0109 2.33846 18.0109C2.63349 18.0109 2.79195 18.2234 2.80364 18.5951C2.89857 21.7754 4.94989 24.4014 8.02138 25.2281C8.56981 25.3741 9.1511 25.4048 9.71925 25.4698C10.0698 25.51 10.2757 25.6706 10.2684 25.9481C10.2611 26.2402 10.0347 26.4104 9.67251 26.4053C9.57246 26.4053 9.47242 26.4067 9.37237 26.4067Z" fill="#A9A9A9"/>
<path d="M19.5968 13.3343C21.2356 13.3403 22.8125 13.9608 24.0159 15.0732C25.2193 16.1856 25.9616 17.7089 26.0962 19.3422C26.11 19.505 26.1276 19.6693 26.1254 19.8322C26.121 20.1309 25.9275 20.339 25.666 20.3434C25.4046 20.3478 25.2067 20.1498 25.1987 19.8461C25.1644 18.5484 24.7656 17.3836 23.9521 16.3649C23.2589 15.5059 22.3274 14.8709 21.2744 14.5397C20.2215 14.2085 19.0941 14.1959 18.034 14.5034C15.9068 15.1118 14.3097 16.9805 14.0512 19.1684C14.0256 19.3875 14.0147 19.6029 14.003 19.8212C13.9855 20.1374 13.7941 20.3492 13.5254 20.3434C13.2567 20.3375 13.0741 20.1243 13.0712 19.8037C13.0456 17.0367 15.0224 14.4049 17.7149 13.6293C18.0113 13.5417 18.3131 13.4731 18.6183 13.4241C18.9418 13.3745 19.2704 13.3628 19.5968 13.3343Z" fill="#A9A9A9"/>
<path d="M20.0672 16.8074C20.0672 17.1353 20.0789 17.4647 20.0635 17.7904C20.054 17.9875 20.1008 18.089 20.3038 18.1686C21.0706 18.4681 21.508 19.1991 21.451 20.0301C21.4233 20.414 21.276 20.7796 21.03 21.0756C20.7839 21.3716 20.4513 21.5831 20.0789 21.6805C19.6258 21.8021 19.1436 21.7486 18.7281 21.5308C18.3127 21.3129 17.9945 20.9466 17.837 20.5048C17.5098 19.5773 17.9545 18.5418 18.8666 18.1774C19.0894 18.0883 19.1419 17.9802 19.1376 17.7634C19.1259 17.0988 19.1317 16.4343 19.1376 15.7697C19.1376 15.417 19.3106 15.2162 19.5991 15.2155C19.8875 15.2147 20.0643 15.425 20.0679 15.769C20.0716 16.113 20.0672 16.4613 20.0672 16.8074ZM20.5236 19.8745C20.5245 19.7518 20.501 19.63 20.4545 19.5164C20.408 19.4027 20.3395 19.2994 20.2528 19.2124C20.1662 19.1254 20.0631 19.0565 19.9497 19.0096C19.8362 18.9626 19.7146 18.9387 19.5918 18.9391C19.3434 18.9442 19.107 19.0465 18.9332 19.224C18.7594 19.4015 18.6621 19.64 18.6622 19.8884C18.6662 20.1318 18.7653 20.364 18.9384 20.5351C19.1115 20.7063 19.3447 20.8029 19.5881 20.8042C19.711 20.8071 19.8333 20.7853 19.9476 20.7398C20.0618 20.6944 20.1657 20.6264 20.2531 20.5399C20.3404 20.4534 20.4094 20.3501 20.4559 20.2363C20.5024 20.1224 20.5254 20.0004 20.5236 19.8775V19.8745Z" fill="#A9A9A9"/>
</svg>
