<svg width="28" height="29" viewBox="0 0 28 29" fill="none" xmlns="http://www.w3.org/2000/svg">
<path d="M26.4021 0.00074798C26.4604 0.02466 26.518 0.051561 26.5777 0.0754731C26.8815 0.174048 27.1463 0.366214 27.3342 0.624463C27.5222 0.882713 27.6236 1.1938 27.6239 1.51318C27.6324 2.88364 27.6324 4.2536 27.6239 5.62306C27.6259 6.0242 27.4695 6.40991 27.1886 6.69635C26.9078 6.98279 26.5253 7.14678 26.1242 7.15268C25.2857 7.16165 24.6199 6.49286 24.6013 5.62157C24.6013 5.50275 24.6013 5.38468 24.6013 5.30846L21.891 8.01501C22.1361 8.57321 22.4596 9.17549 22.6704 9.81439C24.1365 14.2568 21.1437 18.9831 16.5003 19.5869C14.8525 19.818 13.175 19.4852 11.7403 18.6424C11.5849 18.5527 11.4795 18.5602 11.3136 18.6327C10.6411 18.9249 9.95589 19.1827 9.27888 19.4621C9.19519 19.4965 9.07189 19.5839 9.0704 19.6482C9.05769 20.7003 9.06143 21.7532 9.06143 22.8614C9.41563 22.8614 9.75637 22.8457 10.0956 22.8614C11.0454 22.9122 11.6798 23.7095 11.5274 24.6436C11.413 25.3415 10.7936 25.8638 10.0456 25.8848C9.73022 25.8937 9.41413 25.8848 9.05993 25.8848C9.05993 26.3204 9.07114 26.7366 9.05993 27.1551C9.02556 28.2259 7.95027 28.935 6.97436 28.5218C6.3915 28.276 6.06495 27.8224 6.03955 27.182C6.02386 26.765 6.03955 26.3473 6.03955 25.8885C5.68983 25.8885 5.36702 25.8967 5.0457 25.8885C3.9039 25.8526 3.19177 24.6989 3.70065 23.6976C3.95546 23.1939 4.37318 22.9032 4.94034 22.8696C5.29155 22.8479 5.645 22.8651 6.01638 22.8651C6.0261 22.75 6.0388 22.6701 6.0388 22.5901C6.0388 21.6494 6.0388 20.7071 6.04403 19.7663C6.04403 19.5742 5.99546 19.4988 5.79669 19.4502C2.73296 18.6932 0.519605 16.2564 0.0749908 13.1307C-0.155162 11.5136 0.149716 9.97804 0.917143 8.53734C1.06659 8.25862 1.27806 8.16894 1.50672 8.27878C1.74734 8.39461 1.8131 8.63672 1.65617 8.92366C1.08949 9.96932 0.808782 11.146 0.842417 12.3349C0.917143 15.3754 3.23362 18.1156 6.22262 18.6865C6.8279 18.8016 6.869 18.8516 6.869 19.4748C6.869 20.6769 6.869 21.8795 6.869 23.0826C6.869 23.5668 6.74271 23.6901 6.25251 23.6923C5.86992 23.6923 5.48808 23.6856 5.10548 23.6923C4.65713 23.7035 4.36869 23.9763 4.3672 24.3649C4.36571 24.7534 4.67507 25.0374 5.12865 25.0463C5.52992 25.0516 5.93045 25.0463 6.33172 25.0463C6.733 25.0463 6.86526 25.1898 6.86825 25.5903C6.86825 26.0753 6.86825 26.5618 6.86825 27.0445C6.87273 27.5026 7.15071 27.803 7.55198 27.7917C7.93906 27.7835 8.21255 27.4816 8.21704 27.0445C8.22227 26.5595 8.21704 26.0731 8.21704 25.5896C8.21704 25.1749 8.35005 25.0456 8.77299 25.0434C9.15484 25.0434 9.53743 25.0434 9.91927 25.0434C10.399 25.0434 10.7084 24.7699 10.7076 24.3619C10.7069 23.9539 10.4042 23.6938 9.91628 23.6893C9.52472 23.6849 9.13317 23.6893 8.74161 23.6893C8.35005 23.6893 8.21853 23.5399 8.21853 23.1663C8.21853 21.9074 8.21853 20.6488 8.21853 19.3904C8.21853 18.8741 8.27906 18.8113 8.77673 18.6992C11.5685 18.0723 13.3484 16.3625 14.0523 13.6037C14.5089 11.8148 14.1719 10.1096 13.193 8.53884C13.1541 8.47681 13.107 8.42002 13.0316 8.31466C12.7267 8.59413 12.4263 8.85642 12.1476 9.13664C12.0998 9.18521 12.1072 9.34437 12.1476 9.41686C12.6916 10.3554 12.9135 11.3642 12.8679 12.4447C12.7656 14.8636 10.7868 17.0553 8.38442 17.3915C5.39542 17.8107 2.80843 15.9433 2.26219 12.976C1.75332 10.2112 3.72382 7.38508 6.50135 6.87396C7.52314 6.67646 8.58032 6.78031 9.54415 7.17286C9.70407 7.23787 9.79 7.21321 9.8976 7.08767C10.1502 6.78877 10.4207 6.51229 10.6874 6.21862C9.98575 5.82564 9.21318 5.57548 8.41431 5.48258C6.28763 5.23051 4.44242 5.84001 2.87868 7.3111C2.63208 7.54349 2.37129 7.56292 2.19494 7.36565C2.01859 7.16837 2.05595 6.94345 2.29806 6.70658C3.46716 5.56929 4.97528 4.84431 6.59366 4.64163C8.21203 4.43894 9.85236 4.7696 11.2658 5.58346C11.4646 5.69778 11.5983 5.67985 11.7889 5.57748C14.3545 4.20603 16.9003 4.24438 19.4265 5.69255L19.6806 5.842C19.8697 5.64024 20.0542 5.43176 20.2515 5.23523C20.4705 5.01704 20.7118 5.00284 20.8927 5.18218C21.0735 5.36152 21.0645 5.59765 20.8463 5.82257C20.593 6.08262 20.3345 6.33893 20.0752 6.59374C19.8159 6.84855 19.6567 6.85827 19.363 6.65278C18.1439 5.78939 16.6705 5.35972 15.1784 5.43251C12.0459 5.55282 9.32446 8.01874 8.88732 11.1303C8.66315 12.7406 8.95681 14.2433 9.80569 15.634C9.84455 15.6975 9.88565 15.7595 9.92749 15.8215C9.94318 15.8447 9.96261 15.8649 10.0149 15.9291C10.3138 15.6519 10.6187 15.3919 10.8952 15.1072C10.9452 15.0556 10.9258 14.883 10.881 14.8C9.80943 12.7705 9.89686 10.797 11.2367 8.93263C12.501 7.17211 14.7435 6.40992 16.8455 6.94794C17.866 7.21666 18.7849 7.77952 19.4878 8.56647C20.1908 9.35343 20.6469 10.3297 20.7992 11.3739C21.3746 15.4091 17.3455 18.5901 13.5509 17.0874C13.3506 17.0082 13.2408 17.0269 13.107 17.192C12.8724 17.4804 12.6124 17.7472 12.3598 18.0252C12.9997 18.3854 13.7007 18.6243 14.4274 18.7298C18.0382 19.2731 21.3134 17.0246 22.0636 13.461C22.4514 11.6212 22.0815 9.90929 21.0331 8.34679C20.7567 7.93356 20.7619 7.82895 21.1079 7.48372L24.5684 4.0232C24.6147 3.97687 24.6536 3.90812 24.7089 3.89018C24.8583 3.84012 25.0474 3.74074 25.1572 3.79379C25.229 3.83643 25.2905 3.89447 25.3371 3.96373C25.3838 4.03299 25.4145 4.11175 25.427 4.19432C25.4621 4.63893 25.4382 5.09102 25.4419 5.53563C25.4457 5.99818 25.7117 6.30455 26.107 6.30903C26.5023 6.31352 26.7907 5.99669 26.7914 5.52218C26.7914 4.22695 26.7914 2.93172 26.7914 1.63648C26.7914 1.10743 26.5292 0.842651 26.0046 0.842153C24.6994 0.842153 23.3942 0.842153 22.089 0.842153C21.6347 0.842153 21.3238 1.12013 21.3223 1.51468C21.3208 1.90923 21.6287 2.1872 22.0853 2.1872C22.5134 2.1872 22.9424 2.1872 23.3713 2.1872C23.5828 2.1872 23.7591 2.24399 23.8488 2.45472C23.9384 2.66544 23.8413 2.82834 23.6933 2.97779C23.257 3.4112 22.8243 3.84908 22.3872 4.28174C22.1525 4.51339 21.9119 4.53282 21.7266 4.34452C21.5413 4.15621 21.5607 3.91933 21.8013 3.68544C22.0053 3.48816 22.2265 3.31182 22.4402 3.12127L22.3722 3.02711H22.0479C21.2259 3.01889 20.6169 2.50404 20.4936 1.70896C20.383 0.996085 20.8389 0.304133 21.5809 0.0575398C21.6226 0.0408048 21.6633 0.0215896 21.7027 0L26.4021 0.00074798ZM13.8483 16.2908C15.3817 16.9775 17.7049 16.6764 19.1007 14.8329C19.7345 13.997 20.0552 12.9654 20.0069 11.9175C19.9585 10.8696 19.5443 9.87178 18.8362 9.09778C17.3925 7.49866 15.165 7.32082 13.8535 7.96943C15.4997 10.7335 15.49 13.4976 13.8476 16.2878L13.8483 16.2908ZM9.19444 16.2908C7.5475 13.516 7.5475 10.742 9.19444 7.96868C7.75449 7.28943 5.49704 7.55918 4.09371 9.23303C3.4138 10.0379 3.03875 11.0563 3.03424 12.11C3.02974 13.1636 3.39606 14.1852 4.06905 14.9958C5.54487 16.769 7.84266 16.9222 9.19369 16.2841L9.19444 16.2908ZM11.5423 10.0498C10.7913 11.2715 10.884 13.263 11.5543 14.1813C12.2059 12.7982 12.2051 11.4456 11.5416 10.0431L11.5423 10.0498Z" fill="#A9A9A9"/>
</svg>
