<svg width="14" height="11" viewBox="0 0 14 11" fill="none" xmlns="http://www.w3.org/2000/svg">
<path d="M1.35886 0.622772L1.98163 -6.04341e-06L12.2302 10.2485L11.6074 10.8713L1.35886 0.622772Z" fill="#D0D0D0"/>
<path d="M6.8891 3.6261L8.60387 5.34087C8.58005 4.89381 8.39174 4.47136 8.07517 4.1548C7.75861 3.83823 7.33616 3.64992 6.8891 3.6261Z" fill="#D0D0D0"/>
<path d="M6.69997 7.24477L4.9852 5.53C5.00902 5.97705 5.19733 6.39951 5.5139 6.71607C5.83046 7.03264 6.25291 7.22095 6.69997 7.24477Z" fill="#D0D0D0"/>
<path d="M6.79454 8.15323C6.37642 8.15325 5.96395 8.0568 5.58919 7.87139C5.21444 7.68598 4.88751 7.4166 4.63386 7.08422C4.3802 6.75184 4.20666 6.36542 4.12672 5.95502C4.04678 5.54462 4.06261 5.12131 4.17298 4.71802L2.21757 2.76233C1.41893 3.49387 0.657938 4.44851 0 5.43541C0.747965 6.68108 1.77111 7.96185 2.83672 8.69622C4.05917 9.53818 5.38835 9.96511 6.78774 9.96511C7.55249 9.96563 8.31153 9.83345 9.03107 9.57442L7.51334 8.05697C7.27913 8.12108 7.03737 8.15345 6.79454 8.15323Z" fill="#D0D0D0"/>
<path d="M6.79454 2.71761C7.21265 2.71759 7.62513 2.81403 7.99989 2.99945C8.37464 3.18486 8.70157 3.45423 8.95522 3.78661C9.20888 4.119 9.38242 4.50542 9.46236 4.91582C9.54229 5.32622 9.52647 5.74953 9.4161 6.15281L11.4165 8.15324C12.2418 7.41008 13.0039 6.41044 13.5891 5.43542C12.8422 4.20589 11.8083 2.92824 10.7246 2.1848C9.48688 1.33605 8.16223 0.905731 6.78775 0.905731C6.03141 0.906817 5.28143 1.04385 4.57358 1.31029L6.07715 2.81386C6.31091 2.74988 6.55219 2.71751 6.79454 2.71761Z" fill="#D0D0D0"/>
</svg>
