<svg width="15" height="11" viewBox="0 0 15 11" fill="none" xmlns="http://www.w3.org/2000/svg">
<path d="M7.62692 0.749969C4.44023 0.749969 1.7188 2.73209 0.616211 5.53C1.7188 8.32791 4.44023 10.31 7.62692 10.31C10.8168 10.31 13.535 8.32791 14.6376 5.53C13.535 2.73209 10.8168 0.749969 7.62692 0.749969ZM7.62692 8.71669C5.86787 8.71669 4.44023 7.28905 4.44023 5.53C4.44023 3.77095 5.86787 2.34331 7.62692 2.34331C9.38597 2.34331 10.8136 3.77095 10.8136 5.53C10.8136 7.28905 9.38597 8.71669 7.62692 8.71669ZM7.62692 3.61799C6.57213 3.61799 5.71491 4.47521 5.71491 5.53C5.71491 6.58479 6.57213 7.44201 7.62692 7.44201C8.68171 7.44201 9.53893 6.58479 9.53893 5.53C9.53893 4.47521 8.68171 3.61799 7.62692 3.61799Z" fill="#D0D0D0"/>
</svg>
