<svg width="22" height="22" viewBox="0 0 22 22" fill="none" xmlns="http://www.w3.org/2000/svg">
<path fill-rule="evenodd" clip-rule="evenodd" d="M11.4608 1.62141C6.53567 1.62141 2.54304 5.61404 2.54304 10.5392C2.54304 15.4644 6.53567 19.457 11.4608 19.457C16.386 19.457 20.3786 15.4644 20.3786 10.5392C20.3786 5.61404 16.386 1.62141 11.4608 1.62141ZM0.921631 10.5392C0.921631 4.71856 5.64019 0 11.4608 0C17.2815 0 22 4.71856 22 10.5392C22 16.3599 17.2815 21.0784 11.4608 21.0784C5.64019 21.0784 0.921631 16.3599 0.921631 10.5392ZM11.4608 5.16692C11.9086 5.16692 12.2715 5.52989 12.2715 5.97763V5.98843C12.2715 6.43617 11.9086 6.79914 11.4608 6.79914C11.0131 6.79914 10.6501 6.43617 10.6501 5.98843V5.97763C10.6501 5.52989 11.0131 5.16692 11.4608 5.16692ZM11.4608 8.40973C11.9086 8.40973 12.2715 8.77269 12.2715 9.22044V15.1008C12.2715 15.5485 11.9086 15.9115 11.4608 15.9115C11.0131 15.9115 10.6501 15.5485 10.6501 15.1008V9.22044C10.6501 8.77269 11.0131 8.40973 11.4608 8.40973Z" fill="black"/>
</svg>
