<svg width="129" height="129" viewBox="0 0 129 129" fill="none" xmlns="http://www.w3.org/2000/svg">
<circle opacity="0.8" cx="64.5" cy="64.4276" r="64" fill="#235564"/>
<path d="M76.8345 47.0625L67.901 37.8574H42.9841V90.9977H86.016V55.9724L76.8345 47.0625ZM68.645 42.3507L75.0041 48.8988L81.5227 55.2284H68.645V42.3507ZM83.4239 88.4057H45.5762V40.4495H66.0529V57.8146H83.418V88.4057H83.4239ZM59.6289 66.134L70.5522 80.9601H71.1426L80.2945 70.1372L79.9993 80.9601V85.0933H48.7056V80.9601L59.6289 66.134ZM68.0427 68.5607C68.0427 66.2757 69.8909 64.4276 72.1759 64.4276C74.4609 64.4276 76.309 66.2757 76.309 68.5607C76.309 70.8458 74.4609 72.6939 72.1759 72.6939C69.8909 72.6939 68.0427 70.8458 68.0427 68.5607Z" fill="white"/>
</svg>
