<svg width="12" height="17" viewBox="0 0 12 17" fill="none" xmlns="http://www.w3.org/2000/svg">
<path d="M9.81818 6H9.27273V3.27273C9.27273 2.40475 8.92792 1.57232 8.31417 0.95856C7.70041 0.344804 6.86798 0 6 0C5.13202 0 4.29959 0.344804 3.68583 0.95856C3.07208 1.57232 2.72727 2.40475 2.72727 3.27273V6H2.18182C1.60336 6.00063 1.04877 6.2307 0.639737 6.63974C0.230704 7.04877 0.000631655 7.60336 0 8.18182V14.1818C0.000631655 14.7603 0.230704 15.3149 0.639737 15.7239C1.04877 16.1329 1.60336 16.363 2.18182 16.3636H9.81818C10.3966 16.363 10.9512 16.1329 11.3603 15.7239C11.7693 15.3149 11.9994 14.7603 12 14.1818V8.18182C11.9994 7.60336 11.7693 7.04877 11.3603 6.63974C10.9512 6.2307 10.3966 6.00063 9.81818 6ZM8.18182 6H3.81818V3.27273C3.81818 2.69407 4.04805 2.13912 4.45722 1.72995C4.86639 1.32078 5.42135 1.09091 6 1.09091C6.57865 1.09091 7.13361 1.32078 7.54278 1.72995C7.95195 2.13912 8.18182 2.69407 8.18182 3.27273V6Z" fill="#D0D0D0"/>
</svg>
