<svg width="23" height="24" viewBox="0 0 23 24" fill="none" xmlns="http://www.w3.org/2000/svg">
<path d="M16.7217 0.914626C19.5758 0.941958 22.1517 3.41614 22.1798 6.3727C22.1918 10.133 22.215 13.8933 22.1793 17.653C22.1345 20.4803 19.6783 23.0478 16.7217 23.0759C12.9614 23.088 9.20116 23.1111 5.44137 23.0754C2.61458 23.0306 0.046828 20.5744 0.0185108 17.6178C0.00669145 13.8575 -0.016701 10.0973 0.0190033 6.33749C0.0638183 3.5102 2.52003 0.942943 5.47659 0.914626C9.22504 0.902807 12.9733 0.902807 16.7217 0.914626ZM5.51328 2.39204C3.43012 2.39869 1.51686 4.18612 1.49593 6.38206C1.48411 10.133 1.46047 13.8839 1.49618 17.6343C1.52892 19.6985 3.32202 21.5778 5.48594 21.5985C9.23686 21.6105 12.9878 21.6337 16.7382 21.5982C18.8036 21.5652 20.6817 19.7724 20.7024 17.6085C20.7144 13.8575 20.7376 10.1066 20.7021 6.3562C20.6691 4.29102 18.879 2.41273 16.7123 2.39204C12.9794 2.38022 9.24622 2.39204 5.51328 2.39204Z" fill="#252525"/>
<path d="M11.1605 3.97156C13.8516 4.02253 16.1891 6.64815 15.8055 9.38704C15.4915 11.6268 13.3746 13.4758 11.0992 13.4758C8.36125 13.4758 5.91465 10.7147 6.42115 7.88327C6.8043 5.74052 8.78404 4.01441 11.0378 3.97156C11.0992 3.97107 11.0992 3.97107 11.1605 3.97156ZM11.0568 5.44873C8.89263 5.48985 7.13401 8.04111 8.14703 10.142C9.03471 11.9836 11.826 12.5544 13.3579 11.0937C15.1485 9.38655 14.2017 5.50709 11.1415 5.44873C11.0992 5.44849 11.0992 5.44849 11.0568 5.44873ZM11.1725 14.461C14.0853 14.5011 16.8919 16.2334 18.1893 18.9011C18.4624 19.4625 17.9098 20.2177 17.2789 19.9671C16.8109 19.7809 16.6838 19.1651 16.3836 18.7273C14.5716 16.0837 10.6456 15.1549 7.82519 16.8386C6.74028 17.4862 5.86047 18.4601 5.31211 19.6007C5.31211 19.6007 5.06045 20.0003 4.68174 20.0185C4.10259 20.0461 3.73496 19.4074 4.13411 18.6551C5.47265 16.1312 8.23715 14.4477 11.1725 14.461Z" fill="#252525"/>
</svg>
