<svg width="23" height="23" viewBox="0 0 23 23" fill="none" xmlns="http://www.w3.org/2000/svg">
<path d="M15.0801 22.9637H14.9348C9.97085 22.9637 7.57833 21.0072 7.16467 16.6246C7.11995 16.1663 7.45535 15.7526 7.92491 15.7079C8.37211 15.6632 8.79695 16.0097 8.84167 16.4681C9.16589 19.9786 10.8205 21.2867 14.9459 21.2867H15.0913C19.6415 21.2867 21.2514 19.6768 21.2514 15.1265V7.83716C21.2514 3.28691 19.6415 1.677 15.0913 1.677H14.9459C10.7982 1.677 9.14353 3.00741 8.84167 6.585C8.78577 7.04338 8.39447 7.38996 7.92491 7.34524C7.45535 7.3117 7.11995 6.89804 7.15349 6.43967C7.53361 1.99004 9.93731 0 14.9348 0H15.0801C20.5695 0 22.9173 2.34779 22.9173 7.83716V15.1265C22.9173 20.6159 20.5695 22.9637 15.0801 22.9637Z" fill="#252525"/>
<path d="M14.8103 12.3203H2.08752C1.62914 12.3203 1.24902 11.9402 1.24902 11.4818C1.24902 11.0234 1.62914 10.6433 2.08752 10.6433H14.8103C15.2687 10.6433 15.6488 11.0234 15.6488 11.4818C15.6488 11.9402 15.2687 12.3203 14.8103 12.3203Z" fill="#252525"/>
<path d="M4.58099 16.0657C4.36858 16.0657 4.15616 15.9874 3.98846 15.8197L0.243164 12.0744C-0.0810548 11.7502 -0.0810548 11.2136 0.243164 10.8893L3.98846 7.14404C4.31267 6.81982 4.84931 6.81982 5.17353 7.14404C5.49775 7.46826 5.49775 8.0049 5.17353 8.32912L2.02078 11.4819L5.17353 14.6346C5.49775 14.9589 5.49775 15.4955 5.17353 15.8197C5.01701 15.9874 4.79341 16.0657 4.58099 16.0657Z" fill="#252525"/>
</svg>
