<svg width="24" height="22" viewBox="0 0 24 22" fill="none" xmlns="http://www.w3.org/2000/svg">
<path d="M17.1163 3.47974H22.1752" stroke="#F10D0D" stroke-width="1.7" stroke-linecap="round" stroke-linejoin="round"/>
<path d="M1.83325 20.3415C2.86985 18.5472 4.36037 17.0574 6.15507 16.0215C7.94977 14.9857 9.98545 14.4404 12.0576 14.4405C14.1298 14.4405 16.1655 14.9858 17.9601 16.0217C19.7548 17.0575 21.2453 18.5474 22.2819 20.3417M18.8026 7.69533C18.8011 9.09427 18.3641 10.458 17.5524 11.5974C16.7406 12.7367 15.5944 13.5952 14.2727 14.0535C12.951 14.5119 11.5193 14.5475 10.1765 14.1554C8.83362 13.7633 7.64611 12.9629 6.77874 11.8653C5.91136 10.7678 5.40714 9.4274 5.33605 8.03027C5.26495 6.63313 5.6305 5.24852 6.38197 4.06855C7.13345 2.88859 8.23358 1.9718 9.5297 1.44539C10.8258 0.918991 12.2537 0.809086 13.6151 1.13093" stroke="#F10D0D" stroke-width="1.7" stroke-linecap="round" stroke-linejoin="round"/>
</svg>
