<svg width="41" height="30" viewBox="0 0 41 30" fill="none" xmlns="http://www.w3.org/2000/svg">
<path d="M8.616 16.742C8.616 13.186 3.464 14.558 3.464 12.36C3.464 11.422 4.178 10.974 5.102 11.002C6.11 11.03 6.684 11.632 6.74 12.29H8.504C8.364 10.624 7.048 9.644 5.186 9.644C3.198 9.644 1.84 10.708 1.84 12.416C1.84 16 7.006 14.474 7.006 16.826C7.006 17.652 6.376 18.254 5.256 18.254C4.15 18.254 3.59 17.61 3.52 16.812H1.812C1.812 18.534 3.31 19.598 5.256 19.598C7.426 19.598 8.616 18.198 8.616 16.742ZM10.4992 19.5H12.0952V16.182L14.9512 19.5H17.1072L13.5512 15.65L17.1072 11.786H14.8952L12.0952 15.16V9.14H10.4992V19.5ZM18.2512 19.5H19.8472V11.786H18.2512V19.5ZM19.0632 10.764C19.6232 10.764 20.0712 10.316 20.0712 9.742C20.0712 9.168 19.6232 8.72 19.0632 8.72C18.4892 8.72 18.0412 9.168 18.0412 9.742C18.0412 10.316 18.4892 10.764 19.0632 10.764ZM23.5386 12.92V11.786H21.9426V23.168H23.5386V18.38C24.0426 18.982 24.9526 19.626 26.2266 19.626C28.2566 19.626 29.8526 17.988 29.8526 15.608C29.8526 13.228 28.2566 11.66 26.2266 11.66C24.9666 11.66 24.0286 12.276 23.5386 12.92ZM28.2286 15.608C28.2286 17.274 27.0806 18.24 25.8766 18.24C24.6866 18.24 23.5386 17.302 23.5386 15.636C23.5386 13.984 24.6866 13.046 25.8766 13.046C27.0806 13.046 28.2286 13.942 28.2286 15.608Z" fill="#235564"/>
<path d="M37 12L40 15L37 18" stroke="#235564" stroke-linecap="round" stroke-linejoin="round"/>
</svg>
