<svg width="18" height="18" viewBox="0 0 18 18" fill="none" xmlns="http://www.w3.org/2000/svg">
<path d="M8.96665 11.9046C7.24011 11.9046 5.83887 10.5033 5.83887 8.7768C5.83887 7.05026 7.24011 5.64902 8.96665 5.64902C10.6932 5.64902 12.0944 7.05026 12.0944 8.7768C12.0944 10.5033 10.6932 11.9046 8.96665 11.9046ZM8.96665 6.90013C7.93239 6.90013 7.08998 7.74254 7.08998 8.7768C7.08998 9.81105 7.93239 10.6535 8.96665 10.6535C10.0009 10.6535 10.8433 9.81105 10.8433 8.7768C10.8433 7.74254 10.0009 6.90013 8.96665 6.90013Z" fill="white"/>
<path d="M11.6437 17.2758C11.4685 17.2758 11.2934 17.2508 11.1182 17.2091C10.6011 17.0673 10.1674 16.742 9.89213 16.2833L9.79204 16.1165C9.29993 15.2657 8.62433 15.2657 8.13223 16.1165L8.04048 16.2749C7.76524 16.742 7.33152 17.0757 6.81439 17.2091C6.28892 17.3509 5.74678 17.2758 5.28803 17.0006L3.85343 16.1749C3.34464 15.8829 2.97765 15.4075 2.81917 14.832C2.66904 14.2565 2.74411 13.6643 3.03603 13.1555C3.27791 12.7301 3.34464 12.3465 3.20285 12.1046C3.06105 11.8627 2.7024 11.7209 2.2103 11.7209C0.992549 11.7209 0 10.7283 0 9.5106V8.04263C0 6.82488 0.992549 5.83233 2.2103 5.83233C2.7024 5.83233 3.06105 5.69054 3.20285 5.44865C3.34464 5.20677 3.28625 4.8231 3.03603 4.39772C2.74411 3.88893 2.66904 3.2884 2.81917 2.72123C2.96931 2.14572 3.3363 1.67029 3.85343 1.37837L5.29637 0.552634C6.23888 -0.00619584 7.48165 0.319093 8.04882 1.27828L8.14891 1.44509C8.64102 2.29585 9.31662 2.29585 9.80872 1.44509L9.90047 1.28662C10.4676 0.319093 11.7104 -0.00619584 12.6613 0.560975L14.0959 1.38671C14.6046 1.67864 14.9716 2.15406 15.1301 2.72957C15.2802 3.30508 15.2052 3.89727 14.9133 4.40606C14.6714 4.83144 14.6046 5.21511 14.7464 5.45699C14.8882 5.69888 15.2469 5.84067 15.739 5.84067C16.9567 5.84067 17.9493 6.83322 17.9493 8.05097V9.51894C17.9493 10.7367 16.9567 11.7292 15.739 11.7292C15.2469 11.7292 14.8882 11.871 14.7464 12.1129C14.6046 12.3548 14.663 12.7385 14.9133 13.1638C15.2052 13.6726 15.2886 14.2732 15.1301 14.8403C14.98 15.4158 14.613 15.8913 14.0959 16.1832L12.6529 17.0089C12.336 17.1841 11.994 17.2758 11.6437 17.2758ZM8.9663 14.1898C9.70863 14.1898 10.4009 14.6568 10.8763 15.4826L10.9681 15.641C11.0682 15.8162 11.235 15.9413 11.4352 15.9914C11.6353 16.0414 11.8355 16.0164 12.0023 15.9163L13.4453 15.0822C13.6621 14.9571 13.829 14.7486 13.8957 14.4984C13.9624 14.2481 13.929 13.9896 13.8039 13.7727C13.3285 12.9553 13.2701 12.1129 13.6371 11.4707C14.0041 10.8284 14.7631 10.4614 15.714 10.4614C16.2478 10.4614 16.6732 10.0361 16.6732 9.50226V8.03429C16.6732 7.50882 16.2478 7.0751 15.714 7.0751C14.7631 7.0751 14.0041 6.70811 13.6371 6.06587C13.2701 5.42363 13.3285 4.58122 13.8039 3.76382C13.929 3.54696 13.9624 3.2884 13.8957 3.03818C13.829 2.78795 13.6705 2.58778 13.4536 2.45432L12.0107 1.62859C11.652 1.41173 11.1766 1.53684 10.9597 1.90384L10.868 2.06231C10.3926 2.88804 9.70029 3.35513 8.95796 3.35513C8.21564 3.35513 7.52335 2.88804 7.04793 2.06231L6.95618 1.89549C6.74766 1.54518 6.28058 1.42007 5.92193 1.62859L4.47898 2.46267C4.26212 2.58778 4.09531 2.7963 4.02858 3.04652C3.96185 3.29674 3.99522 3.5553 4.12033 3.77216C4.59575 4.58956 4.65414 5.43197 4.28714 6.07421C3.92015 6.71645 3.16114 7.08344 2.2103 7.08344C1.67649 7.08344 1.25111 7.50882 1.25111 8.04263V9.5106C1.25111 10.0361 1.67649 10.4698 2.2103 10.4698C3.16114 10.4698 3.92015 10.8368 4.28714 11.479C4.65414 12.1213 4.59575 12.9637 4.12033 13.7811C3.99522 13.9979 3.96185 14.2565 4.02858 14.5067C4.09531 14.7569 4.25378 14.9571 4.47064 15.0906L5.91359 15.9163C6.08875 16.0247 6.29726 16.0497 6.4891 15.9997C6.68928 15.9497 6.85609 15.8162 6.96452 15.641L7.05627 15.4826C7.53169 14.6652 8.22398 14.1898 8.9663 14.1898Z" fill="white"/>
</svg>
