<svg width="21" height="23" viewBox="0 0 21 23" fill="none" xmlns="http://www.w3.org/2000/svg">
<path d="M20.78 11.4843C20.78 14.3114 20.78 17.1382 20.78 19.9648C20.78 21.4624 19.7794 22.6518 18.3045 22.9066C18.115 22.9344 17.9236 22.9463 17.7321 22.942C12.8372 22.942 7.9424 22.942 3.04786 22.942C1.2561 22.942 0 21.6805 0 19.8881V3.05253C0 1.26077 1.25676 0.000667073 3.04852 0C7.94351 0 12.8383 0 17.7328 0C19.5259 0 20.78 1.25943 20.7807 3.05386C20.7811 5.8658 20.7809 8.67596 20.78 11.4843ZM1.59764 11.4743C1.59764 14.2594 1.61498 17.0437 1.58763 19.8288C1.57896 20.6753 2.14664 21.357 3.10122 21.3524C7.96152 21.3314 12.822 21.3314 17.6828 21.3524C18.6427 21.3564 19.1937 20.6633 19.191 19.8488C19.1728 14.2707 19.1728 8.69308 19.191 3.1159C19.191 2.26738 18.6314 1.58764 17.6774 1.59164C12.8167 1.61298 7.95618 1.61298 3.09589 1.59164C2.13196 1.58697 1.57963 2.28473 1.58763 3.09522C1.61365 5.88759 1.59764 8.68062 1.59764 11.4743Z" fill="#252525"/>
<path d="M5.52138 17.5948C5.82623 17.2866 6.11107 16.9944 6.39792 16.7082C6.80883 16.2956 7.22042 15.8833 7.63267 15.4715C7.99956 15.1086 8.47718 15.0906 8.80939 15.4221C9.14159 15.7537 9.12291 16.2373 8.76269 16.6008C7.9542 17.4167 7.14037 18.2272 6.32987 19.0417C6.22581 19.1457 6.14443 19.2791 6.02569 19.3619C5.8885 19.452 5.72518 19.494 5.56152 19.4811C5.39785 19.4681 5.24314 19.4011 5.12181 19.2905C4.52144 18.7502 3.92774 18.2038 3.34605 17.6442C3.03787 17.348 3.05388 16.8437 3.34939 16.5395C3.49179 16.3898 3.68751 16.3024 3.894 16.2963C4.10049 16.2902 4.30105 16.3658 4.45206 16.5068C4.81228 16.851 5.15249 17.2172 5.52138 17.5948Z" fill="#252525"/>
<path d="M5.56737 11.7925C5.64075 11.665 5.6721 11.5703 5.73548 11.5063C6.34918 10.8837 6.966 10.2644 7.58594 9.64849C7.94549 9.29027 8.43712 9.26558 8.76466 9.58511C9.09219 9.90464 9.07618 10.415 8.70929 10.7858C7.9088 11.589 7.10831 12.3908 6.30783 13.1913C6.21043 13.2887 6.13572 13.4161 6.02432 13.4915C5.74015 13.6836 5.35724 13.6396 5.08041 13.3901C4.50984 12.8689 3.94283 12.3415 3.37937 11.8078C3.22502 11.6643 3.13348 11.4657 3.12461 11.2552C3.11574 11.0446 3.19027 10.8391 3.33201 10.6831C3.40335 10.6041 3.48994 10.5403 3.58657 10.4955C3.68319 10.4508 3.78787 10.4261 3.8943 10.4229C4.00072 10.4196 4.10671 10.4379 4.20588 10.4767C4.30505 10.5155 4.39536 10.5739 4.47137 10.6484C4.65549 10.8172 4.82892 10.9973 5.00503 11.1774C5.18114 11.3575 5.32856 11.5323 5.56737 11.7925Z" fill="#252525"/>
<path d="M5.55406 5.84421L7.53794 3.85433C7.9035 3.48877 8.37712 3.46609 8.70799 3.79763C9.03885 4.12916 9.01617 4.60745 8.65195 4.97234C7.85146 5.77283 7.05098 6.57488 6.25049 7.37848C5.81645 7.81207 5.38151 7.81496 4.94569 7.38715C4.48141 6.9322 4.01802 6.47637 3.55551 6.01965C3.22198 5.69345 3.21664 5.2305 3.5315 4.9063C3.84636 4.58211 4.31331 4.58344 4.63884 4.91031C4.93835 5.21116 5.2332 5.51667 5.55406 5.84421Z" fill="#252525"/>
<path d="M14.1373 5.06651C14.9858 5.06651 15.8339 5.06651 16.6815 5.06651C17.2085 5.06651 17.5794 5.40005 17.582 5.86233C17.5847 6.32461 17.2138 6.66682 16.6902 6.66749C14.9691 6.66749 13.2481 6.66749 11.527 6.66749C11.0214 6.66749 10.6598 6.33395 10.6545 5.87167C10.6491 5.40939 11.0127 5.07118 11.5183 5.06785C12.3915 5.06451 13.2647 5.06651 14.1373 5.06651Z" fill="#252525"/>
<path d="M14.1113 16.8142C14.9938 16.8142 15.8763 16.8082 16.7589 16.8142C17.1965 16.8189 17.4593 17.0857 17.5594 17.588C17.6141 17.8642 17.4093 18.2057 17.0924 18.3338C16.978 18.3821 16.8556 18.4085 16.7315 18.4118C14.9834 18.4167 13.2352 18.4167 11.487 18.4118C11.3141 18.4169 11.1442 18.3667 11.0018 18.2686C10.8594 18.1705 10.752 18.0295 10.6952 17.8662C10.5931 17.556 10.6705 17.1904 10.9393 17.0116C11.1177 16.896 11.324 16.8306 11.5364 16.8222C12.3935 16.8015 13.2514 16.8135 14.1086 16.8135L14.1113 16.8142Z" fill="#252525"/>
<path d="M14.1092 12.5329C13.2187 12.5329 12.3275 12.5382 11.4369 12.5329C11.2646 12.5329 11.0971 12.4753 10.9612 12.3693C10.8252 12.2634 10.7285 12.115 10.6865 11.9478C10.5984 11.6103 10.7205 11.2528 11.02 11.0806C11.1618 10.9967 11.3223 10.9495 11.487 10.9432C13.2267 10.9339 14.9667 10.9326 16.7068 10.9392C17.1865 10.9392 17.478 11.2274 17.566 11.7444C17.6127 12.0192 17.3719 12.3768 17.0464 12.4855C16.9192 12.5225 16.7872 12.5396 16.6548 12.5362C15.8056 12.5402 14.9564 12.5362 14.1072 12.5362L14.1092 12.5329Z" fill="#252525"/>
</svg>
