<svg width="16" height="33" viewBox="0 0 16 33" fill="none" xmlns="http://www.w3.org/2000/svg">
<path d="M10.7756 22.9395C11.396 22.1794 11.9746 21.4801 12.5523 20.7752C13.2002 19.986 13.8472 19.1958 14.4933 18.4047C15.0244 17.7539 14.9683 17.2142 14.3166 16.6945C13.2458 15.8471 12.1684 15.0081 11.1015 14.1559C10.9613 14.0507 10.851 13.9109 10.7813 13.7502C10.738 13.6371 10.7373 13.5122 10.7793 13.3986C10.8212 13.285 10.903 13.1905 11.0093 13.1327C11.2487 12.9778 11.4844 13.0167 11.7029 13.1868L13.5233 14.6119C14.0278 15.0081 14.5294 15.4072 15.0339 15.8034C16.1664 16.6926 16.3165 17.9638 15.4139 19.0735C14.1155 20.6653 12.8126 22.2535 11.5053 23.8382C11.3105 24.0729 11.2592 24.261 11.377 24.5641C12.0307 26.2432 12.6666 27.929 13.2848 29.6214C13.8358 31.1264 12.9504 32.5876 11.3742 32.8175C10.3006 32.9733 9.23265 32.3045 8.85262 31.209C8.20371 29.3383 7.57 27.4628 6.93059 25.5893C6.71682 24.9632 6.5021 24.337 6.25413 23.6131C5.96435 24.7893 5.69927 25.8648 5.43515 26.9384C5.10167 28.297 4.78434 29.6594 4.43281 31.0133C4.00812 32.6456 2.23525 33.2736 0.884226 32.2807C0.147907 31.7401 -0.103867 30.9829 0.0376962 30.1117C0.702125 26.025 1.37542 21.9397 2.05758 17.8555C2.11364 17.5164 2.17064 17.1772 2.22385 16.837C2.30176 16.3316 2.52788 16.1083 2.91266 16.1644C3.2718 16.2166 3.43426 16.5074 3.35541 16.991C3.08938 18.6188 2.82082 20.2456 2.54973 21.8716C2.08925 24.6585 1.62941 27.4454 1.1702 30.2323C1.05904 30.9117 1.42388 31.4675 2.03003 31.5758C2.67419 31.6926 3.18724 31.3345 3.36016 30.639C4.09869 27.6329 4.83438 24.6268 5.56721 21.6207C5.64322 21.3072 5.75723 21.0507 6.12016 21.0222C6.5002 20.9927 6.65886 21.2464 6.76717 21.5628C7.81417 24.6379 8.86307 27.7121 9.91387 30.7853C10.14 31.4504 10.7024 31.7981 11.3038 31.6755C12.1105 31.5121 12.5038 30.7653 12.1979 29.9492C11.4331 27.9056 10.654 25.8638 9.89297 23.824C9.29061 22.2022 8.6816 20.5823 8.1239 18.9443C7.81204 18.0529 7.74125 17.0948 7.91868 16.1672C8.1087 15.2 9.06734 14.8191 9.84261 15.4157C10.6179 16.0124 11.3514 16.6081 12.0943 17.2209C12.577 17.618 12.6226 18.1396 12.2216 18.6318C11.5838 19.414 10.9384 20.1896 10.2854 20.9585C10.2222 21.0183 10.1802 21.0969 10.1656 21.1826C10.1511 21.2682 10.1648 21.3563 10.2046 21.4336C10.3975 21.9143 10.5713 22.4017 10.7756 22.9395ZM9.66494 19.9239L11.2554 18.0095L9.10819 16.2926C8.80416 17.6114 9.12529 18.7619 9.66494 19.9239Z" fill="#A9A9A9"/>
<path d="M6.39287 7.49673C6.36247 6.56279 6.82516 5.88158 7.73155 5.57565C9.03317 5.13227 10.3364 4.69397 11.6412 4.26073C12.0915 4.10967 12.4088 3.82844 12.4829 3.34389C12.5171 3.16176 12.5035 2.97389 12.4435 2.79858C12.3835 2.62326 12.279 2.46649 12.1404 2.34354C12.0017 2.22059 11.8336 2.13565 11.6524 2.097C11.4712 2.05836 11.283 2.06733 11.1063 2.12303C9.3961 2.62183 7.70875 3.17478 5.99479 3.64317C4.47464 4.05931 4.10886 4.64741 4.14306 6.16565C4.18582 8.00502 4.19532 9.84724 4.13166 11.6857C4.09841 12.65 3.89129 13.6106 3.73833 14.5692C3.72757 14.6432 3.7018 14.7142 3.6626 14.7778C3.6234 14.8414 3.5716 14.8964 3.51038 14.9393C3.44915 14.9822 3.37981 15.0121 3.3066 15.0272C3.23339 15.0423 3.15786 15.0423 3.08467 15.0271C2.78159 14.9663 2.59252 14.7126 2.64097 14.3621C2.73598 13.6809 2.85474 13.0034 2.9564 12.3232C2.9899 12.1129 3.00832 11.9005 3.01151 11.6876C3.01151 9.68098 3.01151 7.67439 3.01151 5.66781C3.01151 4.14196 3.76018 3.14152 5.22426 2.70068C7.05128 2.14963 8.87641 1.59383 10.7053 1.04847C11.7229 0.745396 12.7195 1.09503 13.2706 1.93016C13.4611 2.21179 13.5845 2.53342 13.6312 2.87025C13.6778 3.20708 13.6465 3.55013 13.5397 3.87296C13.4328 4.19579 13.2533 4.48978 13.0149 4.73227C12.7765 4.97476 12.4856 5.15929 12.1647 5.27163C10.8621 5.74667 9.54147 6.16945 8.22749 6.61504C7.61089 6.82406 7.51018 6.95992 7.56243 7.60028C7.59759 8.01262 7.64414 8.42686 7.7192 8.8354C7.82086 9.3893 8.01277 9.90521 8.39376 10.3432C8.63508 10.6206 8.59708 10.9541 8.34246 11.1641C8.10968 11.3541 7.77905 11.3313 7.54343 11.0852C6.97338 10.4867 6.7235 9.73323 6.57814 8.94276C6.49738 8.46486 6.45558 7.97937 6.39287 7.49673Z" fill="#A9A9A9"/>
<path d="M8.91249 9.4121C8.92484 7.38081 11.0644 5.63549 13.0359 6.04593C13.4383 6.1273 13.8188 6.29368 14.1518 6.53391C14.4848 6.77415 14.7627 7.0827 14.9668 7.43896C15.171 7.79521 15.2968 8.19096 15.3357 8.59972C15.3746 9.00848 15.3258 9.42084 15.1926 9.80923C14.5921 11.5878 12.6273 12.6908 10.9628 12.1844C10.3682 12.0045 9.84754 11.6376 9.47816 11.1381C9.10878 10.6386 8.9104 10.0333 8.91249 9.4121ZM12.4411 7.13188C11.454 7.13188 10.4193 7.91666 10.1324 8.89145C9.82078 9.94795 10.4488 10.9598 11.5338 11.1527C12.5789 11.3427 13.814 10.4876 14.1323 9.37789C14.2124 9.11544 14.2293 8.83778 14.1818 8.56753C14.1342 8.29729 14.0235 8.0421 13.8587 7.82273C13.6939 7.60335 13.4796 7.426 13.2332 7.30513C12.9869 7.18426 12.7155 7.12326 12.4411 7.12713V7.13188Z" fill="#A9A9A9"/>
</svg>
