<svg width="88" height="45" viewBox="0 0 88 45" fill="none" xmlns="http://www.w3.org/2000/svg">
<path d="M49.4846 22.5035H38.5154C35.5847 22.5035 33.7216 20.7556 33.5542 17.8354L33.0099 9.20029C32.9262 7.89194 33.3762 6.63593 34.2764 5.68345C35.166 4.73098 36.4221 4.18671 37.7199 4.18671C38.0549 4.18671 38.3793 3.98784 38.5363 3.67383L39.29 2.17709C39.9075 0.952476 41.4566 0 42.8068 0H45.2037C46.5539 0 48.0925 0.952476 48.7101 2.16662L49.4637 3.69477C49.6207 3.98784 49.9347 4.18671 50.2801 4.18671C51.5779 4.18671 52.834 4.73098 53.7236 5.68345C54.6238 6.6464 55.0738 7.89194 54.9901 9.20029L54.4458 17.8458C54.2574 20.8079 52.4467 22.5035 49.4846 22.5035ZM42.8068 1.57001C42.0323 1.57001 41.0484 2.17709 40.6925 2.87836L39.9389 4.38557C39.4993 5.23338 38.6515 5.75672 37.7199 5.75672C36.8407 5.75672 36.0243 6.11259 35.4172 6.75106C34.8206 7.38954 34.5171 8.22688 34.5799 9.09562L35.1242 17.7412C35.2498 19.8555 36.3907 20.9335 38.5154 20.9335H49.4846C51.5989 20.9335 52.7398 19.8555 52.8758 17.7412L53.4201 9.09562C53.4724 8.22688 53.1794 7.38954 52.5828 6.75106C51.9757 6.11259 51.1593 5.75672 50.2801 5.75672C49.3485 5.75672 48.5007 5.23338 48.0611 4.40651L47.297 2.87836C46.9516 2.18755 45.9678 1.58048 45.1932 1.58048H42.8068V1.57001Z" fill="white"/>
<path d="M45.5703 7.85004H42.4303C42.0011 7.85004 41.6453 7.49417 41.6453 7.06504C41.6453 6.6359 42.0011 6.28003 42.4303 6.28003H45.5703C45.9994 6.28003 46.3553 6.6359 46.3553 7.06504C46.3553 7.49417 45.9994 7.85004 45.5703 7.85004Z" fill="white"/>
<path d="M44.0003 18.3168C41.6871 18.3168 39.8136 16.4432 39.8136 14.1301C39.8136 11.8169 41.6871 9.94336 44.0003 9.94336C46.3135 9.94336 48.187 11.8169 48.187 14.1301C48.187 16.4432 46.3135 18.3168 44.0003 18.3168ZM44.0003 11.5134C42.5559 11.5134 41.3836 12.6857 41.3836 14.1301C41.3836 15.5745 42.5559 16.7468 44.0003 16.7468C45.4447 16.7468 46.617 15.5745 46.617 14.1301C46.617 12.6857 45.4447 11.5134 44.0003 11.5134Z" fill="white"/>
<path d="M0.9 36.916C0.9 39.088 2.316 40.084 4.044 40.084C5.772 40.084 7.2 39.088 7.2 36.916V31.636H6.108V36.928C6.108 38.464 5.292 39.124 4.056 39.124C2.82 39.124 1.992 38.464 1.992 36.928V31.636H0.9V36.916ZM10.1137 34.636V33.424H9.02166V43.12H10.1137V38.788C10.5217 39.46 11.3737 40.108 12.5737 40.108C14.3377 40.108 15.6937 38.728 15.6937 36.688C15.6937 34.636 14.3377 33.316 12.5737 33.316C11.3737 33.316 10.5097 33.94 10.1137 34.636ZM14.5777 36.688C14.5777 38.236 13.5577 39.148 12.3457 39.148C11.1577 39.148 10.1137 38.248 10.1137 36.7C10.1137 35.176 11.1577 34.264 12.3457 34.264C13.5577 34.264 14.5777 35.14 14.5777 36.688ZM17.131 40H18.223V31.12H17.131V40ZM26.3242 36.7C26.3242 34.624 24.8722 33.316 23.0002 33.316C21.1402 33.316 19.6762 34.624 19.6762 36.7C19.6762 38.788 21.0922 40.108 22.9522 40.108C24.8242 40.108 26.3242 38.788 26.3242 36.7ZM20.7922 36.7C20.7922 35.044 21.8362 34.264 22.9882 34.264C24.1162 34.264 25.2082 35.044 25.2082 36.7C25.2082 38.368 24.0922 39.148 22.9522 39.148C21.8122 39.148 20.7922 38.368 20.7922 36.7ZM27.3519 36.688C27.3519 38.728 28.7079 40.108 30.4599 40.108C31.6719 40.108 32.5239 39.484 32.9199 38.776V40H34.0239V33.424H32.9199V34.624C32.5359 33.94 31.6959 33.316 30.4719 33.316C28.7079 33.316 27.3519 34.636 27.3519 36.688ZM32.9199 36.7C32.9199 38.248 31.8879 39.148 30.6879 39.148C29.4879 39.148 28.4679 38.236 28.4679 36.688C28.4679 35.14 29.4879 34.264 30.6879 34.264C31.8879 34.264 32.9199 35.176 32.9199 36.7ZM35.4613 36.688C35.4613 38.728 36.8173 40.108 38.5813 40.108C39.7813 40.108 40.6333 39.496 41.0293 38.764V40H42.1333V31.12H41.0293V34.6C40.5733 33.844 39.6253 33.316 38.5933 33.316C36.8173 33.316 35.4613 34.636 35.4613 36.688ZM41.0293 36.7C41.0293 38.248 39.9973 39.148 38.7973 39.148C37.5973 39.148 36.5773 38.236 36.5773 36.688C36.5773 35.14 37.5973 34.264 38.7973 34.264C39.9973 34.264 41.0293 35.176 41.0293 36.7ZM48.2699 35.608V32.536H49.8779C51.1259 32.536 51.6539 33.112 51.6539 34.084C51.6539 35.02 51.1259 35.608 49.8779 35.608H48.2699ZM52.7699 34.084C52.7699 32.716 51.8459 31.636 49.8779 31.636H47.1779V40H48.2699V36.508H49.8779C51.9539 36.508 52.7699 35.356 52.7699 34.084ZM54.1271 40H55.2191V33.424H54.1271V40ZM54.6911 32.356C55.0871 32.356 55.4111 32.032 55.4111 31.612C55.4111 31.192 55.0871 30.868 54.6911 30.868C54.2711 30.868 53.9471 31.192 53.9471 31.612C53.9471 32.032 54.2711 32.356 54.6911 32.356ZM56.6723 36.7C56.6723 38.788 58.0043 40.108 59.8763 40.108C61.5083 40.108 62.5763 39.196 62.9123 37.888H61.7363C61.4963 38.716 60.8483 39.184 59.8763 39.184C58.6763 39.184 57.7883 38.332 57.7883 36.7C57.7883 35.092 58.6763 34.24 59.8763 34.24C60.8483 34.24 61.5083 34.744 61.7363 35.536H62.9123C62.5763 34.156 61.5083 33.316 59.8763 33.316C58.0043 33.316 56.6723 34.636 56.6723 36.7ZM64.6093 38.2C64.6093 39.52 65.2693 40 66.4333 40H67.4173V39.076H66.6133C65.9413 39.076 65.7013 38.848 65.7013 38.2V34.324H67.4173V33.424H65.7013V31.768H64.6093V33.424H63.7573V34.324H64.6093V38.2ZM74.5724 33.424H73.4804V37.036C73.4804 38.452 72.7244 39.148 71.5964 39.148C70.4924 39.148 69.7604 38.464 69.7604 37.132V33.424H68.6804V37.276C68.6804 39.16 69.8684 40.096 71.3804 40.096C72.2564 40.096 73.0604 39.712 73.4804 39.028V40H74.5724V33.424ZM77.5082 36.424C77.5082 34.9 78.3002 34.432 79.3442 34.432H79.6322V33.304C78.5882 33.304 77.8802 33.76 77.5082 34.492V33.424H76.4162V40H77.5082V36.424ZM83.6888 34.24C84.8168 34.24 85.7768 34.948 85.7648 36.232H81.6128C81.7327 34.948 82.6208 34.24 83.6888 34.24ZM86.7608 37.972H85.5848C85.3448 38.68 84.7208 39.184 83.7368 39.184C82.6208 39.184 81.6848 38.452 81.6008 37.12H86.8568C86.8808 36.892 86.8928 36.7 86.8928 36.46C86.8928 34.66 85.6448 33.316 83.7368 33.316C81.8168 33.316 80.4848 34.624 80.4848 36.7C80.4848 38.788 81.8648 40.108 83.7368 40.108C85.3688 40.108 86.4248 39.172 86.7608 37.972Z" fill="white"/>
</svg>
