<svg width="32" height="26" viewBox="0 0 32 26" fill="none" xmlns="http://www.w3.org/2000/svg">
<path d="M0 17.2446C0.177604 16.9091 0.451277 16.8036 0.823438 16.8052C3.31555 16.8184 5.80766 16.8118 8.29976 16.8118H8.6687C8.64448 16.3889 8.58797 15.9982 8.60653 15.6116C8.64044 14.9241 8.70664 14.2375 8.78737 13.5508C8.83661 13.1386 9.14984 12.9128 9.50586 12.9787C9.86187 13.0447 10.0532 13.3711 9.97328 13.7833C9.79835 14.6632 9.76318 15.5661 9.86914 16.4574C9.88286 16.5686 9.90466 16.6783 9.92565 16.8085H17.3834C17.963 16.8085 18.1794 17.0228 18.1592 17.6098C18.0785 19.9352 17.1549 21.8608 15.5105 23.4452C15.4443 23.5086 15.3765 23.5704 15.3119 23.6347C15.2971 23.6572 15.2854 23.6816 15.2772 23.7073C16.1555 24.1387 17.0926 24.4325 18.0567 24.5786C20.64 24.9809 23.0893 24.558 25.3272 23.1583C27.6683 21.6951 29.228 19.6203 29.6655 16.811C30.1499 13.714 29.1335 11.1149 26.9442 8.96837C26.1273 8.18226 25.1802 7.55063 24.1469 7.10293C23.6375 6.87542 23.6375 6.87624 23.1111 7.21669C23.3138 7.65358 23.5196 8.09542 23.7239 8.5356C23.7933 8.68481 23.8652 8.83237 23.9281 8.98322C24.1267 9.46215 23.8934 9.87183 23.3872 9.90233C21.993 9.98477 20.7329 9.61712 19.6487 8.72026C19.1449 9.04092 18.6622 9.37395 18.1544 9.66328C17.6013 9.98835 16.9803 10.174 16.3428 10.2049C15.8068 10.2263 15.5145 9.979 15.5799 9.43329C15.6502 8.84638 15.8221 8.27182 15.9593 7.6948C16.0177 7.49304 16.0867 7.29463 16.166 7.10046C16.0441 6.89273 15.9012 6.90427 15.7172 6.98176C14.5927 7.44801 13.5602 8.11828 12.6696 8.96013C12.5889 9.03762 12.5082 9.1184 12.4226 9.18765C12.3062 9.28912 12.156 9.34115 12.0032 9.33303C11.8503 9.3249 11.7063 9.25723 11.6008 9.14396C11.5458 9.08662 11.5026 9.01872 11.4735 8.94418C11.4445 8.86964 11.4302 8.78995 11.4316 8.70974C11.4329 8.62952 11.4498 8.55038 11.4814 8.4769C11.5129 8.40343 11.5585 8.33708 11.6153 8.28172C11.8478 8.02399 12.1047 7.79039 12.3822 7.58434C13.1266 7.07738 13.8927 6.60339 14.6507 6.11787C14.725 6.07006 14.8057 6.03543 14.8396 6.014C14.5765 5.50622 14.3036 5.02481 14.0767 4.53022C13.8636 4.05953 14.0638 3.71084 14.5611 3.58224C15.8899 3.23768 17.2002 3.34154 18.5015 3.73145C18.6363 3.77184 18.7752 3.79987 18.9132 3.83037C19.0109 3.8518 19.1094 3.86746 19.2523 3.89384C19.2523 3.41738 19.2523 2.95906 19.2523 2.50156C19.262 1.20407 20.087 0.224773 21.3424 0.021165C21.4518 0.00347452 21.5627 -0.00315134 21.6734 0.00138204C21.8315 0.00368903 21.9827 0.0685472 22.095 0.182312C22.2073 0.296076 22.2721 0.449883 22.2756 0.611384C22.2735 0.767808 22.2145 0.917844 22.1101 1.03228C22.0056 1.14672 21.8632 1.21736 21.7105 1.23045C20.8023 1.3475 20.4608 1.74153 20.46 2.67301V3.88065C21.0251 3.74628 21.5611 3.61274 22.098 3.49239C22.9489 3.29787 23.8317 3.30097 24.6813 3.50146C25.1657 3.61604 25.3514 3.94989 25.1657 4.42223C24.9728 4.91683 24.754 5.40317 24.5352 5.9192C24.6159 5.95712 24.7128 6.00164 24.8097 6.0511C27.812 7.51674 29.8641 9.81331 30.7223 13.1403C30.849 13.6349 30.9104 14.1451 31.0016 14.648V16.1936C30.9802 16.2504 30.9639 16.3092 30.9532 16.3692C30.6351 19.4422 29.2102 21.8987 26.7666 23.6496C22.8552 26.4523 18.6823 26.6938 14.3682 24.6388C14.2067 24.5629 14.0937 24.5423 13.9282 24.6388C11.4103 26.0879 8.75265 26.3814 6.02078 25.4499C3.21383 24.4937 1.24404 22.6019 0.328568 19.6796C0.16711 19.1743 0.108178 18.6377 0.00565163 18.1134L0 17.2446ZM3.70466 18.0689C3.89115 19.983 5.88435 22.2136 9.00291 22.2532C12.1409 22.2927 14.2503 20.0803 14.461 18.0689H3.70466ZM15.7196 18.0689C15.2917 21.1915 12.6034 23.2943 9.53815 23.4831C7.91872 23.5828 6.41151 23.1962 5.06333 22.2598C3.61021 21.25 2.70443 19.8692 2.45013 18.0796H1.24807C1.35334 19.2525 1.76206 20.3756 2.43237 21.3341C4.40378 24.2076 8.25375 25.4697 11.6557 24.3264C14.1107 23.502 15.8641 21.9045 16.6722 19.3417C16.7989 18.9377 16.853 18.5107 16.9467 18.0689H15.7196ZM15.4257 4.69673C15.6986 4.99596 15.9101 5.26386 16.1587 5.49303C16.434 5.74857 16.7465 5.96207 17.0322 6.20607C17.5594 6.65697 17.5812 6.76661 17.3463 7.42607C17.1848 7.88522 17.0234 8.34766 16.8417 8.88347C17.0234 8.82165 17.1259 8.79444 17.2228 8.75405C17.9606 8.44658 18.5871 7.96518 19.195 7.45162C19.5179 7.18042 19.8021 7.19443 20.1129 7.4813C20.1799 7.54312 20.242 7.61072 20.3098 7.67254C20.8871 8.20676 21.6132 8.54364 22.387 8.63617C22.3887 8.60634 22.3866 8.5764 22.3805 8.54715C22.1965 8.14652 22.0119 7.74645 21.8267 7.34693C21.5264 6.69901 21.6411 6.41709 22.3111 6.19288C23.0684 5.94558 23.4688 5.36855 23.7642 4.61677C22.588 4.48818 21.5531 4.96546 20.4786 5.13692C20.3922 5.97855 20.2606 6.21761 19.8634 6.20854C19.7318 6.20854 19.5308 6.16238 19.484 6.07088C19.3403 5.79555 19.2571 5.48808 19.1288 5.13609C18.0026 4.94567 16.8215 4.41069 15.4257 4.68931V4.69673Z" fill="#252525"/>
</svg>
