<svg width="26" height="27" viewBox="0 0 26 27" fill="none" xmlns="http://www.w3.org/2000/svg">
<path d="M11.1244 0.250816C11.2322 0.294219 11.3421 0.332874 11.4465 0.386449C12.0067 0.657717 12.3112 1.09989 12.3424 1.72177C12.3532 1.94827 12.3424 2.17614 12.3424 2.41689C12.4597 2.42977 12.5587 2.43519 12.6557 2.45283C13.0096 2.51186 13.3308 2.69512 13.5618 2.96968C13.7927 3.24425 13.9182 3.59214 13.9157 3.95091C13.9218 4.66163 13.9232 5.37505 13.9157 6.08238C13.9123 6.47622 13.7538 6.85283 13.4745 7.1305C13.1951 7.40816 12.8176 7.56448 12.4238 7.56554C11.4852 7.57232 10.5459 7.56554 9.60732 7.56554H9.31164V11.1788C11.5428 9.72211 13.7964 9.66854 16.1062 11.0215C16.1523 10.6736 16.1876 10.3162 16.25 9.96422C16.3999 9.12193 16.6793 8.33051 17.2238 7.6537C17.3056 7.54602 17.3986 7.44736 17.5012 7.35938C17.5341 7.32887 17.5728 7.3052 17.615 7.28977C17.6572 7.27433 17.702 7.26742 17.7468 7.26944C17.7917 7.27146 17.8357 7.28237 17.8763 7.30153C17.9169 7.32069 17.9533 7.34773 17.9834 7.38108C18.1312 7.51671 18.1604 7.68964 18.0431 7.86054C17.9569 7.986 17.8471 8.09384 17.7562 8.21591C17.1384 9.04327 16.9648 10.0056 16.8922 11.0574C17 10.9896 17.0672 10.9489 17.1363 10.9089C18.9104 9.87809 20.7408 9.76213 22.6254 10.58C22.9014 10.7 22.9815 10.894 22.8709 11.1225C22.7672 11.3382 22.5834 11.3836 22.3121 11.271C20.316 10.4414 18.485 10.7156 16.819 12.0937C16.5789 12.293 16.4168 12.2971 16.1747 12.0781C13.5014 9.67668 9.4154 10.9198 8.16282 13.8671C7.66098 15.0491 7.66776 16.2515 8.02719 17.4614C8.74333 19.8912 9.83993 22.1211 11.5537 24.007C11.9208 24.4044 12.3374 24.7529 12.7934 25.044C13.8181 25.7072 15.11 25.5973 16.0798 24.8229C16.4778 24.5048 16.526 24.5109 16.9254 24.8229C17.9054 25.5797 18.9599 25.6557 20.0701 25.1443C20.7056 24.8545 21.2547 24.4041 21.6631 23.8375C23.0445 21.9285 24.2937 19.9441 24.9556 17.6506C25.3625 16.2468 25.3829 14.8579 24.6701 13.5388C24.4395 13.1123 24.114 12.7366 23.8204 12.3459C23.6488 12.1181 23.663 11.878 23.8882 11.7356C24.0801 11.6149 24.2402 11.6739 24.3846 11.8265C25.1659 12.6336 25.6928 13.6527 25.8996 14.7568C25.9322 14.9291 25.9674 15.1013 26 15.2729V16.339C25.8881 16.8754 25.8115 17.4241 25.6609 17.9456C25.0241 20.1239 23.8943 22.0499 22.5692 23.8707C22.1094 24.5028 21.6089 25.0914 20.9504 25.535C19.5676 26.4607 18.0342 26.4749 16.6487 25.556C16.5131 25.4671 16.4453 25.5119 16.3415 25.5804C15.4369 26.1819 14.4494 26.3983 13.3935 26.1229C12.9432 26.0056 12.5194 25.7838 12.0569 25.6001C11.6968 26.1107 11.1413 26.2267 10.5188 26.2247C8.07398 26.2152 5.62919 26.2213 3.18372 26.2206C3.12449 26.2206 3.06548 26.2179 3.00671 26.2125C2.17934 26.1446 1.59273 25.5072 1.58595 24.6791C1.58595 24.4716 1.58595 24.2634 1.58595 24.0593C0.510373 23.9847 -0.0565722 23.1932 0.00446292 22.2906C0.0444748 21.7094 0.0112443 21.1235 0.0126006 20.5396C0.0126006 19.5223 0.635833 18.9018 1.66122 18.8998C2.55776 18.8998 3.4543 18.8998 4.35152 18.8998C4.44036 18.8998 4.52987 18.8909 4.61871 18.8869V7.56147H4.32711C3.39666 7.56147 2.46621 7.56554 1.53576 7.56147C1.33647 7.5639 1.13867 7.52669 0.953882 7.45201C0.76909 7.37734 0.600986 7.26669 0.459329 7.12648C0.317672 6.98628 0.205287 6.81931 0.128714 6.6353C0.05214 6.45129 0.0129052 6.25389 0.0132794 6.05458C0.0078541 5.34431 0.0078541 4.63382 0.0132794 3.9231C0.0168221 3.59058 0.130202 3.26856 0.335774 3.00718C0.541345 2.7458 0.827574 2.55972 1.14989 2.47792C1.28552 2.44265 1.42726 2.42977 1.58595 2.404C1.58595 2.17342 1.57645 1.94624 1.58595 1.71973C1.6185 1.087 1.93181 0.638728 2.50283 0.369495C2.59981 0.324058 2.70154 0.288791 2.80123 0.248779L11.1244 0.250816ZM6.93534 6.80328C8.7361 6.80328 10.5369 6.80328 12.3376 6.80328C12.8537 6.80328 13.1555 6.50082 13.1569 5.98541C13.1569 5.33437 13.1569 4.68332 13.1569 4.03228C13.1569 3.48568 12.8598 3.19407 12.3058 3.19407H1.60358C1.07461 3.19407 0.771465 3.49789 0.770109 4.02618C0.770109 4.65914 0.770109 5.29209 0.770109 5.92505C0.770109 6.50895 1.05765 6.79989 1.63681 6.79989L6.93534 6.80328ZM2.34279 24.0457C2.34279 24.2403 2.34279 24.4078 2.34279 24.5754C2.34279 25.1701 2.631 25.457 3.22983 25.4624C3.98259 25.4624 4.73536 25.4624 5.48813 25.4624C7.23916 25.4624 8.98996 25.461 10.7405 25.4583C11.0471 25.4583 11.3034 25.3722 11.4655 25.1023C11.2064 24.8012 10.9453 24.5136 10.7053 24.2091C10.6647 24.1517 10.61 24.1058 10.5464 24.0759C10.4828 24.0459 10.4125 24.033 10.3425 24.0382C9.34487 24.0457 8.3466 24.0443 7.34834 24.045C6.93398 24.045 6.51962 24.045 6.10526 24.045C5.88825 24.045 5.72481 23.9603 5.6909 23.7215C5.65292 23.4503 5.80618 23.2875 6.10933 23.2868C7.16659 23.2868 8.22386 23.2868 9.28112 23.2868H9.98913C9.96809 23.2362 9.94408 23.1868 9.91724 23.139C9.19883 22.0842 8.56719 20.9729 8.02855 19.816C8.00094 19.7749 7.96426 19.7407 7.92135 19.716C7.87843 19.6913 7.83042 19.6768 7.78101 19.6736C5.71757 19.6654 3.65391 19.6638 1.59002 19.6688C1.07122 19.6688 0.772143 19.9753 0.76943 20.4914C0.76943 21.1018 0.794524 21.7121 0.761971 22.3177C0.726707 22.9756 1.12954 23.314 1.72904 23.2936C2.52318 23.2672 3.31867 23.2855 4.11348 23.2889C4.42137 23.2889 4.58345 23.4767 4.52038 23.7527C4.46952 23.9887 4.2932 24.0484 4.08093 24.0484L2.34279 24.0457ZM7.6325 18.8869C7.49686 18.4257 7.35377 17.9863 7.24187 17.5387C6.73935 15.5347 7.0608 13.703 8.39476 12.0842C8.45483 11.9963 8.48503 11.8914 8.48089 11.7851C8.48699 10.4572 8.48495 9.13007 8.48427 7.80222C8.48427 7.72965 8.4741 7.65642 8.46868 7.57978H5.46032V18.8869H7.6325ZM11.5869 2.42095C11.5869 2.22496 11.5869 2.05678 11.5869 1.88791C11.5869 1.30198 11.3 1.0124 10.7195 1.0124H6.35076C5.28536 1.0124 4.21995 1.0124 3.15387 1.0124C2.73341 1.0124 2.41602 1.24026 2.36313 1.61597C2.3265 1.87774 2.35635 2.14833 2.35635 2.42027L11.5869 2.42095Z" fill="#252525"/>
<path d="M21.2378 17.8547C21.4588 17.8547 21.6616 17.8479 21.8637 17.8547C22.1058 17.8648 22.2367 17.9903 22.2462 18.2066C22.2557 18.423 22.1248 18.5905 21.8807 18.6054C21.6094 18.6224 21.3381 18.6054 21.0669 18.6183C21.0244 18.6194 20.9827 18.6296 20.9445 18.648C20.9062 18.6665 20.8724 18.6929 20.8451 18.7254C20.2592 19.7834 19.4006 20.5965 18.4715 21.3316C17.9419 21.7494 17.3647 22.1054 16.8073 22.4845C16.7254 22.5456 16.6263 22.5792 16.5241 22.5807C16.422 22.5821 16.322 22.5513 16.2383 22.4927C14.7084 21.5622 13.3127 20.4853 12.3219 18.9567C12.2923 18.9207 12.2557 18.8912 12.2143 18.8698C12.1729 18.8485 12.1276 18.8358 12.0811 18.8326C11.7943 18.817 11.5061 18.8326 11.2185 18.8251C10.9472 18.8211 10.7736 18.6705 10.773 18.4447C10.7723 18.2189 10.9445 18.071 11.2185 18.0656C11.422 18.0615 11.6254 18.0615 11.8289 18.0595C11.8404 18.0573 11.8518 18.0542 11.8628 18.05C11.3786 16.5112 11.5406 15.1644 13.0774 14.2916C13.923 13.8108 15.3309 13.7565 16.536 15.1142C17.0616 14.4923 17.7093 14.0807 18.5346 14.0095C19.0952 13.9586 19.6572 14.0907 20.1364 14.3859C21.2391 15.0552 21.5775 16.0948 21.2378 17.8547ZM16.9205 18.9737C17.048 18.6834 17.1647 18.4501 17.2542 18.2073C17.3492 17.9469 17.5139 17.8445 17.792 17.8486C18.5949 17.8608 19.3986 17.8486 20.2022 17.856C20.3534 17.856 20.4423 17.8181 20.4735 17.6648C20.5325 17.3413 20.6349 17.0205 20.6478 16.6964C20.6973 15.4906 19.5912 14.569 18.4098 14.8029C17.712 14.9386 17.2393 15.3726 16.8805 15.9558C16.673 16.2949 16.3502 16.2854 16.1501 15.9429C16.0809 15.817 16.0017 15.6969 15.9135 15.5835C15.3709 14.927 14.686 14.6341 13.8457 14.8185C13.0828 14.9881 12.5993 15.4831 12.4311 16.2427C12.2995 16.8422 12.4392 17.4193 12.6881 17.9679C12.7118 18.0195 12.8197 18.0588 12.8915 18.0595C13.4666 18.0669 14.0444 18.0703 14.6168 18.0595C14.6653 18.0525 14.7117 18.0349 14.7526 18.0079C14.7935 17.981 14.8279 17.9453 14.8535 17.9035C15.0285 17.5644 15.1851 17.2192 15.3411 16.8727C15.4204 16.695 15.5296 16.577 15.7405 16.5851C15.9514 16.5933 16.0457 16.7282 16.1142 16.9073C16.2919 17.3725 16.4777 17.835 16.6601 18.2982C16.7354 18.5091 16.8188 18.718 16.9205 18.9737ZM13.1981 18.8299C13.1994 18.8512 13.2028 18.8723 13.2083 18.893C14.0594 20.0852 15.1966 20.9525 16.4262 21.7121C16.4627 21.7245 16.5014 21.7287 16.5397 21.7245C16.5781 21.7203 16.615 21.7077 16.6479 21.6877C17.7405 21.0149 18.7462 20.2364 19.564 19.2375C19.716 19.0523 19.8482 18.8509 20.0198 18.6149C19.3145 18.6149 18.6736 18.6095 18.0321 18.623C17.9642 18.623 17.8686 18.7234 17.8334 18.7994C17.6428 19.2124 17.4631 19.6315 17.2861 20.0513C17.2115 20.2303 17.107 20.3558 16.8968 20.3544C16.6866 20.3531 16.5828 20.2235 16.5136 20.0438C16.3319 19.5691 16.1454 19.1005 15.9603 18.6291C15.8755 18.4128 15.7894 18.1965 15.689 17.9333C15.5832 18.1571 15.4944 18.3274 15.4177 18.5044C15.3221 18.7363 15.1607 18.8373 14.9071 18.8333C14.3428 18.8231 13.7779 18.8299 13.2001 18.8299H13.1981Z" fill="#252525"/>
</svg>
