<svg width="24" height="24" viewBox="0 0 24 24" fill="none" xmlns="http://www.w3.org/2000/svg">
<path d="M24.001 18.5156V5.48438C23.986 5.41687 23.9665 5.35 23.9565 5.28187C23.5853 2.8475 22.2481 1.1875 19.9432 0.334375C19.4893 0.165625 18.9941 0.10875 18.5184 0H5.49172C5.44064 0.0172729 5.38832 0.0306448 5.33521 0.04C2.31597 0.39125 0.0285225 2.9 0.0141239 5.93188C-0.00465584 9.98521 -0.00465584 14.0383 0.0141239 18.0913C0.0260181 20.735 1.82642 23.0562 4.37366 23.7669C4.73925 23.8694 5.11799 23.9237 5.49109 24H18.5184C18.5693 23.9829 18.6214 23.9693 18.6742 23.9594C19.8623 23.8271 20.9833 23.3423 21.8925 22.5674C22.8016 21.7925 23.4572 20.7632 23.7744 19.6125C23.8758 19.2537 23.9265 18.8813 24.001 18.5156ZM1.13343 12C1.13343 10.0387 1.13343 8.07812 1.13343 6.1175C1.12788 5.81314 1.14883 5.50887 1.19603 5.20813C1.64113 2.78063 3.61682 1.125 6.07766 1.125C10.029 1.1225 13.9806 1.1225 17.9324 1.125C18.2211 1.12148 18.5096 1.14344 18.7944 1.19062C21.2196 1.62812 22.8742 3.6075 22.8754 6.06563C22.8779 10.019 22.8779 13.9719 22.8754 17.9244C22.8778 18.2056 22.8568 18.4866 22.8128 18.7644C22.4097 21.1675 20.402 22.8663 17.9556 22.8694C13.9884 22.8744 10.0211 22.8731 6.05387 22.8656C5.68727 22.8668 5.32163 22.8282 4.96337 22.7506C2.69721 22.2425 1.1447 20.2956 1.13405 17.9719C1.12905 15.9837 1.13343 13.9919 1.13343 12Z" fill="#A9A9A9"/>
<path d="M6.95906 12.5819H5.83224V18.1725H11.4181V17.0712H7.84987L17.0604 7.85938V11.4094H18.1753V5.82812H12.595V6.9375H16.2059L6.95906 16.1875V12.5819Z" fill="#A9A9A9"/>
</svg>
