<svg width="26" height="31" viewBox="0 0 26 31" fill="none" xmlns="http://www.w3.org/2000/svg">
<path d="M7.78251 28.5973C6.69172 28.4806 5.5979 28.3646 4.50105 28.2492C4.00384 28.1974 3.50571 28.1567 3.0094 28.0965C1.73136 27.9401 1.00962 26.8702 1.28231 25.542C1.39991 24.9723 1.68981 24.4544 2.11132 24.0611C1.99224 24.037 1.91043 24.024 1.82953 24.0046C0.920535 23.7936 0.299696 23.2493 0.0742658 22.321C-0.146619 21.4084 0.129714 20.63 0.843272 20.033C1.57956 19.4166 2.31857 18.8029 3.08121 18.2198C3.5357 17.8764 3.7575 17.4451 3.84567 16.8907C3.97929 16.0494 4.11201 15.2034 4.32107 14.3787C4.63808 13.1569 5.32357 12.0671 6.28098 11.263C7.23838 10.4588 8.41944 9.98077 9.65776 9.8962C10.0641 9.86843 10.4759 9.87213 10.8822 9.88509C11.3149 9.89805 11.5566 10.1248 11.5394 10.4626C11.5221 10.8005 11.2667 10.9782 10.8331 10.9985C10.2341 11.0263 9.61686 10.9985 9.04056 11.13C6.9826 11.6168 5.73637 12.9589 5.28097 15.0479C5.11644 15.8013 5.001 16.5667 4.86829 17.3276C4.77091 17.9598 4.44229 18.5312 3.94839 18.9269C3.13939 19.5813 2.32947 20.2329 1.52774 20.8966C1.33721 21.0466 1.20081 21.2566 1.1398 21.4938C1.0788 21.7311 1.09663 21.9822 1.19051 22.2081C1.27413 22.4316 1.42788 22.6209 1.6279 22.7464C1.82792 22.8719 2.06303 22.9267 2.29675 22.9022C2.53111 22.8699 2.75387 22.7786 2.94486 22.6366C4.00838 21.8267 5.05463 20.9947 6.10906 20.1718C6.41972 19.9348 6.63983 19.5952 6.73172 19.2111C7.09532 17.7829 7.47164 16.3576 7.84524 14.9322C7.9625 14.487 8.15702 14.301 8.46426 14.326C8.7715 14.3509 8.94239 14.5685 8.97693 15.022C9.12782 17.0126 9.27932 19.0035 9.43143 20.9947C9.48687 21.7277 9.25781 22.1053 8.57606 22.383C6.83444 23.1105 5.09281 23.8371 3.35118 24.5627C2.70761 24.8321 2.39219 25.355 2.33493 26.0371C2.29311 26.5342 2.53581 26.9007 3.01576 26.9627C4.63649 27.1617 6.26268 27.3218 7.90796 27.4986C8.28973 26.3602 9.13691 25.8215 10.2141 25.5549C10.6983 25.4319 11.1717 25.2681 11.6294 25.0653L8.22792 24.5729C8.05976 24.5488 7.89068 24.5275 7.72161 24.5016C7.33075 24.4424 7.12895 24.198 7.17622 23.8537C7.22348 23.5335 7.48164 23.3549 7.86523 23.4067C8.72059 23.5215 9.57414 23.6464 10.4286 23.7695C11.6312 23.9417 12.8329 24.1203 14.0364 24.2841C14.1933 24.3005 14.3518 24.2848 14.5027 24.2378C15.4608 23.9546 16.4116 23.6612 17.3724 23.3706C17.4908 23.327 17.6208 23.3289 17.7379 23.3759C17.8551 23.423 17.9513 23.5119 18.0087 23.626C18.0748 23.7228 18.1034 23.841 18.089 23.9579C18.0745 24.0748 18.0181 24.1821 17.9305 24.2591C17.7994 24.3675 17.6468 24.4458 17.4833 24.4887C15.0296 25.2421 12.5753 25.9924 10.1204 26.7397C9.16782 27.0312 8.67696 27.8716 8.93239 28.7537C9.04103 29.1541 9.30079 29.4945 9.65499 29.7007C10.0092 29.9069 10.4291 29.962 10.8231 29.8542C12.5565 29.3914 14.2845 28.9092 16.0143 28.4344C16.1452 28.3983 16.2743 28.3501 16.4079 28.3261C16.5426 28.2972 16.683 28.3212 16.801 28.3933C16.919 28.4654 17.0059 28.5802 17.0442 28.7148C17.0848 28.8495 17.0712 28.995 17.0064 29.1194C16.9417 29.2439 16.831 29.337 16.6988 29.3784C16.3779 29.4904 16.0452 29.5636 15.7171 29.6561C14.2509 30.0624 12.7865 30.4743 11.3185 30.8723C9.61231 31.3351 8.21974 30.4873 7.81433 28.7481C7.81342 28.7074 7.80251 28.6639 7.78251 28.5973ZM8.12793 18.429L8.07521 18.4188C8.02612 18.6039 7.96977 18.7835 7.92977 18.9686C7.71343 19.9608 7.28711 20.8058 6.39085 21.351C6.11088 21.5213 5.86636 21.7536 5.60639 21.9582L4.55287 22.7912C5.7891 22.346 6.9926 21.8471 8.18883 21.3362C8.22742 21.3117 8.25969 21.2782 8.28294 21.2384C8.30619 21.1987 8.31974 21.1538 8.32246 21.1076C8.27155 20.2135 8.19974 19.3212 8.13157 18.429H8.12793Z" fill="white"/>
<path d="M23.2353 24.1712C23.7662 24.8876 23.9125 25.6743 23.6189 26.5184C23.3862 27.1886 22.9435 27.6624 22.2554 27.8577C21.141 28.1724 20.0254 28.481 18.9085 28.7833C18.5031 28.8935 18.2095 28.7343 18.1313 28.3872C18.0604 28.0725 18.2522 27.8124 18.6504 27.7032C19.6785 27.4181 20.7092 27.1423 21.7364 26.8544C22.3536 26.6823 22.6363 26.3583 22.6681 25.8187C22.6901 25.5403 22.6238 25.2621 22.479 25.0249C22.3342 24.7876 22.1185 24.6039 21.8637 24.5007C20.073 23.7442 18.2813 22.9902 16.4888 22.2386C15.7998 21.9489 15.6089 21.6564 15.6089 20.891C15.6089 18.9516 15.6089 17.0123 15.6089 15.0729C15.6089 15.0035 15.6089 14.9341 15.6089 14.8656C15.6298 14.5148 15.8125 14.2797 16.1007 14.2593C16.4188 14.2371 16.6097 14.4102 16.6979 14.7128C16.9821 15.697 17.2675 16.6809 17.5541 17.6645C17.7559 18.3605 17.9659 19.0528 18.1568 19.7535C18.2548 20.1366 18.4886 20.4693 18.8131 20.6874C19.8366 21.3945 20.8538 22.11 21.8782 22.8162C22.4909 23.2392 23.219 23.1383 23.6453 22.5839C24.0607 22.0433 23.9889 21.3094 23.4526 20.8114C22.6563 20.071 21.854 19.3379 21.0456 18.6123C20.6401 18.2559 20.3453 17.787 20.1975 17.2628C19.9248 16.3002 19.6521 15.3357 19.3367 14.3861C18.6622 12.3499 16.8606 11.0254 14.7481 10.9902C14.26 10.9828 13.7709 10.9902 13.2828 10.9902C12.891 10.9847 12.6465 10.7542 12.6519 10.4201C12.6574 10.0859 12.8946 9.88231 13.2773 9.88601C14.24 9.89527 15.2108 9.80086 16.157 10.0711C18.3686 10.6977 19.8021 12.1416 20.4811 14.363C20.7302 15.1775 20.9689 15.9951 21.1974 16.8157C21.3069 17.2293 21.5378 17.5991 21.8591 17.8755C22.6136 18.541 23.3308 19.2518 24.098 19.9016C25.6751 21.2409 25.0597 23.5927 23.3262 24.1037C23.293 24.1218 23.2624 24.1445 23.2353 24.1712ZM16.7379 18.8955H16.6988C16.6988 19.5795 16.6988 20.2625 16.7042 20.9465C16.7066 20.9893 16.7187 21.031 16.7395 21.0682C16.7603 21.1055 16.7893 21.1373 16.8242 21.1613C17.3696 21.4028 17.915 21.6241 18.4677 21.8592C17.9977 21.4954 17.5332 21.14 17.316 20.5634C17.1033 20.021 16.926 19.4573 16.7342 18.8992L16.7379 18.8955Z" fill="white"/>
<path d="M12.3966 9.14094C9.93409 9.14094 7.8925 7.11117 7.87886 4.63899C7.86432 2.02611 9.82502 0.0111524 12.3838 4.55697e-05C14.9426 -0.0110612 16.9079 2.00945 16.8942 4.62788C16.8815 7.11117 14.8636 9.13724 12.3966 9.14094ZM15.8025 4.58067C15.8435 2.72954 14.3373 1.13849 12.5038 1.08851C10.6095 1.03668 9.02238 2.54813 8.97147 4.45202C8.95319 4.90941 9.02533 5.36589 9.1836 5.79436C9.34187 6.22283 9.58306 6.61456 9.89284 6.94631C10.2026 7.27807 10.5747 7.54307 10.987 7.72561C11.3993 7.90816 11.8434 8.00452 12.2929 8.00898C14.2718 8.05711 15.7571 6.60581 15.8025 4.58067Z" fill="white"/>
</svg>
