<svg width="14" height="14" viewBox="0 0 14 14" fill="none" xmlns="http://www.w3.org/2000/svg">
<path d="M10.6827 13.3344C10.1017 13.3344 9.28554 13.1243 8.06339 12.4415C6.57722 11.6081 5.4277 10.8386 3.94957 9.36439C2.52442 7.94013 1.8309 7.01801 0.860262 5.25176C-0.23628 3.2575 -0.0493563 2.21216 0.159594 1.76538C0.408429 1.2314 0.775729 0.912021 1.25048 0.595024C1.52014 0.418349 1.8055 0.2669 2.10295 0.142596C2.13272 0.129797 2.1604 0.117593 2.1851 0.10658C2.33244 0.0402042 2.55568 -0.0601038 2.83844 0.0470502C3.02715 0.117891 3.19562 0.262846 3.45934 0.52329C4.00017 1.05668 4.73924 2.2446 5.01188 2.82799C5.19494 3.22119 5.31608 3.48074 5.31638 3.77184C5.31638 4.11265 5.14493 4.37548 4.93687 4.65914C4.89788 4.71242 4.85919 4.76331 4.82168 4.81272C4.59517 5.11037 4.54547 5.19639 4.57821 5.34998C4.64458 5.65864 5.13957 6.57749 5.95305 7.38918C6.76653 8.20087 7.65888 8.66461 7.96874 8.73069C8.12887 8.76492 8.21668 8.71313 8.52385 8.47858C8.56791 8.44495 8.61315 8.41012 8.66047 8.3753C8.97777 8.13926 9.22839 7.97228 9.56116 7.97228H9.56295C9.85256 7.97228 10.1005 8.09789 10.5113 8.30505C11.047 8.57532 12.2707 9.30486 12.8073 9.84628C13.0684 10.1094 13.2139 10.2773 13.2851 10.4657C13.3922 10.7494 13.2913 10.9717 13.2255 11.1205C13.2145 11.1452 13.2023 11.1723 13.1895 11.2024C13.0642 11.4993 12.9119 11.7841 12.7344 12.0531C12.418 12.5263 12.0974 12.8927 11.5623 13.1419C11.2875 13.2718 10.9867 13.3377 10.6827 13.3344Z" fill="#D0D0D0"/>
</svg>
