<svg width="14" height="15" viewBox="0 0 14 15" fill="none" xmlns="http://www.w3.org/2000/svg">
<path d="M9.22133 1.05545C8.5909 0.374819 7.71039 0 6.73851 0C5.76146 0 4.87803 0.372551 4.25052 1.04897C3.61621 1.73285 3.30716 2.66228 3.37972 3.6659C3.52356 5.64593 5.03029 7.25665 6.73851 7.25665C8.44674 7.25665 9.95088 5.64626 10.097 3.66655C10.1705 2.672 9.85952 1.74451 9.22133 1.05545Z" fill="#D0D0D0"/>
<path d="M12.4402 14.5133H1.03685C0.887591 14.5152 0.739776 14.4839 0.60416 14.4215C0.468544 14.3591 0.348538 14.2673 0.252872 14.1527C0.0422998 13.901 -0.0425771 13.5573 0.0202707 13.2097C0.293691 11.6929 1.147 10.4188 2.48818 9.52434C3.6797 8.73032 5.18901 8.2933 6.7385 8.2933C8.28799 8.2933 9.79731 8.73065 10.9888 9.52434C12.33 10.4185 13.1833 11.6926 13.4567 13.2094C13.5196 13.557 13.4347 13.9007 13.2241 14.1524C13.1285 14.267 13.0085 14.3589 12.8729 14.4214C12.7373 14.4838 12.5894 14.5152 12.4402 14.5133Z" fill="#D0D0D0"/>
</svg>
