<svg width="125" height="20" viewBox="0 0 125 20" fill="none" xmlns="http://www.w3.org/2000/svg">
<path d="M21.233 4.81818H22.7045L26.1648 13.2699H26.2841L29.7443 4.81818H31.2159V15H30.0625V7.2642H29.9631L26.7812 15H25.6676L22.4858 7.2642H22.3864V15H21.233V4.81818ZM35.7761 15.179C35.2922 15.179 34.853 15.0878 34.4586 14.9055C34.0642 14.7199 33.751 14.4531 33.519 14.1051C33.287 13.7538 33.171 13.3295 33.171 12.8324C33.171 12.3949 33.2572 12.0402 33.4295 11.7685C33.6019 11.4934 33.8322 11.2779 34.1206 11.1222C34.4089 10.9664 34.7271 10.8504 35.0751 10.7741C35.4264 10.6946 35.7794 10.6316 36.1341 10.5852C36.5981 10.5256 36.9743 10.4808 37.2626 10.451C37.5543 10.4179 37.7664 10.3632 37.899 10.2869C38.0349 10.2107 38.1028 10.0781 38.1028 9.8892V9.84943C38.1028 9.3589 37.9686 8.97775 37.7001 8.70597C37.435 8.43419 37.0323 8.2983 36.492 8.2983C35.9319 8.2983 35.4927 8.42093 35.1745 8.66619C34.8564 8.91146 34.6326 9.1733 34.5034 9.4517L33.3897 9.05398C33.5886 8.58996 33.8538 8.22869 34.1852 7.97017C34.5199 7.70833 34.8845 7.52604 35.2789 7.4233C35.6767 7.31723 36.0678 7.2642 36.4522 7.2642C36.6975 7.2642 36.9792 7.29403 37.2974 7.35369C37.6189 7.41004 37.9288 7.5277 38.2271 7.70668C38.5287 7.88565 38.7789 8.15578 38.9778 8.51705C39.1767 8.87831 39.2761 9.36222 39.2761 9.96875V15H38.1028V13.9659H38.0431C37.9636 14.1316 37.831 14.3089 37.6454 14.4979C37.4598 14.6868 37.2129 14.8475 36.9047 14.9801C36.5964 15.1127 36.2202 15.179 35.7761 15.179ZM35.9551 14.125C36.4191 14.125 36.8102 14.0339 37.1284 13.8516C37.4499 13.6693 37.6918 13.4339 37.8542 13.1456C38.0199 12.8572 38.1028 12.554 38.1028 12.2358V11.1619C38.0531 11.2216 37.9437 11.2763 37.7747 11.326C37.609 11.3724 37.4167 11.4138 37.198 11.4503C36.9825 11.4834 36.7721 11.5133 36.5666 11.5398C36.3644 11.563 36.2003 11.5829 36.0744 11.5994C35.7695 11.6392 35.4844 11.7038 35.2193 11.7933C34.9574 11.8795 34.7453 12.0104 34.5829 12.1861C34.4238 12.3584 34.3443 12.5937 34.3443 12.892C34.3443 13.2997 34.4951 13.608 34.7967 13.8168C35.1016 14.0223 35.4877 14.125 35.9551 14.125ZM41.4176 15V7.36364H42.5511V8.51705H42.6307C42.7699 8.1392 43.0218 7.83262 43.3864 7.5973C43.7509 7.36198 44.1619 7.24432 44.6193 7.24432C44.7055 7.24432 44.8132 7.24597 44.9425 7.24929C45.0717 7.2526 45.1695 7.25758 45.2358 7.2642V8.45739C45.196 8.44744 45.1049 8.43253 44.9624 8.41264C44.8232 8.38944 44.6757 8.37784 44.5199 8.37784C44.1487 8.37784 43.8172 8.45573 43.5256 8.61151C43.2372 8.76397 43.0085 8.97609 42.8395 9.24787C42.6738 9.51634 42.5909 9.82292 42.5909 10.1676V15H41.4176ZM47.7203 12.2159L47.7005 10.7642H47.9391L51.28 7.36364H52.7317L49.1721 10.9631H49.0726L47.7203 12.2159ZM46.6266 15V4.81818H47.7999V15H46.6266ZM51.4789 15L48.4959 11.2216L49.3311 10.4062L52.9703 15H51.4789ZM60.4265 15.179C59.9426 15.179 59.5034 15.0878 59.109 14.9055C58.7146 14.7199 58.4014 14.4531 58.1694 14.1051C57.9374 13.7538 57.8214 13.3295 57.8214 12.8324C57.8214 12.3949 57.9076 12.0402 58.0799 11.7685C58.2522 11.4934 58.4826 11.2779 58.771 11.1222C59.0593 10.9664 59.3775 10.8504 59.7255 10.7741C60.0768 10.6946 60.4298 10.6316 60.7844 10.5852C61.2485 10.5256 61.6246 10.4808 61.913 10.451C62.2047 10.4179 62.4168 10.3632 62.5494 10.2869C62.6853 10.2107 62.7532 10.0781 62.7532 9.8892V9.84943C62.7532 9.3589 62.619 8.97775 62.3505 8.70597C62.0853 8.43419 61.6826 8.2983 61.1424 8.2983C60.5823 8.2983 60.1431 8.42093 59.8249 8.66619C59.5067 8.91146 59.283 9.1733 59.1538 9.4517L58.0401 9.05398C58.239 8.58996 58.5041 8.22869 58.8356 7.97017C59.1703 7.70833 59.5349 7.52604 59.9293 7.4233C60.3271 7.31723 60.7182 7.2642 61.1026 7.2642C61.3479 7.2642 61.6296 7.29403 61.9478 7.35369C62.2693 7.41004 62.5792 7.5277 62.8775 7.70668C63.1791 7.88565 63.4293 8.15578 63.6282 8.51705C63.8271 8.87831 63.9265 9.36222 63.9265 9.96875V15H62.7532V13.9659H62.6935C62.614 14.1316 62.4814 14.3089 62.2958 14.4979C62.1102 14.6868 61.8633 14.8475 61.555 14.9801C61.2468 15.1127 60.8706 15.179 60.4265 15.179ZM60.6055 14.125C61.0695 14.125 61.4606 14.0339 61.7788 13.8516C62.1003 13.6693 62.3422 13.4339 62.5046 13.1456C62.6703 12.8572 62.7532 12.554 62.7532 12.2358V11.1619C62.7035 11.2216 62.5941 11.2763 62.4251 11.326C62.2594 11.3724 62.0671 11.4138 61.8484 11.4503C61.6329 11.4834 61.4225 11.5133 61.217 11.5398C61.0148 11.563 60.8507 11.5829 60.7248 11.5994C60.4199 11.6392 60.1348 11.7038 59.8697 11.7933C59.6078 11.8795 59.3957 12.0104 59.2333 12.1861C59.0742 12.3584 58.9947 12.5937 58.9947 12.892C58.9947 13.2997 59.1455 13.608 59.4471 13.8168C59.752 14.0223 60.1381 14.125 60.6055 14.125ZM67.2413 4.81818V15H66.068V4.81818H67.2413ZM70.5636 4.81818V15H69.3903V4.81818H70.5636ZM78.8972 15.179C78.4133 15.179 77.9741 15.0878 77.5797 14.9055C77.1853 14.7199 76.8721 14.4531 76.6401 14.1051C76.4081 13.7538 76.2921 13.3295 76.2921 12.8324C76.2921 12.3949 76.3783 12.0402 76.5506 11.7685C76.723 11.4934 76.9533 11.2779 77.2417 11.1222C77.53 10.9664 77.8482 10.8504 78.1962 10.7741C78.5475 10.6946 78.9005 10.6316 79.2551 10.5852C79.7192 10.5256 80.0953 10.4808 80.3837 10.451C80.6754 10.4179 80.8875 10.3632 81.0201 10.2869C81.156 10.2107 81.2239 10.0781 81.2239 9.8892V9.84943C81.2239 9.3589 81.0897 8.97775 80.8212 8.70597C80.556 8.43419 80.1534 8.2983 79.6131 8.2983C79.053 8.2983 78.6138 8.42093 78.2956 8.66619C77.9775 8.91146 77.7537 9.1733 77.6245 9.4517L76.5108 9.05398C76.7097 8.58996 76.9748 8.22869 77.3063 7.97017C77.641 7.70833 78.0056 7.52604 78.4 7.4233C78.7978 7.31723 79.1889 7.2642 79.5733 7.2642C79.8186 7.2642 80.1003 7.29403 80.4185 7.35369C80.74 7.41004 81.0499 7.5277 81.3482 7.70668C81.6498 7.88565 81.9 8.15578 82.0989 8.51705C82.2978 8.87831 82.3972 9.36222 82.3972 9.96875V15H81.2239V13.9659H81.1642C81.0847 14.1316 80.9521 14.3089 80.7665 14.4979C80.5809 14.6868 80.334 14.8475 80.0257 14.9801C79.7175 15.1127 79.3413 15.179 78.8972 15.179ZM79.0762 14.125C79.5402 14.125 79.9313 14.0339 80.2495 13.8516C80.571 13.6693 80.8129 13.4339 80.9753 13.1456C81.141 12.8572 81.2239 12.554 81.2239 12.2358V11.1619C81.1742 11.2216 81.0648 11.2763 80.8958 11.326C80.7301 11.3724 80.5378 11.4138 80.3191 11.4503C80.1036 11.4834 79.8932 11.5133 79.6877 11.5398C79.4855 11.563 79.3214 11.5829 79.1955 11.5994C78.8906 11.6392 78.6055 11.7038 78.3404 11.7933C78.0785 11.8795 77.8664 12.0104 77.704 12.1861C77.5449 12.3584 77.4654 12.5937 77.4654 12.892C77.4654 13.2997 77.6162 13.608 77.9178 13.8168C78.2227 14.0223 78.6088 14.125 79.0762 14.125ZM89.9478 9.07386L88.8938 9.37216C88.8275 9.1965 88.7298 9.0258 88.6005 8.86009C88.4746 8.69105 88.3022 8.55185 88.0835 8.44247C87.8647 8.3331 87.5846 8.27841 87.2433 8.27841C86.7759 8.27841 86.3865 8.38613 86.0749 8.60156C85.7667 8.81368 85.6126 9.08381 85.6126 9.41193C85.6126 9.7036 85.7186 9.93395 85.9308 10.103C86.1429 10.272 86.4743 10.4129 86.9251 10.5256L88.0586 10.804C88.7414 10.9697 89.2501 11.2232 89.5849 11.5646C89.9196 11.9027 90.087 12.3385 90.087 12.8722C90.087 13.3097 89.9611 13.7008 89.7092 14.0455C89.4606 14.3902 89.1126 14.6619 88.6651 14.8608C88.2177 15.0597 87.6973 15.1591 87.104 15.1591C86.3252 15.1591 85.6805 14.9901 85.1701 14.652C84.6597 14.3139 84.3365 13.8201 84.2006 13.1705L85.3143 12.892C85.4203 13.303 85.6209 13.6113 85.9158 13.8168C86.2141 14.0223 86.6036 14.125 87.0842 14.125C87.631 14.125 88.0652 14.009 88.3867 13.777C88.7115 13.5417 88.8739 13.2599 88.8739 12.9318C88.8739 12.6667 88.7811 12.4446 88.5955 12.2656C88.4099 12.0833 88.1249 11.9474 87.7404 11.858L86.4677 11.5597C85.7683 11.3939 85.2546 11.1371 84.9265 10.7891C84.6017 10.4377 84.4393 9.99858 84.4393 9.47159C84.4393 9.04072 84.5603 8.65956 84.8022 8.32812C85.0475 7.99669 85.3806 7.73651 85.8015 7.54758C86.2257 7.35866 86.7063 7.2642 87.2433 7.2642C87.9989 7.2642 88.5922 7.42992 89.0231 7.76136C89.4573 8.0928 89.7655 8.5303 89.9478 9.07386ZM95.7907 15V7.36364H96.9242V8.51705H97.0037C97.1429 8.1392 97.3948 7.83262 97.7594 7.5973C98.124 7.36198 98.535 7.24432 98.9924 7.24432C99.0785 7.24432 99.1863 7.24597 99.3155 7.24929C99.4448 7.2526 99.5426 7.25758 99.6088 7.2642V8.45739C99.5691 8.44744 99.4779 8.43253 99.3354 8.41264C99.1962 8.38944 99.0487 8.37784 98.8929 8.37784C98.5217 8.37784 98.1903 8.45573 97.8986 8.61151C97.6103 8.76397 97.3816 8.97609 97.2125 9.24787C97.0468 9.51634 96.964 9.82292 96.964 10.1676V15H95.7907ZM103.969 15.1591C103.233 15.1591 102.598 14.9967 102.065 14.6719C101.535 14.3438 101.125 13.8864 100.837 13.2997C100.552 12.7098 100.409 12.0237 100.409 11.2415C100.409 10.4593 100.552 9.76989 100.837 9.1733C101.125 8.57339 101.526 8.10606 102.04 7.77131C102.557 7.43324 103.16 7.2642 103.85 7.2642C104.247 7.2642 104.64 7.33049 105.028 7.46307C105.416 7.59564 105.769 7.81108 106.087 8.10938C106.405 8.40436 106.659 8.79545 106.847 9.28267C107.036 9.76989 107.131 10.3698 107.131 11.0824V11.5795H101.244V10.5653H105.938C105.938 10.1345 105.852 9.75 105.679 9.41193C105.51 9.07386 105.268 8.80705 104.953 8.61151C104.642 8.41596 104.274 8.31818 103.85 8.31818C103.382 8.31818 102.978 8.43419 102.637 8.66619C102.298 8.89489 102.038 9.19318 101.856 9.56108C101.674 9.92898 101.583 10.3234 101.583 10.7443V11.4205C101.583 11.9972 101.682 12.486 101.881 12.8871C102.083 13.2848 102.363 13.5881 102.721 13.7969C103.079 14.0024 103.495 14.1051 103.969 14.1051C104.277 14.1051 104.556 14.062 104.804 13.9759C105.056 13.8864 105.273 13.7538 105.455 13.5781C105.638 13.3991 105.779 13.1771 105.878 12.9119L107.012 13.2301C106.892 13.6146 106.692 13.9527 106.41 14.2443C106.128 14.5327 105.78 14.758 105.366 14.9205C104.952 15.0795 104.486 15.1591 103.969 15.1591ZM111.163 15.179C110.679 15.179 110.24 15.0878 109.845 14.9055C109.451 14.7199 109.138 14.4531 108.906 14.1051C108.674 13.7538 108.558 13.3295 108.558 12.8324C108.558 12.3949 108.644 12.0402 108.816 11.7685C108.989 11.4934 109.219 11.2779 109.507 11.1222C109.796 10.9664 110.114 10.8504 110.462 10.7741C110.813 10.6946 111.166 10.6316 111.521 10.5852C111.985 10.5256 112.361 10.4808 112.649 10.451C112.941 10.4179 113.153 10.3632 113.286 10.2869C113.422 10.2107 113.49 10.0781 113.49 9.8892V9.84943C113.49 9.3589 113.355 8.97775 113.087 8.70597C112.822 8.43419 112.419 8.2983 111.879 8.2983C111.319 8.2983 110.879 8.42093 110.561 8.66619C110.243 8.91146 110.019 9.1733 109.89 9.4517L108.776 9.05398C108.975 8.58996 109.24 8.22869 109.572 7.97017C109.907 7.70833 110.271 7.52604 110.666 7.4233C111.063 7.31723 111.454 7.2642 111.839 7.2642C112.084 7.2642 112.366 7.29403 112.684 7.35369C113.006 7.41004 113.316 7.5277 113.614 7.70668C113.915 7.88565 114.166 8.15578 114.365 8.51705C114.563 8.87831 114.663 9.36222 114.663 9.96875V15H113.49V13.9659H113.43C113.35 14.1316 113.218 14.3089 113.032 14.4979C112.847 14.6868 112.6 14.8475 112.291 14.9801C111.983 15.1127 111.607 15.179 111.163 15.179ZM111.342 14.125C111.806 14.125 112.197 14.0339 112.515 13.8516C112.837 13.6693 113.079 13.4339 113.241 13.1456C113.407 12.8572 113.49 12.554 113.49 12.2358V11.1619C113.44 11.2216 113.33 11.2763 113.161 11.326C112.996 11.3724 112.803 11.4138 112.585 11.4503C112.369 11.4834 112.159 11.5133 111.953 11.5398C111.751 11.563 111.587 11.5829 111.461 11.5994C111.156 11.6392 110.871 11.7038 110.606 11.7933C110.344 11.8795 110.132 12.0104 109.97 12.1861C109.811 12.3584 109.731 12.5937 109.731 12.892C109.731 13.2997 109.882 13.608 110.183 13.8168C110.488 14.0223 110.874 14.125 111.342 14.125ZM119.688 15.1591C119.051 15.1591 118.49 14.9983 118.002 14.6768C117.515 14.352 117.134 13.8946 116.859 13.3047C116.584 12.7114 116.446 12.0104 116.446 11.2017C116.446 10.3996 116.584 9.7036 116.859 9.11364C117.134 8.52367 117.517 8.06794 118.007 7.74645C118.498 7.42495 119.065 7.2642 119.708 7.2642C120.205 7.2642 120.598 7.34706 120.886 7.51278C121.178 7.67519 121.4 7.8608 121.552 8.0696C121.708 8.27509 121.829 8.44413 121.915 8.5767H122.015V4.81818H123.188V15H122.054V13.8267H121.915C121.829 13.9659 121.706 14.1416 121.547 14.3537C121.388 14.5625 121.161 14.7498 120.866 14.9155C120.571 15.0779 120.178 15.1591 119.688 15.1591ZM119.847 14.1051C120.318 14.1051 120.715 13.9825 121.04 13.7372C121.365 13.4886 121.612 13.1456 121.781 12.7081C121.95 12.2673 122.034 11.7585 122.034 11.1818C122.034 10.6117 121.952 10.1129 121.786 9.68537C121.62 9.2545 121.375 8.91974 121.05 8.68111C120.725 8.43916 120.324 8.31818 119.847 8.31818C119.35 8.31818 118.935 8.44579 118.604 8.70099C118.276 8.95289 118.029 9.29593 117.863 9.73011C117.701 10.161 117.62 10.6449 117.62 11.1818C117.62 11.7254 117.703 12.2192 117.868 12.6634C118.037 13.1042 118.286 13.4555 118.614 13.7173C118.945 13.9759 119.356 14.1051 119.847 14.1051Z" fill="#1A1F36"/>
<path d="M14 10.0001C14 6.68762 11.3125 4.00012 8 4.00012C4.6875 4.00012 2 6.68762 2 10.0001C2 13.3126 4.6875 16.0001 8 16.0001C11.3125 16.0001 14 13.3126 14 10.0001Z" stroke="#1A1F36" stroke-width="1.5" stroke-miterlimit="10"/>
<path d="M11 7.50037L6.8 12.5004L5 10.5004" stroke="#1A1F36" stroke-width="1.5" stroke-linecap="round" stroke-linejoin="round"/>
</svg>
