<svg width="94" height="68" viewBox="0 0 94 68" fill="none" xmlns="http://www.w3.org/2000/svg">
<g clip-path="url(#clip0_51_678)">
<path d="M13.3927 65.041L10.664 54.8796L7.89879 65.041C7.68421 65.8105 7.5135 66.3633 7.38664 66.6993C7.24797 67.0528 7.01981 67.3638 6.7247 67.6017C6.36893 67.8848 5.92314 68.0292 5.46964 68.0081C5.10755 68.0227 4.748 67.9414 4.42713 67.7724C4.15228 67.6102 3.92417 67.3791 3.76518 67.1017C3.58609 66.7781 3.44998 66.4324 3.36033 66.0734C3.25236 65.675 3.15655 65.3065 3.07288 64.9678L0.253038 53.5484C0.11043 53.0553 0.0255123 52.5472 1.29952e-06 52.0344C-0.00423543 51.8276 0.0344279 51.6221 0.113536 51.4311C0.192643 51.2401 0.310465 51.0676 0.459515 50.9248C0.609999 50.7766 0.78861 50.6603 0.984738 50.5828C1.18087 50.5053 1.39051 50.4682 1.60122 50.4736C2.22267 50.4736 2.63968 50.6768 2.85628 51.0833C3.12204 51.6361 3.31137 52.2228 3.41903 52.827L5.62348 62.7161L8.09919 53.457C8.23404 52.9064 8.39893 52.3636 8.59312 51.8312C8.74508 51.455 8.99121 51.1246 9.30769 50.8719C9.69603 50.5826 10.173 50.4388 10.6559 50.4655C11.1395 50.4356 11.6172 50.5853 11.998 50.8862C12.2943 51.1338 12.5246 51.4516 12.668 51.8109C12.7895 52.1421 12.9555 52.6888 13.1619 53.4529L15.6619 62.712L17.8725 52.827C17.9533 52.4155 18.0554 52.0085 18.1781 51.6076C18.2774 51.3089 18.4476 51.039 18.6741 50.8211C18.8119 50.6996 18.9722 50.6065 19.1459 50.5472C19.3196 50.4879 19.5032 50.4636 19.6862 50.4756C19.8954 50.4711 20.1034 50.5081 20.2983 50.5845C20.4931 50.6609 20.6711 50.7751 20.8219 50.9207C20.9734 51.0633 21.0932 51.2363 21.1734 51.4286C21.2537 51.6209 21.2925 51.828 21.2875 52.0364C21.2563 52.5486 21.1715 53.0561 21.0344 53.5505L18.2287 64.9597C18.0385 65.7306 17.8792 66.2956 17.751 66.6546C17.6212 67.0189 17.3994 67.3431 17.1073 67.5956C16.7446 67.8864 16.2871 68.0313 15.8239 68.002C15.3718 68.025 14.9263 67.886 14.5668 67.6098C14.2751 67.3776 14.049 67.0728 13.9109 66.7257C13.7895 66.3965 13.6154 65.8336 13.3927 65.041Z" fill="#235564"/>
<path d="M31.0607 62.3584H24.9109C24.9031 63.0158 25.0509 63.6656 25.3421 64.2545C25.5802 64.7565 25.9568 65.1792 26.4273 65.4725C26.8978 65.7658 27.4422 65.9172 27.996 65.9088C28.3446 65.9125 28.6921 65.8673 29.0283 65.7746C29.3478 65.6852 29.6521 65.5482 29.9312 65.3682C30.216 65.1858 30.4867 64.982 30.7409 64.7585C30.9879 64.5431 31.3063 64.2498 31.6964 63.8785C31.8955 63.7299 32.1411 63.6578 32.3887 63.6753C32.6737 63.6628 32.9532 63.7578 33.1721 63.9415C33.2739 64.0371 33.3536 64.154 33.4054 64.284C33.4571 64.4139 33.4798 64.5537 33.4717 64.6935C33.4488 65.0502 33.3337 65.3949 33.1377 65.6933C32.8731 66.1206 32.5295 66.4932 32.1255 66.7908C31.6137 67.1745 31.0418 67.4698 30.4332 67.6647C29.6758 67.9074 28.884 68.0241 28.0891 68.0101C26.0648 68.0101 24.4946 67.4323 23.3785 66.2766C22.2625 65.1209 21.7018 63.5507 21.6964 61.5658C21.6857 60.6834 21.8226 59.8055 22.1012 58.9685C22.358 58.2069 22.7719 57.5082 23.3158 56.918C23.8601 56.3363 24.5296 55.8872 25.2733 55.6051C26.0967 55.2915 26.9716 55.1363 27.8522 55.1479C28.957 55.1167 30.0497 55.3864 31.0142 55.9283C31.8474 56.402 32.5313 57.1012 32.9879 57.9463C33.4132 58.718 33.6394 59.5844 33.6457 60.4663C33.6457 61.2616 33.419 61.7765 32.9656 62.0109C32.5121 62.2453 31.8772 62.3611 31.0607 62.3584ZM24.9109 60.5659H30.6113C30.5344 59.482 30.2443 58.6745 29.7409 58.1434C29.4864 57.8741 29.1776 57.6623 28.8352 57.5221C28.4928 57.382 28.1246 57.3167 27.7551 57.3305C27.3943 57.3193 27.0353 57.3861 26.7024 57.5263C26.3696 57.6666 26.0706 57.877 25.8259 58.1434C25.3225 58.6962 25.0175 59.5037 24.9109 60.5659Z" fill="#235564"/>
<path d="M35.8279 66.0815V52.3921C35.8279 51.7594 35.9683 51.2818 36.249 50.9594C36.3893 50.7979 36.5641 50.6704 36.7604 50.5863C36.9567 50.5022 37.1694 50.4637 37.3826 50.4736C37.5978 50.4649 37.8122 50.5033 38.0111 50.5861C38.21 50.6689 38.3886 50.7942 38.5344 50.9533C38.8259 51.273 38.9717 51.7526 38.9717 52.3921V66.0815C38.9717 66.721 38.8239 67.2006 38.5283 67.5204C38.383 67.6784 38.2054 67.8031 38.0077 67.8859C37.8099 67.9687 37.5967 68.0076 37.3826 68C37.1703 68.0072 36.9591 67.9663 36.7646 67.8805C36.5701 67.7947 36.3974 67.666 36.2591 67.5041C35.9717 67.1729 35.8279 66.6973 35.8279 66.0815Z" fill="#235564"/>
<path d="M41.747 66.0815V52.3921C41.747 51.7601 41.8887 51.2825 42.168 50.9594C42.3083 50.7979 42.4832 50.6704 42.6795 50.5863C42.8758 50.5022 43.0884 50.4637 43.3016 50.4736C43.5168 50.4646 43.7314 50.5029 43.9303 50.5857C44.1292 50.6685 44.3078 50.794 44.4534 50.9533C44.7476 51.273 44.8941 51.7526 44.8927 52.3921V66.0815C44.8927 66.721 44.7449 67.2006 44.4494 67.5204C44.3038 67.6786 44.1258 67.8034 43.9277 67.8861C43.7296 67.9689 43.5161 68.0078 43.3016 68C43.0896 68.0069 42.8788 67.9659 42.6847 67.8801C42.4906 67.7942 42.3182 67.6658 42.1802 67.5041C41.8927 67.1729 41.747 66.6973 41.747 66.0815Z" fill="#235564"/>
<path d="M54.4393 61.1106H51.3077V65.9088C51.3077 66.5943 51.1464 67.1146 50.8239 67.4696C50.6644 67.6364 50.473 67.7692 50.2612 67.8598C50.0493 67.9505 49.8214 67.9973 49.5911 67.9973C49.3608 67.9973 49.1329 67.9505 48.921 67.8598C48.7092 67.7692 48.5178 67.6364 48.3583 67.4696C48.0439 67.1187 47.8866 66.6038 47.8866 65.925V52.8656C47.8866 52.1117 48.0587 51.5711 48.4049 51.2398C48.751 50.9085 49.2996 50.7541 50.0506 50.7541H54.4393C55.7375 50.7541 56.7355 50.8544 57.4332 51.0549C58.096 51.2319 58.7091 51.5601 59.2247 52.0141C59.7292 52.464 60.1217 53.0264 60.3705 53.6562C60.64 54.3522 60.7727 55.0941 60.7611 55.8409C60.7611 57.5683 60.2314 58.8771 59.1721 59.7672C58.1127 60.6574 56.5351 61.1052 54.4393 61.1106ZM53.6093 53.3412H51.3077V58.5174H53.6093C54.2929 58.5346 54.9753 58.449 55.6336 58.2634C56.1246 58.1279 56.5585 57.8362 56.8705 57.4322C57.173 56.9867 57.3229 56.4546 57.2976 55.9161C57.3256 55.2437 57.0902 54.5871 56.6417 54.087C56.1491 53.5898 55.1383 53.3412 53.6093 53.3412Z" fill="#4AB7C3"/>
<path d="M69.9757 66.2197C69.3022 66.7608 68.5603 67.2098 67.7692 67.5549C67.0103 67.8609 66.1983 68.0122 65.3806 68C64.6437 68.0165 63.914 67.8518 63.2551 67.5204C62.6708 67.2285 62.1799 66.7778 61.8381 66.2197C61.5115 65.6841 61.3404 65.0675 61.3441 64.4395C61.323 63.6269 61.6128 62.8371 62.1538 62.2324C62.7529 61.5952 63.5398 61.1678 64.3988 61.013C64.6012 60.9663 65.0931 60.8627 65.8846 60.7001C66.6761 60.5375 67.3522 60.3891 67.9089 60.255C68.4656 60.1209 69.085 59.9563 69.747 59.7632C69.7092 58.9313 69.5418 58.3216 69.2449 57.9341C68.948 57.5467 68.336 57.3522 67.4089 57.3509C66.6086 57.3509 66.0074 57.4627 65.6053 57.6862C65.1816 57.9295 64.8253 58.2753 64.5688 58.6922C64.2814 59.1393 64.0769 59.434 63.9615 59.5762C63.8461 59.7185 63.587 59.7795 63.1943 59.7795C62.8577 59.7859 62.5309 59.6648 62.2793 59.4401C62.1543 59.3324 62.0547 59.1981 61.9879 59.0469C61.921 58.8957 61.8885 58.7315 61.8927 58.5662C61.9033 57.9735 62.1106 57.4014 62.4818 56.9404C62.8718 56.416 63.4791 55.9838 64.3036 55.6438C65.2951 55.278 66.347 55.1055 67.4028 55.1357C68.7834 55.1357 69.8698 55.2996 70.6619 55.6275C71.4 55.9077 72.0004 56.4653 72.336 57.1822C72.664 57.8908 72.8273 58.8311 72.8259 60.003C72.8259 60.7428 72.8259 61.3714 72.8259 61.889C72.8259 62.4065 72.8273 62.983 72.83 63.6184C72.8351 64.2481 72.9341 64.8736 73.1235 65.4739C73.2654 65.8767 73.3638 66.2937 73.417 66.7177C73.411 66.8897 73.367 67.0582 73.2883 67.2111C73.2095 67.364 73.0979 67.4974 72.9615 67.6017C72.6812 67.8624 72.3133 68.0075 71.9312 68.0081C71.5654 67.9884 71.2222 67.8249 70.9757 67.5529C70.5883 67.1522 70.2523 66.7043 69.9757 66.2197ZM69.7733 61.6532C69.1155 61.8761 68.4441 62.056 67.7632 62.1918C66.8826 62.3808 66.2753 62.519 65.9413 62.5982C65.5842 62.6983 65.2538 62.8767 64.9737 63.1205C64.8198 63.253 64.6983 63.4192 64.6186 63.6063C64.539 63.7934 64.5032 63.9965 64.5142 64.1997C64.5117 64.43 64.5588 64.6581 64.652 64.8685C64.7453 65.0789 64.8826 65.2667 65.0547 65.419C65.4445 65.7641 65.9524 65.9441 66.4717 65.921C67.0696 65.928 67.6602 65.7885 68.1923 65.5145C68.6731 65.2838 69.0757 64.9163 69.3502 64.4578C69.6336 63.9781 69.776 63.1916 69.7773 62.0983L69.7733 61.6532Z" fill="#4AB7C3"/>
<path d="M75.1579 55.4446H75.5041V53.5485C75.5041 53.0404 75.5162 52.64 75.5445 52.3515C75.5629 52.0891 75.6397 51.8342 75.7692 51.6056C75.896 51.3858 76.0792 51.204 76.2996 51.0793C76.5337 50.9429 76.8002 50.8727 77.0709 50.876C77.4761 50.8786 77.8642 51.0406 78.1518 51.3272C78.3628 51.5209 78.505 51.7785 78.5567 52.0609C78.6242 52.4677 78.6534 52.8801 78.6437 53.2924V55.4426H79.7956C80.1608 55.4179 80.522 55.5318 80.8077 55.7616C80.9221 55.863 81.0129 55.9883 81.0738 56.1288C81.1346 56.2693 81.164 56.4214 81.1599 56.5745C81.174 56.756 81.134 56.9375 81.045 57.0961C80.9559 57.2546 80.8219 57.3829 80.6599 57.4647C80.2065 57.6564 79.716 57.7432 79.2247 57.7187H78.6377V63.5229C78.6318 63.9029 78.6487 64.283 78.6883 64.661C78.7125 64.9005 78.8093 65.1267 78.9656 65.3093C79.0633 65.3997 79.1788 65.4686 79.3047 65.5113C79.4306 65.554 79.564 65.5696 79.6964 65.5572C79.9486 65.5489 80.1994 65.5162 80.4453 65.4597C80.6873 65.4034 80.934 65.37 81.1822 65.3601C81.3113 65.362 81.4387 65.3902 81.5566 65.443C81.6746 65.4957 81.7806 65.5719 81.8684 65.6669C81.9679 65.7659 82.0463 65.8841 82.0989 66.0144C82.1514 66.1447 82.177 66.2844 82.1741 66.425C82.1741 66.9331 81.8968 67.3232 81.3441 67.5915C80.7915 67.8598 79.996 67.998 78.9595 67.998C77.9784 67.998 77.2362 67.8327 76.7328 67.5021C76.2376 67.188 75.8806 66.6958 75.7348 66.1262C75.5589 65.3568 75.48 64.5682 75.5 63.779V57.7228H75.0951C74.7168 57.7523 74.3414 57.6369 74.0445 57.3996C73.93 57.2982 73.8387 57.173 73.7772 57.0326C73.7157 56.8922 73.6853 56.7401 73.6883 56.5867C73.6847 56.4315 73.7166 56.2775 73.7815 56.1366C73.8464 55.9957 73.9426 55.8716 74.0628 55.7738C74.3763 55.5351 74.7652 55.4181 75.1579 55.4446Z" fill="#4AB7C3"/>
<path d="M85.9373 52.3921V57.0663C86.2825 56.6551 86.6752 56.2867 87.1073 55.9689C87.4907 55.6963 87.917 55.4902 88.3684 55.3592C88.8516 55.2212 89.3519 55.1527 89.8543 55.156C90.5943 55.144 91.3252 55.3216 91.9777 55.6722C92.4766 55.9623 92.9058 56.359 93.2349 56.8342C93.5641 57.3094 93.7852 57.8514 93.8826 58.4218C93.9646 58.9557 94.0032 59.4953 93.998 60.0355V66.0815C93.998 66.7129 93.8536 67.1871 93.5648 67.5041C93.4214 67.665 93.2443 67.792 93.0462 67.876C92.8481 67.96 92.6339 67.9988 92.419 67.9898C91.3826 67.9898 90.8644 67.3503 90.8644 66.0713V60.7529C90.8644 59.7421 90.7146 58.9658 90.415 58.4239C90.1154 57.8819 89.5472 57.611 88.7105 57.611C88.1679 57.6056 87.6377 57.7736 87.1964 58.0906C86.738 58.419 86.386 58.8756 86.1842 59.4034C86.0142 59.8722 85.9292 60.7082 85.9292 61.9113V66.0856C85.9292 66.7101 85.7895 67.1843 85.5101 67.5082C85.3642 67.6727 85.1833 67.8022 84.9808 67.887C84.7782 67.9718 84.5592 68.0097 84.3401 67.9979C83.3036 67.9979 82.7854 67.3584 82.7854 66.0795V52.3921C82.7854 51.7512 82.9204 51.2716 83.1903 50.9532C83.3325 50.7912 83.5096 50.6639 83.7081 50.5808C83.9066 50.4977 84.1213 50.461 84.336 50.4736C84.5548 50.4616 84.7735 50.499 84.976 50.5831C85.1785 50.6671 85.3596 50.7957 85.5061 50.9593C85.7935 51.2818 85.9373 51.7594 85.9373 52.3921Z" fill="#4AB7C3"/>
<path d="M34.2065 28.5108H34.1883C32.8522 28.5332 31.5142 28.4702 30.1822 28.5352C29.2793 28.5799 29.0486 28.2202 29.0607 27.3707C29.1032 24.6454 29.0769 21.9181 29.0769 19.1928C29.0769 16.0895 29.0769 16.0895 32.2247 16.0895C33.1579 16.0895 33.7834 16.0895 34.2065 15.992V12.0595C34.1249 12.0553 34.0431 12.0553 33.9615 12.0595C32.0506 12.1205 30.1336 12.0595 28.2206 12.0839C26.253 12.1042 25.0931 13.285 25.081 15.2705C25.0648 17.5955 25.081 19.9184 25.081 22.2433C25.081 24.7003 25.0547 27.1594 25.0911 29.6164C25.1174 31.3458 26.2186 32.4616 27.9251 32.5205C29.2591 32.5672 30.5972 32.5368 31.9312 32.5368C33.0364 32.5368 33.753 32.5368 34.2085 32.4006L34.2065 28.5108Z" fill="#4AB7C3"/>
<path d="M69.5344 22.3083C69.5344 19.896 69.5526 17.4817 69.5243 15.0693C69.5061 13.3378 68.3097 12.1286 66.5952 12.0839C65.1781 12.0453 63.7449 12.0839 62.3219 12.0839C61.4332 12.0839 60.8259 12.0839 60.4069 12.1713V16.1139C60.4636 16.1139 60.5182 16.1139 60.581 16.1139C61.6923 16.053 62.8077 16.183 63.917 16.0774C65.1721 15.9554 65.6255 16.3131 65.5668 17.6605C65.4534 20.2476 65.5344 22.8428 65.5344 25.436C65.5344 28.5291 65.5344 28.5291 62.498 28.5291C61.5283 28.5291 60.8624 28.5291 60.4089 28.6226V32.551H60.4818C62.4838 32.5225 64.4879 32.5632 66.4899 32.5327C68.4373 32.5022 69.5263 31.3946 69.5364 29.4233C69.5526 27.0456 69.5344 24.678 69.5344 22.3083Z" fill="#4AB7C4"/>
<path d="M57.4271 35.5709H53.4818C53.4818 35.6055 53.4818 35.636 53.4818 35.6746C53.5304 36.7903 53.4251 37.9101 53.5182 39.0258C53.6174 40.2126 53.2915 40.6719 52.0061 40.6191C49.4251 40.5134 46.8381 40.5886 44.253 40.5886C41.1113 40.5886 41.1113 40.5886 41.1113 37.463C41.132 36.8314 41.1077 36.1991 41.0385 35.5709H37.1032C37.1032 35.6034 37.1032 35.6339 37.1032 35.6685C37.1458 37.591 37.1032 39.5156 37.1174 41.4401C37.1356 43.4724 38.2267 44.582 40.2652 44.6064C42.6255 44.6349 44.9879 44.6064 47.3502 44.6064C49.7551 44.6064 52.1619 44.6369 54.5668 44.5942C56.3401 44.5617 57.4514 43.4054 57.4939 41.619C57.5283 40.233 57.4939 38.8449 57.4939 37.4589C57.5167 36.8288 57.4944 36.1978 57.4271 35.5709Z" fill="#48B6C3"/>
<path d="M57.498 3.44265C57.498 1.13195 56.3624 0.00607203 54.0567 0.00200748C49.556 -0.00612163 45.0567 -0.00612163 40.5587 0.00200748C38.247 0.00200748 37.1174 1.12992 37.1174 3.45688C37.1093 8.06337 37.1093 12.6699 37.1174 17.2764C37.1174 21.9709 37.1417 26.6675 37.0992 31.3621C37.0992 32.2502 37.2389 32.5814 38.2308 32.5814C44.2875 32.5313 50.3455 32.5313 56.4049 32.5814C57.417 32.5814 57.5304 32.2299 57.5263 31.3621C57.4899 22.0502 57.5061 12.7485 57.498 3.44265ZM52.5142 28.6226C49.0391 28.5765 45.5634 28.5765 42.0871 28.6226C41.2126 28.6348 41.0648 28.2994 41.0749 27.5231C41.0992 20.0077 41.0992 12.4924 41.0749 4.97702C41.0749 4.23118 41.2773 3.97714 42.0385 3.98527C45.558 4.01914 49.0783 4.01914 52.5992 3.98527C53.3745 3.98527 53.5587 4.24947 53.5526 4.98515C53.5202 8.78754 53.5364 12.5899 53.5364 16.3923C53.5364 20.1053 53.5182 23.8183 53.5526 27.5312C53.5526 28.3279 53.3765 28.6429 52.5142 28.6266V28.6226Z" fill="#235564"/>
<path d="M47.3077 27.6268C47.9874 27.6268 48.5385 27.0736 48.5385 26.3911C48.5385 25.7087 47.9874 25.1555 47.3077 25.1555C46.628 25.1555 46.0769 25.7087 46.0769 26.3911C46.0769 27.0736 46.628 27.6268 47.3077 27.6268Z" fill="#48B6C3"/>
</g>
<defs>
<clipPath id="clip0_51_678">
<rect width="94" height="68" fill="white"/>
</clipPath>
</defs>
</svg>
